G04 #@! TF.GenerationSoftware,KiCad,Pcbnew,10.0.6*
G04 #@! TF.CreationDate,2026-09-07T13:54:08-07:00*
G04 #@! TF.ProjectId,wpc_power_driver_cost,7770635f-706f-4776-9572-5f6472697665,A*
G04 #@! TF.SameCoordinates,Original*
G04 #@! TF.FileFunction,Soldermask,Top*
G04 #@! TF.FilePolarity,Negative*
%FSLAX46Y46*%
G04 Gerber Fmt 4.6, Leading zero omitted, Abs format (unit mm)*
G04 Created by KiCad (PCBNEW 10.0.6) date 2026-09-07 13:54:08*
%MOMM*%
%LPD*%
G01*
G04 APERTURE LIST*
G04 Aperture macros list*
%AMRoundRect*
0 Rectangle with rounded corners*
0 $1 Rounding radius*
0 $2 $3 $4 $5 $6 $7 $8 $9 X,Y pos of 4 corners*
0 Add a 4 corners polygon primitive as box body*
4,1,4,$2,$3,$4,$5,$6,$7,$8,$9,$2,$3,0*
0 Add four circle primitives for the rounded corners*
1,1,$1+$1,$2,$3*
1,1,$1+$1,$4,$5*
1,1,$1+$1,$6,$7*
1,1,$1+$1,$8,$9*
0 Add four rect primitives between the rounded corners*
20,1,$1+$1,$2,$3,$4,$5,0*
20,1,$1+$1,$4,$5,$6,$7,0*
20,1,$1+$1,$6,$7,$8,$9,0*
20,1,$1+$1,$8,$9,$2,$3,0*%
G04 Aperture macros list end*
%ADD10RoundRect,0.250000X1.330000X1.800000X-1.330000X1.800000X-1.330000X-1.800000X1.330000X-1.800000X0*%
%ADD11O,3.160000X4.100000*%
%ADD12C,2.000000*%
%ADD13RoundRect,0.250000X1.000000X-1.400000X1.000000X1.400000X-1.000000X1.400000X-1.000000X-1.400000X0*%
%ADD14RoundRect,0.250000X-0.262500X-0.450000X0.262500X-0.450000X0.262500X0.450000X-0.262500X0.450000X0*%
%ADD15RoundRect,0.150000X-0.150000X0.587500X-0.150000X-0.587500X0.150000X-0.587500X0.150000X0.587500X0*%
%ADD16RoundRect,0.250000X1.800000X-1.330000X1.800000X1.330000X-1.800000X1.330000X-1.800000X-1.330000X0*%
%ADD17O,4.100000X3.160000*%
%ADD18RoundRect,0.250000X-0.450000X0.262500X-0.450000X-0.262500X0.450000X-0.262500X0.450000X0.262500X0*%
%ADD19RoundRect,0.150000X-0.825000X-0.150000X0.825000X-0.150000X0.825000X0.150000X-0.825000X0.150000X0*%
%ADD20RoundRect,0.675000X-0.675000X-0.675000X0.675000X-0.675000X0.675000X0.675000X-0.675000X0.675000X0*%
%ADD21C,2.700000*%
%ADD22RoundRect,0.250000X-0.475000X0.250000X-0.475000X-0.250000X0.475000X-0.250000X0.475000X0.250000X0*%
%ADD23RoundRect,0.250000X-0.325000X-1.100000X0.325000X-1.100000X0.325000X1.100000X-0.325000X1.100000X0*%
%ADD24RoundRect,0.250000X-1.750000X1.750000X-1.750000X-1.750000X1.750000X-1.750000X1.750000X1.750000X0*%
%ADD25C,4.000000*%
%ADD26RoundRect,0.250000X-1.425000X0.362500X-1.425000X-0.362500X1.425000X-0.362500X1.425000X0.362500X0*%
%ADD27RoundRect,0.150000X-0.875000X-0.150000X0.875000X-0.150000X0.875000X0.150000X-0.875000X0.150000X0*%
%ADD28RoundRect,0.225000X-0.225000X-0.375000X0.225000X-0.375000X0.225000X0.375000X-0.225000X0.375000X0*%
%ADD29RoundRect,0.250000X-0.850000X-0.350000X0.850000X-0.350000X0.850000X0.350000X-0.850000X0.350000X0*%
%ADD30RoundRect,0.249997X-2.950003X-2.650003X2.950003X-2.650003X2.950003X2.650003X-2.950003X2.650003X0*%
%ADD31RoundRect,0.250000X0.620000X0.845000X-0.620000X0.845000X-0.620000X-0.845000X0.620000X-0.845000X0*%
%ADD32O,1.740000X2.190000*%
%ADD33RoundRect,0.675000X-0.675000X0.675000X-0.675000X-0.675000X0.675000X-0.675000X0.675000X0.675000X0*%
%ADD34C,4.300000*%
%ADD35RoundRect,0.250002X-5.149998X4.449998X-5.149998X-4.449998X5.149998X-4.449998X5.149998X4.449998X0*%
%ADD36RoundRect,0.250000X-0.300000X2.050000X-0.300000X-2.050000X0.300000X-2.050000X0.300000X2.050000X0*%
%ADD37RoundRect,0.243750X-0.456250X0.243750X-0.456250X-0.243750X0.456250X-0.243750X0.456250X0.243750X0*%
%ADD38R,2.000000X1.905000*%
%ADD39O,2.000000X1.905000*%
%ADD40R,5.000000X3.100000*%
%ADD41RoundRect,0.250000X-1.000000X-0.650000X1.000000X-0.650000X1.000000X0.650000X-1.000000X0.650000X0*%
%ADD42RoundRect,0.250000X-0.750000X0.750000X-0.750000X-0.750000X0.750000X-0.750000X0.750000X0.750000X0*%
%ADD43RoundRect,0.250000X-0.362500X-1.425000X0.362500X-1.425000X0.362500X1.425000X-0.362500X1.425000X0*%
%ADD44RoundRect,0.250000X-1.100000X0.325000X-1.100000X-0.325000X1.100000X-0.325000X1.100000X0.325000X0*%
%ADD45RoundRect,0.250000X-1.330000X-1.800000X1.330000X-1.800000X1.330000X1.800000X-1.330000X1.800000X0*%
%ADD46RoundRect,0.250000X-1.800000X1.330000X-1.800000X-1.330000X1.800000X-1.330000X1.800000X1.330000X0*%
%ADD47RoundRect,0.250000X0.475000X-0.250000X0.475000X0.250000X-0.475000X0.250000X-0.475000X-0.250000X0*%
%ADD48RoundRect,0.150000X0.875000X0.150000X-0.875000X0.150000X-0.875000X-0.150000X0.875000X-0.150000X0*%
%ADD49RoundRect,0.250002X5.149998X-4.449998X5.149998X4.449998X-5.149998X4.449998X-5.149998X-4.449998X0*%
%ADD50RoundRect,0.250000X0.300000X-2.050000X0.300000X2.050000X-0.300000X2.050000X-0.300000X-2.050000X0*%
%ADD51RoundRect,0.250002X-4.449998X-5.149998X4.449998X-5.149998X4.449998X5.149998X-4.449998X5.149998X0*%
%ADD52RoundRect,0.250000X-2.050000X-0.300000X2.050000X-0.300000X2.050000X0.300000X-2.050000X0.300000X0*%
%ADD53R,2.000000X2.000000*%
%ADD54R,1.600000X1.600000*%
%ADD55C,1.600000*%
%ADD56RoundRect,0.250000X-0.350000X0.850000X-0.350000X-0.850000X0.350000X-0.850000X0.350000X0.850000X0*%
%ADD57RoundRect,0.249997X-2.650003X2.950003X-2.650003X-2.950003X2.650003X-2.950003X2.650003X2.950003X0*%
%ADD58RoundRect,0.250002X4.449998X5.149998X-4.449998X5.149998X-4.449998X-5.149998X4.449998X-5.149998X0*%
%ADD59RoundRect,0.250000X2.050000X0.300000X-2.050000X0.300000X-2.050000X-0.300000X2.050000X-0.300000X0*%
%ADD60RoundRect,0.250000X0.600000X0.600000X-0.600000X0.600000X-0.600000X-0.600000X0.600000X-0.600000X0*%
%ADD61C,1.700000*%
%ADD62R,3.100000X2.600000*%
%ADD63R,0.600000X1.550000*%
%ADD64R,2.800000X2.800000*%
%ADD65C,2.800000*%
%ADD66RoundRect,0.250000X-1.750000X-1.750000X1.750000X-1.750000X1.750000X1.750000X-1.750000X1.750000X0*%
%ADD67RoundRect,0.250000X-1.400000X-1.000000X1.400000X-1.000000X1.400000X1.000000X-1.400000X1.000000X0*%
%ADD68RoundRect,0.250000X-0.620000X-0.845000X0.620000X-0.845000X0.620000X0.845000X-0.620000X0.845000X0*%
%ADD69C,5.500000*%
G04 APERTURE END LIST*
D10*
G04 #@! TO.C,J122*
X144349000Y-265300000D03*
D11*
X140389000Y-265300000D03*
X136429000Y-265300000D03*
X132469000Y-265300000D03*
X128509000Y-265300000D03*
X124549000Y-265300000D03*
X120589000Y-265300000D03*
X116629000Y-265300000D03*
X112669000Y-265300000D03*
G04 #@! TD*
D12*
G04 #@! TO.C,TP3*
X65638000Y-93469000D03*
G04 #@! TD*
D13*
G04 #@! TO.C,D5*
X159982000Y-156209000D03*
X166782000Y-156209000D03*
G04 #@! TD*
D14*
G04 #@! TO.C,R82*
X243195500Y-216130000D03*
X245020500Y-216130000D03*
G04 #@! TD*
D15*
G04 #@! TO.C,Q11*
X61139000Y-157588500D03*
X59239000Y-157588500D03*
X60189000Y-159463500D03*
G04 #@! TD*
D14*
G04 #@! TO.C,R171*
X370788500Y-221570000D03*
X372613500Y-221570000D03*
G04 #@! TD*
D16*
G04 #@! TO.C,J115*
X7610000Y-245602000D03*
D17*
X7610000Y-241642000D03*
X7610000Y-237682000D03*
X7610000Y-233722000D03*
X7610000Y-229762000D03*
X7610000Y-225802000D03*
X7610000Y-221842000D03*
X7610000Y-217882000D03*
X7610000Y-213922000D03*
X7610000Y-209962000D03*
X7610000Y-206002000D03*
X7610000Y-202042000D03*
G04 #@! TD*
D18*
G04 #@! TO.C,R307*
X344914000Y-208658500D03*
X344914000Y-210483500D03*
G04 #@! TD*
D19*
G04 #@! TO.C,U12*
X372980000Y-145824000D03*
X372980000Y-147094000D03*
X372980000Y-148364000D03*
X372980000Y-149634000D03*
X372980000Y-150904000D03*
X372980000Y-152174000D03*
X372980000Y-153444000D03*
X377930000Y-153444000D03*
X377930000Y-152174000D03*
X377930000Y-150904000D03*
X377930000Y-149634000D03*
X377930000Y-148364000D03*
X377930000Y-147094000D03*
X377930000Y-145824000D03*
G04 #@! TD*
D20*
G04 #@! TO.C,F114*
X389396000Y-91373000D03*
X396156000Y-91373000D03*
D21*
X405746000Y-91373000D03*
X412506000Y-91373000D03*
G04 #@! TD*
D10*
G04 #@! TO.C,J116*
X27987000Y-247713000D03*
D11*
X24027000Y-247713000D03*
X20067000Y-247713000D03*
X16107000Y-247713000D03*
G04 #@! TD*
D22*
G04 #@! TO.C,B15*
X350582000Y-160699000D03*
X350582000Y-162599000D03*
G04 #@! TD*
D23*
G04 #@! TO.C,C34*
X270633000Y-56950000D03*
X273583000Y-56950000D03*
G04 #@! TD*
D14*
G04 #@! TO.C,R74*
X243195500Y-163318000D03*
X245020500Y-163318000D03*
G04 #@! TD*
G04 #@! TO.C,R158*
X349232500Y-225486000D03*
X351057500Y-225486000D03*
G04 #@! TD*
D22*
G04 #@! TO.C,B9*
X345318000Y-121020000D03*
X345318000Y-122920000D03*
G04 #@! TD*
D24*
G04 #@! TO.C,C30*
X16600000Y-57000000D03*
D25*
X16600000Y-67000000D03*
G04 #@! TD*
D14*
G04 #@! TO.C,R47*
X196000500Y-195165000D03*
X197825500Y-195165000D03*
G04 #@! TD*
G04 #@! TO.C,R21*
X139583500Y-151938000D03*
X141408500Y-151938000D03*
G04 #@! TD*
D18*
G04 #@! TO.C,R253*
X257185000Y-120638500D03*
X257185000Y-122463500D03*
G04 #@! TD*
D26*
G04 #@! TO.C,R151*
X340389000Y-219182500D03*
X340389000Y-225107500D03*
G04 #@! TD*
D27*
G04 #@! TO.C,U3*
X185473000Y-101585000D03*
X185473000Y-102855000D03*
X185473000Y-104125000D03*
X185473000Y-105395000D03*
X185473000Y-106665000D03*
X185473000Y-107935000D03*
X185473000Y-109205000D03*
X185473000Y-110475000D03*
X185473000Y-111745000D03*
X185473000Y-113015000D03*
X194773000Y-113015000D03*
X194773000Y-111745000D03*
X194773000Y-110475000D03*
X194773000Y-109205000D03*
X194773000Y-107935000D03*
X194773000Y-106665000D03*
X194773000Y-105395000D03*
X194773000Y-104125000D03*
X194773000Y-102855000D03*
X194773000Y-101585000D03*
G04 #@! TD*
D14*
G04 #@! TO.C,R192*
X175881500Y-88439000D03*
X177706500Y-88439000D03*
G04 #@! TD*
G04 #@! TO.C,R79*
X243195500Y-193668000D03*
X245020500Y-193668000D03*
G04 #@! TD*
D19*
G04 #@! TO.C,U15*
X341382000Y-163601000D03*
X341382000Y-164871000D03*
X341382000Y-166141000D03*
X341382000Y-167411000D03*
X341382000Y-168681000D03*
X341382000Y-169951000D03*
X341382000Y-171221000D03*
X346332000Y-171221000D03*
X346332000Y-169951000D03*
X346332000Y-168681000D03*
X346332000Y-167411000D03*
X346332000Y-166141000D03*
X346332000Y-164871000D03*
X346332000Y-163601000D03*
G04 #@! TD*
D28*
G04 #@! TO.C,D33*
X350458000Y-166520000D03*
X353758000Y-166520000D03*
G04 #@! TD*
D14*
G04 #@! TO.C,R159*
X348681500Y-208652000D03*
X350506500Y-208652000D03*
G04 #@! TD*
D18*
G04 #@! TO.C,R142*
X329232000Y-171773500D03*
X329232000Y-173598500D03*
G04 #@! TD*
D14*
G04 #@! TO.C,R169*
X370818500Y-208615000D03*
X372643500Y-208615000D03*
G04 #@! TD*
D19*
G04 #@! TO.C,U11*
X351750000Y-145907000D03*
X351750000Y-147177000D03*
X351750000Y-148447000D03*
X351750000Y-149717000D03*
X351750000Y-150987000D03*
X351750000Y-152257000D03*
X351750000Y-153527000D03*
X356700000Y-153527000D03*
X356700000Y-152257000D03*
X356700000Y-150987000D03*
X356700000Y-149717000D03*
X356700000Y-148447000D03*
X356700000Y-147177000D03*
X356700000Y-145907000D03*
G04 #@! TD*
D14*
G04 #@! TO.C,R178*
X405906500Y-191880000D03*
X407731500Y-191880000D03*
G04 #@! TD*
G04 #@! TO.C,R126*
X285948500Y-140617000D03*
X287773500Y-140617000D03*
G04 #@! TD*
D29*
G04 #@! TO.C,Q52*
X261917000Y-145047000D03*
D30*
X268217000Y-147327000D03*
D29*
X261917000Y-149607000D03*
G04 #@! TD*
D12*
G04 #@! TO.C,TP2*
X47195000Y-93469000D03*
G04 #@! TD*
D28*
G04 #@! TO.C,D34*
X350262000Y-170842000D03*
X353562000Y-170842000D03*
G04 #@! TD*
D14*
G04 #@! TO.C,R185*
X427702500Y-196001000D03*
X429527500Y-196001000D03*
G04 #@! TD*
D31*
G04 #@! TO.C,J133*
X369365000Y-244779000D03*
D32*
X366825000Y-244779000D03*
X364285000Y-244779000D03*
X361745000Y-244779000D03*
X359205000Y-244779000D03*
X356665000Y-244779000D03*
X354125000Y-244779000D03*
X351585000Y-244779000D03*
X349045000Y-244779000D03*
G04 #@! TD*
D15*
G04 #@! TO.C,Q17*
X141446000Y-155930500D03*
X139546000Y-155930500D03*
X140496000Y-157805500D03*
G04 #@! TD*
D14*
G04 #@! TO.C,R167*
X370818500Y-187890000D03*
X372643500Y-187890000D03*
G04 #@! TD*
G04 #@! TO.C,R141*
X310509500Y-221229000D03*
X312334500Y-221229000D03*
G04 #@! TD*
D33*
G04 #@! TO.C,F116*
X57255000Y-29102000D03*
X57255000Y-35862000D03*
D21*
X57255000Y-45452000D03*
X57255000Y-52212000D03*
G04 #@! TD*
D10*
G04 #@! TO.C,J136*
X384373000Y-265300000D03*
D11*
X380413000Y-265300000D03*
X376453000Y-265300000D03*
G04 #@! TD*
D14*
G04 #@! TO.C,R130*
X285948500Y-191712000D03*
X287773500Y-191712000D03*
G04 #@! TD*
D34*
G04 #@! TO.C,H1*
X442602000Y-6550000D03*
G04 #@! TD*
D14*
G04 #@! TO.C,R188*
X427702500Y-216772000D03*
X429527500Y-216772000D03*
G04 #@! TD*
G04 #@! TO.C,R179*
X405906500Y-204818000D03*
X407731500Y-204818000D03*
G04 #@! TD*
D13*
G04 #@! TO.C,D28*
X283461000Y-236556000D03*
X290261000Y-236556000D03*
G04 #@! TD*
D35*
G04 #@! TO.C,D114*
X30400000Y-41500000D03*
D36*
X32940000Y-32350000D03*
X27860000Y-32350000D03*
G04 #@! TD*
D37*
G04 #@! TO.C,LED3*
X73434000Y-59418500D03*
X73434000Y-61293500D03*
G04 #@! TD*
D13*
G04 #@! TO.C,D24*
X262504000Y-235427000D03*
X269304000Y-235427000D03*
G04 #@! TD*
D29*
G04 #@! TO.C,Q48*
X240121000Y-197859000D03*
D30*
X246421000Y-200139000D03*
D29*
X240121000Y-202419000D03*
G04 #@! TD*
D14*
G04 #@! TO.C,R176*
X405906500Y-175019000D03*
X407731500Y-175019000D03*
G04 #@! TD*
D15*
G04 #@! TO.C,Q13*
X98694000Y-130782500D03*
X96794000Y-130782500D03*
X97744000Y-132657500D03*
G04 #@! TD*
D38*
G04 #@! TO.C,Q10*
X117444000Y-207450000D03*
D39*
X117444000Y-209990000D03*
X117444000Y-212530000D03*
G04 #@! TD*
D29*
G04 #@! TO.C,Q24*
X159395000Y-197859000D03*
D30*
X165695000Y-200139000D03*
D29*
X159395000Y-202419000D03*
G04 #@! TD*
G04 #@! TO.C,Q84*
X349472000Y-195974000D03*
D30*
X355772000Y-198254000D03*
D29*
X349472000Y-200534000D03*
G04 #@! TD*
D22*
G04 #@! TO.C,C35*
X282922000Y-70304000D03*
X282922000Y-72204000D03*
G04 #@! TD*
D14*
G04 #@! TO.C,R138*
X310509500Y-191712000D03*
X312334500Y-191712000D03*
G04 #@! TD*
D40*
G04 #@! TO.C,L2*
X127602000Y-71737000D03*
X127602000Y-82837000D03*
G04 #@! TD*
D14*
G04 #@! TO.C,R155*
X348651500Y-174942000D03*
X350476500Y-174942000D03*
G04 #@! TD*
D10*
G04 #@! TO.C,J127*
X268331000Y-247713000D03*
D11*
X264371000Y-247713000D03*
X260411000Y-247713000D03*
X256451000Y-247713000D03*
X252491000Y-247713000D03*
X248531000Y-247713000D03*
X244571000Y-247713000D03*
X240611000Y-247713000D03*
X236651000Y-247713000D03*
G04 #@! TD*
D41*
G04 #@! TO.C,D12*
X194913000Y-235334000D03*
X198913000Y-235334000D03*
G04 #@! TD*
D14*
G04 #@! TO.C,R22*
X162469500Y-136913000D03*
X164294500Y-136913000D03*
G04 #@! TD*
D42*
G04 #@! TO.C,C4*
X254418000Y-78923000D03*
D12*
X254418000Y-83923000D03*
G04 #@! TD*
D20*
G04 #@! TO.C,F115*
X79902000Y-92630000D03*
X86662000Y-92630000D03*
D21*
X96252000Y-92630000D03*
X103012000Y-92630000D03*
G04 #@! TD*
D13*
G04 #@! TO.C,D20*
X240708000Y-235427000D03*
X247508000Y-235427000D03*
G04 #@! TD*
D43*
G04 #@! TO.C,R19*
X137533500Y-162758000D03*
X143458500Y-162758000D03*
G04 #@! TD*
D13*
G04 #@! TO.C,D29*
X308022000Y-159827000D03*
X314822000Y-159827000D03*
G04 #@! TD*
D18*
G04 #@! TO.C,R271*
X140180000Y-87111500D03*
X140180000Y-88936500D03*
G04 #@! TD*
G04 #@! TO.C,R255*
X186770000Y-120638500D03*
X186770000Y-122463500D03*
G04 #@! TD*
D41*
G04 #@! TO.C,D10*
X194913000Y-182522000D03*
X198913000Y-182522000D03*
G04 #@! TD*
D22*
G04 #@! TO.C,B12*
X382142000Y-148684000D03*
X382142000Y-150584000D03*
G04 #@! TD*
D20*
G04 #@! TO.C,F110*
X66238000Y-233211000D03*
X72998000Y-233211000D03*
D21*
X82588000Y-233211000D03*
X89348000Y-233211000D03*
G04 #@! TD*
D34*
G04 #@! TO.C,H3*
X6550000Y-6550000D03*
G04 #@! TD*
D14*
G04 #@! TO.C,R165*
X372333500Y-174965000D03*
X374158500Y-174965000D03*
G04 #@! TD*
D22*
G04 #@! TO.C,C17*
X374293000Y-163925000D03*
X374293000Y-165825000D03*
G04 #@! TD*
G04 #@! TO.C,B6*
X98750000Y-78870000D03*
X98750000Y-80770000D03*
G04 #@! TD*
D44*
G04 #@! TO.C,C44*
X117497000Y-76496000D03*
X117497000Y-79446000D03*
G04 #@! TD*
D26*
G04 #@! TO.C,W1*
X16990000Y-201578500D03*
X16990000Y-207503500D03*
G04 #@! TD*
D20*
G04 #@! TO.C,F107*
X21390000Y-218624000D03*
X28150000Y-218624000D03*
D21*
X37740000Y-218624000D03*
X44500000Y-218624000D03*
G04 #@! TD*
D23*
G04 #@! TO.C,C40*
X141577000Y-67063000D03*
X144527000Y-67063000D03*
G04 #@! TD*
D27*
G04 #@! TO.C,U18*
X403758000Y-159702000D03*
X403758000Y-160972000D03*
X403758000Y-162242000D03*
X403758000Y-163512000D03*
X403758000Y-164782000D03*
X403758000Y-166052000D03*
X403758000Y-167322000D03*
X403758000Y-168592000D03*
X403758000Y-169862000D03*
X403758000Y-171132000D03*
X413058000Y-171132000D03*
X413058000Y-169862000D03*
X413058000Y-168592000D03*
X413058000Y-167322000D03*
X413058000Y-166052000D03*
X413058000Y-164782000D03*
X413058000Y-163512000D03*
X413058000Y-162242000D03*
X413058000Y-160972000D03*
X413058000Y-159702000D03*
G04 #@! TD*
D15*
G04 #@! TO.C,Q15*
X100370000Y-181917500D03*
X98470000Y-181917500D03*
X99420000Y-183792500D03*
G04 #@! TD*
D14*
G04 #@! TO.C,R27*
X162469500Y-167268000D03*
X164294500Y-167268000D03*
G04 #@! TD*
D29*
G04 #@! TO.C,Q98*
X428470000Y-237809000D03*
D30*
X434770000Y-240089000D03*
D29*
X428470000Y-242369000D03*
G04 #@! TD*
D14*
G04 #@! TO.C,R30*
X162469500Y-189718000D03*
X164294500Y-189718000D03*
G04 #@! TD*
G04 #@! TO.C,R63*
X219472500Y-195165000D03*
X221297500Y-195165000D03*
G04 #@! TD*
D20*
G04 #@! TO.C,F109*
X66238000Y-218624000D03*
X72998000Y-218624000D03*
D21*
X82588000Y-218624000D03*
X89348000Y-218624000D03*
G04 #@! TD*
D19*
G04 #@! TO.C,U13*
X386348000Y-145824000D03*
X386348000Y-147094000D03*
X386348000Y-148364000D03*
X386348000Y-149634000D03*
X386348000Y-150904000D03*
X386348000Y-152174000D03*
X386348000Y-153444000D03*
X391298000Y-153444000D03*
X391298000Y-152174000D03*
X391298000Y-150904000D03*
X391298000Y-149634000D03*
X391298000Y-148364000D03*
X391298000Y-147094000D03*
X391298000Y-145824000D03*
G04 #@! TD*
D13*
G04 #@! TO.C,D6*
X159982000Y-182615000D03*
X166782000Y-182615000D03*
G04 #@! TD*
D41*
G04 #@! TO.C,D35*
X84174000Y-37723000D03*
X88174000Y-37723000D03*
G04 #@! TD*
D14*
G04 #@! TO.C,R170*
X370698500Y-238447000D03*
X372523500Y-238447000D03*
G04 #@! TD*
G04 #@! TO.C,R94*
X264991500Y-189718000D03*
X266816500Y-189718000D03*
G04 #@! TD*
D45*
G04 #@! TO.C,J109*
X149154000Y-11736000D03*
D11*
X153114000Y-11736000D03*
X157074000Y-11736000D03*
X161034000Y-11736000D03*
X164994000Y-11736000D03*
X168954000Y-11736000D03*
X172914000Y-11736000D03*
G04 #@! TD*
D43*
G04 #@! TO.C,R16*
X96457500Y-188745000D03*
X102382500Y-188745000D03*
G04 #@! TD*
D45*
G04 #@! TO.C,J105*
X392612000Y-33531000D03*
D11*
X396572000Y-33531000D03*
X400532000Y-33531000D03*
X404492000Y-33531000D03*
X408452000Y-33531000D03*
G04 #@! TD*
D12*
G04 #@! TO.C,FID1*
X5000000Y-34000000D03*
G04 #@! TD*
D22*
G04 #@! TO.C,B1*
X152903000Y-120601000D03*
X152903000Y-122501000D03*
G04 #@! TD*
D29*
G04 #@! TO.C,Q85*
X349620000Y-212846000D03*
D30*
X355920000Y-215126000D03*
D29*
X349620000Y-217406000D03*
G04 #@! TD*
D14*
G04 #@! TO.C,R62*
X219472500Y-191215000D03*
X221297500Y-191215000D03*
G04 #@! TD*
G04 #@! TO.C,R133*
X285948500Y-221229000D03*
X287773500Y-221229000D03*
G04 #@! TD*
G04 #@! TO.C,R87*
X264991500Y-140863000D03*
X266816500Y-140863000D03*
G04 #@! TD*
D10*
G04 #@! TO.C,J118*
X47267000Y-247713000D03*
D11*
X43307000Y-247713000D03*
X39347000Y-247713000D03*
X35387000Y-247713000D03*
G04 #@! TD*
D14*
G04 #@! TO.C,R263*
X258691500Y-56465000D03*
X260516500Y-56465000D03*
G04 #@! TD*
D41*
G04 #@! TO.C,D1*
X218385000Y-156116000D03*
X222385000Y-156116000D03*
G04 #@! TD*
D14*
G04 #@! TO.C,R157*
X349108500Y-187852000D03*
X350933500Y-187852000D03*
G04 #@! TD*
D24*
G04 #@! TO.C,C8*
X326508000Y-88469000D03*
D25*
X326508000Y-98469000D03*
G04 #@! TD*
D46*
G04 #@! TO.C,J101*
X431968000Y-101288000D03*
D17*
X431968000Y-105248000D03*
X431968000Y-109208000D03*
X431968000Y-113168000D03*
X431968000Y-117128000D03*
X431968000Y-121088000D03*
X431968000Y-125048000D03*
G04 #@! TD*
D14*
G04 #@! TO.C,R83*
X243195500Y-220080000D03*
X245020500Y-220080000D03*
G04 #@! TD*
G04 #@! TO.C,R268*
X157114500Y-69578000D03*
X158939500Y-69578000D03*
G04 #@! TD*
G04 #@! TO.C,R267*
X154788500Y-65386000D03*
X156613500Y-65386000D03*
G04 #@! TD*
D34*
G04 #@! TO.C,H2*
X442602000Y-266360000D03*
G04 #@! TD*
D33*
G04 #@! TO.C,F102*
X180483000Y-53161000D03*
X180483000Y-59921000D03*
D21*
X180483000Y-69511000D03*
X180483000Y-76271000D03*
G04 #@! TD*
D14*
G04 #@! TO.C,R86*
X264991500Y-136913000D03*
X266816500Y-136913000D03*
G04 #@! TD*
G04 #@! TO.C,R42*
X196000500Y-164802000D03*
X197825500Y-164802000D03*
G04 #@! TD*
D47*
G04 #@! TO.C,C21*
X86000000Y-74550000D03*
X86000000Y-72650000D03*
G04 #@! TD*
D29*
G04 #@! TO.C,Q78*
X307435000Y-174252000D03*
D30*
X313735000Y-176532000D03*
D29*
X307435000Y-178812000D03*
G04 #@! TD*
D14*
G04 #@! TO.C,R91*
X264991500Y-167268000D03*
X266816500Y-167268000D03*
G04 #@! TD*
D48*
G04 #@! TO.C,U1*
X156296000Y-113015000D03*
X156296000Y-111745000D03*
X156296000Y-110475000D03*
X156296000Y-109205000D03*
X156296000Y-107935000D03*
X156296000Y-106665000D03*
X156296000Y-105395000D03*
X156296000Y-104125000D03*
X156296000Y-102855000D03*
X156296000Y-101585000D03*
X146996000Y-101585000D03*
X146996000Y-102855000D03*
X146996000Y-104125000D03*
X146996000Y-105395000D03*
X146996000Y-106665000D03*
X146996000Y-107935000D03*
X146996000Y-109205000D03*
X146996000Y-110475000D03*
X146996000Y-111745000D03*
X146996000Y-113015000D03*
G04 #@! TD*
D49*
G04 #@! TO.C,D116*
X30400000Y-17500000D03*
D50*
X27860000Y-26650000D03*
X32940000Y-26650000D03*
G04 #@! TD*
D18*
G04 #@! TO.C,R147*
X366369000Y-163966500D03*
X366369000Y-165791500D03*
G04 #@! TD*
D51*
G04 #@! TO.C,D105*
X291500000Y-114000000D03*
D52*
X282350000Y-111460000D03*
X282350000Y-116540000D03*
G04 #@! TD*
D44*
G04 #@! TO.C,C38*
X243061000Y-69939000D03*
X243061000Y-72889000D03*
G04 #@! TD*
D20*
G04 #@! TO.C,F112*
X389396000Y-61614000D03*
X396156000Y-61614000D03*
D21*
X405746000Y-61614000D03*
X412506000Y-61614000D03*
G04 #@! TD*
D14*
G04 #@! TO.C,R162*
X369189500Y-169559000D03*
X371014500Y-169559000D03*
G04 #@! TD*
D18*
G04 #@! TO.C,R256*
X167489000Y-120638500D03*
X167489000Y-122463500D03*
G04 #@! TD*
D27*
G04 #@! TO.C,U5*
X255889000Y-101585000D03*
X255889000Y-102855000D03*
X255889000Y-104125000D03*
X255889000Y-105395000D03*
X255889000Y-106665000D03*
X255889000Y-107935000D03*
X255889000Y-109205000D03*
X255889000Y-110475000D03*
X255889000Y-111745000D03*
X255889000Y-113015000D03*
X265189000Y-113015000D03*
X265189000Y-111745000D03*
X265189000Y-110475000D03*
X265189000Y-109205000D03*
X265189000Y-107935000D03*
X265189000Y-106665000D03*
X265189000Y-105395000D03*
X265189000Y-104125000D03*
X265189000Y-102855000D03*
X265189000Y-101585000D03*
G04 #@! TD*
D22*
G04 #@! TO.C,B16*
X387675000Y-172072000D03*
X387675000Y-173972000D03*
G04 #@! TD*
D14*
G04 #@! TO.C,R46*
X196000500Y-191215000D03*
X197825500Y-191215000D03*
G04 #@! TD*
G04 #@! TO.C,R54*
X219472500Y-138396000D03*
X221297500Y-138396000D03*
G04 #@! TD*
D51*
G04 #@! TO.C,D112*
X303500000Y-26000000D03*
D52*
X294350000Y-23460000D03*
X294350000Y-28540000D03*
G04 #@! TD*
D14*
G04 #@! TO.C,R99*
X264991500Y-220080000D03*
X266816500Y-220080000D03*
G04 #@! TD*
D29*
G04 #@! TO.C,Q66*
X282873000Y-174252000D03*
D30*
X289173000Y-176532000D03*
D29*
X282873000Y-178812000D03*
G04 #@! TD*
D14*
G04 #@! TO.C,R23*
X162469500Y-140863000D03*
X164294500Y-140863000D03*
G04 #@! TD*
G04 #@! TO.C,R160*
X348651500Y-238448000D03*
X350476500Y-238448000D03*
G04 #@! TD*
D19*
G04 #@! TO.C,U6*
X89647000Y-67680000D03*
X89647000Y-68950000D03*
X89647000Y-70220000D03*
X89647000Y-71490000D03*
X89647000Y-72760000D03*
X89647000Y-74030000D03*
X89647000Y-75300000D03*
X94597000Y-75300000D03*
X94597000Y-74030000D03*
X94597000Y-72760000D03*
X94597000Y-71490000D03*
X94597000Y-70220000D03*
X94597000Y-68950000D03*
X94597000Y-67680000D03*
G04 #@! TD*
D26*
G04 #@! TO.C,R152*
X334308000Y-198644500D03*
X334308000Y-204569500D03*
G04 #@! TD*
D18*
G04 #@! TO.C,R308*
X345312000Y-186251500D03*
X345312000Y-188076500D03*
G04 #@! TD*
D14*
G04 #@! TO.C,R177*
X405906500Y-187979000D03*
X407731500Y-187979000D03*
G04 #@! TD*
G04 #@! TO.C,R206*
X80255500Y-69997000D03*
X82080500Y-69997000D03*
G04 #@! TD*
D10*
G04 #@! TO.C,J120*
X109999000Y-247713000D03*
D11*
X106039000Y-247713000D03*
X102079000Y-247713000D03*
X98119000Y-247713000D03*
X94159000Y-247713000D03*
X90199000Y-247713000D03*
X86239000Y-247713000D03*
X82279000Y-247713000D03*
X78319000Y-247713000D03*
X74359000Y-247713000D03*
X70399000Y-247713000D03*
G04 #@! TD*
D10*
G04 #@! TO.C,J119*
X46545000Y-265300000D03*
D11*
X42585000Y-265300000D03*
X38625000Y-265300000D03*
G04 #@! TD*
D12*
G04 #@! TO.C,RLY1*
X98474000Y-30703000D03*
X103474000Y-30703000D03*
X93474000Y-30703000D03*
X98474000Y-38203000D03*
X103474000Y-38203000D03*
X93474000Y-38203000D03*
D53*
X118474000Y-30703000D03*
D12*
X118474000Y-38203000D03*
G04 #@! TD*
D14*
G04 #@! TO.C,R181*
X405906500Y-221709000D03*
X407731500Y-221709000D03*
G04 #@! TD*
D29*
G04 #@! TO.C,Q82*
X307435000Y-225400000D03*
D30*
X313735000Y-227680000D03*
D29*
X307435000Y-229960000D03*
G04 #@! TD*
D43*
G04 #@! TO.C,R260*
X297562500Y-77360000D03*
X303487500Y-77360000D03*
G04 #@! TD*
D27*
G04 #@! TO.C,U4*
X216322000Y-101585000D03*
X216322000Y-102855000D03*
X216322000Y-104125000D03*
X216322000Y-105395000D03*
X216322000Y-106665000D03*
X216322000Y-107935000D03*
X216322000Y-109205000D03*
X216322000Y-110475000D03*
X216322000Y-111745000D03*
X216322000Y-113015000D03*
X225622000Y-113015000D03*
X225622000Y-111745000D03*
X225622000Y-110475000D03*
X225622000Y-109205000D03*
X225622000Y-107935000D03*
X225622000Y-106665000D03*
X225622000Y-105395000D03*
X225622000Y-104125000D03*
X225622000Y-102855000D03*
X225622000Y-101585000D03*
G04 #@! TD*
D54*
G04 #@! TO.C,SR1*
X20650000Y-112443000D03*
D55*
X20650000Y-109903000D03*
X20650000Y-107363000D03*
X20650000Y-104823000D03*
X20650000Y-102283000D03*
X20650000Y-99743000D03*
X20650000Y-97203000D03*
X20650000Y-94663000D03*
X20650000Y-92123000D03*
X20650000Y-89583000D03*
G04 #@! TD*
D29*
G04 #@! TO.C,Q58*
X261917000Y-224265000D03*
D30*
X268217000Y-226545000D03*
D29*
X261917000Y-228825000D03*
G04 #@! TD*
D13*
G04 #@! TO.C,D19*
X240708000Y-209023000D03*
X247508000Y-209023000D03*
G04 #@! TD*
D23*
G04 #@! TO.C,C33*
X277248000Y-57842000D03*
X280198000Y-57842000D03*
G04 #@! TD*
D13*
G04 #@! TO.C,D7*
X159982000Y-209023000D03*
X166782000Y-209023000D03*
G04 #@! TD*
D14*
G04 #@! TO.C,R6*
X74845500Y-68022000D03*
X76670500Y-68022000D03*
G04 #@! TD*
D22*
G04 #@! TO.C,C13*
X337175000Y-171736000D03*
X337175000Y-173636000D03*
G04 #@! TD*
G04 #@! TO.C,C37*
X262642000Y-69231000D03*
X262642000Y-71131000D03*
G04 #@! TD*
D14*
G04 #@! TO.C,R71*
X243195500Y-140863000D03*
X245020500Y-140863000D03*
G04 #@! TD*
D34*
G04 #@! TO.C,H7*
X442602000Y-134125000D03*
G04 #@! TD*
G04 #@! TO.C,H4*
X6550000Y-266360000D03*
G04 #@! TD*
D29*
G04 #@! TO.C,Q38*
X216398000Y-172946000D03*
D30*
X222698000Y-175226000D03*
D29*
X216398000Y-177506000D03*
G04 #@! TD*
D22*
G04 #@! TO.C,C36*
X263552000Y-74681000D03*
X263552000Y-76581000D03*
G04 #@! TD*
D56*
G04 #@! TO.C,Q3*
X79452000Y-35412000D03*
D57*
X77172000Y-41712000D03*
D56*
X74892000Y-35412000D03*
G04 #@! TD*
D14*
G04 #@! TO.C,R250*
X40414500Y-63710000D03*
X42239500Y-63710000D03*
G04 #@! TD*
D18*
G04 #@! TO.C,R145*
X364852000Y-148469500D03*
X364852000Y-150294500D03*
G04 #@! TD*
D14*
G04 #@! TO.C,R140*
X310509500Y-217279000D03*
X312334500Y-217279000D03*
G04 #@! TD*
D29*
G04 #@! TO.C,Q96*
X428400000Y-204089000D03*
D30*
X434700000Y-206369000D03*
D29*
X428400000Y-208649000D03*
G04 #@! TD*
D14*
G04 #@! TO.C,R182*
X405906500Y-225610000D03*
X407731500Y-225610000D03*
G04 #@! TD*
D12*
G04 #@! TO.C,TP1*
X39232000Y-76284000D03*
G04 #@! TD*
D42*
G04 #@! TO.C,C9*
X241868000Y-78895000D03*
D12*
X241868000Y-83895000D03*
G04 #@! TD*
D13*
G04 #@! TO.C,D17*
X240708000Y-156209000D03*
X247508000Y-156209000D03*
G04 #@! TD*
D43*
G04 #@! TO.C,R10*
X57226500Y-164436000D03*
X63151500Y-164436000D03*
G04 #@! TD*
D10*
G04 #@! TO.C,J132*
X339461000Y-265300000D03*
D11*
X335501000Y-265300000D03*
X331541000Y-265300000D03*
X327581000Y-265300000D03*
X323621000Y-265300000D03*
G04 #@! TD*
D29*
G04 #@! TO.C,Q32*
X192926000Y-199354000D03*
D30*
X199226000Y-201634000D03*
D29*
X192926000Y-203914000D03*
G04 #@! TD*
D13*
G04 #@! TO.C,D25*
X283461000Y-159827000D03*
X290261000Y-159827000D03*
G04 #@! TD*
D38*
G04 #@! TO.C,Q12*
X38393000Y-156734000D03*
D39*
X38393000Y-159274000D03*
X38393000Y-161814000D03*
G04 #@! TD*
D29*
G04 #@! TO.C,Q76*
X307435000Y-148690000D03*
D30*
X313735000Y-150970000D03*
D29*
X307435000Y-153250000D03*
G04 #@! TD*
D13*
G04 #@! TO.C,D30*
X308022000Y-185412000D03*
X314822000Y-185412000D03*
G04 #@! TD*
D45*
G04 #@! TO.C,J107*
X207886000Y-33950000D03*
D11*
X211846000Y-33950000D03*
X215806000Y-33950000D03*
X219766000Y-33950000D03*
X223726000Y-33950000D03*
X227686000Y-33950000D03*
G04 #@! TD*
D20*
G04 #@! TO.C,F106*
X21390000Y-233211000D03*
X28150000Y-233211000D03*
D21*
X37740000Y-233211000D03*
X44500000Y-233211000D03*
G04 #@! TD*
D29*
G04 #@! TO.C,Q44*
X240121000Y-145047000D03*
D30*
X246421000Y-147327000D03*
D29*
X240121000Y-149607000D03*
G04 #@! TD*
D45*
G04 #@! TO.C,J112*
X51430000Y-11736000D03*
D11*
X55390000Y-11736000D03*
X59350000Y-11736000D03*
X63310000Y-11736000D03*
X67270000Y-11736000D03*
G04 #@! TD*
D41*
G04 #@! TO.C,D2*
X218385000Y-182522000D03*
X222385000Y-182522000D03*
G04 #@! TD*
D14*
G04 #@! TO.C,R186*
X427702500Y-199901000D03*
X429527500Y-199901000D03*
G04 #@! TD*
D29*
G04 #@! TO.C,Q91*
X406604000Y-179199000D03*
D30*
X412904000Y-181479000D03*
D29*
X406604000Y-183759000D03*
G04 #@! TD*
D33*
G04 #@! TO.C,F104*
X211834000Y-53161000D03*
X211834000Y-59921000D03*
D21*
X211834000Y-69511000D03*
X211834000Y-76271000D03*
G04 #@! TD*
D29*
G04 #@! TO.C,Q88*
X371471000Y-195980000D03*
D30*
X377771000Y-198260000D03*
D29*
X371471000Y-200540000D03*
G04 #@! TD*
D33*
G04 #@! TO.C,F103*
X196494000Y-53161000D03*
X196494000Y-59921000D03*
D21*
X196494000Y-69511000D03*
X196494000Y-76271000D03*
G04 #@! TD*
D14*
G04 #@! TO.C,R202*
X104002500Y-69997000D03*
X105827500Y-69997000D03*
G04 #@! TD*
G04 #@! TO.C,R8*
X119465500Y-114972000D03*
X121290500Y-114972000D03*
G04 #@! TD*
D31*
G04 #@! TO.C,J135*
X369365000Y-267490000D03*
D32*
X366825000Y-267490000D03*
X364285000Y-267490000D03*
X361745000Y-267490000D03*
X359205000Y-267490000D03*
X356665000Y-267490000D03*
X354125000Y-267490000D03*
X351585000Y-267490000D03*
X349045000Y-267490000D03*
G04 #@! TD*
D38*
G04 #@! TO.C,Q16*
X78044000Y-182302000D03*
D39*
X78044000Y-184842000D03*
X78044000Y-187382000D03*
G04 #@! TD*
D12*
G04 #@! TO.C,TP7*
X245785000Y-112749000D03*
G04 #@! TD*
D10*
G04 #@! TO.C,J125*
X218202000Y-247713000D03*
D11*
X214242000Y-247713000D03*
X210282000Y-247713000D03*
X206322000Y-247713000D03*
X202362000Y-247713000D03*
X198402000Y-247713000D03*
X194442000Y-247713000D03*
X190482000Y-247713000D03*
X186522000Y-247713000D03*
G04 #@! TD*
D12*
G04 #@! TO.C,FID2*
X443000000Y-25000000D03*
G04 #@! TD*
D58*
G04 #@! TO.C,D106*
X309500000Y-114000000D03*
D59*
X318650000Y-116540000D03*
X318650000Y-111460000D03*
G04 #@! TD*
D10*
G04 #@! TO.C,J124*
X160823000Y-247713000D03*
D11*
X156863000Y-247713000D03*
X152903000Y-247713000D03*
X148943000Y-247713000D03*
X144983000Y-247713000D03*
G04 #@! TD*
D43*
G04 #@! TO.C,R7*
X137533500Y-214312000D03*
X143458500Y-214312000D03*
G04 #@! TD*
D37*
G04 #@! TO.C,LED7*
X43423000Y-51036500D03*
X43423000Y-52911500D03*
G04 #@! TD*
D46*
G04 #@! TO.C,J103*
X431968000Y-28010000D03*
D17*
X431968000Y-31970000D03*
X431968000Y-35930000D03*
X431968000Y-39890000D03*
G04 #@! TD*
D29*
G04 #@! TO.C,Q20*
X159395000Y-145047000D03*
D30*
X165695000Y-147327000D03*
D29*
X159395000Y-149607000D03*
G04 #@! TD*
D37*
G04 #@! TO.C,LED1*
X19532000Y-129415500D03*
X19532000Y-131290500D03*
G04 #@! TD*
D16*
G04 #@! TO.C,J114*
X7610000Y-187249000D03*
D17*
X7610000Y-183289000D03*
X7610000Y-179329000D03*
X7610000Y-175369000D03*
X7610000Y-171409000D03*
X7610000Y-167449000D03*
X7610000Y-163489000D03*
G04 #@! TD*
D14*
G04 #@! TO.C,R262*
X259837500Y-52515000D03*
X261662500Y-52515000D03*
G04 #@! TD*
D22*
G04 #@! TO.C,C16*
X358506000Y-171736000D03*
X358506000Y-173636000D03*
G04 #@! TD*
D46*
G04 #@! TO.C,J102*
X431968000Y-49714000D03*
D17*
X431968000Y-53674000D03*
X431968000Y-57634000D03*
X431968000Y-61594000D03*
X431968000Y-65554000D03*
X431968000Y-69514000D03*
X431968000Y-73474000D03*
X431968000Y-77434000D03*
X431968000Y-81394000D03*
G04 #@! TD*
D18*
G04 #@! TO.C,R149*
X399457000Y-148721500D03*
X399457000Y-150546500D03*
G04 #@! TD*
D14*
G04 #@! TO.C,R198*
X98592500Y-69997000D03*
X100417500Y-69997000D03*
G04 #@! TD*
G04 #@! TO.C,R168*
X370818500Y-225472000D03*
X372643500Y-225472000D03*
G04 #@! TD*
D15*
G04 #@! TO.C,Q9*
X141446000Y-207485500D03*
X139546000Y-207485500D03*
X140496000Y-209360500D03*
G04 #@! TD*
D29*
G04 #@! TO.C,Q40*
X216398000Y-199354000D03*
D30*
X222698000Y-201634000D03*
D29*
X216398000Y-203914000D03*
G04 #@! TD*
D10*
G04 #@! TO.C,J129*
X275500000Y-265300000D03*
D11*
X271540000Y-265300000D03*
X267580000Y-265300000D03*
X263620000Y-265300000D03*
X259660000Y-265300000D03*
G04 #@! TD*
D18*
G04 #@! TO.C,R254*
X217618000Y-120638500D03*
X217618000Y-122463500D03*
G04 #@! TD*
D60*
G04 #@! TO.C,J113*
X8220000Y-128459000D03*
D61*
X5680000Y-128459000D03*
X8220000Y-125919000D03*
X5680000Y-125919000D03*
X8220000Y-123379000D03*
X5680000Y-123379000D03*
X8220000Y-120839000D03*
X5680000Y-120839000D03*
X8220000Y-118299000D03*
X5680000Y-118299000D03*
X8220000Y-115759000D03*
X5680000Y-115759000D03*
X8220000Y-113219000D03*
X5680000Y-113219000D03*
X8220000Y-110679000D03*
X5680000Y-110679000D03*
X8220000Y-108139000D03*
X5680000Y-108139000D03*
X8220000Y-105599000D03*
X5680000Y-105599000D03*
X8220000Y-103059000D03*
X5680000Y-103059000D03*
X8220000Y-100519000D03*
X5680000Y-100519000D03*
X8220000Y-97979000D03*
X5680000Y-97979000D03*
X8220000Y-95439000D03*
X5680000Y-95439000D03*
X8220000Y-92899000D03*
X5680000Y-92899000D03*
X8220000Y-90359000D03*
X5680000Y-90359000D03*
X8220000Y-87819000D03*
X5680000Y-87819000D03*
G04 #@! TD*
D24*
G04 #@! TO.C,C5*
X324583000Y-53345000D03*
D25*
X324583000Y-63345000D03*
G04 #@! TD*
D14*
G04 #@! TO.C,R51*
X196000500Y-221564000D03*
X197825500Y-221564000D03*
G04 #@! TD*
G04 #@! TO.C,R161*
X349108500Y-221584000D03*
X350933500Y-221584000D03*
G04 #@! TD*
D29*
G04 #@! TO.C,Q80*
X307435000Y-199832000D03*
D30*
X313735000Y-202112000D03*
D29*
X307435000Y-204392000D03*
G04 #@! TD*
D12*
G04 #@! TO.C,TP9*
X308283000Y-50297000D03*
G04 #@! TD*
D58*
G04 #@! TO.C,D107*
X288500000Y-128000000D03*
D59*
X297650000Y-130540000D03*
X297650000Y-125460000D03*
G04 #@! TD*
D35*
G04 #@! TO.C,D102*
X363400000Y-62500000D03*
D36*
X365940000Y-53350000D03*
X360860000Y-53350000D03*
G04 #@! TD*
D14*
G04 #@! TO.C,R43*
X196000500Y-168752000D03*
X197825500Y-168752000D03*
G04 #@! TD*
G04 #@! TO.C,R95*
X264991500Y-193668000D03*
X266816500Y-193668000D03*
G04 #@! TD*
G04 #@! TO.C,R135*
X310509500Y-144520000D03*
X312334500Y-144520000D03*
G04 #@! TD*
D26*
G04 #@! TO.C,R150*
X340382000Y-198644500D03*
X340382000Y-204569500D03*
G04 #@! TD*
D42*
G04 #@! TO.C,C2*
X133484000Y-60186000D03*
D12*
X133484000Y-65186000D03*
G04 #@! TD*
D14*
G04 #@! TO.C,R136*
X310509500Y-166129000D03*
X312334500Y-166129000D03*
G04 #@! TD*
D22*
G04 #@! TO.C,B3*
X191380000Y-120601000D03*
X191380000Y-122501000D03*
G04 #@! TD*
D29*
G04 #@! TO.C,Q54*
X261917000Y-171453000D03*
D30*
X268217000Y-173733000D03*
D29*
X261917000Y-176013000D03*
G04 #@! TD*
D26*
G04 #@! TO.C,R175*
X385201000Y-219182500D03*
X385201000Y-225107500D03*
G04 #@! TD*
D27*
G04 #@! TO.C,U19*
X420360000Y-166601000D03*
X420360000Y-167871000D03*
X420360000Y-169141000D03*
X420360000Y-170411000D03*
X420360000Y-171681000D03*
X420360000Y-172951000D03*
X420360000Y-174221000D03*
X420360000Y-175491000D03*
X420360000Y-176761000D03*
X429660000Y-176761000D03*
X429660000Y-175491000D03*
X429660000Y-174221000D03*
X429660000Y-172951000D03*
X429660000Y-171681000D03*
X429660000Y-170411000D03*
X429660000Y-169141000D03*
X429660000Y-167871000D03*
X429660000Y-166601000D03*
G04 #@! TD*
D23*
G04 #@! TO.C,C39*
X148227000Y-67063000D03*
X151177000Y-67063000D03*
G04 #@! TD*
D62*
G04 #@! TO.C,U21*
X151547000Y-74741000D03*
D63*
X153452000Y-72041000D03*
X152182000Y-72041000D03*
X150912000Y-72041000D03*
X149642000Y-72041000D03*
X149642000Y-77441000D03*
X150912000Y-77441000D03*
X152182000Y-77441000D03*
X153452000Y-77441000D03*
G04 #@! TD*
D22*
G04 #@! TO.C,B19*
X420850000Y-156228000D03*
X420850000Y-158128000D03*
G04 #@! TD*
D58*
G04 #@! TO.C,D111*
X279500000Y-26000000D03*
D59*
X288650000Y-28540000D03*
X288650000Y-23460000D03*
G04 #@! TD*
D49*
G04 #@! TO.C,D115*
X17000000Y-17500000D03*
D50*
X14460000Y-26650000D03*
X19540000Y-26650000D03*
G04 #@! TD*
D43*
G04 #@! TO.C,R259*
X297562500Y-71450000D03*
X303487500Y-71450000D03*
G04 #@! TD*
D10*
G04 #@! TO.C,J137*
X422659000Y-246875000D03*
D11*
X418699000Y-246875000D03*
X414739000Y-246875000D03*
X410779000Y-246875000D03*
X406819000Y-246875000D03*
X402859000Y-246875000D03*
X398899000Y-246875000D03*
X394939000Y-246875000D03*
X390979000Y-246875000D03*
G04 #@! TD*
D18*
G04 #@! TO.C,R302*
X366991000Y-219137500D03*
X366991000Y-220962500D03*
G04 #@! TD*
D58*
G04 #@! TO.C,D110*
X300500000Y-12000000D03*
D59*
X309650000Y-14540000D03*
X309650000Y-9460000D03*
G04 #@! TD*
D22*
G04 #@! TO.C,B13*
X383500000Y-145050000D03*
X383500000Y-146950000D03*
G04 #@! TD*
D26*
G04 #@! TO.C,R172*
X391311000Y-198644500D03*
X391311000Y-204569500D03*
G04 #@! TD*
D14*
G04 #@! TO.C,R127*
X285948500Y-144520000D03*
X287773500Y-144520000D03*
G04 #@! TD*
G04 #@! TO.C,R15*
X96831500Y-126790000D03*
X98656500Y-126790000D03*
G04 #@! TD*
D49*
G04 #@! TO.C,D103*
X350000000Y-38500000D03*
D50*
X347460000Y-47650000D03*
X352540000Y-47650000D03*
G04 #@! TD*
D14*
G04 #@! TO.C,R191*
X427886500Y-246589000D03*
X429711500Y-246589000D03*
G04 #@! TD*
D37*
G04 #@! TO.C,LED2*
X63542000Y-59418500D03*
X63542000Y-61293500D03*
G04 #@! TD*
D29*
G04 #@! TO.C,Q28*
X192926000Y-146540000D03*
D30*
X199226000Y-148820000D03*
D29*
X192926000Y-151100000D03*
G04 #@! TD*
G04 #@! TO.C,Q34*
X192926000Y-225758000D03*
D30*
X199226000Y-228038000D03*
D29*
X192926000Y-230318000D03*
G04 #@! TD*
D26*
G04 #@! TO.C,R153*
X334308000Y-219182500D03*
X334308000Y-225107500D03*
G04 #@! TD*
D40*
G04 #@! TO.C,L1*
X253161000Y-61237000D03*
X253161000Y-72337000D03*
G04 #@! TD*
D14*
G04 #@! TO.C,R190*
X427702500Y-233593000D03*
X429527500Y-233593000D03*
G04 #@! TD*
D18*
G04 #@! TO.C,R272*
X135852000Y-87909500D03*
X135852000Y-89734500D03*
G04 #@! TD*
D29*
G04 #@! TO.C,Q97*
X428400000Y-220944000D03*
D30*
X434700000Y-223224000D03*
D29*
X428400000Y-225504000D03*
G04 #@! TD*
D10*
G04 #@! TO.C,J121*
X99018000Y-265300000D03*
D11*
X95058000Y-265300000D03*
X91098000Y-265300000D03*
X87138000Y-265300000D03*
X83178000Y-265300000D03*
X79218000Y-265300000D03*
X75258000Y-265300000D03*
X71298000Y-265300000D03*
X67338000Y-265300000D03*
X63378000Y-265300000D03*
X59418000Y-265300000D03*
G04 #@! TD*
D14*
G04 #@! TO.C,R3*
X73549500Y-71972000D03*
X75374500Y-71972000D03*
G04 #@! TD*
D42*
G04 #@! TO.C,C12*
X113847000Y-65890000D03*
D12*
X113847000Y-70890000D03*
G04 #@! TD*
D14*
G04 #@! TO.C,R187*
X427702500Y-212822000D03*
X429527500Y-212822000D03*
G04 #@! TD*
G04 #@! TO.C,R98*
X264991500Y-216130000D03*
X266816500Y-216130000D03*
G04 #@! TD*
D41*
G04 #@! TO.C,D11*
X194913000Y-208918000D03*
X198913000Y-208918000D03*
G04 #@! TD*
D29*
G04 #@! TO.C,Q83*
X349647000Y-179120000D03*
D30*
X355947000Y-181400000D03*
D29*
X349647000Y-183680000D03*
G04 #@! TD*
D22*
G04 #@! TO.C,C31*
X368536000Y-173282000D03*
X368536000Y-175182000D03*
G04 #@! TD*
G04 #@! TO.C,B11*
X360919000Y-148684000D03*
X360919000Y-150584000D03*
G04 #@! TD*
D29*
G04 #@! TO.C,Q70*
X282873000Y-225400000D03*
D30*
X289173000Y-227680000D03*
D29*
X282873000Y-229960000D03*
G04 #@! TD*
G04 #@! TO.C,Q64*
X282873000Y-148690000D03*
D30*
X289173000Y-150970000D03*
D29*
X282873000Y-153250000D03*
G04 #@! TD*
G04 #@! TO.C,Q95*
X428400000Y-187225000D03*
D30*
X434700000Y-189505000D03*
D29*
X428400000Y-191785000D03*
G04 #@! TD*
D10*
G04 #@! TO.C,J131*
X314313000Y-265300000D03*
D11*
X310353000Y-265300000D03*
X306393000Y-265300000D03*
X302433000Y-265300000D03*
X298473000Y-265300000D03*
G04 #@! TD*
D62*
G04 #@! TO.C,U20*
X277142000Y-65218000D03*
D63*
X279047000Y-62518000D03*
X277777000Y-62518000D03*
X276507000Y-62518000D03*
X275237000Y-62518000D03*
X275237000Y-67918000D03*
X276507000Y-67918000D03*
X277777000Y-67918000D03*
X279047000Y-67918000D03*
G04 #@! TD*
D49*
G04 #@! TO.C,D104*
X363400000Y-38500000D03*
D50*
X360860000Y-47650000D03*
X365940000Y-47650000D03*
G04 #@! TD*
D41*
G04 #@! TO.C,D3*
X218385000Y-208918000D03*
X222385000Y-208918000D03*
G04 #@! TD*
D13*
G04 #@! TO.C,D21*
X262504000Y-156209000D03*
X269304000Y-156209000D03*
G04 #@! TD*
D14*
G04 #@! TO.C,R11*
X119465500Y-118878000D03*
X121290500Y-118878000D03*
G04 #@! TD*
D35*
G04 #@! TO.C,D101*
X350000000Y-62500000D03*
D36*
X352540000Y-53350000D03*
X347460000Y-53350000D03*
G04 #@! TD*
D29*
G04 #@! TO.C,Q22*
X159395000Y-171453000D03*
D30*
X165695000Y-173733000D03*
D29*
X159395000Y-176013000D03*
G04 #@! TD*
D18*
G04 #@! TO.C,R251*
X412899000Y-154165500D03*
X412899000Y-155990500D03*
G04 #@! TD*
D14*
G04 #@! TO.C,R66*
X219472500Y-217614000D03*
X221297500Y-217614000D03*
G04 #@! TD*
D12*
G04 #@! TO.C,TP5*
X245785000Y-121132000D03*
G04 #@! TD*
D22*
G04 #@! TO.C,C14*
X333165000Y-171736000D03*
X333165000Y-173636000D03*
G04 #@! TD*
D14*
G04 #@! TO.C,R9*
X139583500Y-203493000D03*
X141408500Y-203493000D03*
G04 #@! TD*
G04 #@! TO.C,R196*
X342087500Y-93050000D03*
X343912500Y-93050000D03*
G04 #@! TD*
D18*
G04 #@! TO.C,R303*
X366991000Y-208658500D03*
X366991000Y-210483500D03*
G04 #@! TD*
D37*
G04 #@! TO.C,LED6*
X342258000Y-97560500D03*
X342258000Y-99435500D03*
G04 #@! TD*
D33*
G04 #@! TO.C,F101*
X165142000Y-53161000D03*
X165142000Y-59921000D03*
D21*
X165142000Y-69511000D03*
X165142000Y-76271000D03*
G04 #@! TD*
D41*
G04 #@! TO.C,D9*
X194913000Y-156116000D03*
X198913000Y-156116000D03*
G04 #@! TD*
D22*
G04 #@! TO.C,B18*
X416879000Y-154081000D03*
X416879000Y-155981000D03*
G04 #@! TD*
D29*
G04 #@! TO.C,Q26*
X159395000Y-224265000D03*
D30*
X165695000Y-226545000D03*
D29*
X159395000Y-228825000D03*
G04 #@! TD*
D14*
G04 #@! TO.C,R78*
X243195500Y-189718000D03*
X245020500Y-189718000D03*
G04 #@! TD*
D18*
G04 #@! TO.C,R304*
X366996000Y-198179500D03*
X366996000Y-200004500D03*
G04 #@! TD*
D38*
G04 #@! TO.C,Q18*
X128341000Y-155057000D03*
D39*
X128341000Y-157597000D03*
X128341000Y-160137000D03*
G04 #@! TD*
D22*
G04 #@! TO.C,C42*
X137084000Y-81644000D03*
X137084000Y-83544000D03*
G04 #@! TD*
D34*
G04 #@! TO.C,H8*
X6550000Y-146700000D03*
G04 #@! TD*
D37*
G04 #@! TO.C,LED5*
X340762000Y-38007500D03*
X340762000Y-39882500D03*
G04 #@! TD*
D31*
G04 #@! TO.C,J134*
X369365000Y-257772000D03*
D32*
X366825000Y-257772000D03*
X364285000Y-257772000D03*
X361745000Y-257772000D03*
X359205000Y-257772000D03*
X356665000Y-257772000D03*
X354125000Y-257772000D03*
X351585000Y-257772000D03*
X349045000Y-257772000D03*
G04 #@! TD*
D29*
G04 #@! TO.C,Q68*
X282873000Y-199832000D03*
D30*
X289173000Y-202112000D03*
D29*
X282873000Y-204392000D03*
G04 #@! TD*
D14*
G04 #@! TO.C,R134*
X310509500Y-140617000D03*
X312334500Y-140617000D03*
G04 #@! TD*
G04 #@! TO.C,R31*
X162469500Y-193668000D03*
X164294500Y-193668000D03*
G04 #@! TD*
D34*
G04 #@! TO.C,H6*
X283172000Y-266360000D03*
G04 #@! TD*
D18*
G04 #@! TO.C,R270*
X149881000Y-82915500D03*
X149881000Y-84740500D03*
G04 #@! TD*
D43*
G04 #@! TO.C,R13*
X94781500Y-137609000D03*
X100706500Y-137609000D03*
G04 #@! TD*
D51*
G04 #@! TO.C,D108*
X312500000Y-128000000D03*
D52*
X303350000Y-125460000D03*
X303350000Y-130540000D03*
G04 #@! TD*
D14*
G04 #@! TO.C,R20*
X119465500Y-130657000D03*
X121290500Y-130657000D03*
G04 #@! TD*
D29*
G04 #@! TO.C,Q50*
X240121000Y-224265000D03*
D30*
X246421000Y-226545000D03*
D29*
X240121000Y-228825000D03*
G04 #@! TD*
G04 #@! TO.C,Q87*
X371347000Y-179156000D03*
D30*
X377647000Y-181436000D03*
D29*
X371347000Y-183716000D03*
G04 #@! TD*
D14*
G04 #@! TO.C,R189*
X427702500Y-229692000D03*
X429527500Y-229692000D03*
G04 #@! TD*
D10*
G04 #@! TO.C,J128*
X252867000Y-265300000D03*
D11*
X248907000Y-265300000D03*
X244947000Y-265300000D03*
X240987000Y-265300000D03*
X237027000Y-265300000D03*
G04 #@! TD*
D14*
G04 #@! TO.C,R164*
X370818500Y-191791000D03*
X372643500Y-191791000D03*
G04 #@! TD*
D22*
G04 #@! TO.C,C43*
X118080000Y-83071000D03*
X118080000Y-84971000D03*
G04 #@! TD*
D19*
G04 #@! TO.C,U10*
X331297000Y-146075000D03*
X331297000Y-147345000D03*
X331297000Y-148615000D03*
X331297000Y-149885000D03*
X331297000Y-151155000D03*
X331297000Y-152425000D03*
X331297000Y-153695000D03*
X336247000Y-153695000D03*
X336247000Y-152425000D03*
X336247000Y-151155000D03*
X336247000Y-149885000D03*
X336247000Y-148615000D03*
X336247000Y-147345000D03*
X336247000Y-146075000D03*
G04 #@! TD*
D64*
G04 #@! TO.C,BR3*
X254588000Y-14304000D03*
D65*
X242988000Y-14304000D03*
X242988000Y-32304000D03*
X260988000Y-32304000D03*
G04 #@! TD*
D29*
G04 #@! TO.C,Q90*
X371471000Y-229692000D03*
D30*
X377771000Y-231972000D03*
D29*
X371471000Y-234252000D03*
G04 #@! TD*
D14*
G04 #@! TO.C,R128*
X285948500Y-166129000D03*
X287773500Y-166129000D03*
G04 #@! TD*
D18*
G04 #@! TO.C,R265*
X271455000Y-73235500D03*
X271455000Y-75060500D03*
G04 #@! TD*
D22*
G04 #@! TO.C,C19*
X391636000Y-171736000D03*
X391636000Y-173636000D03*
G04 #@! TD*
D14*
G04 #@! TO.C,R139*
X310509500Y-195662000D03*
X312334500Y-195662000D03*
G04 #@! TD*
D10*
G04 #@! TO.C,J117*
X27987000Y-265300000D03*
D11*
X24027000Y-265300000D03*
X20067000Y-265300000D03*
X16107000Y-265300000D03*
G04 #@! TD*
D66*
G04 #@! TO.C,C6*
X394694000Y-117527000D03*
D25*
X404694000Y-117527000D03*
G04 #@! TD*
D14*
G04 #@! TO.C,R75*
X243195500Y-167268000D03*
X245020500Y-167268000D03*
G04 #@! TD*
D12*
G04 #@! TO.C,FID3*
X5000000Y-253000000D03*
G04 #@! TD*
D22*
G04 #@! TO.C,B5*
X261796000Y-120601000D03*
X261796000Y-122501000D03*
G04 #@! TD*
D14*
G04 #@! TO.C,R39*
X196000500Y-142346000D03*
X197825500Y-142346000D03*
G04 #@! TD*
G04 #@! TO.C,R26*
X162469500Y-163318000D03*
X164294500Y-163318000D03*
G04 #@! TD*
G04 #@! TO.C,R18*
X98507500Y-177925000D03*
X100332500Y-177925000D03*
G04 #@! TD*
G04 #@! TO.C,R193*
X22810500Y-120294000D03*
X24635500Y-120294000D03*
G04 #@! TD*
G04 #@! TO.C,R4*
X68139500Y-69997000D03*
X69964500Y-69997000D03*
G04 #@! TD*
G04 #@! TO.C,R132*
X285948500Y-217279000D03*
X287773500Y-217279000D03*
G04 #@! TD*
D13*
G04 #@! TO.C,D23*
X262504000Y-209023000D03*
X269304000Y-209023000D03*
G04 #@! TD*
D14*
G04 #@! TO.C,R269*
X157119500Y-73769000D03*
X158944500Y-73769000D03*
G04 #@! TD*
D67*
G04 #@! TO.C,D36*
X269002000Y-62108000D03*
X269002000Y-68908000D03*
G04 #@! TD*
D14*
G04 #@! TO.C,R194*
X340150500Y-43625000D03*
X341975500Y-43625000D03*
G04 #@! TD*
D45*
G04 #@! TO.C,J110*
X106382000Y-11736000D03*
D11*
X110342000Y-11736000D03*
X114302000Y-11736000D03*
X118262000Y-11736000D03*
X122222000Y-11736000D03*
X126182000Y-11736000D03*
X130142000Y-11736000D03*
X134102000Y-11736000D03*
X138062000Y-11736000D03*
G04 #@! TD*
D20*
G04 #@! TO.C,F111*
X389396000Y-46525000D03*
X396156000Y-46525000D03*
D21*
X405746000Y-46525000D03*
X412506000Y-46525000D03*
G04 #@! TD*
D24*
G04 #@! TO.C,C32*
X299000000Y-89056000D03*
D25*
X299000000Y-99056000D03*
G04 #@! TD*
D14*
G04 #@! TO.C,R166*
X370758500Y-204713000D03*
X372583500Y-204713000D03*
G04 #@! TD*
D19*
G04 #@! TO.C,U16*
X378512000Y-167523000D03*
X378512000Y-168793000D03*
X378512000Y-170063000D03*
X378512000Y-171333000D03*
X378512000Y-172603000D03*
X378512000Y-173873000D03*
X378512000Y-175143000D03*
X383462000Y-175143000D03*
X383462000Y-173873000D03*
X383462000Y-172603000D03*
X383462000Y-171333000D03*
X383462000Y-170063000D03*
X383462000Y-168793000D03*
X383462000Y-167523000D03*
G04 #@! TD*
D14*
G04 #@! TO.C,R38*
X196000500Y-138396000D03*
X197825500Y-138396000D03*
G04 #@! TD*
D29*
G04 #@! TO.C,Q94*
X406604000Y-229781000D03*
D30*
X412904000Y-232061000D03*
D29*
X406604000Y-234341000D03*
G04 #@! TD*
D66*
G04 #@! TO.C,C7*
X356049000Y-117863000D03*
D25*
X366049000Y-117863000D03*
G04 #@! TD*
D10*
G04 #@! TO.C,J123*
X137100000Y-247713000D03*
D11*
X133140000Y-247713000D03*
X129180000Y-247713000D03*
X125220000Y-247713000D03*
X121260000Y-247713000D03*
G04 #@! TD*
D13*
G04 #@! TO.C,D31*
X308022000Y-210977000D03*
X314822000Y-210977000D03*
G04 #@! TD*
D54*
G04 #@! TO.C,SR2*
X15480000Y-102803000D03*
D55*
X15480000Y-100263000D03*
X15480000Y-97723000D03*
X15480000Y-95183000D03*
X15480000Y-92643000D03*
X15480000Y-90103000D03*
X15480000Y-87563000D03*
X15480000Y-85023000D03*
X15480000Y-82483000D03*
X15480000Y-79943000D03*
G04 #@! TD*
D18*
G04 #@! TO.C,R301*
X367021000Y-229615500D03*
X367021000Y-231440500D03*
G04 #@! TD*
D29*
G04 #@! TO.C,Q93*
X406604000Y-212938000D03*
D30*
X412904000Y-215218000D03*
D29*
X406604000Y-217498000D03*
G04 #@! TD*
D14*
G04 #@! TO.C,R59*
X219472500Y-168752000D03*
X221297500Y-168752000D03*
G04 #@! TD*
D26*
G04 #@! TO.C,R173*
X391311000Y-219182500D03*
X391311000Y-225107500D03*
G04 #@! TD*
D18*
G04 #@! TO.C,R146*
X368802000Y-148469500D03*
X368802000Y-150294500D03*
G04 #@! TD*
D22*
G04 #@! TO.C,B4*
X222229000Y-120601000D03*
X222229000Y-122501000D03*
G04 #@! TD*
D14*
G04 #@! TO.C,R197*
X52570500Y-69158000D03*
X54395500Y-69158000D03*
G04 #@! TD*
G04 #@! TO.C,R35*
X162469500Y-220080000D03*
X164294500Y-220080000D03*
G04 #@! TD*
D29*
G04 #@! TO.C,Q92*
X406604000Y-196063000D03*
D30*
X412904000Y-198343000D03*
D29*
X406604000Y-200623000D03*
G04 #@! TD*
G04 #@! TO.C,Q46*
X240121000Y-171453000D03*
D30*
X246421000Y-173733000D03*
D29*
X240121000Y-176013000D03*
G04 #@! TD*
D67*
G04 #@! TO.C,D37*
X143444000Y-74864000D03*
X143444000Y-81664000D03*
G04 #@! TD*
D14*
G04 #@! TO.C,R156*
X348711500Y-204750000D03*
X350536500Y-204750000D03*
G04 #@! TD*
D68*
G04 #@! TO.C,J111*
X77323000Y-15927000D03*
D32*
X79863000Y-15927000D03*
X82403000Y-15927000D03*
X84943000Y-15927000D03*
X87483000Y-15927000D03*
G04 #@! TD*
D18*
G04 #@! TO.C,R144*
X362453000Y-173618500D03*
X362453000Y-175443500D03*
G04 #@! TD*
D45*
G04 #@! TO.C,J104*
X392612000Y-10898000D03*
D11*
X396572000Y-10898000D03*
X400532000Y-10898000D03*
X404492000Y-10898000D03*
X408452000Y-10898000D03*
G04 #@! TD*
D14*
G04 #@! TO.C,R209*
X69067500Y-37723000D03*
X70892500Y-37723000D03*
G04 #@! TD*
D29*
G04 #@! TO.C,Q36*
X216398000Y-146540000D03*
D30*
X222698000Y-148820000D03*
D29*
X216398000Y-151100000D03*
G04 #@! TD*
D13*
G04 #@! TO.C,D32*
X308022000Y-236556000D03*
X314822000Y-236556000D03*
G04 #@! TD*
D14*
G04 #@! TO.C,R67*
X219472500Y-221564000D03*
X221297500Y-221564000D03*
G04 #@! TD*
D27*
G04 #@! TO.C,U9*
X331708000Y-116255000D03*
X331708000Y-117525000D03*
X331708000Y-118795000D03*
X331708000Y-120065000D03*
X331708000Y-121335000D03*
X331708000Y-122605000D03*
X331708000Y-123875000D03*
X331708000Y-125145000D03*
X331708000Y-126415000D03*
X331708000Y-127685000D03*
X341008000Y-127685000D03*
X341008000Y-126415000D03*
X341008000Y-125145000D03*
X341008000Y-123875000D03*
X341008000Y-122605000D03*
X341008000Y-121335000D03*
X341008000Y-120065000D03*
X341008000Y-118795000D03*
X341008000Y-117525000D03*
X341008000Y-116255000D03*
G04 #@! TD*
D10*
G04 #@! TO.C,J138*
X422659000Y-265300000D03*
D11*
X418699000Y-265300000D03*
X414739000Y-265300000D03*
X410779000Y-265300000D03*
X406819000Y-265300000D03*
X402859000Y-265300000D03*
X398899000Y-265300000D03*
X394939000Y-265300000D03*
X390979000Y-265300000D03*
G04 #@! TD*
D20*
G04 #@! TO.C,F113*
X389396000Y-76451000D03*
X396156000Y-76451000D03*
D21*
X405746000Y-76451000D03*
X412506000Y-76451000D03*
G04 #@! TD*
D22*
G04 #@! TO.C,C41*
X153813000Y-81291000D03*
X153813000Y-83191000D03*
G04 #@! TD*
D27*
G04 #@! TO.C,U2*
X166192000Y-101585000D03*
X166192000Y-102855000D03*
X166192000Y-104125000D03*
X166192000Y-105395000D03*
X166192000Y-106665000D03*
X166192000Y-107935000D03*
X166192000Y-109205000D03*
X166192000Y-110475000D03*
X166192000Y-111745000D03*
X166192000Y-113015000D03*
X175492000Y-113015000D03*
X175492000Y-111745000D03*
X175492000Y-110475000D03*
X175492000Y-109205000D03*
X175492000Y-107935000D03*
X175492000Y-106665000D03*
X175492000Y-105395000D03*
X175492000Y-104125000D03*
X175492000Y-102855000D03*
X175492000Y-101585000D03*
G04 #@! TD*
D14*
G04 #@! TO.C,R184*
X427702500Y-183005000D03*
X429527500Y-183005000D03*
G04 #@! TD*
D29*
G04 #@! TO.C,Q56*
X261917000Y-197859000D03*
D30*
X268217000Y-200139000D03*
D29*
X261917000Y-202419000D03*
G04 #@! TD*
D14*
G04 #@! TO.C,R131*
X285948500Y-195662000D03*
X287773500Y-195662000D03*
G04 #@! TD*
D45*
G04 #@! TO.C,J106*
X214309000Y-11736000D03*
D11*
X218269000Y-11736000D03*
X222229000Y-11736000D03*
X226189000Y-11736000D03*
X230149000Y-11736000D03*
G04 #@! TD*
D33*
G04 #@! TO.C,F105*
X227343000Y-53161000D03*
X227343000Y-59921000D03*
D21*
X227343000Y-69511000D03*
X227343000Y-76271000D03*
G04 #@! TD*
D69*
G04 #@! TO.C,H9*
X251990000Y-23300000D03*
G04 #@! TD*
D14*
G04 #@! TO.C,R137*
X310509500Y-170079000D03*
X312334500Y-170079000D03*
G04 #@! TD*
D29*
G04 #@! TO.C,Q42*
X216398000Y-225758000D03*
D30*
X222698000Y-228038000D03*
D29*
X216398000Y-230318000D03*
G04 #@! TD*
D22*
G04 #@! TO.C,C20*
X395597000Y-171736000D03*
X395597000Y-173636000D03*
G04 #@! TD*
D14*
G04 #@! TO.C,R17*
X119465500Y-126743000D03*
X121290500Y-126743000D03*
G04 #@! TD*
D29*
G04 #@! TO.C,Q86*
X349472000Y-229706000D03*
D30*
X355772000Y-231986000D03*
D29*
X349472000Y-234266000D03*
G04 #@! TD*
D35*
G04 #@! TO.C,D113*
X17000000Y-41500000D03*
D36*
X19540000Y-32350000D03*
X14460000Y-32350000D03*
G04 #@! TD*
D14*
G04 #@! TO.C,R34*
X162469500Y-216130000D03*
X164294500Y-216130000D03*
G04 #@! TD*
D24*
G04 #@! TO.C,C11*
X324751000Y-16460000D03*
D25*
X324751000Y-26460000D03*
G04 #@! TD*
D22*
G04 #@! TO.C,C18*
X370315000Y-163922000D03*
X370315000Y-165822000D03*
G04 #@! TD*
D10*
G04 #@! TO.C,J130*
X322317000Y-247713000D03*
D11*
X318357000Y-247713000D03*
X314397000Y-247713000D03*
X310437000Y-247713000D03*
X306477000Y-247713000D03*
X302517000Y-247713000D03*
X298557000Y-247713000D03*
X294597000Y-247713000D03*
X290637000Y-247713000D03*
G04 #@! TD*
D13*
G04 #@! TO.C,D27*
X283461000Y-210977000D03*
X290261000Y-210977000D03*
G04 #@! TD*
D41*
G04 #@! TO.C,D38*
X218385000Y-235334000D03*
X222385000Y-235334000D03*
G04 #@! TD*
D14*
G04 #@! TO.C,R154*
X348940500Y-191802000D03*
X350765500Y-191802000D03*
G04 #@! TD*
D18*
G04 #@! TO.C,R306*
X345319000Y-220429500D03*
X345319000Y-222254500D03*
G04 #@! TD*
D13*
G04 #@! TO.C,D8*
X159982000Y-235427000D03*
X166782000Y-235427000D03*
G04 #@! TD*
G04 #@! TO.C,D18*
X240708000Y-182615000D03*
X247508000Y-182615000D03*
G04 #@! TD*
D38*
G04 #@! TO.C,Q14*
X78044000Y-129909000D03*
D39*
X78044000Y-132449000D03*
X78044000Y-134989000D03*
G04 #@! TD*
D14*
G04 #@! TO.C,R261*
X265165500Y-57608000D03*
X266990500Y-57608000D03*
G04 #@! TD*
D51*
G04 #@! TO.C,D109*
X282500000Y-12000000D03*
D52*
X273350000Y-9460000D03*
X273350000Y-14540000D03*
G04 #@! TD*
D14*
G04 #@! TO.C,R58*
X219472500Y-164802000D03*
X221297500Y-164802000D03*
G04 #@! TD*
G04 #@! TO.C,R183*
X405906500Y-238523000D03*
X407731500Y-238523000D03*
G04 #@! TD*
G04 #@! TO.C,R55*
X219472500Y-142346000D03*
X221297500Y-142346000D03*
G04 #@! TD*
D37*
G04 #@! TO.C,LED4*
X186015000Y-87501500D03*
X186015000Y-89376500D03*
G04 #@! TD*
D45*
G04 #@! TO.C,J108*
X194797000Y-11736000D03*
D11*
X198757000Y-11736000D03*
X202717000Y-11736000D03*
G04 #@! TD*
D18*
G04 #@! TO.C,R143*
X346044000Y-148469500D03*
X346044000Y-150294500D03*
G04 #@! TD*
D12*
G04 #@! TO.C,TP6*
X308069000Y-77518000D03*
G04 #@! TD*
D13*
G04 #@! TO.C,D26*
X283461000Y-185412000D03*
X290261000Y-185412000D03*
G04 #@! TD*
D29*
G04 #@! TO.C,Q89*
X371342000Y-212815000D03*
D30*
X377642000Y-215095000D03*
D29*
X371342000Y-217375000D03*
G04 #@! TD*
D22*
G04 #@! TO.C,C15*
X354544000Y-160696000D03*
X354544000Y-162596000D03*
G04 #@! TD*
D14*
G04 #@! TO.C,R14*
X119465500Y-122793000D03*
X121290500Y-122793000D03*
G04 #@! TD*
D20*
G04 #@! TO.C,F108*
X21390000Y-204038000D03*
X28150000Y-204038000D03*
D21*
X37740000Y-204038000D03*
X44500000Y-204038000D03*
G04 #@! TD*
D34*
G04 #@! TO.C,H5*
X186770000Y-6550000D03*
G04 #@! TD*
D14*
G04 #@! TO.C,R129*
X285948500Y-170079000D03*
X287773500Y-170079000D03*
G04 #@! TD*
G04 #@! TO.C,R90*
X264991500Y-163318000D03*
X266816500Y-163318000D03*
G04 #@! TD*
D22*
G04 #@! TO.C,B10*
X340502000Y-148684000D03*
X340502000Y-150584000D03*
G04 #@! TD*
D12*
G04 #@! TO.C,TP4*
X46776000Y-61614000D03*
G04 #@! TD*
D18*
G04 #@! TO.C,R305*
X345004000Y-229615500D03*
X345004000Y-231440500D03*
G04 #@! TD*
D14*
G04 #@! TO.C,R12*
X59276500Y-153646000D03*
X61101500Y-153646000D03*
G04 #@! TD*
D26*
G04 #@! TO.C,R174*
X385201000Y-198644500D03*
X385201000Y-204569500D03*
G04 #@! TD*
D14*
G04 #@! TO.C,R180*
X405906500Y-208718000D03*
X407731500Y-208718000D03*
G04 #@! TD*
G04 #@! TO.C,R70*
X243195500Y-136913000D03*
X245020500Y-136913000D03*
G04 #@! TD*
D18*
G04 #@! TO.C,R266*
X267505000Y-73202500D03*
X267505000Y-75027500D03*
G04 #@! TD*
D10*
G04 #@! TO.C,J126*
X222936000Y-265300000D03*
D11*
X218976000Y-265300000D03*
X215016000Y-265300000D03*
X211056000Y-265300000D03*
X207096000Y-265300000D03*
X203136000Y-265300000D03*
X199176000Y-265300000D03*
X195216000Y-265300000D03*
X191256000Y-265300000D03*
X187296000Y-265300000D03*
X183336000Y-265300000D03*
X179376000Y-265300000D03*
X175416000Y-265300000D03*
G04 #@! TD*
D14*
G04 #@! TO.C,R50*
X196000500Y-217614000D03*
X197825500Y-217614000D03*
G04 #@! TD*
D12*
G04 #@! TO.C,TP8*
X411430000Y-139993000D03*
G04 #@! TD*
D13*
G04 #@! TO.C,D22*
X262504000Y-182615000D03*
X269304000Y-182615000D03*
G04 #@! TD*
D18*
G04 #@! TO.C,R264*
X275378000Y-72856500D03*
X275378000Y-74681500D03*
G04 #@! TD*
D29*
G04 #@! TO.C,Q30*
X192926000Y-172946000D03*
D30*
X199226000Y-175226000D03*
D29*
X192926000Y-177506000D03*
G04 #@! TD*
D18*
G04 #@! TO.C,R148*
X399528000Y-171773500D03*
X399528000Y-173598500D03*
G04 #@! TD*
D22*
G04 #@! TO.C,B2*
X172100000Y-120601000D03*
X172100000Y-122501000D03*
G04 #@! TD*
M02*
