%TF.GenerationSoftware,KiCad,Pcbnew,10.0.6*%
%TF.CreationDate,2026-09-11T23:23:19-07:00*%
%TF.ProjectId,wpc_power_driver_cost,7770635f-706f-4776-9572-5f6472697665,JLC-3*%
%TF.SameCoordinates,Original*%
%TF.FileFunction,Soldermask,Bot*%
%TF.FilePolarity,Negative*%
%FSLAX46Y46*%
G04 Gerber Fmt 4.6, Leading zero omitted, Abs format (unit mm)*
G04 Created by KiCad (PCBNEW 10.0.6) date 2026-09-11 23:23:19*
%MOMM*%
%LPD*%
G01*
G04 APERTURE LIST*
G04 Aperture macros list*
%AMRoundRect*
0 Rectangle with rounded corners*
0 $1 Rounding radius*
0 $2 $3 $4 $5 $6 $7 $8 $9 X,Y pos of 4 corners*
0 Add a 4 corners polygon primitive as box body*
4,1,4,$2,$3,$4,$5,$6,$7,$8,$9,$2,$3,0*
0 Add four circle primitives for the rounded corners*
1,1,$1+$1,$2,$3*
1,1,$1+$1,$4,$5*
1,1,$1+$1,$6,$7*
1,1,$1+$1,$8,$9*
0 Add four rect primitives between the rounded corners*
20,1,$1+$1,$2,$3,$4,$5,0*
20,1,$1+$1,$4,$5,$6,$7,0*
20,1,$1+$1,$6,$7,$8,$9,0*
20,1,$1+$1,$8,$9,$2,$3,0*%
G04 Aperture macros list end*
%ADD10RoundRect,0.250000X1.330000X1.800000X-1.330000X1.800000X-1.330000X-1.800000X1.330000X-1.800000X0*%
%ADD11O,3.160000X4.100000*%
%ADD12C,2.000000*%
%ADD13RoundRect,0.250000X1.800000X-1.330000X1.800000X1.330000X-1.800000X1.330000X-1.800000X-1.330000X0*%
%ADD14O,4.100000X3.160000*%
%ADD15RoundRect,0.675000X-0.675000X-0.675000X0.675000X-0.675000X0.675000X0.675000X-0.675000X0.675000X0*%
%ADD16C,2.700000*%
%ADD17RoundRect,0.250000X-1.750000X1.750000X-1.750000X-1.750000X1.750000X-1.750000X1.750000X1.750000X0*%
%ADD18C,4.000000*%
%ADD19RoundRect,0.250000X0.620000X0.845000X-0.620000X0.845000X-0.620000X-0.845000X0.620000X-0.845000X0*%
%ADD20O,1.740000X2.190000*%
%ADD21O,1.905000X2.000000*%
%ADD22R,1.905000X2.000000*%
%ADD23RoundRect,0.675000X-0.675000X0.675000X-0.675000X-0.675000X0.675000X-0.675000X0.675000X0.675000X0*%
%ADD24C,4.300000*%
%ADD25R,2.000000X1.905000*%
%ADD26O,2.000000X1.905000*%
%ADD27RoundRect,0.250000X-0.750000X0.750000X-0.750000X-0.750000X0.750000X-0.750000X0.750000X0.750000X0*%
%ADD28RoundRect,0.250000X-1.330000X-1.800000X1.330000X-1.800000X1.330000X1.800000X-1.330000X1.800000X0*%
%ADD29RoundRect,0.250000X-1.800000X1.330000X-1.800000X-1.330000X1.800000X-1.330000X1.800000X1.330000X0*%
%ADD30R,2.000000X2.000000*%
%ADD31RoundRect,0.250000X0.600000X0.600000X-0.600000X0.600000X-0.600000X-0.600000X0.600000X-0.600000X0*%
%ADD32C,1.700000*%
%ADD33RoundRect,0.250000X-0.750000X-0.750000X0.750000X-0.750000X0.750000X0.750000X-0.750000X0.750000X0*%
%ADD34R,2.800000X2.800000*%
%ADD35C,2.800000*%
%ADD36RoundRect,0.250000X-1.750000X-1.750000X1.750000X-1.750000X1.750000X1.750000X-1.750000X1.750000X0*%
%ADD37RoundRect,0.250000X-0.620000X-0.845000X0.620000X-0.845000X0.620000X0.845000X-0.620000X0.845000X0*%
%ADD38C,5.500000*%
G04 APERTURE END LIST*
D10*
%TO.C,J122*%
X144349000Y-265300000D03*
D11*
X140389000Y-265300000D03*
X136429000Y-265300000D03*
X132469000Y-265300000D03*
X128509000Y-265300000D03*
X124549000Y-265300000D03*
X120589000Y-265300000D03*
X116629000Y-265300000D03*
X112669000Y-265300000D03*
%TD*%
D12*
%TO.C,TP3*%
X65638000Y-93469000D03*
%TD*%
D13*
%TO.C,J115*%
X7610000Y-245602000D03*
D14*
X7610000Y-241642000D03*
X7610000Y-237682000D03*
X7610000Y-233722000D03*
X7610000Y-229762000D03*
X7610000Y-225802000D03*
X7610000Y-221842000D03*
X7610000Y-217882000D03*
X7610000Y-213922000D03*
X7610000Y-209962000D03*
X7610000Y-206002000D03*
X7610000Y-202042000D03*
%TD*%
D15*
%TO.C,F114*%
X389396000Y-91373000D03*
X396156000Y-91373000D03*
D16*
X405746000Y-91373000D03*
X412506000Y-91373000D03*
%TD*%
D10*
%TO.C,J116*%
X27987000Y-247713000D03*
D11*
X24027000Y-247713000D03*
X20067000Y-247713000D03*
X16107000Y-247713000D03*
%TD*%
D17*
%TO.C,C30*%
X16600000Y-57000000D03*
D18*
X16600000Y-67000000D03*
%TD*%
D12*
%TO.C,TP2*%
X47195000Y-93469000D03*
%TD*%
D19*
%TO.C,J133*%
X369365000Y-244779000D03*
D20*
X366825000Y-244779000D03*
X364285000Y-244779000D03*
X361745000Y-244779000D03*
X359205000Y-244779000D03*
X356665000Y-244779000D03*
X354125000Y-244779000D03*
X351585000Y-244779000D03*
X349045000Y-244779000D03*
%TD*%
D21*
%TO.C,D103*%
X350000000Y-32650000D03*
D22*
X347460000Y-32650000D03*
D21*
X352540000Y-32650000D03*
%TD*%
D23*
%TO.C,F116*%
X57255000Y-29102000D03*
X57255000Y-35862000D03*
D16*
X57255000Y-45452000D03*
X57255000Y-52212000D03*
%TD*%
D10*
%TO.C,J136*%
X384373000Y-265300000D03*
D11*
X380413000Y-265300000D03*
X376453000Y-265300000D03*
%TD*%
D24*
%TO.C,H1*%
X442602000Y-6550000D03*
%TD*%
D21*
%TO.C,D101*%
X350000000Y-53350000D03*
D22*
X352540000Y-53350000D03*
D21*
X347460000Y-53350000D03*
%TD*%
D25*
%TO.C,Q10*%
X117444000Y-207450000D03*
D26*
X117444000Y-209990000D03*
X117444000Y-212530000D03*
%TD*%
D10*
%TO.C,J127*%
X268331000Y-247713000D03*
D11*
X264371000Y-247713000D03*
X260411000Y-247713000D03*
X256451000Y-247713000D03*
X252491000Y-247713000D03*
X248531000Y-247713000D03*
X244571000Y-247713000D03*
X240611000Y-247713000D03*
X236651000Y-247713000D03*
%TD*%
D27*
%TO.C,C4*%
X254418000Y-78923000D03*
D12*
X254418000Y-83923000D03*
%TD*%
D15*
%TO.C,F115*%
X79902000Y-92630000D03*
X86662000Y-92630000D03*
D16*
X96252000Y-92630000D03*
X103012000Y-92630000D03*
%TD*%
D15*
%TO.C,F110*%
X66238000Y-233211000D03*
X72998000Y-233211000D03*
D16*
X82588000Y-233211000D03*
X89348000Y-233211000D03*
%TD*%
D24*
%TO.C,H3*%
X6550000Y-6550000D03*
%TD*%
D15*
%TO.C,F107*%
X21390000Y-218624000D03*
X28150000Y-218624000D03*
D16*
X37740000Y-218624000D03*
X44500000Y-218624000D03*
%TD*%
D15*
%TO.C,F109*%
X66238000Y-218624000D03*
X72998000Y-218624000D03*
D16*
X82588000Y-218624000D03*
X89348000Y-218624000D03*
%TD*%
D28*
%TO.C,J109*%
X149154000Y-11736000D03*
D11*
X153114000Y-11736000D03*
X157074000Y-11736000D03*
X161034000Y-11736000D03*
X164994000Y-11736000D03*
X168954000Y-11736000D03*
X172914000Y-11736000D03*
%TD*%
D28*
%TO.C,J105*%
X392612000Y-33531000D03*
D11*
X396572000Y-33531000D03*
X400532000Y-33531000D03*
X404492000Y-33531000D03*
X408452000Y-33531000D03*
%TD*%
D10*
%TO.C,J118*%
X47267000Y-247713000D03*
D11*
X43307000Y-247713000D03*
X39347000Y-247713000D03*
X35387000Y-247713000D03*
%TD*%
D17*
%TO.C,C8*%
X326508000Y-88469000D03*
D18*
X326508000Y-98469000D03*
%TD*%
D29*
%TO.C,J101*%
X431968000Y-101288000D03*
D14*
X431968000Y-105248000D03*
X431968000Y-109208000D03*
X431968000Y-113168000D03*
X431968000Y-117128000D03*
X431968000Y-121088000D03*
X431968000Y-125048000D03*
%TD*%
D24*
%TO.C,H2*%
X442602000Y-266360000D03*
%TD*%
D23*
%TO.C,F102*%
X180483000Y-53161000D03*
X180483000Y-59921000D03*
D16*
X180483000Y-69511000D03*
X180483000Y-76271000D03*
%TD*%
D15*
%TO.C,F112*%
X389396000Y-61614000D03*
X396156000Y-61614000D03*
D16*
X405746000Y-61614000D03*
X412506000Y-61614000D03*
%TD*%
D21*
%TO.C,D104*%
X363400000Y-17650000D03*
D22*
X360860000Y-17650000D03*
D21*
X365940000Y-17650000D03*
%TD*%
D10*
%TO.C,J120*%
X109999000Y-247713000D03*
D11*
X106039000Y-247713000D03*
X102079000Y-247713000D03*
X98119000Y-247713000D03*
X94159000Y-247713000D03*
X90199000Y-247713000D03*
X86239000Y-247713000D03*
X82279000Y-247713000D03*
X78319000Y-247713000D03*
X74359000Y-247713000D03*
X70399000Y-247713000D03*
%TD*%
D10*
%TO.C,J119*%
X46545000Y-265300000D03*
D11*
X42585000Y-265300000D03*
X38625000Y-265300000D03*
%TD*%
D12*
%TO.C,RLY1*%
X98474000Y-30703000D03*
X103474000Y-30703000D03*
X93474000Y-30703000D03*
X98474000Y-38203000D03*
X103474000Y-38203000D03*
X93474000Y-38203000D03*
D30*
X118474000Y-30703000D03*
D12*
X118474000Y-38203000D03*
%TD*%
D24*
%TO.C,H7*%
X442602000Y-134125000D03*
%TD*%
%TO.C,H4*%
X6550000Y-266360000D03*
%TD*%
D12*
%TO.C,TP1*%
X39232000Y-76284000D03*
%TD*%
D27*
%TO.C,C9*%
X241868000Y-78895000D03*
D12*
X241868000Y-83895000D03*
%TD*%
D10*
%TO.C,J132*%
X339461000Y-265300000D03*
D11*
X335501000Y-265300000D03*
X331541000Y-265300000D03*
X327581000Y-265300000D03*
X323621000Y-265300000D03*
%TD*%
D25*
%TO.C,Q12*%
X38393000Y-156734000D03*
D26*
X38393000Y-159274000D03*
X38393000Y-161814000D03*
%TD*%
D28*
%TO.C,J107*%
X207886000Y-33950000D03*
D11*
X211846000Y-33950000D03*
X215806000Y-33950000D03*
X219766000Y-33950000D03*
X223726000Y-33950000D03*
X227686000Y-33950000D03*
%TD*%
D15*
%TO.C,F106*%
X21390000Y-233211000D03*
X28150000Y-233211000D03*
D16*
X37740000Y-233211000D03*
X44500000Y-233211000D03*
%TD*%
D28*
%TO.C,J112*%
X51430000Y-11736000D03*
D11*
X55390000Y-11736000D03*
X59350000Y-11736000D03*
X63310000Y-11736000D03*
X67270000Y-11736000D03*
%TD*%
D23*
%TO.C,F104*%
X211834000Y-53161000D03*
X211834000Y-59921000D03*
D16*
X211834000Y-69511000D03*
X211834000Y-76271000D03*
%TD*%
D23*
%TO.C,F103*%
X196494000Y-53161000D03*
X196494000Y-59921000D03*
D16*
X196494000Y-69511000D03*
X196494000Y-76271000D03*
%TD*%
D19*
%TO.C,J135*%
X369365000Y-267490000D03*
D20*
X366825000Y-267490000D03*
X364285000Y-267490000D03*
X361745000Y-267490000D03*
X359205000Y-267490000D03*
X356665000Y-267490000D03*
X354125000Y-267490000D03*
X351585000Y-267490000D03*
X349045000Y-267490000D03*
%TD*%
D25*
%TO.C,Q16*%
X78044000Y-182302000D03*
D26*
X78044000Y-184842000D03*
X78044000Y-187382000D03*
%TD*%
D12*
%TO.C,TP7*%
X245785000Y-112749000D03*
%TD*%
D10*
%TO.C,J125*%
X218202000Y-247713000D03*
D11*
X214242000Y-247713000D03*
X210282000Y-247713000D03*
X206322000Y-247713000D03*
X202362000Y-247713000D03*
X198402000Y-247713000D03*
X194442000Y-247713000D03*
X190482000Y-247713000D03*
X186522000Y-247713000D03*
%TD*%
D10*
%TO.C,J124*%
X160823000Y-247713000D03*
D11*
X156863000Y-247713000D03*
X152903000Y-247713000D03*
X148943000Y-247713000D03*
X144983000Y-247713000D03*
%TD*%
D29*
%TO.C,J103*%
X431968000Y-28010000D03*
D14*
X431968000Y-31970000D03*
X431968000Y-35930000D03*
X431968000Y-39890000D03*
%TD*%
D13*
%TO.C,J114*%
X7610000Y-187249000D03*
D14*
X7610000Y-183289000D03*
X7610000Y-179329000D03*
X7610000Y-175369000D03*
X7610000Y-171409000D03*
X7610000Y-167449000D03*
X7610000Y-163489000D03*
%TD*%
D29*
%TO.C,J102*%
X431968000Y-49714000D03*
D14*
X431968000Y-53674000D03*
X431968000Y-57634000D03*
X431968000Y-61594000D03*
X431968000Y-65554000D03*
X431968000Y-69514000D03*
X431968000Y-73474000D03*
X431968000Y-77434000D03*
X431968000Y-81394000D03*
%TD*%
D10*
%TO.C,J129*%
X275500000Y-265300000D03*
D11*
X271540000Y-265300000D03*
X267580000Y-265300000D03*
X263620000Y-265300000D03*
X259660000Y-265300000D03*
%TD*%
D31*
%TO.C,J113*%
X8220000Y-128459000D03*
D32*
X5680000Y-128459000D03*
X8220000Y-125919000D03*
X5680000Y-125919000D03*
X8220000Y-123379000D03*
X5680000Y-123379000D03*
X8220000Y-120839000D03*
X5680000Y-120839000D03*
X8220000Y-118299000D03*
X5680000Y-118299000D03*
X8220000Y-115759000D03*
X5680000Y-115759000D03*
X8220000Y-113219000D03*
X5680000Y-113219000D03*
X8220000Y-110679000D03*
X5680000Y-110679000D03*
X8220000Y-108139000D03*
X5680000Y-108139000D03*
X8220000Y-105599000D03*
X5680000Y-105599000D03*
X8220000Y-103059000D03*
X5680000Y-103059000D03*
X8220000Y-100519000D03*
X5680000Y-100519000D03*
X8220000Y-97979000D03*
X5680000Y-97979000D03*
X8220000Y-95439000D03*
X5680000Y-95439000D03*
X8220000Y-92899000D03*
X5680000Y-92899000D03*
X8220000Y-90359000D03*
X5680000Y-90359000D03*
X8220000Y-87819000D03*
X5680000Y-87819000D03*
%TD*%
D17*
%TO.C,C5*%
X324583000Y-53345000D03*
D18*
X324583000Y-63345000D03*
%TD*%
D12*
%TO.C,TP9*%
X308283000Y-50297000D03*
%TD*%
D33*
%TO.C,C2*%
X122500000Y-58700000D03*
D12*
X127500000Y-58700000D03*
%TD*%
D10*
%TO.C,J137*%
X422659000Y-246875000D03*
D11*
X418699000Y-246875000D03*
X414739000Y-246875000D03*
X410779000Y-246875000D03*
X406819000Y-246875000D03*
X402859000Y-246875000D03*
X398899000Y-246875000D03*
X394939000Y-246875000D03*
X390979000Y-246875000D03*
%TD*%
D10*
%TO.C,J121*%
X99018000Y-265300000D03*
D11*
X95058000Y-265300000D03*
X91098000Y-265300000D03*
X87138000Y-265300000D03*
X83178000Y-265300000D03*
X79218000Y-265300000D03*
X75258000Y-265300000D03*
X71298000Y-265300000D03*
X67338000Y-265300000D03*
X63378000Y-265300000D03*
X59418000Y-265300000D03*
%TD*%
D27*
%TO.C,C12*%
X113847000Y-65890000D03*
D12*
X113847000Y-70890000D03*
%TD*%
D10*
%TO.C,J131*%
X314313000Y-265300000D03*
D11*
X310353000Y-265300000D03*
X306393000Y-265300000D03*
X302433000Y-265300000D03*
X298473000Y-265300000D03*
%TD*%
D12*
%TO.C,TP5*%
X245785000Y-121132000D03*
%TD*%
D23*
%TO.C,F101*%
X165142000Y-53161000D03*
X165142000Y-59921000D03*
D16*
X165142000Y-69511000D03*
X165142000Y-76271000D03*
%TD*%
D25*
%TO.C,Q18*%
X128341000Y-155057000D03*
D26*
X128341000Y-157597000D03*
X128341000Y-160137000D03*
%TD*%
D24*
%TO.C,H8*%
X6550000Y-146700000D03*
%TD*%
D19*
%TO.C,J134*%
X369365000Y-257772000D03*
D20*
X366825000Y-257772000D03*
X364285000Y-257772000D03*
X361745000Y-257772000D03*
X359205000Y-257772000D03*
X356665000Y-257772000D03*
X354125000Y-257772000D03*
X351585000Y-257772000D03*
X349045000Y-257772000D03*
%TD*%
D24*
%TO.C,H6*%
X283172000Y-266360000D03*
%TD*%
D10*
%TO.C,J128*%
X252867000Y-265300000D03*
D11*
X248907000Y-265300000D03*
X244947000Y-265300000D03*
X240987000Y-265300000D03*
X237027000Y-265300000D03*
%TD*%
D34*
%TO.C,BR3*%
X254588000Y-14304000D03*
D35*
X242988000Y-14304000D03*
X242988000Y-32304000D03*
X260988000Y-32304000D03*
%TD*%
D10*
%TO.C,J117*%
X27987000Y-265300000D03*
D11*
X24027000Y-265300000D03*
X20067000Y-265300000D03*
X16107000Y-265300000D03*
%TD*%
D36*
%TO.C,C6*%
X394694000Y-117527000D03*
D18*
X404694000Y-117527000D03*
%TD*%
D21*
%TO.C,D102*%
X376000000Y-77350000D03*
D22*
X378540000Y-77350000D03*
D21*
X373460000Y-77350000D03*
%TD*%
D28*
%TO.C,J110*%
X106382000Y-11736000D03*
D11*
X110342000Y-11736000D03*
X114302000Y-11736000D03*
X118262000Y-11736000D03*
X122222000Y-11736000D03*
X126182000Y-11736000D03*
X130142000Y-11736000D03*
X134102000Y-11736000D03*
X138062000Y-11736000D03*
%TD*%
D15*
%TO.C,F111*%
X389396000Y-46525000D03*
X396156000Y-46525000D03*
D16*
X405746000Y-46525000D03*
X412506000Y-46525000D03*
%TD*%
D17*
%TO.C,C32*%
X299000000Y-89056000D03*
D18*
X299000000Y-99056000D03*
%TD*%
D36*
%TO.C,C7*%
X356049000Y-117863000D03*
D18*
X366049000Y-117863000D03*
%TD*%
D10*
%TO.C,J123*%
X137100000Y-247713000D03*
D11*
X133140000Y-247713000D03*
X129180000Y-247713000D03*
X125220000Y-247713000D03*
X121260000Y-247713000D03*
%TD*%
D37*
%TO.C,J111*%
X77323000Y-15927000D03*
D20*
X79863000Y-15927000D03*
X82403000Y-15927000D03*
X84943000Y-15927000D03*
X87483000Y-15927000D03*
%TD*%
D28*
%TO.C,J104*%
X392612000Y-10898000D03*
D11*
X396572000Y-10898000D03*
X400532000Y-10898000D03*
X404492000Y-10898000D03*
X408452000Y-10898000D03*
%TD*%
D10*
%TO.C,J138*%
X422659000Y-265300000D03*
D11*
X418699000Y-265300000D03*
X414739000Y-265300000D03*
X410779000Y-265300000D03*
X406819000Y-265300000D03*
X402859000Y-265300000D03*
X398899000Y-265300000D03*
X394939000Y-265300000D03*
X390979000Y-265300000D03*
%TD*%
D15*
%TO.C,F113*%
X389396000Y-76451000D03*
X396156000Y-76451000D03*
D16*
X405746000Y-76451000D03*
X412506000Y-76451000D03*
%TD*%
D28*
%TO.C,J106*%
X214309000Y-11736000D03*
D11*
X218269000Y-11736000D03*
X222229000Y-11736000D03*
X226189000Y-11736000D03*
X230149000Y-11736000D03*
%TD*%
D23*
%TO.C,F105*%
X227343000Y-53161000D03*
X227343000Y-59921000D03*
D16*
X227343000Y-69511000D03*
X227343000Y-76271000D03*
%TD*%
D38*
%TO.C,H9*%
X251990000Y-23300000D03*
%TD*%
D17*
%TO.C,C11*%
X325951000Y-16460000D03*
D18*
X325951000Y-26460000D03*
%TD*%
D10*
%TO.C,J130*%
X322317000Y-247713000D03*
D11*
X318357000Y-247713000D03*
X314397000Y-247713000D03*
X310437000Y-247713000D03*
X306477000Y-247713000D03*
X302517000Y-247713000D03*
X298557000Y-247713000D03*
X294597000Y-247713000D03*
X290637000Y-247713000D03*
%TD*%
D25*
%TO.C,Q14*%
X78044000Y-129909000D03*
D26*
X78044000Y-132449000D03*
X78044000Y-134989000D03*
%TD*%
D28*
%TO.C,J108*%
X194797000Y-11736000D03*
D11*
X198757000Y-11736000D03*
X202717000Y-11736000D03*
%TD*%
D12*
%TO.C,TP6*%
X308069000Y-77518000D03*
%TD*%
D15*
%TO.C,F108*%
X21390000Y-204038000D03*
X28150000Y-204038000D03*
D16*
X37740000Y-204038000D03*
X44500000Y-204038000D03*
%TD*%
D24*
%TO.C,H5*%
X186770000Y-6550000D03*
%TD*%
D12*
%TO.C,TP4*%
X46776000Y-61614000D03*
%TD*%
D10*
%TO.C,J126*%
X222936000Y-265300000D03*
D11*
X218976000Y-265300000D03*
X215016000Y-265300000D03*
X211056000Y-265300000D03*
X207096000Y-265300000D03*
X203136000Y-265300000D03*
X199176000Y-265300000D03*
X195216000Y-265300000D03*
X191256000Y-265300000D03*
X187296000Y-265300000D03*
X183336000Y-265300000D03*
X179376000Y-265300000D03*
X175416000Y-265300000D03*
%TD*%
D12*
%TO.C,TP8*%
X411430000Y-139993000D03*
%TD*%
M02*
