%TF.GenerationSoftware,KiCad,Pcbnew,10.0.6*%
%TF.CreationDate,2026-09-11T14:13:59-07:00*%
%TF.ProjectId,wpc_power_driver_cost,7770635f-706f-4776-9572-5f6472697665,JLC-2*%
%TF.SameCoordinates,Original*%
%TF.FileFunction,Paste,Top*%
%TF.FilePolarity,Positive*%
%FSLAX46Y46*%
G04 Gerber Fmt 4.6, Leading zero omitted, Abs format (unit mm)*
G04 Created by KiCad (PCBNEW 10.0.6) date 2026-09-11 14:13:59*
%MOMM*%
%LPD*%
G01*
G04 APERTURE LIST*
G04 Aperture macros list*
%AMRoundRect*
0 Rectangle with rounded corners*
0 $1 Rounding radius*
0 $2 $3 $4 $5 $6 $7 $8 $9 X,Y pos of 4 corners*
0 Add a 4 corners polygon primitive as box body*
4,1,4,$2,$3,$4,$5,$6,$7,$8,$9,$2,$3,0*
0 Add four circle primitives for the rounded corners*
1,1,$1+$1,$2,$3*
1,1,$1+$1,$4,$5*
1,1,$1+$1,$6,$7*
1,1,$1+$1,$8,$9*
0 Add four rect primitives between the rounded corners*
20,1,$1+$1,$2,$3,$4,$5,0*
20,1,$1+$1,$4,$5,$6,$7,0*
20,1,$1+$1,$6,$7,$8,$9,0*
20,1,$1+$1,$8,$9,$2,$3,0*%
G04 Aperture macros list end*
%ADD10RoundRect,0.250000X1.000000X-1.400000X1.000000X1.400000X-1.000000X1.400000X-1.000000X-1.400000X0*%
%ADD11RoundRect,0.250000X-0.262500X-0.450000X0.262500X-0.450000X0.262500X0.450000X-0.262500X0.450000X0*%
%ADD12RoundRect,0.150000X-0.150000X0.587500X-0.150000X-0.587500X0.150000X-0.587500X0.150000X0.587500X0*%
%ADD13RoundRect,0.250000X-0.450000X0.262500X-0.450000X-0.262500X0.450000X-0.262500X0.450000X0.262500X0*%
%ADD14RoundRect,0.150000X-0.825000X-0.150000X0.825000X-0.150000X0.825000X0.150000X-0.825000X0.150000X0*%
%ADD15RoundRect,0.250000X-0.475000X0.250000X-0.475000X-0.250000X0.475000X-0.250000X0.475000X0.250000X0*%
%ADD16RoundRect,0.250000X-0.325000X-1.100000X0.325000X-1.100000X0.325000X1.100000X-0.325000X1.100000X0*%
%ADD17RoundRect,0.250000X-1.425000X0.362500X-1.425000X-0.362500X1.425000X-0.362500X1.425000X0.362500X0*%
%ADD18RoundRect,0.150000X-0.875000X-0.150000X0.875000X-0.150000X0.875000X0.150000X-0.875000X0.150000X0*%
%ADD19RoundRect,0.225000X-0.225000X-0.375000X0.225000X-0.375000X0.225000X0.375000X-0.225000X0.375000X0*%
%ADD20RoundRect,0.250000X0.262500X0.450000X-0.262500X0.450000X-0.262500X-0.450000X0.262500X-0.450000X0*%
%ADD21RoundRect,0.250000X0.450000X-0.262500X0.450000X0.262500X-0.450000X0.262500X-0.450000X-0.262500X0*%
%ADD22RoundRect,0.250000X-1.275000X-1.125000X1.275000X-1.125000X1.275000X1.125000X-1.275000X1.125000X0*%
%ADD23RoundRect,0.250000X-0.850000X-0.350000X0.850000X-0.350000X0.850000X0.350000X-0.850000X0.350000X0*%
%ADD24RoundRect,0.250000X-2.375000X2.025000X-2.375000X-2.025000X2.375000X-2.025000X2.375000X2.025000X0*%
%ADD25RoundRect,0.250000X-0.300000X2.050000X-0.300000X-2.050000X0.300000X-2.050000X0.300000X2.050000X0*%
%ADD26RoundRect,0.243750X-0.456250X0.243750X-0.456250X-0.243750X0.456250X-0.243750X0.456250X0.243750X0*%
%ADD27R,5.000000X3.100000*%
%ADD28RoundRect,0.250000X-1.000000X-0.650000X1.000000X-0.650000X1.000000X0.650000X-1.000000X0.650000X0*%
%ADD29RoundRect,0.250000X-0.362500X-1.425000X0.362500X-1.425000X0.362500X1.425000X-0.362500X1.425000X0*%
%ADD30RoundRect,0.250000X-1.100000X0.325000X-1.100000X-0.325000X1.100000X-0.325000X1.100000X0.325000X0*%
%ADD31RoundRect,0.250000X0.475000X-0.250000X0.475000X0.250000X-0.475000X0.250000X-0.475000X-0.250000X0*%
%ADD32RoundRect,0.150000X0.875000X0.150000X-0.875000X0.150000X-0.875000X-0.150000X0.875000X-0.150000X0*%
%ADD33RoundRect,0.250000X2.375000X-2.025000X2.375000X2.025000X-2.375000X2.025000X-2.375000X-2.025000X0*%
%ADD34RoundRect,0.250000X0.300000X-2.050000X0.300000X2.050000X-0.300000X2.050000X-0.300000X-2.050000X0*%
%ADD35RoundRect,0.250000X-2.025000X-2.375000X2.025000X-2.375000X2.025000X2.375000X-2.025000X2.375000X0*%
%ADD36RoundRect,0.250000X-2.050000X-0.300000X2.050000X-0.300000X2.050000X0.300000X-2.050000X0.300000X0*%
%ADD37RoundRect,0.250000X-1.125000X1.275000X-1.125000X-1.275000X1.125000X-1.275000X1.125000X1.275000X0*%
%ADD38RoundRect,0.250000X-0.350000X0.850000X-0.350000X-0.850000X0.350000X-0.850000X0.350000X0.850000X0*%
%ADD39RoundRect,0.250000X2.025000X2.375000X-2.025000X2.375000X-2.025000X-2.375000X2.025000X-2.375000X0*%
%ADD40RoundRect,0.250000X2.050000X0.300000X-2.050000X0.300000X-2.050000X-0.300000X2.050000X-0.300000X0*%
%ADD41R,3.100000X2.600000*%
%ADD42R,0.600000X1.550000*%
%ADD43RoundRect,0.250000X-1.400000X-1.000000X1.400000X-1.000000X1.400000X1.000000X-1.400000X1.000000X0*%
G04 APERTURE END LIST*
D10*
%TO.C,D5*%
X159982000Y-156209000D03*
X166782000Y-156209000D03*
%TD*%
D11*
%TO.C,R82*%
X243195500Y-216130000D03*
X245020500Y-216130000D03*
%TD*%
D12*
%TO.C,Q11*%
X61139000Y-157588500D03*
X59239000Y-157588500D03*
X60189000Y-159463500D03*
%TD*%
D11*
%TO.C,R171*%
X370788500Y-221570000D03*
X372613500Y-221570000D03*
%TD*%
D13*
%TO.C,R307*%
X344914000Y-208658500D03*
X344914000Y-210483500D03*
%TD*%
D14*
%TO.C,U12*%
X372980000Y-145824000D03*
X372980000Y-147094000D03*
X372980000Y-148364000D03*
X372980000Y-149634000D03*
X372980000Y-150904000D03*
X372980000Y-152174000D03*
X372980000Y-153444000D03*
X377930000Y-153444000D03*
X377930000Y-152174000D03*
X377930000Y-150904000D03*
X377930000Y-149634000D03*
X377930000Y-148364000D03*
X377930000Y-147094000D03*
X377930000Y-145824000D03*
%TD*%
D15*
%TO.C,B15*%
X350582000Y-160699000D03*
X350582000Y-162599000D03*
%TD*%
D16*
%TO.C,C34*%
X270633000Y-56950000D03*
X273583000Y-56950000D03*
%TD*%
D11*
%TO.C,R74*%
X243195500Y-163318000D03*
X245020500Y-163318000D03*
%TD*%
%TO.C,R158*%
X349232500Y-225486000D03*
X351057500Y-225486000D03*
%TD*%
D15*
%TO.C,B9*%
X345318000Y-121020000D03*
X345318000Y-122920000D03*
%TD*%
D11*
%TO.C,R47*%
X196000500Y-195165000D03*
X197825500Y-195165000D03*
%TD*%
%TO.C,R21*%
X139583500Y-151938000D03*
X141408500Y-151938000D03*
%TD*%
D13*
%TO.C,R253*%
X257185000Y-120638500D03*
X257185000Y-122463500D03*
%TD*%
D17*
%TO.C,R151*%
X340389000Y-219182500D03*
X340389000Y-225107500D03*
%TD*%
D18*
%TO.C,U3*%
X185473000Y-101585000D03*
X185473000Y-102855000D03*
X185473000Y-104125000D03*
X185473000Y-105395000D03*
X185473000Y-106665000D03*
X185473000Y-107935000D03*
X185473000Y-109205000D03*
X185473000Y-110475000D03*
X185473000Y-111745000D03*
X185473000Y-113015000D03*
X194773000Y-113015000D03*
X194773000Y-111745000D03*
X194773000Y-110475000D03*
X194773000Y-109205000D03*
X194773000Y-107935000D03*
X194773000Y-106665000D03*
X194773000Y-105395000D03*
X194773000Y-104125000D03*
X194773000Y-102855000D03*
X194773000Y-101585000D03*
%TD*%
D11*
%TO.C,R192*%
X175881500Y-88439000D03*
X177706500Y-88439000D03*
%TD*%
%TO.C,R79*%
X243195500Y-193668000D03*
X245020500Y-193668000D03*
%TD*%
D14*
%TO.C,U15*%
X341382000Y-163601000D03*
X341382000Y-164871000D03*
X341382000Y-166141000D03*
X341382000Y-167411000D03*
X341382000Y-168681000D03*
X341382000Y-169951000D03*
X341382000Y-171221000D03*
X346332000Y-171221000D03*
X346332000Y-169951000D03*
X346332000Y-168681000D03*
X346332000Y-167411000D03*
X346332000Y-166141000D03*
X346332000Y-164871000D03*
X346332000Y-163601000D03*
%TD*%
D19*
%TO.C,D33*%
X350458000Y-166520000D03*
X353758000Y-166520000D03*
%TD*%
D11*
%TO.C,R159*%
X348681500Y-208652000D03*
X350506500Y-208652000D03*
%TD*%
D13*
%TO.C,R142*%
X329232000Y-171773500D03*
X329232000Y-173598500D03*
%TD*%
D20*
%TO.C,R323*%
X16912500Y-106000000D03*
X15087500Y-106000000D03*
%TD*%
D11*
%TO.C,R169*%
X370818500Y-208615000D03*
X372643500Y-208615000D03*
%TD*%
D14*
%TO.C,U11*%
X351750000Y-145907000D03*
X351750000Y-147177000D03*
X351750000Y-148447000D03*
X351750000Y-149717000D03*
X351750000Y-150987000D03*
X351750000Y-152257000D03*
X351750000Y-153527000D03*
X356700000Y-153527000D03*
X356700000Y-152257000D03*
X356700000Y-150987000D03*
X356700000Y-149717000D03*
X356700000Y-148447000D03*
X356700000Y-147177000D03*
X356700000Y-145907000D03*
%TD*%
D11*
%TO.C,R178*%
X405906500Y-191880000D03*
X407731500Y-191880000D03*
%TD*%
%TO.C,R126*%
X285948500Y-140617000D03*
X287773500Y-140617000D03*
%TD*%
D21*
%TO.C,R314*%
X39000000Y-93912500D03*
X39000000Y-92087500D03*
%TD*%
D22*
%TO.C,Q52*%
X266542000Y-145802000D03*
X266542000Y-148852000D03*
X269892000Y-145802000D03*
X269892000Y-148852000D03*
D23*
X261917000Y-145047000D03*
X261917000Y-149607000D03*
%TD*%
D19*
%TO.C,D34*%
X350262000Y-170842000D03*
X353562000Y-170842000D03*
%TD*%
D11*
%TO.C,R185*%
X427702500Y-196001000D03*
X429527500Y-196001000D03*
%TD*%
D12*
%TO.C,Q17*%
X141446000Y-155930500D03*
X139546000Y-155930500D03*
X140496000Y-157805500D03*
%TD*%
D11*
%TO.C,R167*%
X370818500Y-187890000D03*
X372643500Y-187890000D03*
%TD*%
%TO.C,R141*%
X310509500Y-221229000D03*
X312334500Y-221229000D03*
%TD*%
%TO.C,R130*%
X285948500Y-191712000D03*
X287773500Y-191712000D03*
%TD*%
%TO.C,R188*%
X427702500Y-216772000D03*
X429527500Y-216772000D03*
%TD*%
%TO.C,R179*%
X405906500Y-204818000D03*
X407731500Y-204818000D03*
%TD*%
D10*
%TO.C,D28*%
X283461000Y-236556000D03*
X290261000Y-236556000D03*
%TD*%
D24*
%TO.C,D114*%
X33175000Y-39075000D03*
X27625000Y-39075000D03*
X33175000Y-43925000D03*
X27625000Y-43925000D03*
D25*
X32940000Y-32350000D03*
X27860000Y-32350000D03*
%TD*%
D26*
%TO.C,LED3*%
X73434000Y-59418500D03*
X73434000Y-61293500D03*
%TD*%
D10*
%TO.C,D24*%
X262504000Y-235427000D03*
X269304000Y-235427000D03*
%TD*%
D11*
%TO.C,R317*%
X73087500Y-65000000D03*
X74912500Y-65000000D03*
%TD*%
D22*
%TO.C,Q48*%
X244746000Y-198614000D03*
X244746000Y-201664000D03*
X248096000Y-198614000D03*
X248096000Y-201664000D03*
D23*
X240121000Y-197859000D03*
X240121000Y-202419000D03*
%TD*%
D11*
%TO.C,R176*%
X405906500Y-175019000D03*
X407731500Y-175019000D03*
%TD*%
D12*
%TO.C,Q13*%
X98694000Y-130782500D03*
X96794000Y-130782500D03*
X97744000Y-132657500D03*
%TD*%
D22*
%TO.C,Q24*%
X164020000Y-198614000D03*
X164020000Y-201664000D03*
X167370000Y-198614000D03*
X167370000Y-201664000D03*
D23*
X159395000Y-197859000D03*
X159395000Y-202419000D03*
%TD*%
D22*
%TO.C,Q84*%
X354097000Y-196729000D03*
X354097000Y-199779000D03*
X357447000Y-196729000D03*
X357447000Y-199779000D03*
D23*
X349472000Y-195974000D03*
X349472000Y-200534000D03*
%TD*%
D15*
%TO.C,C35*%
X282922000Y-70304000D03*
X282922000Y-72204000D03*
%TD*%
D11*
%TO.C,R138*%
X310509500Y-191712000D03*
X312334500Y-191712000D03*
%TD*%
D27*
%TO.C,L2*%
X127602000Y-71737000D03*
X127602000Y-82837000D03*
%TD*%
D11*
%TO.C,R155*%
X348651500Y-174942000D03*
X350476500Y-174942000D03*
%TD*%
D28*
%TO.C,D12*%
X194913000Y-235334000D03*
X198913000Y-235334000D03*
%TD*%
D11*
%TO.C,R22*%
X162469500Y-136913000D03*
X164294500Y-136913000D03*
%TD*%
D10*
%TO.C,D20*%
X240708000Y-235427000D03*
X247508000Y-235427000D03*
%TD*%
D29*
%TO.C,R19*%
X137533500Y-162758000D03*
X143458500Y-162758000D03*
%TD*%
D10*
%TO.C,D29*%
X308022000Y-159827000D03*
X314822000Y-159827000D03*
%TD*%
D13*
%TO.C,R271*%
X140180000Y-87111500D03*
X140180000Y-88936500D03*
%TD*%
%TO.C,R255*%
X186770000Y-120638500D03*
X186770000Y-122463500D03*
%TD*%
D28*
%TO.C,D10*%
X194913000Y-182522000D03*
X198913000Y-182522000D03*
%TD*%
D15*
%TO.C,B12*%
X382142000Y-148684000D03*
X382142000Y-150584000D03*
%TD*%
D11*
%TO.C,R165*%
X372333500Y-174965000D03*
X374158500Y-174965000D03*
%TD*%
D15*
%TO.C,C17*%
X374293000Y-163925000D03*
X374293000Y-165825000D03*
%TD*%
%TO.C,B6*%
X98750000Y-78870000D03*
X98750000Y-80770000D03*
%TD*%
D30*
%TO.C,C44*%
X117497000Y-76496000D03*
X117497000Y-79446000D03*
%TD*%
D17*
%TO.C,W1*%
X16990000Y-201578500D03*
X16990000Y-207503500D03*
%TD*%
D16*
%TO.C,C40*%
X141577000Y-67063000D03*
X144527000Y-67063000D03*
%TD*%
D18*
%TO.C,U18*%
X403758000Y-159702000D03*
X403758000Y-160972000D03*
X403758000Y-162242000D03*
X403758000Y-163512000D03*
X403758000Y-164782000D03*
X403758000Y-166052000D03*
X403758000Y-167322000D03*
X403758000Y-168592000D03*
X403758000Y-169862000D03*
X403758000Y-171132000D03*
X413058000Y-171132000D03*
X413058000Y-169862000D03*
X413058000Y-168592000D03*
X413058000Y-167322000D03*
X413058000Y-166052000D03*
X413058000Y-164782000D03*
X413058000Y-163512000D03*
X413058000Y-162242000D03*
X413058000Y-160972000D03*
X413058000Y-159702000D03*
%TD*%
D12*
%TO.C,Q15*%
X100370000Y-181917500D03*
X98470000Y-181917500D03*
X99420000Y-183792500D03*
%TD*%
D11*
%TO.C,R27*%
X162469500Y-167268000D03*
X164294500Y-167268000D03*
%TD*%
D22*
%TO.C,Q98*%
X433095000Y-238564000D03*
X433095000Y-241614000D03*
X436445000Y-238564000D03*
X436445000Y-241614000D03*
D23*
X428470000Y-237809000D03*
X428470000Y-242369000D03*
%TD*%
D11*
%TO.C,R30*%
X162469500Y-189718000D03*
X164294500Y-189718000D03*
%TD*%
%TO.C,R63*%
X219472500Y-195165000D03*
X221297500Y-195165000D03*
%TD*%
D14*
%TO.C,U13*%
X386348000Y-145824000D03*
X386348000Y-147094000D03*
X386348000Y-148364000D03*
X386348000Y-149634000D03*
X386348000Y-150904000D03*
X386348000Y-152174000D03*
X386348000Y-153444000D03*
X391298000Y-153444000D03*
X391298000Y-152174000D03*
X391298000Y-150904000D03*
X391298000Y-149634000D03*
X391298000Y-148364000D03*
X391298000Y-147094000D03*
X391298000Y-145824000D03*
%TD*%
D10*
%TO.C,D6*%
X159982000Y-182615000D03*
X166782000Y-182615000D03*
%TD*%
D11*
%TO.C,R310*%
X19087500Y-110000000D03*
X20912500Y-110000000D03*
%TD*%
D28*
%TO.C,D35*%
X84174000Y-37723000D03*
X88174000Y-37723000D03*
%TD*%
D11*
%TO.C,R170*%
X370698500Y-238447000D03*
X372523500Y-238447000D03*
%TD*%
%TO.C,R94*%
X264991500Y-189718000D03*
X266816500Y-189718000D03*
%TD*%
D29*
%TO.C,R16*%
X96457500Y-188745000D03*
X102382500Y-188745000D03*
%TD*%
D11*
%TO.C,R320*%
X41087500Y-93000000D03*
X42912500Y-93000000D03*
%TD*%
D15*
%TO.C,B1*%
X152903000Y-120601000D03*
X152903000Y-122501000D03*
%TD*%
D22*
%TO.C,Q85*%
X354245000Y-213601000D03*
X354245000Y-216651000D03*
X357595000Y-213601000D03*
X357595000Y-216651000D03*
D23*
X349620000Y-212846000D03*
X349620000Y-217406000D03*
%TD*%
D11*
%TO.C,R62*%
X219472500Y-191215000D03*
X221297500Y-191215000D03*
%TD*%
%TO.C,R133*%
X285948500Y-221229000D03*
X287773500Y-221229000D03*
%TD*%
%TO.C,R87*%
X264991500Y-140863000D03*
X266816500Y-140863000D03*
%TD*%
%TO.C,R263*%
X258691500Y-56465000D03*
X260516500Y-56465000D03*
%TD*%
D28*
%TO.C,D1*%
X218385000Y-156116000D03*
X222385000Y-156116000D03*
%TD*%
D13*
%TO.C,R319*%
X20000000Y-85087500D03*
X20000000Y-86912500D03*
%TD*%
D11*
%TO.C,R157*%
X349108500Y-187852000D03*
X350933500Y-187852000D03*
%TD*%
%TO.C,R83*%
X243195500Y-220080000D03*
X245020500Y-220080000D03*
%TD*%
%TO.C,R268*%
X157114500Y-69578000D03*
X158939500Y-69578000D03*
%TD*%
%TO.C,R267*%
X154788500Y-65386000D03*
X156613500Y-65386000D03*
%TD*%
%TO.C,R86*%
X264991500Y-136913000D03*
X266816500Y-136913000D03*
%TD*%
%TO.C,R42*%
X196000500Y-164802000D03*
X197825500Y-164802000D03*
%TD*%
D31*
%TO.C,C21*%
X86000000Y-74550000D03*
X86000000Y-72650000D03*
%TD*%
D22*
%TO.C,Q78*%
X312060000Y-175007000D03*
X312060000Y-178057000D03*
X315410000Y-175007000D03*
X315410000Y-178057000D03*
D23*
X307435000Y-174252000D03*
X307435000Y-178812000D03*
%TD*%
D11*
%TO.C,R91*%
X264991500Y-167268000D03*
X266816500Y-167268000D03*
%TD*%
D32*
%TO.C,U1*%
X156296000Y-113015000D03*
X156296000Y-111745000D03*
X156296000Y-110475000D03*
X156296000Y-109205000D03*
X156296000Y-107935000D03*
X156296000Y-106665000D03*
X156296000Y-105395000D03*
X156296000Y-104125000D03*
X156296000Y-102855000D03*
X156296000Y-101585000D03*
X146996000Y-101585000D03*
X146996000Y-102855000D03*
X146996000Y-104125000D03*
X146996000Y-105395000D03*
X146996000Y-106665000D03*
X146996000Y-107935000D03*
X146996000Y-109205000D03*
X146996000Y-110475000D03*
X146996000Y-111745000D03*
X146996000Y-113015000D03*
%TD*%
D33*
%TO.C,D116*%
X27625000Y-19925000D03*
X33175000Y-19925000D03*
X27625000Y-15075000D03*
X33175000Y-15075000D03*
D34*
X27860000Y-26650000D03*
X32940000Y-26650000D03*
%TD*%
D13*
%TO.C,R147*%
X366369000Y-163966500D03*
X366369000Y-165791500D03*
%TD*%
D35*
%TO.C,D105*%
X289075000Y-111225000D03*
X289075000Y-116775000D03*
X293925000Y-111225000D03*
X293925000Y-116775000D03*
D36*
X282350000Y-111460000D03*
X282350000Y-116540000D03*
%TD*%
D30*
%TO.C,C38*%
X243061000Y-69939000D03*
X243061000Y-72889000D03*
%TD*%
D11*
%TO.C,R162*%
X369189500Y-169559000D03*
X371014500Y-169559000D03*
%TD*%
D13*
%TO.C,R256*%
X167489000Y-120638500D03*
X167489000Y-122463500D03*
%TD*%
D18*
%TO.C,U5*%
X255889000Y-101585000D03*
X255889000Y-102855000D03*
X255889000Y-104125000D03*
X255889000Y-105395000D03*
X255889000Y-106665000D03*
X255889000Y-107935000D03*
X255889000Y-109205000D03*
X255889000Y-110475000D03*
X255889000Y-111745000D03*
X255889000Y-113015000D03*
X265189000Y-113015000D03*
X265189000Y-111745000D03*
X265189000Y-110475000D03*
X265189000Y-109205000D03*
X265189000Y-107935000D03*
X265189000Y-106665000D03*
X265189000Y-105395000D03*
X265189000Y-104125000D03*
X265189000Y-102855000D03*
X265189000Y-101585000D03*
%TD*%
D13*
%TO.C,R315*%
X19000000Y-96087500D03*
X19000000Y-97912500D03*
%TD*%
D15*
%TO.C,B16*%
X387675000Y-172072000D03*
X387675000Y-173972000D03*
%TD*%
D11*
%TO.C,R46*%
X196000500Y-191215000D03*
X197825500Y-191215000D03*
%TD*%
%TO.C,R54*%
X219472500Y-138396000D03*
X221297500Y-138396000D03*
%TD*%
D35*
%TO.C,D112*%
X301075000Y-23225000D03*
X301075000Y-28775000D03*
X305925000Y-23225000D03*
X305925000Y-28775000D03*
D36*
X294350000Y-23460000D03*
X294350000Y-28540000D03*
%TD*%
D11*
%TO.C,R99*%
X264991500Y-220080000D03*
X266816500Y-220080000D03*
%TD*%
D22*
%TO.C,Q66*%
X287498000Y-175007000D03*
X287498000Y-178057000D03*
X290848000Y-175007000D03*
X290848000Y-178057000D03*
D23*
X282873000Y-174252000D03*
X282873000Y-178812000D03*
%TD*%
D11*
%TO.C,R23*%
X162469500Y-140863000D03*
X164294500Y-140863000D03*
%TD*%
%TO.C,R160*%
X348651500Y-238448000D03*
X350476500Y-238448000D03*
%TD*%
D14*
%TO.C,U6*%
X89647000Y-67680000D03*
X89647000Y-68950000D03*
X89647000Y-70220000D03*
X89647000Y-71490000D03*
X89647000Y-72760000D03*
X89647000Y-74030000D03*
X89647000Y-75300000D03*
X94597000Y-75300000D03*
X94597000Y-74030000D03*
X94597000Y-72760000D03*
X94597000Y-71490000D03*
X94597000Y-70220000D03*
X94597000Y-68950000D03*
X94597000Y-67680000D03*
%TD*%
D17*
%TO.C,R152*%
X334308000Y-198644500D03*
X334308000Y-204569500D03*
%TD*%
D13*
%TO.C,R308*%
X345312000Y-186251500D03*
X345312000Y-188076500D03*
%TD*%
D11*
%TO.C,R177*%
X405906500Y-187979000D03*
X407731500Y-187979000D03*
%TD*%
%TO.C,R206*%
X80255500Y-69997000D03*
X82080500Y-69997000D03*
%TD*%
%TO.C,R181*%
X405906500Y-221709000D03*
X407731500Y-221709000D03*
%TD*%
D22*
%TO.C,Q82*%
X312060000Y-226155000D03*
X312060000Y-229205000D03*
X315410000Y-226155000D03*
X315410000Y-229205000D03*
D23*
X307435000Y-225400000D03*
X307435000Y-229960000D03*
%TD*%
D29*
%TO.C,R260*%
X297562500Y-77360000D03*
X303487500Y-77360000D03*
%TD*%
D18*
%TO.C,U4*%
X216322000Y-101585000D03*
X216322000Y-102855000D03*
X216322000Y-104125000D03*
X216322000Y-105395000D03*
X216322000Y-106665000D03*
X216322000Y-107935000D03*
X216322000Y-109205000D03*
X216322000Y-110475000D03*
X216322000Y-111745000D03*
X216322000Y-113015000D03*
X225622000Y-113015000D03*
X225622000Y-111745000D03*
X225622000Y-110475000D03*
X225622000Y-109205000D03*
X225622000Y-107935000D03*
X225622000Y-106665000D03*
X225622000Y-105395000D03*
X225622000Y-104125000D03*
X225622000Y-102855000D03*
X225622000Y-101585000D03*
%TD*%
D22*
%TO.C,Q58*%
X266542000Y-225020000D03*
X266542000Y-228070000D03*
X269892000Y-225020000D03*
X269892000Y-228070000D03*
D23*
X261917000Y-224265000D03*
X261917000Y-228825000D03*
%TD*%
D10*
%TO.C,D19*%
X240708000Y-209023000D03*
X247508000Y-209023000D03*
%TD*%
D16*
%TO.C,C33*%
X277248000Y-57842000D03*
X280198000Y-57842000D03*
%TD*%
D10*
%TO.C,D7*%
X159982000Y-209023000D03*
X166782000Y-209023000D03*
%TD*%
D11*
%TO.C,R6*%
X74845500Y-68022000D03*
X76670500Y-68022000D03*
%TD*%
D15*
%TO.C,C13*%
X337175000Y-171736000D03*
X337175000Y-173636000D03*
%TD*%
%TO.C,C37*%
X262642000Y-69231000D03*
X262642000Y-71131000D03*
%TD*%
D11*
%TO.C,R71*%
X243195500Y-140863000D03*
X245020500Y-140863000D03*
%TD*%
D22*
%TO.C,Q38*%
X221023000Y-173701000D03*
X221023000Y-176751000D03*
X224373000Y-173701000D03*
X224373000Y-176751000D03*
D23*
X216398000Y-172946000D03*
X216398000Y-177506000D03*
%TD*%
D13*
%TO.C,R321*%
X20000000Y-117087500D03*
X20000000Y-118912500D03*
%TD*%
D15*
%TO.C,C36*%
X263552000Y-74681000D03*
X263552000Y-76581000D03*
%TD*%
D37*
%TO.C,Q3*%
X78697000Y-40037000D03*
X75647000Y-40037000D03*
X78697000Y-43387000D03*
X75647000Y-43387000D03*
D38*
X79452000Y-35412000D03*
X74892000Y-35412000D03*
%TD*%
D11*
%TO.C,R250*%
X40414500Y-63710000D03*
X42239500Y-63710000D03*
%TD*%
D13*
%TO.C,R145*%
X364852000Y-148469500D03*
X364852000Y-150294500D03*
%TD*%
D11*
%TO.C,R140*%
X310509500Y-217279000D03*
X312334500Y-217279000D03*
%TD*%
D22*
%TO.C,Q96*%
X433025000Y-204844000D03*
X433025000Y-207894000D03*
X436375000Y-204844000D03*
X436375000Y-207894000D03*
D23*
X428400000Y-204089000D03*
X428400000Y-208649000D03*
%TD*%
D11*
%TO.C,R182*%
X405906500Y-225610000D03*
X407731500Y-225610000D03*
%TD*%
D10*
%TO.C,D17*%
X240708000Y-156209000D03*
X247508000Y-156209000D03*
%TD*%
D29*
%TO.C,R10*%
X57226500Y-164436000D03*
X63151500Y-164436000D03*
%TD*%
D22*
%TO.C,Q32*%
X197551000Y-200109000D03*
X197551000Y-203159000D03*
X200901000Y-200109000D03*
X200901000Y-203159000D03*
D23*
X192926000Y-199354000D03*
X192926000Y-203914000D03*
%TD*%
D10*
%TO.C,D25*%
X283461000Y-159827000D03*
X290261000Y-159827000D03*
%TD*%
D22*
%TO.C,Q76*%
X312060000Y-149445000D03*
X312060000Y-152495000D03*
X315410000Y-149445000D03*
X315410000Y-152495000D03*
D23*
X307435000Y-148690000D03*
X307435000Y-153250000D03*
%TD*%
D10*
%TO.C,D30*%
X308022000Y-185412000D03*
X314822000Y-185412000D03*
%TD*%
D22*
%TO.C,Q44*%
X244746000Y-145802000D03*
X244746000Y-148852000D03*
X248096000Y-145802000D03*
X248096000Y-148852000D03*
D23*
X240121000Y-145047000D03*
X240121000Y-149607000D03*
%TD*%
D28*
%TO.C,D2*%
X218385000Y-182522000D03*
X222385000Y-182522000D03*
%TD*%
D11*
%TO.C,R186*%
X427702500Y-199901000D03*
X429527500Y-199901000D03*
%TD*%
D22*
%TO.C,Q91*%
X411229000Y-179954000D03*
X411229000Y-183004000D03*
X414579000Y-179954000D03*
X414579000Y-183004000D03*
D23*
X406604000Y-179199000D03*
X406604000Y-183759000D03*
%TD*%
D22*
%TO.C,Q88*%
X376096000Y-196735000D03*
X376096000Y-199785000D03*
X379446000Y-196735000D03*
X379446000Y-199785000D03*
D23*
X371471000Y-195980000D03*
X371471000Y-200540000D03*
%TD*%
D11*
%TO.C,R202*%
X104002500Y-69997000D03*
X105827500Y-69997000D03*
%TD*%
%TO.C,R8*%
X119465500Y-114972000D03*
X121290500Y-114972000D03*
%TD*%
D39*
%TO.C,D106*%
X311925000Y-116775000D03*
X311925000Y-111225000D03*
X307075000Y-116775000D03*
X307075000Y-111225000D03*
D40*
X318650000Y-116540000D03*
X318650000Y-111460000D03*
%TD*%
D29*
%TO.C,R7*%
X137533500Y-214312000D03*
X143458500Y-214312000D03*
%TD*%
D26*
%TO.C,LED7*%
X43423000Y-51036500D03*
X43423000Y-52911500D03*
%TD*%
D22*
%TO.C,Q20*%
X164020000Y-145802000D03*
X164020000Y-148852000D03*
X167370000Y-145802000D03*
X167370000Y-148852000D03*
D23*
X159395000Y-145047000D03*
X159395000Y-149607000D03*
%TD*%
D26*
%TO.C,LED1*%
X19532000Y-129415500D03*
X19532000Y-131290500D03*
%TD*%
D11*
%TO.C,R262*%
X259837500Y-52515000D03*
X261662500Y-52515000D03*
%TD*%
D15*
%TO.C,C16*%
X358506000Y-171736000D03*
X358506000Y-173636000D03*
%TD*%
D13*
%TO.C,R149*%
X399457000Y-148721500D03*
X399457000Y-150546500D03*
%TD*%
D11*
%TO.C,R198*%
X98592500Y-69997000D03*
X100417500Y-69997000D03*
%TD*%
%TO.C,R168*%
X370818500Y-225472000D03*
X372643500Y-225472000D03*
%TD*%
D12*
%TO.C,Q9*%
X141446000Y-207485500D03*
X139546000Y-207485500D03*
X140496000Y-209360500D03*
%TD*%
D22*
%TO.C,Q40*%
X221023000Y-200109000D03*
X221023000Y-203159000D03*
X224373000Y-200109000D03*
X224373000Y-203159000D03*
D23*
X216398000Y-199354000D03*
X216398000Y-203914000D03*
%TD*%
D13*
%TO.C,R254*%
X217618000Y-120638500D03*
X217618000Y-122463500D03*
%TD*%
D11*
%TO.C,R51*%
X196000500Y-221564000D03*
X197825500Y-221564000D03*
%TD*%
%TO.C,R161*%
X349108500Y-221584000D03*
X350933500Y-221584000D03*
%TD*%
D22*
%TO.C,Q80*%
X312060000Y-200587000D03*
X312060000Y-203637000D03*
X315410000Y-200587000D03*
X315410000Y-203637000D03*
D23*
X307435000Y-199832000D03*
X307435000Y-204392000D03*
%TD*%
D39*
%TO.C,D107*%
X290925000Y-130775000D03*
X290925000Y-125225000D03*
X286075000Y-130775000D03*
X286075000Y-125225000D03*
D40*
X297650000Y-130540000D03*
X297650000Y-125460000D03*
%TD*%
D11*
%TO.C,R43*%
X196000500Y-168752000D03*
X197825500Y-168752000D03*
%TD*%
%TO.C,R95*%
X264991500Y-193668000D03*
X266816500Y-193668000D03*
%TD*%
%TO.C,R135*%
X310509500Y-144520000D03*
X312334500Y-144520000D03*
%TD*%
D17*
%TO.C,R150*%
X340382000Y-198644500D03*
X340382000Y-204569500D03*
%TD*%
D11*
%TO.C,R136*%
X310509500Y-166129000D03*
X312334500Y-166129000D03*
%TD*%
D20*
%TO.C,R313*%
X16912500Y-109000000D03*
X15087500Y-109000000D03*
%TD*%
D15*
%TO.C,B3*%
X191380000Y-120601000D03*
X191380000Y-122501000D03*
%TD*%
D22*
%TO.C,Q54*%
X266542000Y-172208000D03*
X266542000Y-175258000D03*
X269892000Y-172208000D03*
X269892000Y-175258000D03*
D23*
X261917000Y-171453000D03*
X261917000Y-176013000D03*
%TD*%
D17*
%TO.C,R175*%
X385201000Y-219182500D03*
X385201000Y-225107500D03*
%TD*%
D18*
%TO.C,U19*%
X420360000Y-166601000D03*
X420360000Y-167871000D03*
X420360000Y-169141000D03*
X420360000Y-170411000D03*
X420360000Y-171681000D03*
X420360000Y-172951000D03*
X420360000Y-174221000D03*
X420360000Y-175491000D03*
X420360000Y-176761000D03*
X429660000Y-176761000D03*
X429660000Y-175491000D03*
X429660000Y-174221000D03*
X429660000Y-172951000D03*
X429660000Y-171681000D03*
X429660000Y-170411000D03*
X429660000Y-169141000D03*
X429660000Y-167871000D03*
X429660000Y-166601000D03*
%TD*%
D16*
%TO.C,C39*%
X148227000Y-67063000D03*
X151177000Y-67063000D03*
%TD*%
D41*
%TO.C,U21*%
X151547000Y-74741000D03*
D42*
X153452000Y-72041000D03*
X152182000Y-72041000D03*
X150912000Y-72041000D03*
X149642000Y-72041000D03*
X149642000Y-77441000D03*
X150912000Y-77441000D03*
X152182000Y-77441000D03*
X153452000Y-77441000D03*
%TD*%
D15*
%TO.C,B19*%
X420850000Y-156228000D03*
X420850000Y-158128000D03*
%TD*%
D39*
%TO.C,D111*%
X281925000Y-28775000D03*
X281925000Y-23225000D03*
X277075000Y-28775000D03*
X277075000Y-23225000D03*
D40*
X288650000Y-28540000D03*
X288650000Y-23460000D03*
%TD*%
D33*
%TO.C,D115*%
X14225000Y-19925000D03*
X19775000Y-19925000D03*
X14225000Y-15075000D03*
X19775000Y-15075000D03*
D34*
X14460000Y-26650000D03*
X19540000Y-26650000D03*
%TD*%
D29*
%TO.C,R259*%
X297562500Y-71450000D03*
X303487500Y-71450000D03*
%TD*%
D20*
%TO.C,R316*%
X16912500Y-112000000D03*
X15087500Y-112000000D03*
%TD*%
D13*
%TO.C,R302*%
X366991000Y-219137500D03*
X366991000Y-220962500D03*
%TD*%
D39*
%TO.C,D110*%
X302925000Y-14775000D03*
X302925000Y-9225000D03*
X298075000Y-14775000D03*
X298075000Y-9225000D03*
D40*
X309650000Y-14540000D03*
X309650000Y-9460000D03*
%TD*%
D15*
%TO.C,B13*%
X383500000Y-145050000D03*
X383500000Y-146950000D03*
%TD*%
D17*
%TO.C,R172*%
X391311000Y-198644500D03*
X391311000Y-204569500D03*
%TD*%
D11*
%TO.C,R127*%
X285948500Y-144520000D03*
X287773500Y-144520000D03*
%TD*%
%TO.C,R15*%
X96831500Y-126790000D03*
X98656500Y-126790000D03*
%TD*%
%TO.C,R191*%
X427886500Y-246589000D03*
X429711500Y-246589000D03*
%TD*%
D26*
%TO.C,LED2*%
X63542000Y-59418500D03*
X63542000Y-61293500D03*
%TD*%
D22*
%TO.C,Q28*%
X197551000Y-147295000D03*
X197551000Y-150345000D03*
X200901000Y-147295000D03*
X200901000Y-150345000D03*
D23*
X192926000Y-146540000D03*
X192926000Y-151100000D03*
%TD*%
D22*
%TO.C,Q34*%
X197551000Y-226513000D03*
X197551000Y-229563000D03*
X200901000Y-226513000D03*
X200901000Y-229563000D03*
D23*
X192926000Y-225758000D03*
X192926000Y-230318000D03*
%TD*%
D17*
%TO.C,R153*%
X334308000Y-219182500D03*
X334308000Y-225107500D03*
%TD*%
D27*
%TO.C,L1*%
X253161000Y-61237000D03*
X253161000Y-72337000D03*
%TD*%
D11*
%TO.C,R190*%
X427702500Y-233593000D03*
X429527500Y-233593000D03*
%TD*%
D13*
%TO.C,R272*%
X135852000Y-87909500D03*
X135852000Y-89734500D03*
%TD*%
D22*
%TO.C,Q97*%
X433025000Y-221699000D03*
X433025000Y-224749000D03*
X436375000Y-221699000D03*
X436375000Y-224749000D03*
D23*
X428400000Y-220944000D03*
X428400000Y-225504000D03*
%TD*%
D11*
%TO.C,R3*%
X73549500Y-71972000D03*
X75374500Y-71972000D03*
%TD*%
%TO.C,R187*%
X427702500Y-212822000D03*
X429527500Y-212822000D03*
%TD*%
%TO.C,R98*%
X264991500Y-216130000D03*
X266816500Y-216130000D03*
%TD*%
D28*
%TO.C,D11*%
X194913000Y-208918000D03*
X198913000Y-208918000D03*
%TD*%
D22*
%TO.C,Q83*%
X354272000Y-179875000D03*
X354272000Y-182925000D03*
X357622000Y-179875000D03*
X357622000Y-182925000D03*
D23*
X349647000Y-179120000D03*
X349647000Y-183680000D03*
%TD*%
D15*
%TO.C,C31*%
X368536000Y-173282000D03*
X368536000Y-175182000D03*
%TD*%
%TO.C,B11*%
X360919000Y-148684000D03*
X360919000Y-150584000D03*
%TD*%
D22*
%TO.C,Q70*%
X287498000Y-226155000D03*
X287498000Y-229205000D03*
X290848000Y-226155000D03*
X290848000Y-229205000D03*
D23*
X282873000Y-225400000D03*
X282873000Y-229960000D03*
%TD*%
D22*
%TO.C,Q64*%
X287498000Y-149445000D03*
X287498000Y-152495000D03*
X290848000Y-149445000D03*
X290848000Y-152495000D03*
D23*
X282873000Y-148690000D03*
X282873000Y-153250000D03*
%TD*%
D22*
%TO.C,Q95*%
X433025000Y-187980000D03*
X433025000Y-191030000D03*
X436375000Y-187980000D03*
X436375000Y-191030000D03*
D23*
X428400000Y-187225000D03*
X428400000Y-191785000D03*
%TD*%
D41*
%TO.C,U20*%
X277142000Y-65218000D03*
D42*
X279047000Y-62518000D03*
X277777000Y-62518000D03*
X276507000Y-62518000D03*
X275237000Y-62518000D03*
X275237000Y-67918000D03*
X276507000Y-67918000D03*
X277777000Y-67918000D03*
X279047000Y-67918000D03*
%TD*%
D28*
%TO.C,D3*%
X218385000Y-208918000D03*
X222385000Y-208918000D03*
%TD*%
D10*
%TO.C,D21*%
X262504000Y-156209000D03*
X269304000Y-156209000D03*
%TD*%
D11*
%TO.C,R11*%
X119465500Y-118878000D03*
X121290500Y-118878000D03*
%TD*%
D22*
%TO.C,Q22*%
X164020000Y-172208000D03*
X164020000Y-175258000D03*
X167370000Y-172208000D03*
X167370000Y-175258000D03*
D23*
X159395000Y-171453000D03*
X159395000Y-176013000D03*
%TD*%
D13*
%TO.C,R251*%
X412899000Y-154165500D03*
X412899000Y-155990500D03*
%TD*%
D11*
%TO.C,R66*%
X219472500Y-217614000D03*
X221297500Y-217614000D03*
%TD*%
%TO.C,R312*%
X19087500Y-104000000D03*
X20912500Y-104000000D03*
%TD*%
D15*
%TO.C,C14*%
X333165000Y-171736000D03*
X333165000Y-173636000D03*
%TD*%
D11*
%TO.C,R9*%
X139583500Y-203493000D03*
X141408500Y-203493000D03*
%TD*%
%TO.C,R196*%
X342087500Y-93050000D03*
X343912500Y-93050000D03*
%TD*%
D13*
%TO.C,R303*%
X366991000Y-208658500D03*
X366991000Y-210483500D03*
%TD*%
D26*
%TO.C,LED6*%
X342258000Y-97560500D03*
X342258000Y-99435500D03*
%TD*%
D28*
%TO.C,D9*%
X194913000Y-156116000D03*
X198913000Y-156116000D03*
%TD*%
D15*
%TO.C,B18*%
X416879000Y-154081000D03*
X416879000Y-155981000D03*
%TD*%
D22*
%TO.C,Q26*%
X164020000Y-225020000D03*
X164020000Y-228070000D03*
X167370000Y-225020000D03*
X167370000Y-228070000D03*
D23*
X159395000Y-224265000D03*
X159395000Y-228825000D03*
%TD*%
D11*
%TO.C,R78*%
X243195500Y-189718000D03*
X245020500Y-189718000D03*
%TD*%
D13*
%TO.C,R304*%
X366996000Y-198179500D03*
X366996000Y-200004500D03*
%TD*%
D15*
%TO.C,C42*%
X137084000Y-81644000D03*
X137084000Y-83544000D03*
%TD*%
D26*
%TO.C,LED5*%
X340762000Y-38007500D03*
X340762000Y-39882500D03*
%TD*%
D22*
%TO.C,Q68*%
X287498000Y-200587000D03*
X287498000Y-203637000D03*
X290848000Y-200587000D03*
X290848000Y-203637000D03*
D23*
X282873000Y-199832000D03*
X282873000Y-204392000D03*
%TD*%
D11*
%TO.C,R134*%
X310509500Y-140617000D03*
X312334500Y-140617000D03*
%TD*%
%TO.C,R31*%
X162469500Y-193668000D03*
X164294500Y-193668000D03*
%TD*%
D13*
%TO.C,R270*%
X149881000Y-82915500D03*
X149881000Y-84740500D03*
%TD*%
D29*
%TO.C,R13*%
X94781500Y-137609000D03*
X100706500Y-137609000D03*
%TD*%
D35*
%TO.C,D108*%
X310075000Y-125225000D03*
X310075000Y-130775000D03*
X314925000Y-125225000D03*
X314925000Y-130775000D03*
D36*
X303350000Y-125460000D03*
X303350000Y-130540000D03*
%TD*%
D11*
%TO.C,R20*%
X119465500Y-130657000D03*
X121290500Y-130657000D03*
%TD*%
D22*
%TO.C,Q50*%
X244746000Y-225020000D03*
X244746000Y-228070000D03*
X248096000Y-225020000D03*
X248096000Y-228070000D03*
D23*
X240121000Y-224265000D03*
X240121000Y-228825000D03*
%TD*%
D22*
%TO.C,Q87*%
X375972000Y-179911000D03*
X375972000Y-182961000D03*
X379322000Y-179911000D03*
X379322000Y-182961000D03*
D23*
X371347000Y-179156000D03*
X371347000Y-183716000D03*
%TD*%
D11*
%TO.C,R311*%
X19087500Y-107000000D03*
X20912500Y-107000000D03*
%TD*%
%TO.C,R189*%
X427702500Y-229692000D03*
X429527500Y-229692000D03*
%TD*%
%TO.C,R164*%
X370818500Y-191791000D03*
X372643500Y-191791000D03*
%TD*%
D20*
%TO.C,R325*%
X16912500Y-115000000D03*
X15087500Y-115000000D03*
%TD*%
D15*
%TO.C,C43*%
X118080000Y-83071000D03*
X118080000Y-84971000D03*
%TD*%
D14*
%TO.C,U10*%
X331297000Y-146075000D03*
X331297000Y-147345000D03*
X331297000Y-148615000D03*
X331297000Y-149885000D03*
X331297000Y-151155000D03*
X331297000Y-152425000D03*
X331297000Y-153695000D03*
X336247000Y-153695000D03*
X336247000Y-152425000D03*
X336247000Y-151155000D03*
X336247000Y-149885000D03*
X336247000Y-148615000D03*
X336247000Y-147345000D03*
X336247000Y-146075000D03*
%TD*%
D22*
%TO.C,Q90*%
X376096000Y-230447000D03*
X376096000Y-233497000D03*
X379446000Y-230447000D03*
X379446000Y-233497000D03*
D23*
X371471000Y-229692000D03*
X371471000Y-234252000D03*
%TD*%
D11*
%TO.C,R128*%
X285948500Y-166129000D03*
X287773500Y-166129000D03*
%TD*%
D13*
%TO.C,R265*%
X271455000Y-73235500D03*
X271455000Y-75060500D03*
%TD*%
D15*
%TO.C,C19*%
X391636000Y-171736000D03*
X391636000Y-173636000D03*
%TD*%
D11*
%TO.C,R139*%
X310509500Y-195662000D03*
X312334500Y-195662000D03*
%TD*%
%TO.C,R75*%
X243195500Y-167268000D03*
X245020500Y-167268000D03*
%TD*%
D15*
%TO.C,B5*%
X261796000Y-120601000D03*
X261796000Y-122501000D03*
%TD*%
D11*
%TO.C,R39*%
X196000500Y-142346000D03*
X197825500Y-142346000D03*
%TD*%
%TO.C,R26*%
X162469500Y-163318000D03*
X164294500Y-163318000D03*
%TD*%
%TO.C,R18*%
X98507500Y-177925000D03*
X100332500Y-177925000D03*
%TD*%
%TO.C,R193*%
X22810500Y-120294000D03*
X24635500Y-120294000D03*
%TD*%
%TO.C,R4*%
X68139500Y-69997000D03*
X69964500Y-69997000D03*
%TD*%
%TO.C,R132*%
X285948500Y-217279000D03*
X287773500Y-217279000D03*
%TD*%
D10*
%TO.C,D23*%
X262504000Y-209023000D03*
X269304000Y-209023000D03*
%TD*%
D11*
%TO.C,R269*%
X157119500Y-73769000D03*
X158944500Y-73769000D03*
%TD*%
D43*
%TO.C,D36*%
X269002000Y-62108000D03*
X269002000Y-68908000D03*
%TD*%
D11*
%TO.C,R194*%
X340150500Y-43625000D03*
X341975500Y-43625000D03*
%TD*%
D20*
%TO.C,R324*%
X17912500Y-85000000D03*
X16087500Y-85000000D03*
%TD*%
D11*
%TO.C,R166*%
X370758500Y-204713000D03*
X372583500Y-204713000D03*
%TD*%
D14*
%TO.C,U16*%
X378512000Y-167523000D03*
X378512000Y-168793000D03*
X378512000Y-170063000D03*
X378512000Y-171333000D03*
X378512000Y-172603000D03*
X378512000Y-173873000D03*
X378512000Y-175143000D03*
X383462000Y-175143000D03*
X383462000Y-173873000D03*
X383462000Y-172603000D03*
X383462000Y-171333000D03*
X383462000Y-170063000D03*
X383462000Y-168793000D03*
X383462000Y-167523000D03*
%TD*%
D11*
%TO.C,R38*%
X196000500Y-138396000D03*
X197825500Y-138396000D03*
%TD*%
D22*
%TO.C,Q94*%
X411229000Y-230536000D03*
X411229000Y-233586000D03*
X414579000Y-230536000D03*
X414579000Y-233586000D03*
D23*
X406604000Y-229781000D03*
X406604000Y-234341000D03*
%TD*%
D10*
%TO.C,D31*%
X308022000Y-210977000D03*
X314822000Y-210977000D03*
%TD*%
D13*
%TO.C,R301*%
X367021000Y-229615500D03*
X367021000Y-231440500D03*
%TD*%
D22*
%TO.C,Q93*%
X411229000Y-213693000D03*
X411229000Y-216743000D03*
X414579000Y-213693000D03*
X414579000Y-216743000D03*
D23*
X406604000Y-212938000D03*
X406604000Y-217498000D03*
%TD*%
D11*
%TO.C,R59*%
X219472500Y-168752000D03*
X221297500Y-168752000D03*
%TD*%
D17*
%TO.C,R173*%
X391311000Y-219182500D03*
X391311000Y-225107500D03*
%TD*%
D13*
%TO.C,R146*%
X368802000Y-148469500D03*
X368802000Y-150294500D03*
%TD*%
D15*
%TO.C,B4*%
X222229000Y-120601000D03*
X222229000Y-122501000D03*
%TD*%
D11*
%TO.C,R197*%
X52570500Y-69158000D03*
X54395500Y-69158000D03*
%TD*%
%TO.C,R35*%
X162469500Y-220080000D03*
X164294500Y-220080000D03*
%TD*%
D22*
%TO.C,Q92*%
X411229000Y-196818000D03*
X411229000Y-199868000D03*
X414579000Y-196818000D03*
X414579000Y-199868000D03*
D23*
X406604000Y-196063000D03*
X406604000Y-200623000D03*
%TD*%
D22*
%TO.C,Q46*%
X244746000Y-172208000D03*
X244746000Y-175258000D03*
X248096000Y-172208000D03*
X248096000Y-175258000D03*
D23*
X240121000Y-171453000D03*
X240121000Y-176013000D03*
%TD*%
D43*
%TO.C,D37*%
X143444000Y-74864000D03*
X143444000Y-81664000D03*
%TD*%
D11*
%TO.C,R156*%
X348711500Y-204750000D03*
X350536500Y-204750000D03*
%TD*%
D13*
%TO.C,R144*%
X362453000Y-173618500D03*
X362453000Y-175443500D03*
%TD*%
D11*
%TO.C,R209*%
X69067500Y-37723000D03*
X70892500Y-37723000D03*
%TD*%
D22*
%TO.C,Q36*%
X221023000Y-147295000D03*
X221023000Y-150345000D03*
X224373000Y-147295000D03*
X224373000Y-150345000D03*
D23*
X216398000Y-146540000D03*
X216398000Y-151100000D03*
%TD*%
D10*
%TO.C,D32*%
X308022000Y-236556000D03*
X314822000Y-236556000D03*
%TD*%
D11*
%TO.C,R67*%
X219472500Y-221564000D03*
X221297500Y-221564000D03*
%TD*%
D21*
%TO.C,R318*%
X16000000Y-101912500D03*
X16000000Y-100087500D03*
%TD*%
D11*
%TO.C,R322*%
X23087500Y-93000000D03*
X24912500Y-93000000D03*
%TD*%
D18*
%TO.C,U9*%
X331708000Y-116255000D03*
X331708000Y-117525000D03*
X331708000Y-118795000D03*
X331708000Y-120065000D03*
X331708000Y-121335000D03*
X331708000Y-122605000D03*
X331708000Y-123875000D03*
X331708000Y-125145000D03*
X331708000Y-126415000D03*
X331708000Y-127685000D03*
X341008000Y-127685000D03*
X341008000Y-126415000D03*
X341008000Y-125145000D03*
X341008000Y-123875000D03*
X341008000Y-122605000D03*
X341008000Y-121335000D03*
X341008000Y-120065000D03*
X341008000Y-118795000D03*
X341008000Y-117525000D03*
X341008000Y-116255000D03*
%TD*%
D15*
%TO.C,C41*%
X153813000Y-81291000D03*
X153813000Y-83191000D03*
%TD*%
D18*
%TO.C,U2*%
X166192000Y-101585000D03*
X166192000Y-102855000D03*
X166192000Y-104125000D03*
X166192000Y-105395000D03*
X166192000Y-106665000D03*
X166192000Y-107935000D03*
X166192000Y-109205000D03*
X166192000Y-110475000D03*
X166192000Y-111745000D03*
X166192000Y-113015000D03*
X175492000Y-113015000D03*
X175492000Y-111745000D03*
X175492000Y-110475000D03*
X175492000Y-109205000D03*
X175492000Y-107935000D03*
X175492000Y-106665000D03*
X175492000Y-105395000D03*
X175492000Y-104125000D03*
X175492000Y-102855000D03*
X175492000Y-101585000D03*
%TD*%
D11*
%TO.C,R184*%
X427702500Y-183005000D03*
X429527500Y-183005000D03*
%TD*%
D22*
%TO.C,Q56*%
X266542000Y-198614000D03*
X266542000Y-201664000D03*
X269892000Y-198614000D03*
X269892000Y-201664000D03*
D23*
X261917000Y-197859000D03*
X261917000Y-202419000D03*
%TD*%
D11*
%TO.C,R131*%
X285948500Y-195662000D03*
X287773500Y-195662000D03*
%TD*%
%TO.C,R137*%
X310509500Y-170079000D03*
X312334500Y-170079000D03*
%TD*%
D22*
%TO.C,Q42*%
X221023000Y-226513000D03*
X221023000Y-229563000D03*
X224373000Y-226513000D03*
X224373000Y-229563000D03*
D23*
X216398000Y-225758000D03*
X216398000Y-230318000D03*
%TD*%
D15*
%TO.C,C20*%
X395597000Y-171736000D03*
X395597000Y-173636000D03*
%TD*%
D11*
%TO.C,R17*%
X119465500Y-126743000D03*
X121290500Y-126743000D03*
%TD*%
D22*
%TO.C,Q86*%
X354097000Y-230461000D03*
X354097000Y-233511000D03*
X357447000Y-230461000D03*
X357447000Y-233511000D03*
D23*
X349472000Y-229706000D03*
X349472000Y-234266000D03*
%TD*%
D24*
%TO.C,D113*%
X19775000Y-39075000D03*
X14225000Y-39075000D03*
X19775000Y-43925000D03*
X14225000Y-43925000D03*
D25*
X19540000Y-32350000D03*
X14460000Y-32350000D03*
%TD*%
D11*
%TO.C,R34*%
X162469500Y-216130000D03*
X164294500Y-216130000D03*
%TD*%
D15*
%TO.C,C18*%
X370315000Y-163922000D03*
X370315000Y-165822000D03*
%TD*%
D10*
%TO.C,D27*%
X283461000Y-210977000D03*
X290261000Y-210977000D03*
%TD*%
D28*
%TO.C,D38*%
X218385000Y-235334000D03*
X222385000Y-235334000D03*
%TD*%
D11*
%TO.C,R154*%
X348940500Y-191802000D03*
X350765500Y-191802000D03*
%TD*%
D13*
%TO.C,R306*%
X345319000Y-220429500D03*
X345319000Y-222254500D03*
%TD*%
D10*
%TO.C,D8*%
X159982000Y-235427000D03*
X166782000Y-235427000D03*
%TD*%
%TO.C,D18*%
X240708000Y-182615000D03*
X247508000Y-182615000D03*
%TD*%
D11*
%TO.C,R261*%
X265165500Y-57608000D03*
X266990500Y-57608000D03*
%TD*%
D35*
%TO.C,D109*%
X280075000Y-9225000D03*
X280075000Y-14775000D03*
X284925000Y-9225000D03*
X284925000Y-14775000D03*
D36*
X273350000Y-9460000D03*
X273350000Y-14540000D03*
%TD*%
D11*
%TO.C,R58*%
X219472500Y-164802000D03*
X221297500Y-164802000D03*
%TD*%
%TO.C,R183*%
X405906500Y-238523000D03*
X407731500Y-238523000D03*
%TD*%
%TO.C,R55*%
X219472500Y-142346000D03*
X221297500Y-142346000D03*
%TD*%
D26*
%TO.C,LED4*%
X186015000Y-87501500D03*
X186015000Y-89376500D03*
%TD*%
D13*
%TO.C,R143*%
X346044000Y-148469500D03*
X346044000Y-150294500D03*
%TD*%
D10*
%TO.C,D26*%
X283461000Y-185412000D03*
X290261000Y-185412000D03*
%TD*%
D22*
%TO.C,Q89*%
X375967000Y-213570000D03*
X375967000Y-216620000D03*
X379317000Y-213570000D03*
X379317000Y-216620000D03*
D23*
X371342000Y-212815000D03*
X371342000Y-217375000D03*
%TD*%
D15*
%TO.C,C15*%
X354544000Y-160696000D03*
X354544000Y-162596000D03*
%TD*%
D11*
%TO.C,R14*%
X119465500Y-122793000D03*
X121290500Y-122793000D03*
%TD*%
%TO.C,R129*%
X285948500Y-170079000D03*
X287773500Y-170079000D03*
%TD*%
%TO.C,R90*%
X264991500Y-163318000D03*
X266816500Y-163318000D03*
%TD*%
D15*
%TO.C,B10*%
X340502000Y-148684000D03*
X340502000Y-150584000D03*
%TD*%
D13*
%TO.C,R305*%
X345004000Y-229615500D03*
X345004000Y-231440500D03*
%TD*%
D11*
%TO.C,R12*%
X59276500Y-153646000D03*
X61101500Y-153646000D03*
%TD*%
D17*
%TO.C,R174*%
X385201000Y-198644500D03*
X385201000Y-204569500D03*
%TD*%
D11*
%TO.C,R180*%
X405906500Y-208718000D03*
X407731500Y-208718000D03*
%TD*%
%TO.C,R70*%
X243195500Y-136913000D03*
X245020500Y-136913000D03*
%TD*%
D13*
%TO.C,R266*%
X267505000Y-73202500D03*
X267505000Y-75027500D03*
%TD*%
D11*
%TO.C,R50*%
X196000500Y-217614000D03*
X197825500Y-217614000D03*
%TD*%
D10*
%TO.C,D22*%
X262504000Y-182615000D03*
X269304000Y-182615000D03*
%TD*%
D13*
%TO.C,R264*%
X275378000Y-72856500D03*
X275378000Y-74681500D03*
%TD*%
D22*
%TO.C,Q30*%
X197551000Y-173701000D03*
X197551000Y-176751000D03*
X200901000Y-173701000D03*
X200901000Y-176751000D03*
D23*
X192926000Y-172946000D03*
X192926000Y-177506000D03*
%TD*%
D13*
%TO.C,R148*%
X399528000Y-171773500D03*
X399528000Y-173598500D03*
%TD*%
D15*
%TO.C,B2*%
X172100000Y-120601000D03*
X172100000Y-122501000D03*
%TD*%
M02*
