v -3.885397 -3.175 2.044611
v -3.891781 -3.175 2.043933
v -3.82624 -3.175 2.043933
newmtl 1
Ka 1.0 1.0 1.0
Kd 1.0 1.0 1.0
Ks 0.5019607843137255 0.5019607843137255 0.5019607843137255
d 0.0
endmtl
v -4.091953 -3.175 2.74745
v -4.071979 -3.175 2.749859
v -4.179654 -3.175 2.749859
v -4.022494 -3.175 2.475779
v -4.039896 -3.175 2.474115
v -3.95018 -3.175 2.474115
v -4.692053 -3.175 2.536148
v -4.639748 -3.175 2.49193
v -4.456918 -3.175 2.749859
v -4.456918 -3.175 2.474115
v -4.946421 -3.175 2.776612
v -4.906919 -3.175 2.749859
v -4.86294 -3.175 2.720074
v -4.798893 -3.175 2.645891
v -4.758829 -3.175 2.567763
v -4.749433 -3.175 2.564606
v -5.309388 -3.175 2.77432
v -5.220483 -3.175 2.808591
v -6.035906 -3.175 3.175
v -4.456918 -3.175 3.175
v -5.125145 -3.175 2.820329
v -5.042926 -3.175 2.811387
v -6.035906 -3.175 2.749859
v -5.561655 -3.175 2.654773
v -5.485679 -3.175 2.664162
v -6.035906 -3.175 2.474115
v -5.770633 -3.175 2.474115
v -5.753773 -3.175 2.512162
v -5.707397 -3.175 2.571619
v -5.34888 -3.175 2.749859
v -5.356503 -3.175 2.745137
v -5.401811 -3.175 2.706337
v -5.463507 -3.175 2.662957
v -5.441335 -3.175 2.660306
v -5.694395 -3.175 2.583926
v -5.633073 -3.175 2.627039
v -5.562798 -3.175 2.049136
v -5.58721 -3.175 2.056442
v -6.035906 -3.175 2.043933
v -5.656886 -3.175 2.090387
v -5.717036 -3.175 2.141679
v -5.761036 -3.175 2.204487
v -5.788671 -3.175 2.276261
v -6.035906 -3.175 2.394609
v -5.798012 -3.175 2.351829
v -5.797469 -3.175 2.370286
v -5.793127 -3.175 2.394609
v -5.784533 -3.175 2.442747
v -5.476998 -3.175 1.943915
v -5.514726 -3.175 1.972323
v -6.035906 -3.175 1.936516
v -5.543418 -3.175 2.007696
v -5.560365 -3.175 2.043933
v -6.035906 -3.175 -0.0
v -5.9055 -3.175 0.635
v -5.9055 -3.175 -0.0
v -5.37964 -3.175 1.918033
v -5.332906 -3.175 1.923798
v -4.456918 -3.175 0.635
v -5.299829 -3.175 1.936516
v -5.386979 -3.175 1.918168
v -5.432504 -3.175 1.925245
v -5.459365 -3.175 1.936516
v -5.199011 -3.175 2.043933
v -5.199237 -3.175 2.042983
v -4.456918 -3.175 1.936516
v -5.222089 -3.175 2.000042
v -5.251519 -3.175 1.967067
v -5.289911 -3.175 1.940329
v -4.576797 -3.175 2.378211
v -4.567958 -3.175 2.315198
v -4.456918 -3.175 2.394609
v -4.952805 -3.175 2.157672
v -4.939576 -3.175 2.162898
v -4.916924 -3.175 2.272782
v -4.639294 -3.175 2.132039
v -4.691726 -3.175 2.08765
v -4.456918 -3.175 2.043933
v -5.235041 -3.175 2.240006
v -4.976691 -3.175 2.374965
v -5.268785 -3.175 2.270721
v -5.309706 -3.175 2.292635
v -4.964661 -3.175 2.149269
v -4.600999 -3.175 2.185398
v -4.688459 -3.175 2.33036
v -4.697564 -3.175 2.367377
v -4.712287 -3.175 2.394609
v -5.671748 -3.175 2.394609
v -4.576791 -3.175 2.246441
v -4.924635 -3.175 2.164815
v -4.922759 -3.175 2.164679
v -4.916975 -3.175 2.163398
v -5.66034 -3.175 2.27861
v -5.637489 -3.175 2.239753
v -5.539603 -3.175 2.219697
v -5.602932 -3.175 2.204228
v -5.56087 -3.175 2.178311
v -5.468329 -3.175 2.283559
v -5.50774 -3.175 2.256155
v -5.676549 -3.175 2.355685
v -5.674212 -3.175 2.325773
v -5.425748 -3.175 2.299866
v -5.37964 -3.175 2.305558
v -5.35625 -3.175 2.304174
v -4.984403 -3.175 2.105047
v -4.983913 -3.175 2.112656
v -5.186841 -3.175 2.130111
v -4.980041 -3.175 2.12733
v -4.972627 -3.175 2.140484
v -4.72666 -3.175 2.211258
v -4.705437 -3.175 2.241322
v -4.692136 -3.175 2.275678
v -4.687494 -3.175 2.31327
v -4.939353 -3.175 2.04703
v -4.952106 -3.175 2.05205
v -4.96461 -3.175 2.06094
v -4.969091 -3.175 2.065502
v -4.977495 -3.175 2.077613
v -4.982574 -3.175 2.090687
v -5.187907 -3.175 2.090564
v -5.186841 -3.175 2.110831
v -4.75055 -3.175 2.058856
v -4.81474 -3.175 2.04528
v -4.928492 -3.175 2.04528
v -4.913067 -3.175 2.162887
v -4.826308 -3.175 2.162887
v -4.791558 -3.175 2.169563
v -4.757556 -3.175 2.185357
v -4.729074 -3.175 2.208665
v -4.8533 -3.175 2.463652
v -5.654253 -3.175 2.445413
v -5.670784 -3.175 2.402419
v -4.837876 -3.175 2.463652
v -4.715532 -3.175 2.400612
v -4.737608 -3.175 2.425243
v -4.767503 -3.175 2.446139
v -4.801147 -3.175 2.459113
v -4.894974 -3.175 2.579654
v -4.938502 -3.175 2.63157
v -5.381567 -3.175 2.519564
v -4.943161 -3.175 2.635811
v -4.997322 -3.175 2.673417
v -5.352091 -3.175 2.580585
v -5.634263 -3.175 2.474115
v -5.395079 -3.175 2.526964
v -4.855605 -3.175 2.474115
v -4.865174 -3.175 2.51756
v -5.438301 -3.175 2.542824
v -5.48375 -3.175 2.548483
v -5.504017 -3.175 2.547418
v -5.30884 -3.175 2.632239
v -5.057776 -3.175 2.696598
v -5.257217 -3.175 2.669958
v -5.123218 -3.175 2.70465
v -5.194241 -3.175 2.695495
v -5.551599 -3.175 2.536087
v -5.59454 -3.175 2.513236
v -5.627514 -3.175 2.483806
v -4.62696 -3.175 2.474115
v -4.600382 -3.175 2.43709
v -4.583366 -3.175 2.394609
v -3.323933 -3.175 2.550572
v -3.423438 -3.175 2.550572
v -3.296276 -3.175 2.476403
v -3.423438 -3.175 2.474115
v -3.257597 -3.175 2.476403
v -2.159 -3.175 2.474115
v -2.159 -3.175 2.749859
v -3.360879 -3.175 2.747572
v -3.423438 -3.175 2.749859
v -3.436851 -3.175 2.550572
v -3.462914 -3.175 2.476403
v -3.509114 -3.175 2.474115
v -3.501593 -3.175 2.476403
v -3.509114 -3.175 2.749859
v -3.423438 -3.175 2.681599
v -3.398311 -3.175 2.747572
v -3.82624 -3.175 2.59854
v -3.899474 -3.175 2.59854
v -3.82624 -3.175 2.507318
v -3.899474 -3.175 2.507318
v -3.763023 -3.175 2.749859
v -3.82624 -3.175 2.749859
v -3.794805 -3.175 2.747572
v -3.82624 -3.175 2.747572
v -3.794805 -3.175 2.716379
v -3.788635 -3.175 2.507318
v -3.763023 -3.175 2.474115
v -3.788635 -3.175 2.476403
v -3.82624 -3.175 2.474115
v -3.802499 -3.175 2.59854
v -3.802499 -3.175 2.629594
v -3.82624 -3.175 2.629594
v -3.82624 -3.175 2.716379
v -3.899474 -3.175 2.716379
v -3.899474 -3.175 2.629594
v -3.934479 -3.175 2.747572
v -3.95018 -3.175 2.749859
v -3.934479 -3.175 2.476403
v -3.988755 -3.175 2.741056
v -4.013388 -3.175 2.748588
v -4.025927 -3.175 2.749859
v -3.82624 -3.175 2.476403
v -3.988755 -3.175 2.704456
v -4.058765 -3.175 2.503021
v -4.042676 -3.175 2.503791
v -3.993381 -3.175 2.485327
v -4.012545 -3.175 2.510135
v -3.988755 -3.175 2.521182
v -3.988755 -3.175 2.487632
v -4.023587 -3.175 2.717552
v -4.052665 -3.175 2.720538
v -4.126557 -3.175 2.690454
v -4.128596 -3.175 2.688214
v -4.14165 -3.175 2.669318
v -4.150678 -3.175 2.645813
v -4.155046 -3.175 2.608938
v -4.155002 -3.175 2.605
v -4.150517 -3.175 2.572186
v -4.122168 -3.175 2.52547
v -4.104202 -3.175 2.513165
v -4.084636 -3.175 2.505956
v -3.995603 -3.175 2.708005
v -4.063202 -3.175 2.720115
v -4.08679 -3.175 2.715565
v -4.108111 -3.175 2.705686
v -4.141819 -3.175 2.550254
v -4.128428 -3.175 2.531579
v -4.179654 -3.175 3.175
v -4.053011 -3.175 2.752147
v -3.95018 -3.175 3.175
v -4.048018 -3.175 2.7521
v -4.12033 -3.175 2.736502
v -4.169978 -3.175 2.690331
v -4.15262 -3.175 2.71222
v -4.146571 -3.175 2.71803
v -4.179654 -3.175 2.545308
v -4.186542 -3.175 2.563113
v -4.195909 -3.175 2.474115
v -4.191785 -3.175 2.606858
v -4.190854 -3.175 2.626456
v -4.195909 -3.175 2.749859
v -4.183781 -3.175 2.66085
v -4.179654 -3.175 2.669664
v -4.111778 -3.175 2.479398
v -4.137069 -3.175 2.491953
v -4.179654 -3.175 2.474115
v -4.156987 -3.175 2.508843
v -4.159441 -3.175 2.51153
v -4.175563 -3.175 2.534732
v -4.088315 -3.175 2.474115
v -4.179654 -3.175 2.394609
v -4.082833 -3.175 2.472881
v -4.063825 -3.175 2.471828
v -3.95018 -3.175 2.394609
v -3.423438 -3.175 -0.0
v -3.3655 -3.175 -0.0
v -3.3655 -3.175 0.635
v -4.195909 -3.175 1.936516
v -4.2545 -3.175 0.635
v -3.613194 -3.175 2.749859
v -3.613194 -3.175 2.741007
v -3.585922 -3.175 2.731045
v -3.525276 -3.175 2.562821
v -3.539467 -3.175 2.53524
v -3.557532 -3.175 2.711665
v -3.547796 -3.175 2.702122
v -3.531054 -3.175 2.678428
v -3.613194 -3.175 2.483443
v -3.613194 -3.175 2.474115
v -3.586167 -3.175 2.493915
v -3.557532 -3.175 2.514389
v -3.521075 -3.175 2.652514
v -3.516635 -3.175 2.615453
v -3.517921 -3.175 2.593909
v -3.660052 -3.175 2.747572
v -3.618648 -3.175 2.743
v -3.617151 -3.175 2.48191
v -3.662825 -3.175 2.476403
v -3.73741 -3.175 2.476403
v -3.73741 -3.175 2.747572
v -4.074806 -3.175 2.048569
v -4.087623 -3.175 2.043933
v -4.045872 -3.175 2.046221
v -4.154253 -3.175 2.138039
v -4.1486 -3.175 2.193311
v -4.161506 -3.175 2.127044
v -4.165778 -3.175 2.114731
v -4.062837 -3.175 2.056522
v -4.126427 -3.175 2.044005
v -4.13945 -3.175 2.048915
v -4.179654 -3.175 2.043933
v -4.047628 -3.175 2.238344
v -3.960287 -3.175 2.210708
v -3.953976 -3.175 2.219888
v -4.144039 -3.175 2.147125
v -4.129906 -3.175 2.154586
v -4.126593 -3.175 2.207373
v -4.103267 -3.175 2.161287
v -4.073599 -3.175 2.215535
v -4.085105 -3.175 2.216741
v -4.105363 -3.175 2.214632
v -4.150887 -3.175 2.056895
v -4.154686 -3.175 2.060745
v -4.161744 -3.175 2.071183
v -4.036266 -3.175 2.23199
v -4.027385 -3.175 2.223733
v -3.964331 -3.175 2.199773
v -4.020323 -3.175 2.213004
v -4.01487 -3.175 2.198003
v -4.1486 -3.175 2.226306
v -4.137328 -3.175 2.23252
v -4.045872 -3.175 2.076165
v -4.046773 -3.175 2.076165
v -4.052105 -3.175 2.068057
v -4.165851 -3.175 2.082674
v -4.167523 -3.175 2.098069
v -4.111266 -3.175 2.241351
v -4.081916 -3.175 2.244329
v -4.062107 -3.175 2.242608
v -3.956037 -3.175 2.156989
v -3.960466 -3.175 2.164068
v -4.011906 -3.175 2.170853
v -3.964211 -3.175 2.17444
v -3.965672 -3.175 2.187627
v -4.045872 -3.175 2.169328
v -4.047053 -3.175 2.184346
v -4.050565 -3.175 2.19644
v -4.054556 -3.175 2.203435
v -3.95048 -3.175 2.151178
v -3.96588 -3.175 2.088088
v -3.95018 -3.175 2.15098
v -3.954127 -3.175 2.080687
v -3.95018 -3.175 2.079119
v -4.05969 -3.175 2.208897
v -4.065721 -3.175 2.212783
v -4.088574 -3.175 2.043589
v -3.95018 -3.175 1.936516
v -4.179654 -3.175 1.936516
v -4.106109 -3.175 2.041645
v -4.125806 -3.175 2.043933
v -3.96588 -3.175 2.053014
v -4.011906 -3.175 2.046221
v -3.95018 -3.175 2.04741
v -3.95018 -3.175 2.043933
v -3.94304 -3.175 2.044861
v -3.934466 -3.175 2.043933
v -3.913337 -3.175 2.041645
v -3.82624 -3.175 1.936516
v -3.844367 -3.175 2.235734
v -3.844367 -3.175 2.202739
v -3.943906 -3.175 2.22894
v -3.934605 -3.175 2.234567
v -3.836694 -3.175 2.085254
v -3.840865 -3.175 2.074491
v -3.847196 -3.175 2.065532
v -3.95018 -3.175 2.223301
v -3.916171 -3.175 2.241387
v -3.890255 -3.175 2.244329
v -3.82624 -3.175 2.394609
v -3.868592 -3.175 2.242597
v -3.846446 -3.175 2.130926
v -3.840107 -3.175 2.12157
v -3.836483 -3.175 2.111555
v -3.835078 -3.175 2.098902
v -3.856913 -3.175 2.057034
v -3.866869 -3.175 2.051124
v -3.893582 -3.175 2.216741
v -3.903636 -3.175 2.215986
v -3.930666 -3.175 2.190677
v -3.912722 -3.175 2.213582
v -3.920339 -3.175 2.209532
v -3.930357 -3.175 2.186159
v -3.92901 -3.175 2.180883
v -3.926562 -3.175 2.176301
v -3.92325 -3.175 2.172655
v -3.911275 -3.175 2.165169
v -3.869812 -3.175 2.213844
v -3.890255 -3.175 2.156019
v -3.8506 -3.175 2.206391
v -3.877103 -3.175 2.150697
v -3.854545 -3.175 2.138152
v -3.925463 -3.175 2.205003
v -3.928375 -3.175 2.20068
v -3.930052 -3.175 2.196095
v -3.932904 -3.175 2.072261
v -3.914238 -3.175 2.131342
v -3.934484 -3.175 2.140622
v -3.91001 -3.175 2.069372
v -3.90851 -3.175 2.069382
v -3.891936 -3.175 2.122001
v -3.891098 -3.175 2.071333
v -3.869945 -3.175 2.095574
v -3.870277 -3.175 2.099799
v -3.882334 -3.175 2.074541
v -3.879237 -3.175 2.07642
v -3.87534 -3.175 2.079879
v -3.872375 -3.175 2.084264
v -3.870648 -3.175 2.089094
v -3.871821 -3.175 2.105103
v -3.874446 -3.175 2.109606
v -3.878679 -3.175 2.114013
v -3.666707 -3.175 2.239892
v -3.631494 -3.175 2.239892
v -3.613194 -3.175 2.394609
v -3.728815 -3.175 2.094326
v -3.724656 -3.175 2.078383
v -3.723755 -3.175 2.078383
v -3.763023 -3.175 2.394609
v -3.763023 -3.175 2.192733
v -3.719596 -3.175 2.094049
v -3.722195 -3.175 2.085021
v -3.763023 -3.175 2.101563
v -3.817402 -3.175 2.239892
v -3.779416 -3.175 2.239892
v -3.742575 -3.175 2.043933
v -3.741431 -3.175 2.046636
v -3.763023 -3.175 1.999181
v -3.762978 -3.175 1.999232
v -3.763023 -3.175 2.043933
v -3.756334 -3.175 2.011423
v -3.810401 -3.175 1.987994
v -3.810401 -3.175 1.957772
v -3.803453 -3.175 1.985717
v -3.791131 -3.175 1.984112
v -3.782976 -3.175 1.985026
v -3.763023 -3.175 1.961054
v -3.774775 -3.175 1.956577
v -3.763023 -3.175 1.936516
v -3.788497 -3.175 1.954999
v -3.795995 -3.175 1.955268
v -3.775537 -3.175 1.987815
v -3.769303 -3.175 1.992143
v -3.719388 -3.175 2.016968
v -3.734764 -3.175 1.987023
v -3.613194 -3.175 1.936516
v -3.708756 -3.175 2.043933
v -3.747193 -3.175 1.972097
v -3.749509 -3.175 1.969974
v -3.761372 -3.175 1.961683
v -3.509114 -3.175 2.168357
v -3.559889 -3.175 2.168357
v -3.509114 -3.175 2.077136
v -3.559889 -3.175 2.077136
v -3.45522 -3.175 2.317389
v -3.45522 -3.175 2.286196
v -3.423438 -3.175 2.394609
v -3.449051 -3.175 2.077136
v -3.423438 -3.175 2.043933
v -3.449051 -3.175 2.046221
v -3.509114 -3.175 2.043933
v -3.462914 -3.175 2.168357
v -3.462914 -3.175 2.199411
v -3.509114 -3.175 2.199411
v -3.509114 -3.175 2.286196
v -3.559889 -3.175 2.286196
v -3.559889 -3.175 2.199411
v -3.509114 -3.175 2.046221
v -3.594894 -3.175 2.046221
v -3.613194 -3.175 2.043933
v -3.594894 -3.175 2.317389
v -3.509114 -3.175 2.317389
v -3.509114 -3.175 2.394609
v -3.82624 -3.175 3.175
v -3.763023 -3.175 3.175
v -3.613194 -3.175 3.175
v -3.509114 -3.175 3.175
v -3.423438 -3.175 3.175
v -2.159 -3.175 3.175
v -4.195909 -3.175 3.175
v -4.202875 -3.175 2.507318
v -4.202875 -3.175 2.476403
v -4.345877 -3.175 2.476403
v -4.345877 -3.175 2.747572
v -4.310872 -3.175 2.747572
v -4.310872 -3.175 2.507318
v -4.195909 -3.175 2.394609
v -2.956691 -3.175 2.046221
v -2.984348 -3.175 2.12039
v -3.097266 -3.175 2.12039
v -2.159 -3.175 2.043933
v -2.159 -3.175 2.394609
v -3.021294 -3.175 2.317389
v -3.178336 -3.175 2.163727
v -3.185691 -3.175 2.132639
v -3.162008 -3.175 2.046221
v -3.199882 -3.175 2.105058
v -3.217947 -3.175 2.084206
v -3.058726 -3.175 2.317389
v -3.320467 -3.175 2.317389
v -3.279063 -3.175 2.312817
v -3.17705 -3.175 2.185271
v -3.18149 -3.175 2.222331
v -3.246582 -3.175 2.063733
v -3.277565 -3.175 2.051727
v -3.32324 -3.175 2.046221
v -3.217947 -3.175 2.281483
v -3.208211 -3.175 2.27194
v -3.191469 -3.175 2.248245
v -3.246337 -3.175 2.300862
v -3.123329 -3.175 2.046221
v -2.918012 -3.175 2.046221
v -3.397825 -3.175 2.046221
v -3.397825 -3.175 2.317389
v -4.195909 -3.175 2.043933
v -4.345877 -3.175 2.046221
v -4.200033 -3.175 2.046221
v -4.200033 -3.175 2.077136
v -4.206203 -3.175 2.286196
v -4.345877 -3.175 2.317389
v -4.206203 -3.175 2.317389
v -4.310872 -3.175 2.168357
v -4.310872 -3.175 2.077136
v -4.213897 -3.175 2.168357
v -4.213897 -3.175 2.199411
v -4.310872 -3.175 2.199411
v -4.310872 -3.175 2.286196
v -3.509114 -3.175 1.936516
v -3.423438 -3.175 1.936516
v -2.159 -3.175 1.936516
v -2.159 -3.175 0.635
v -3.509114 -3.175 -0.0
v -3.613194 -3.175 -0.0
v -3.763023 -3.175 -0.0
v -3.82624 -3.175 -0.0
v -3.95018 -3.175 -0.0
v -4.179654 -3.175 -0.0
v -4.195909 -3.175 -0.0
v -4.2545 -3.175 -0.0
v -6.2738 -3.175 3.175
v -6.2738 -3.175 2.749859
v -6.2738 -3.175 2.474115
v -6.2738 -3.175 2.394609
v -6.2738 -3.175 2.043933
v -6.2738 -3.175 1.936516
v -6.2738 -3.175 -0.0
v -4.7625 -0.2413 -3.048
v -4.9657 -0.0381 -3.556
v -4.7625 0.3937 -3.048
newmtl 2
Ka 0.7529411764705882 0.7529411764705882 0.7529411764705882
Kd 0.7529411764705882 0.7529411764705882 0.7529411764705882
Ks 0.3764705882352941 0.3764705882352941 0.3764705882352941
d 0.0
endmtl
v -4.9657 0.1905 -3.556
v -5.1943 0.1905 -3.556
v -5.3975 0.3937 -3.048
v -4.7625 0.3937 0.635
v -5.3975 0.3937 0.635
v -0.8255 3.175 0.635
v -0.8255 -2.921 0.635
v -0.8255 3.175 0.0
v -0.8255 -2.921 -0.0
v 0.8255 3.175 0.0
v 0.8255 -3.175 -0.0
v 0.8255 3.175 0.635
v 0.8255 -3.175 0.635
v 0.3175 0.3937 0.635
v 0.3175 0.3937 -3.048
v -0.3175 0.3937 0.635
v -0.3175 0.3937 -3.048
v -0.1143 0.1905 -3.556
v 0.1143 0.1905 -3.556
v 0.3175 -0.2413 -3.048
v 0.1143 -0.0381 -3.556
v -0.3175 -0.2413 0.635
v -0.3175 -0.2413 -3.048
v 0.3175 -0.2413 0.635
v -0.1143 -0.0381 -3.556
v -0.3175 0.3937 3.175
v -0.3175 0.3937 10.16
v 0.3175 0.3937 3.175
v 0.3175 0.3937 10.16
v -0.3175 -0.2413 3.175
v -0.3175 -0.2413 10.16
v 0.3175 -0.2413 3.175
v 0.3175 -0.2413 10.16
v -0.1143 -0.0381 10.668
v 0.1143 -0.0381 10.668
v -0.1143 0.1905 10.668
v 0.1143 0.1905 10.668
v -0.381 -3.175 0.635
v -0.635 -2.921 0.635
v -0.635 -2.921 3.175
v -0.381 -3.175 3.175
v -1.7145 3.175 0.0
v -1.7145 -2.921 -0.0
v -1.7145 3.175 0.635
v -1.7145 -2.921 0.635
v -1.27 -2.921 3.175
v -1.905 -2.921 3.175
v -1.905 -2.921 0.635
v -2.2225 0.3937 0.635
v -2.2225 0.3937 -3.048
v -2.8575 0.3937 0.635
v -2.8575 0.3937 -3.048
v -2.6543 0.1905 -3.556
v -2.4257 0.1905 -3.556
v -2.2225 -0.2413 -3.048
v -2.4257 -0.0381 -3.556
v -2.8575 -0.2413 0.635
v -2.8575 -0.2413 -3.048
v -2.2225 -0.2413 0.635
v -2.6543 -0.0381 -3.556
v -2.8575 0.3937 3.175
v -2.8575 0.3937 10.16
v -2.2225 0.3937 3.175
v -2.2225 0.3937 10.16
v -2.8575 -0.2413 3.175
v -2.8575 -0.2413 10.16
v -2.2225 -0.2413 3.175
v -2.2225 -0.2413 10.16
v -2.6543 -0.0381 10.668
v -2.4257 -0.0381 10.668
v -2.6543 0.1905 10.668
v -2.4257 0.1905 10.668
v -3.3655 3.175 0.635
v -3.3655 3.175 0.0
v 5.08 1.4605 6.5278
v -5.08 1.4605 6.5278
v 5.08 2.286 5.7658
v -5.08 2.286 5.7658
v 5.08 1.4605 7.4168
v -5.08 1.4605 7.4168
v 5.08 2.54 8.178801
v -5.08 2.54 8.178801
v 5.08 3.175 8.178801
v -5.08 3.175 8.178801
v -5.08 3.175 3.175
v -5.08 2.286 3.175
v 5.08 2.286 3.175
v -1.27 2.286 3.175
v 5.08 3.175 3.175
v 6.0198 -2.2098 1.3589
v 6.2738 -2.2098 1.3335
v 6.0198 2.3622 1.3589
v 6.2738 2.3622 1.3335
v 6.0198 -2.2098 2.3241
v 6.0198 2.3622 2.3241
v 6.2738 2.3622 2.3495
v 6.2738 -2.2098 2.3495
v -6.0198 -2.2098 2.3241
v -6.0198 2.3622 2.3241
v -6.0198 -2.2098 1.3589
v -6.0198 2.3622 1.3589
v -6.2738 2.3622 1.3335
v -6.2738 -2.2098 1.3335
v -6.2738 -2.2098 2.3495
v -6.2738 2.3622 2.3495
v 6.2738 3.175 3.175
v 6.2738 -1.70815 3.175
v 6.2738 -3.175 3.175
v 6.2738 -3.175 -0.0
v 6.2738 3.175 0.0
v 5.9055 3.175 0.0
v 5.9055 -3.175 -0.0
v 5.9055 3.175 0.635
v 5.9055 -3.175 0.635
v 5.3975 0.3937 0.635
v 5.3975 0.3937 -3.048
v 4.7625 0.3937 0.635
v 4.7625 0.3937 -3.048
v 4.9657 0.1905 -3.556
v 5.1943 0.1905 -3.556
v 5.3975 -0.2413 -3.048
v 5.1943 -0.0381 -3.556
v 4.7625 -0.2413 0.635
v 4.7625 -0.2413 -3.048
v 5.3975 -0.2413 0.635
v 4.9657 -0.0381 -3.556
v 4.7625 0.3937 3.175
v 4.7625 0.3937 10.16
v 5.3975 0.3937 3.175
v 5.3975 0.3937 10.16
v 4.7625 -0.2413 3.175
v 4.7625 -0.2413 10.16
v 5.3975 -0.2413 3.175
v 5.3975 -0.2413 10.16
v 4.9657 -0.0381 10.668
v 5.1943 -0.0381 10.668
v 4.9657 0.1905 10.668
v 5.1943 0.1905 10.668
v 4.699 -3.175 0.635
v 4.445 -2.921 0.635
v 4.2545 -2.921 0.635
v 4.2545 3.175 0.635
v 4.445 -2.921 3.175
v 4.699 -3.175 3.175
v 3.175 -2.921 3.175
v 2.921 -3.175 3.175
v 3.175 -2.921 0.635
v 2.921 -3.175 0.635
v 1.7145 3.175 0.635
v 1.7145 -3.175 0.635
v 1.7145 3.175 0.0
v 1.7145 -3.175 -0.0
v 2.8575 0.3937 0.635
v 2.8575 0.3937 -3.048
v 2.2225 0.3937 0.635
v 2.2225 0.3937 -3.048
v 2.4257 0.1905 -3.556
v 2.6543 0.1905 -3.556
v 2.8575 -0.2413 -3.048
v 2.6543 -0.0381 -3.556
v 2.2225 -0.2413 0.635
v 2.2225 -0.2413 -3.048
v 2.8575 -0.2413 0.635
v 2.4257 -0.0381 -3.556
v 2.2225 0.3937 3.175
v 2.2225 0.3937 10.16
v 2.8575 0.3937 3.175
v 2.8575 0.3937 10.16
v 2.2225 -0.2413 3.175
v 2.2225 -0.2413 10.16
v 2.8575 -0.2413 3.175
v 2.8575 -0.2413 10.16
v 2.4257 -0.0381 10.668
v 2.6543 -0.0381 10.668
v 2.4257 0.1905 10.668
v 2.6543 0.1905 10.668
v 3.3655 -2.921 0.635
v 3.3655 3.175 0.635
v 3.3655 3.175 0.0
v 3.3655 -2.921 -0.0
v 4.2545 -2.921 -0.0
v 4.2545 3.175 0.0
v -6.2738 3.175 3.175
v -5.9055 3.175 0.0
v -6.2738 3.175 0.0
v -5.9055 3.175 0.635
v -4.2545 3.175 0.635
v -4.2545 3.175 0.0
v -5.3975 -0.2413 0.635
v -4.7625 -0.2413 0.635
v -5.3975 -0.2413 -3.048
v -5.1943 -0.0381 -3.556
v -5.3975 0.3937 3.175
v -5.3975 0.3937 10.16
v -4.7625 0.3937 3.175
v -4.7625 0.3937 10.16
v -5.3975 -0.2413 3.175
v -5.3975 -0.2413 10.16
v -4.7625 -0.2413 3.175
v -4.7625 -0.2413 10.16
v -5.1943 -0.0381 10.668
v -4.9657 -0.0381 10.668
v -5.1943 0.1905 10.668
v -4.9657 0.1905 10.668
v -1.27 -1.70815 3.175
v -6.2738 -1.70815 3.175
v -4.202875 -3.185 2.507318
v -4.202875 -3.185 2.476403
newmtl 3
Ka 0.0 0.0 0.0
Kd 0.0 0.0 0.0
Ks 0.0 0.0 0.0
d 0.0
endmtl
v -4.310872 -3.185 2.507318
v -4.310872 -3.185 2.747572
v -4.345877 -3.185 2.747572
v -4.345877 -3.185 2.476403
v -4.063825 -3.185 2.471828
v -4.022494 -3.185 2.475779
v -3.993381 -3.185 2.485327
v -3.988755 -3.185 2.487632
v -3.988755 -3.185 2.521182
v -4.012545 -3.185 2.510135
v -4.042676 -3.185 2.503791
v -4.058765 -3.185 2.503021
v -4.084636 -3.185 2.505956
v -4.104202 -3.185 2.513165
v -4.122168 -3.185 2.52547
v -4.128428 -3.185 2.531579
v -4.141819 -3.185 2.550254
v -4.150517 -3.185 2.572186
v -4.155002 -3.185 2.605
v -4.155046 -3.185 2.608938
v -4.150678 -3.185 2.645813
v -4.14165 -3.185 2.669318
v -4.128596 -3.185 2.688214
v -4.126557 -3.185 2.690454
v -4.108111 -3.185 2.705686
v -4.08679 -3.185 2.715565
v -4.063202 -3.185 2.720115
v -4.052665 -3.185 2.720538
v -4.023587 -3.185 2.717552
v -3.995603 -3.185 2.708005
v -3.988755 -3.185 2.704456
v -3.988755 -3.185 2.741056
v -4.053011 -3.185 2.752147
v -4.048018 -3.185 2.7521
v -4.013388 -3.185 2.748588
v -4.091953 -3.185 2.74745
v -4.12033 -3.185 2.736502
v -4.146571 -3.185 2.71803
v -4.15262 -3.185 2.71222
v -4.183781 -3.185 2.66085
v -4.169978 -3.185 2.690331
v -4.190854 -3.185 2.626456
v -4.191785 -3.185 2.606858
v -4.175563 -3.185 2.534732
v -4.186542 -3.185 2.563113
v -4.159441 -3.185 2.51153
v -4.156987 -3.185 2.508843
v -4.082833 -3.185 2.472881
v -4.137069 -3.185 2.491953
v -4.111778 -3.185 2.479398
v -3.788635 -3.185 2.507318
v -3.788635 -3.185 2.476403
v -3.899474 -3.185 2.507318
v -3.899474 -3.185 2.59854
v -3.802499 -3.185 2.59854
v -3.802499 -3.185 2.629594
v -3.899474 -3.185 2.629594
v -3.899474 -3.185 2.716379
v -3.794805 -3.185 2.716379
v -3.794805 -3.185 2.747572
v -3.934479 -3.185 2.747572
v -3.934479 -3.185 2.476403
v -3.56846 -3.185 2.5531
v -3.582417 -3.185 2.5356
v -3.557532 -3.185 2.514389
v -3.585837 -3.185 2.532423
v -3.586167 -3.185 2.493915
v -3.60339 -3.185 2.520325
v -3.617151 -3.185 2.48191
v -3.625892 -3.185 2.511694
v -3.662825 -3.185 2.476403
v -3.663033 -3.185 2.507318
v -3.73741 -3.185 2.476403
v -3.702405 -3.185 2.507318
v -3.73741 -3.185 2.747572
v -3.702405 -3.185 2.716379
v -3.660052 -3.185 2.747572
v -3.661439 -3.185 2.716379
v -3.618648 -3.185 2.743
v -3.626272 -3.185 2.712464
v -3.585922 -3.185 2.731045
v -3.602794 -3.185 2.703937
v -3.557532 -3.185 2.711665
v -3.583179 -3.185 2.69087
v -3.547796 -3.185 2.702122
v -3.573508 -3.185 2.680928
v -3.531054 -3.185 2.678428
v -3.563519 -3.185 2.665071
v -3.521075 -3.185 2.652514
v -3.55642 -3.185 2.644089
v -3.516635 -3.185 2.615453
v -3.553442 -3.185 2.614483
v -3.517921 -3.185 2.593909
v -3.554212 -3.185 2.598522
v -3.525276 -3.185 2.562821
v -3.559294 -3.185 2.573403
v -3.539467 -3.185 2.53524
v -3.661439 -3.175 2.716379
v -3.702405 -3.175 2.716379
v -3.702405 -3.175 2.507318
v -3.663033 -3.175 2.507318
v -3.582417 -3.175 2.5356
v -3.585837 -3.175 2.532423
v -3.60339 -3.175 2.520325
v -3.625892 -3.175 2.511694
v -3.553442 -3.175 2.614483
v -3.554212 -3.175 2.598522
v -3.559294 -3.175 2.573403
v -3.56846 -3.175 2.5531
v -3.583179 -3.175 2.69087
v -3.573508 -3.175 2.680928
v -3.563519 -3.175 2.665071
v -3.55642 -3.175 2.644089
v -3.626272 -3.175 2.712464
v -3.602794 -3.175 2.703937
v -3.42576 -3.185 2.581211
v -3.436851 -3.185 2.550572
v -3.334747 -3.185 2.581211
v -3.323933 -3.185 2.550572
v -3.38521 -3.185 2.69392
v -3.398311 -3.185 2.747572
v -3.501593 -3.185 2.476403
v -3.462914 -3.185 2.476403
v -3.382861 -3.185 2.702013
v -3.380773 -3.185 2.712913
v -3.360879 -3.185 2.747572
v -3.379941 -3.185 2.712913
v -3.377749 -3.185 2.701441
v -3.375713 -3.185 2.69392
v -3.257597 -3.185 2.476403
v -3.296276 -3.185 2.476403
v -3.42576 -3.175 2.581211
v -3.334747 -3.175 2.581211
v -3.375713 -3.175 2.69392
v -3.379941 -3.175 2.712913
v -3.377749 -3.175 2.701441
v -3.380773 -3.175 2.712913
v -3.38521 -3.175 2.69392
v -3.382861 -3.175 2.702013
v -4.200033 -3.185 2.077136
v -4.200033 -3.185 2.046221
v -4.310872 -3.185 2.077136
v -4.310872 -3.185 2.168357
v -4.213897 -3.185 2.168357
v -4.213897 -3.185 2.199411
v -4.310872 -3.185 2.199411
v -4.310872 -3.185 2.286196
v -4.206203 -3.185 2.286196
v -4.206203 -3.185 2.317389
v -4.345877 -3.185 2.317389
v -4.345877 -3.185 2.046221
v -4.046773 -3.185 2.076165
v -4.045872 -3.185 2.076165
v -4.048091 -3.185 2.107417
v -4.045905 -3.185 2.122572
v -4.011906 -3.185 2.170853
v -4.045872 -3.185 2.124826
v -4.045872 -3.185 2.143403
v -4.045872 -3.185 2.046221
v -4.011906 -3.185 2.046221
v -4.119565 -3.185 2.128824
v -4.111468 -3.185 2.132641
v -4.129906 -3.185 2.154586
v -4.053073 -3.185 2.095299
v -4.060429 -3.185 2.085315
v -4.052105 -3.185 2.068057
v -4.064688 -3.185 2.081153
v -4.062837 -3.185 2.056522
v -4.074286 -3.185 2.074676
v -4.074806 -3.185 2.048569
v -4.084591 -3.185 2.070933
v -4.088574 -3.185 2.043589
v -4.097305 -3.185 2.069511
v -4.106109 -3.185 2.041645
v -4.108778 -3.185 2.070803
v -4.126427 -3.185 2.044005
v -4.116461 -3.185 2.073622
v -4.13945 -3.185 2.048915
v -4.12323 -3.185 2.078245
v -4.150887 -3.185 2.056895
v -4.126118 -3.185 2.081148
v -4.103267 -3.185 2.161287
v -4.091205 -3.185 2.137303
v -4.045872 -3.185 2.169328
v -4.124062 -3.185 2.125381
v -4.144039 -3.185 2.147125
v -4.128128 -3.185 2.120347
v -4.154253 -3.185 2.138039
v -4.131108 -3.185 2.114012
v -4.161506 -3.185 2.127044
v -4.132785 -3.185 2.106233
v -4.165778 -3.185 2.114731
v -4.133073 -3.185 2.100842
v -4.167523 -3.185 2.098069
v -4.13221 -3.185 2.093045
v -4.165851 -3.185 2.082674
v -4.129978 -3.185 2.086874
v -4.161744 -3.185 2.071183
v -4.154686 -3.185 2.060745
v -4.1486 -3.185 2.226306
v -4.1486 -3.185 2.193311
v -4.137328 -3.185 2.23252
v -4.126593 -3.185 2.207373
v -4.111266 -3.185 2.241351
v -4.105363 -3.185 2.214632
v -4.081916 -3.185 2.244329
v -4.085105 -3.185 2.216741
v -4.062107 -3.185 2.242608
v -4.073599 -3.185 2.215535
v -4.047628 -3.185 2.238344
v -4.065721 -3.185 2.212783
v -4.036266 -3.185 2.23199
v -4.05969 -3.185 2.208897
v -4.027385 -3.185 2.223733
v -4.054556 -3.185 2.203435
v -4.020323 -3.185 2.213004
v -4.050565 -3.185 2.19644
v -4.01487 -3.185 2.198003
v -4.047053 -3.185 2.184346
v -4.124062 -3.175 2.125381
v -4.119565 -3.175 2.128824
v -4.111468 -3.175 2.132641
v -4.091205 -3.175 2.137303
v -4.133073 -3.175 2.100842
v -4.132785 -3.175 2.106233
v -4.131108 -3.175 2.114012
v -4.128128 -3.175 2.120347
v -4.12323 -3.175 2.078245
v -4.126118 -3.175 2.081148
v -4.129978 -3.175 2.086874
v -4.13221 -3.175 2.093045
v -4.097305 -3.175 2.069511
v -4.108778 -3.175 2.070803
v -4.116461 -3.175 2.073622
v -4.060429 -3.175 2.085315
v -4.064688 -3.175 2.081153
v -4.074286 -3.175 2.074676
v -4.084591 -3.175 2.070933
v -4.045872 -3.175 2.124826
v -4.045905 -3.175 2.122572
v -4.048091 -3.175 2.107417
v -4.053073 -3.175 2.095299
v -4.045872 -3.175 2.143403
v -3.96588 -3.185 2.088088
v -3.954127 -3.185 2.080687
v -3.91001 -3.185 2.069372
v -3.932904 -3.185 2.072261
v -3.96588 -3.185 2.053014
v -3.94304 -3.185 2.044861
v -3.913337 -3.185 2.041645
v -3.885397 -3.185 2.044611
v -3.866869 -3.185 2.051124
v -3.856913 -3.185 2.057034
v -3.847196 -3.185 2.065532
v -3.840865 -3.185 2.074491
v -3.836694 -3.185 2.085254
v -3.835078 -3.185 2.098902
v -3.836483 -3.185 2.111555
v -3.840107 -3.185 2.12157
v -3.846446 -3.185 2.130926
v -3.854545 -3.185 2.138152
v -3.877103 -3.185 2.150697
v -3.890255 -3.185 2.156019
v -3.911275 -3.185 2.165169
v -3.92325 -3.185 2.172655
v -3.926562 -3.185 2.176301
v -3.92901 -3.185 2.180883
v -3.930357 -3.185 2.186159
v -3.930666 -3.185 2.190677
v -3.930052 -3.185 2.196095
v -3.928375 -3.185 2.20068
v -3.925463 -3.185 2.205003
v -3.920339 -3.185 2.209532
v -3.912722 -3.185 2.213582
v -3.903636 -3.185 2.215986
v -3.893582 -3.185 2.216741
v -3.869812 -3.185 2.213844
v -3.8506 -3.185 2.206391
v -3.844367 -3.185 2.202739
v -3.844367 -3.185 2.235734
v -3.868592 -3.185 2.242597
v -3.890255 -3.185 2.244329
v -3.916171 -3.185 2.241387
v -3.934605 -3.185 2.234567
v -3.943906 -3.185 2.22894
v -3.953976 -3.185 2.219888
v -3.960287 -3.185 2.210708
v -3.964331 -3.185 2.199773
v -3.965672 -3.185 2.187627
v -3.964211 -3.185 2.17444
v -3.960466 -3.185 2.164068
v -3.956037 -3.185 2.156989
v -3.914238 -3.185 2.131342
v -3.934484 -3.185 2.140622
v -3.95048 -3.185 2.151178
v -3.891936 -3.185 2.122001
v -3.878679 -3.185 2.114013
v -3.874446 -3.185 2.109606
v -3.871821 -3.185 2.105103
v -3.870277 -3.185 2.099799
v -3.869945 -3.185 2.095574
v -3.870648 -3.185 2.089094
v -3.872375 -3.185 2.084264
v -3.87534 -3.185 2.079879
v -3.879237 -3.185 2.07642
v -3.882334 -3.185 2.074541
v -3.891098 -3.185 2.071333
v -3.90851 -3.185 2.069382
v -3.666707 -3.185 2.239892
v -3.631494 -3.185 2.239892
v -3.719596 -3.185 2.094049
v -3.722195 -3.185 2.085021
v -3.723755 -3.185 2.078383
v -3.724656 -3.185 2.078383
v -3.728815 -3.185 2.094326
v -3.779416 -3.185 2.239892
v -3.817402 -3.185 2.239892
v -3.741431 -3.185 2.046636
v -3.756334 -3.185 2.011423
v -3.762978 -3.185 1.999232
v -3.769303 -3.185 1.992143
v -3.775537 -3.185 1.987815
v -3.782976 -3.185 1.985026
v -3.791131 -3.185 1.984112
v -3.803453 -3.185 1.985717
v -3.810401 -3.185 1.987994
v -3.810401 -3.185 1.957772
v -3.795995 -3.185 1.955268
v -3.788497 -3.185 1.954999
v -3.774775 -3.185 1.956577
v -3.761372 -3.185 1.961683
v -3.749509 -3.185 1.969974
v -3.747193 -3.185 1.972097
v -3.734764 -3.185 1.987023
v -3.719388 -3.185 2.016968
v -3.449051 -3.185 2.077136
v -3.449051 -3.185 2.046221
v -3.559889 -3.185 2.077136
v -3.559889 -3.185 2.168357
v -3.462914 -3.185 2.168357
v -3.462914 -3.185 2.199411
v -3.559889 -3.185 2.199411
v -3.559889 -3.185 2.286196
v -3.45522 -3.185 2.286196
v -3.45522 -3.185 2.317389
v -3.594894 -3.185 2.317389
v -3.594894 -3.185 2.046221
v -3.228875 -3.185 2.122918
v -3.242832 -3.185 2.105417
v -3.217947 -3.185 2.084206
v -3.246252 -3.185 2.102241
v -3.246582 -3.185 2.063733
v -3.263806 -3.185 2.090142
v -3.277565 -3.185 2.051727
v -3.286307 -3.185 2.081511
v -3.32324 -3.185 2.046221
v -3.323448 -3.185 2.077136
v -3.397825 -3.185 2.046221
v -3.36282 -3.185 2.077136
v -3.397825 -3.185 2.317389
v -3.36282 -3.185 2.286196
v -3.320467 -3.185 2.317389
v -3.321854 -3.185 2.286196
v -3.279063 -3.185 2.312817
v -3.286686 -3.185 2.282282
v -3.246337 -3.185 2.300862
v -3.263209 -3.185 2.273754
v -3.217947 -3.185 2.281483
v -3.243595 -3.185 2.260688
v -3.208211 -3.185 2.27194
v -3.233923 -3.185 2.250745
v -3.191469 -3.185 2.248245
v -3.223933 -3.185 2.234889
v -3.18149 -3.185 2.222331
v -3.216835 -3.185 2.213907
v -3.17705 -3.185 2.185271
v -3.213858 -3.185 2.1843
v -3.178336 -3.185 2.163727
v -3.214628 -3.185 2.16834
v -3.185691 -3.185 2.132639
v -3.219709 -3.185 2.14322
v -3.199882 -3.185 2.105058
v -3.321854 -3.175 2.286196
v -3.36282 -3.175 2.286196
v -3.36282 -3.175 2.077136
v -3.323448 -3.175 2.077136
v -3.242832 -3.175 2.105417
v -3.246252 -3.175 2.102241
v -3.263806 -3.175 2.090142
v -3.286307 -3.175 2.081511
v -3.213858 -3.175 2.1843
v -3.214628 -3.175 2.16834
v -3.219709 -3.175 2.14322
v -3.228875 -3.175 2.122918
v -3.243595 -3.175 2.260688
v -3.233923 -3.175 2.250745
v -3.223933 -3.175 2.234889
v -3.216835 -3.175 2.213907
v -3.286686 -3.175 2.282282
v -3.263209 -3.175 2.273754
v -3.086175 -3.185 2.151028
v -3.097266 -3.185 2.12039
v -2.995162 -3.185 2.151028
v -2.984348 -3.185 2.12039
v -3.045624 -3.185 2.263738
v -3.058726 -3.185 2.317389
v -3.162008 -3.185 2.046221
v -3.123329 -3.185 2.046221
v -3.043277 -3.185 2.271831
v -3.041188 -3.185 2.282731
v -3.021294 -3.185 2.317389
v -3.040357 -3.185 2.282731
v -3.038164 -3.185 2.271259
v -3.036128 -3.185 2.263738
v -2.918012 -3.185 2.046221
v -2.956691 -3.185 2.046221
v -3.086175 -3.175 2.151028
v -2.995162 -3.175 2.151028
v -3.036128 -3.175 2.263738
v -3.040357 -3.175 2.282731
v -3.038164 -3.175 2.271259
v -3.041188 -3.175 2.282731
v -3.045624 -3.175 2.263738
v -3.043277 -3.175 2.271831
v -5.543418 -3.185 2.007696
v -5.514726 -3.185 1.972323
v -5.56087 -3.185 2.178311
v -5.59454 -3.185 2.513236
v -5.551599 -3.185 2.536087
v -5.561655 -3.185 2.654773
v -5.441335 -3.185 2.660306
v -5.381567 -3.185 2.519564
v -5.352091 -3.185 2.580585
v -5.602932 -3.185 2.204228
v -5.58721 -3.185 2.056442
v -5.562798 -3.185 2.049136
v -5.485679 -3.185 2.664162
v -5.365517 -3.185 2.18235
v -5.347612 -3.185 2.175942
v -5.186841 -3.185 2.130111
v -5.332102 -3.185 2.165472
v -5.319682 -3.185 2.151608
v -4.916924 -3.185 2.272782
v -4.976691 -3.185 2.374965
v -5.235041 -3.185 2.240006
v -5.381567 -3.185 2.184095
v -5.400423 -3.185 2.181676
v -5.425748 -3.185 2.299866
v -5.417259 -3.185 2.17503
v -5.468329 -3.185 2.283559
v -5.432333 -3.185 2.164311
v -5.50774 -3.185 2.256155
v -5.439955 -3.185 2.156253
v -5.539603 -3.185 2.219697
v -5.44992 -3.185 2.140306
v -5.455602 -3.185 2.12216
v -5.45656 -3.185 2.10337
v -5.309706 -3.185 2.292635
v -5.35625 -3.185 2.304174
v -5.37964 -3.185 2.305558
v -5.311307 -3.185 2.13578
v -5.306905 -3.185 2.117903
v -5.186841 -3.185 2.110831
v -5.306877 -3.185 2.100262
v -5.187907 -3.185 2.090564
v -4.8533 -3.185 2.463652
v -4.837876 -3.185 2.463652
v -4.758829 -3.185 2.567763
v -4.801147 -3.185 2.459113
v -4.749433 -3.185 2.564606
v -4.767503 -3.185 2.446139
v -4.692053 -3.185 2.536148
v -4.639748 -3.185 2.49193
v -5.401811 -3.185 2.706337
v -5.30884 -3.185 2.632239
v -5.356503 -3.185 2.745137
v -5.257217 -3.185 2.669958
v -5.309388 -3.185 2.77432
v -5.504017 -3.185 2.547418
v -5.48375 -3.185 2.548483
v -5.463507 -3.185 2.662957
v -5.438301 -3.185 2.542824
v -5.395079 -3.185 2.526964
v -5.268785 -3.185 2.270721
v -4.639294 -3.185 2.132039
v -4.729074 -3.185 2.208665
v -4.691726 -3.185 2.08765
v -4.757556 -3.185 2.185357
v -4.75055 -3.185 2.058856
v -4.791558 -3.185 2.169563
v -4.81474 -3.185 2.04528
v -4.826308 -3.185 2.162887
v -4.928492 -3.185 2.04528
v -4.913067 -3.185 2.162887
v -4.939353 -3.185 2.04703
v -5.452991 -3.185 2.085289
v -5.445359 -3.185 2.069082
v -4.737608 -3.185 2.425243
v -4.715532 -3.185 2.400612
v -4.600382 -3.185 2.43709
v -4.697564 -3.185 2.367377
v -4.576797 -3.185 2.378211
v -4.688459 -3.185 2.33036
v -4.567958 -3.185 2.315198
v -4.687494 -3.185 2.31327
v -4.576791 -3.185 2.246441
v -4.692136 -3.185 2.275678
v -4.600999 -3.185 2.185398
v -4.705437 -3.185 2.241322
v -4.72666 -3.185 2.211258
v -4.86294 -3.185 2.720074
v -4.938502 -3.185 2.63157
v -4.798893 -3.185 2.645891
v -4.894974 -3.185 2.579654
v -4.865174 -3.185 2.51756
v -5.670784 -3.185 2.402419
v -5.797469 -3.185 2.370286
v -5.676549 -3.185 2.355685
v -5.798012 -3.185 2.351829
v -5.674212 -3.185 2.325773
v -5.788671 -3.185 2.276261
v -5.66034 -3.185 2.27861
v -5.761036 -3.185 2.204487
v -5.637489 -3.185 2.239753
v -5.717036 -3.185 2.141679
v -5.656886 -3.185 2.090387
v -5.199237 -3.185 2.042983
v -5.31148 -3.185 2.081759
v -5.222089 -3.185 2.000042
v -5.320446 -3.185 2.065198
v -5.251519 -3.185 1.967067
v -5.330911 -3.185 2.053375
v -5.289911 -3.185 1.940329
v -5.345556 -3.185 2.042874
v -5.332906 -3.185 1.923798
v -5.362257 -3.185 2.036202
v -5.37964 -3.185 1.918033
v -5.381567 -3.185 2.033712
v -5.386979 -3.185 1.918168
v -5.384852 -3.185 2.033784
v -5.432504 -3.185 1.925245
v -5.40216 -3.185 2.036606
v -5.476998 -3.185 1.943915
v -5.419589 -3.185 2.044091
v -5.434346 -3.185 2.055402
v -5.220483 -3.185 2.808591
v -5.194241 -3.185 2.695495
v -5.125145 -3.185 2.820329
v -5.123218 -3.185 2.70465
v -5.042926 -3.185 2.811387
v -5.057776 -3.185 2.696598
v -4.946421 -3.185 2.776612
v -4.997322 -3.185 2.673417
v -4.943161 -3.185 2.635811
v -5.633073 -3.185 2.627039
v -5.694395 -3.185 2.583926
v -5.627514 -3.185 2.483806
v -5.707397 -3.185 2.571619
v -5.654253 -3.185 2.445413
v -5.753773 -3.185 2.512162
v -5.784533 -3.185 2.442747
v -4.922759 -3.185 2.164679
v -4.969091 -3.185 2.065502
v -4.96461 -3.185 2.06094
v -4.916975 -3.185 2.163398
v -4.952106 -3.185 2.05205
v -4.984403 -3.185 2.105047
v -4.982574 -3.185 2.090687
v -4.977495 -3.185 2.077613
v -4.939576 -3.185 2.162898
v -4.952805 -3.185 2.157672
v -4.983913 -3.185 2.112656
v -4.964661 -3.185 2.149269
v -4.972627 -3.185 2.140484
v -4.980041 -3.185 2.12733
v -4.924635 -3.185 2.164815
v -5.381567 -3.175 2.184095
v -5.365517 -3.175 2.18235
v -5.347612 -3.175 2.175942
v -5.332102 -3.175 2.165472
v -5.319682 -3.175 2.151608
v -5.311307 -3.175 2.13578
v -5.306905 -3.175 2.117903
v -5.306877 -3.175 2.100262
v -5.31148 -3.175 2.081759
v -5.320446 -3.175 2.065198
v -5.330911 -3.175 2.053375
v -5.345556 -3.175 2.042874
v -5.362257 -3.175 2.036202
v -5.381567 -3.175 2.033712
v -5.384852 -3.175 2.033784
v -5.40216 -3.175 2.036606
v -5.419589 -3.175 2.044091
v -5.434346 -3.175 2.055402
v -5.445359 -3.175 2.069082
v -5.452991 -3.175 2.085289
v -5.45656 -3.175 2.10337
v -5.455602 -3.175 2.12216
v -5.44992 -3.175 2.140306
v -5.439955 -3.175 2.156253
v -5.432333 -3.175 2.164311
v -5.417259 -3.175 2.17503
v -5.400423 -3.175 2.181676
usemtl 1
f 1// 2// 3//
f 4// 5// 6//
f 7// 8// 9//
f 10// 11// 12//
f 12// 11// 13//
f 14// 15// 12//
f 12// 15// 16//
f 12// 16// 17//
f 17// 18// 12//
f 12// 18// 19//
f 12// 19// 10//
f 20// 21// 22//
f 22// 21// 23//
f 23// 21// 24//
f 23// 24// 25//
f 26// 27// 28//
f 29// 30// 26//
f 26// 30// 31//
f 26// 31// 32//
f 20// 22// 33//
f 33// 22// 26//
f 33// 26// 34//
f 34// 26// 28//
f 34// 28// 35//
f 35// 28// 36//
f 35// 36// 37//
f 32// 38// 26//
f 26// 38// 39//
f 26// 39// 27//
f 40// 41// 42//
f 42// 41// 43//
f 42// 43// 44//
f 44// 45// 42//
f 42// 45// 46//
f 42// 46// 47//
f 47// 46// 48//
f 48// 49// 47//
f 47// 49// 50//
f 47// 50// 29//
f 29// 50// 51//
f 29// 51// 30//
f 52// 53// 54//
f 54// 53// 55//
f 54// 55// 42//
f 42// 55// 56//
f 42// 56// 40//
f 54// 57// 58//
f 58// 57// 59//
f 60// 58// 61//
f 61// 58// 62//
f 61// 62// 63//
f 60// 64// 58//
f 58// 64// 65//
f 58// 65// 54//
f 54// 65// 66//
f 54// 66// 52//
f 67// 68// 69//
f 68// 70// 69//
f 69// 70// 71//
f 69// 71// 72//
f 73// 74// 75//
f 76// 77// 78//
f 79// 80// 81//
f 82// 83// 84//
f 84// 83// 85//
f 76// 78// 86//
f 79// 81// 87//
f 88// 89// 83//
f 83// 89// 90//
f 83// 90// 91//
f 75// 74// 81//
f 81// 74// 92//
f 81// 92// 87//
f 77// 93// 78//
f 78// 93// 94//
f 78// 94// 95//
f 96// 97// 98//
f 98// 97// 99//
f 98// 99// 100//
f 101// 91// 102//
f 102// 91// 103//
f 102// 103// 98//
f 98// 103// 104//
f 98// 104// 96//
f 101// 105// 91//
f 91// 105// 106//
f 91// 106// 83//
f 83// 106// 107//
f 83// 107// 85//
f 108// 109// 110//
f 110// 109// 111//
f 110// 111// 78//
f 78// 111// 112//
f 78// 112// 86//
f 113// 114// 78//
f 78// 114// 115//
f 78// 115// 83//
f 83// 115// 116//
f 83// 116// 88//
f 117// 118// 67//
f 67// 118// 119//
f 67// 119// 120//
f 120// 121// 67//
f 67// 121// 122//
f 67// 122// 123//
f 123// 122// 108//
f 123// 108// 124//
f 124// 108// 110//
f 80// 125// 81//
f 81// 125// 126//
f 81// 126// 67//
f 67// 126// 127//
f 67// 127// 117//
f 95// 128// 78//
f 78// 128// 129//
f 78// 129// 130//
f 130// 131// 78//
f 78// 131// 132//
f 78// 132// 113//
f 133// 134// 135//
f 135// 91// 133//
f 133// 91// 90//
f 133// 90// 136//
f 136// 90// 137//
f 137// 138// 136//
f 136// 138// 139//
f 136// 139// 140//
f 141// 142// 143//
f 142// 144// 143//
f 143// 144// 145//
f 143// 145// 146//
f 147// 143// 148//
f 134// 133// 147//
f 147// 133// 149//
f 147// 149// 143//
f 143// 149// 150//
f 143// 150// 141//
f 148// 151// 147//
f 147// 151// 152//
f 147// 152// 153//
f 146// 145// 154//
f 154// 145// 155//
f 154// 155// 156//
f 156// 155// 157//
f 156// 157// 158//
f 159// 160// 153//
f 153// 160// 161//
f 153// 161// 147//
f 11// 162// 13//
f 13// 162// 163//
f 13// 163// 75//
f 75// 163// 164//
f 75// 164// 73//
f 165// 166// 167//
f 167// 166// 168//
f 167// 168// 169//
f 170// 171// 172//
f 172// 171// 173//
f 166// 174// 168//
f 168// 174// 175//
f 168// 175// 176//
f 176// 175// 177//
f 176// 177// 178//
f 178// 177// 179//
f 178// 179// 173//
f 173// 179// 180//
f 173// 180// 172//
f 181// 182// 183//
f 183// 182// 184//
f 185// 186// 187//
f 187// 186// 188//
f 187// 189// 185//
f 185// 189// 190//
f 185// 190// 191//
f 191// 190// 192//
f 191// 192// 193//
f 181// 183// 194//
f 194// 183// 190//
f 194// 190// 195//
f 195// 190// 189//
f 195// 189// 196//
f 189// 197// 196//
f 196// 197// 198//
f 196// 198// 199//
f 188// 186// 200//
f 200// 186// 201//
f 200// 201// 202//
f 203// 201// 204//
f 204// 201// 205//
f 192// 206// 193//
f 193// 206// 202//
f 193// 202// 9//
f 9// 202// 201//
f 9// 201// 207//
f 207// 201// 203//
f 208// 209// 207//
f 7// 9// 210//
f 209// 211// 207//
f 207// 211// 212//
f 207// 212// 9//
f 9// 212// 213//
f 9// 213// 210//
f 214// 215// 216//
f 217// 218// 207//
f 207// 218// 219//
f 219// 220// 207//
f 207// 220// 221//
f 207// 221// 222//
f 223// 224// 207//
f 207// 224// 225//
f 207// 225// 208//
f 217// 207// 216//
f 216// 207// 226//
f 216// 226// 214//
f 215// 227// 216//
f 216// 227// 228//
f 216// 228// 229//
f 222// 230// 207//
f 207// 230// 231//
f 207// 231// 223//
f 232// 233// 234//
f 234// 233// 235//
f 234// 235// 205//
f 4// 6// 236//
f 237// 238// 6//
f 6// 238// 239//
f 6// 239// 236//
f 240// 241// 242//
f 242// 241// 243//
f 243// 244// 245//
f 245// 244// 246//
f 245// 246// 6//
f 6// 246// 247//
f 6// 247// 237//
f 248// 249// 250//
f 249// 251// 250//
f 250// 251// 252//
f 250// 252// 253//
f 248// 250// 254//
f 254// 250// 255//
f 254// 255// 256//
f 256// 255// 257//
f 257// 255// 258//
f 257// 258// 8//
f 259// 260// 261//
f 72// 63// 69//
f 69// 63// 62//
f 69// 62// 262//
f 262// 62// 263//
f 264// 265// 178//
f 178// 265// 266//
f 176// 267// 268//
f 266// 269// 178//
f 178// 269// 270//
f 178// 270// 271//
f 272// 273// 274//
f 274// 273// 176//
f 274// 176// 275//
f 275// 176// 268//
f 271// 276// 178//
f 178// 276// 277//
f 178// 277// 176//
f 176// 277// 278//
f 176// 278// 267//
f 185// 279// 264//
f 264// 279// 280//
f 264// 280// 265//
f 272// 281// 273//
f 273// 281// 282//
f 273// 282// 191//
f 191// 282// 283//
f 191// 283// 185//
f 185// 283// 284//
f 185// 284// 279//
f 285// 286// 287//
f 288// 289// 290//
f 290// 289// 291//
f 285// 287// 292//
f 293// 294// 295//
f 296// 297// 298//
f 288// 299// 289//
f 289// 299// 300//
f 289// 300// 301//
f 301// 300// 302//
f 303// 304// 302//
f 302// 304// 305//
f 302// 305// 301//
f 294// 306// 295//
f 295// 306// 307//
f 295// 307// 308//
f 296// 309// 297//
f 297// 309// 310//
f 297// 310// 311//
f 311// 310// 312//
f 311// 312// 313//
f 255// 314// 315//
f 316// 317// 287//
f 287// 317// 318//
f 287// 318// 292//
f 308// 319// 295//
f 295// 319// 320//
f 295// 320// 255//
f 255// 320// 291//
f 255// 291// 314//
f 314// 291// 289//
f 315// 321// 255//
f 255// 321// 322//
f 255// 322// 323//
f 324// 325// 326//
f 326// 325// 327//
f 326// 327// 313//
f 313// 327// 328//
f 313// 328// 311//
f 329// 330// 302//
f 302// 330// 331//
f 302// 331// 332//
f 333// 334// 335//
f 335// 334// 336//
f 335// 336// 337//
f 332// 338// 302//
f 302// 338// 339//
f 302// 339// 303//
f 286// 340// 341//
f 341// 340// 342//
f 342// 340// 343//
f 342// 343// 344//
f 333// 324// 334//
f 334// 324// 326//
f 334// 326// 345//
f 345// 326// 346//
f 345// 346// 347//
f 347// 346// 348//
f 347// 348// 349//
f 349// 348// 350//
f 351// 350// 341//
f 341// 350// 348//
f 341// 348// 286//
f 286// 348// 346//
f 286// 346// 287//
f 351// 341// 2//
f 2// 341// 352//
f 2// 352// 3//
f 353// 354// 3//
f 355// 356// 258//
f 357// 358// 3//
f 3// 358// 359//
f 323// 296// 255//
f 255// 296// 298//
f 255// 298// 258//
f 258// 298// 360//
f 258// 360// 355//
f 356// 361// 258//
f 258// 361// 362//
f 258// 362// 363//
f 363// 362// 364//
f 363// 364// 353//
f 365// 366// 354//
f 354// 366// 367//
f 354// 367// 3//
f 3// 367// 368//
f 3// 368// 357//
f 359// 369// 3//
f 3// 369// 370//
f 3// 370// 1//
f 371// 372// 373//
f 373// 372// 374//
f 373// 374// 375//
f 373// 376// 371//
f 371// 376// 377//
f 371// 377// 378//
f 378// 379// 371//
f 371// 379// 380//
f 371// 380// 381//
f 381// 380// 382//
f 381// 382// 383//
f 383// 382// 384//
f 383// 384// 354//
f 354// 384// 385//
f 354// 385// 365//
f 386// 387// 375//
f 375// 387// 388//
f 375// 388// 373//
f 389// 390// 337//
f 337// 390// 391//
f 337// 391// 335//
f 389// 392// 390//
f 390// 392// 393//
f 390// 393// 394//
f 394// 393// 395//
f 394// 396// 397//
f 395// 398// 394//
f 394// 398// 399//
f 394// 399// 400//
f 400// 401// 394//
f 394// 401// 402//
f 394// 402// 396//
f 397// 403// 394//
f 394// 403// 404//
f 394// 404// 405//
f 406// 407// 408//
f 409// 410// 411//
f 408// 412// 406//
f 406// 412// 413//
f 406// 413// 414//
f 414// 413// 409//
f 414// 409// 415//
f 415// 409// 411//
f 416// 417// 3//
f 353// 3// 363//
f 363// 3// 417//
f 363// 417// 412//
f 412// 417// 418//
f 412// 418// 413//
f 419// 420// 416//
f 421// 422// 423//
f 423// 422// 424//
f 423// 424// 419//
f 419// 416// 423//
f 423// 416// 3//
f 423// 3// 425//
f 425// 3// 352//
f 425// 352// 426//
f 425// 427// 423//
f 423// 427// 428//
f 423// 428// 429//
f 430// 431// 432//
f 432// 431// 433//
f 432// 433// 352//
f 352// 433// 434//
f 352// 434// 426//
f 429// 435// 423//
f 423// 435// 436//
f 423// 436// 421//
f 437// 438// 439//
f 437// 439// 440//
f 438// 441// 439//
f 439// 441// 442//
f 439// 442// 432//
f 432// 442// 443//
f 432// 443// 430//
f 444// 445// 446//
f 446// 445// 447//
f 448// 449// 450//
f 450// 449// 451//
f 450// 451// 452//
f 452// 451// 453//
f 452// 453// 454//
f 444// 446// 455//
f 455// 446// 451//
f 455// 451// 456//
f 456// 451// 449//
f 456// 449// 457//
f 449// 458// 457//
f 457// 458// 459//
f 457// 459// 460//
f 453// 461// 454//
f 454// 461// 462//
f 454// 462// 463//
f 463// 462// 464//
f 448// 450// 465//
f 465// 450// 466//
f 465// 466// 464//
f 464// 466// 408//
f 464// 408// 463//
f 463// 408// 407//
f 463// 407// 440//
f 205// 201// 234//
f 234// 201// 186//
f 234// 186// 467//
f 467// 186// 185//
f 467// 185// 468//
f 468// 185// 264//
f 468// 264// 469//
f 469// 264// 178//
f 469// 178// 470//
f 470// 178// 173//
f 470// 173// 471//
f 471// 173// 171//
f 471// 171// 472//
f 23// 245// 473//
f 473// 245// 6//
f 473// 6// 232//
f 232// 6// 5//
f 232// 5// 233//
f 243// 245// 242//
f 242// 245// 474//
f 242// 474// 475//
f 13// 476// 12//
f 12// 476// 477//
f 12// 477// 478//
f 479// 474// 478//
f 478// 474// 245//
f 478// 245// 12//
f 12// 245// 23//
f 12// 23// 14//
f 14// 23// 25//
f 8// 258// 9//
f 9// 258// 363//
f 9// 363// 193//
f 193// 363// 412//
f 193// 412// 191//
f 191// 412// 408//
f 191// 408// 273//
f 273// 408// 466//
f 273// 466// 176//
f 176// 466// 450//
f 176// 450// 168//
f 475// 476// 242//
f 242// 476// 13//
f 242// 13// 480//
f 480// 13// 75//
f 481// 482// 483//
f 484// 485// 486//
f 487// 488// 489//
f 489// 488// 490//
f 489// 490// 491//
f 172// 169// 170//
f 170// 169// 168//
f 170// 168// 485//
f 485// 168// 450//
f 485// 450// 486//
f 486// 450// 492//
f 493// 494// 450//
f 487// 489// 495//
f 495// 489// 492//
f 495// 492// 496//
f 491// 497// 489//
f 489// 497// 498//
f 489// 498// 499//
f 500// 501// 492//
f 492// 501// 502//
f 492// 502// 496//
f 450// 494// 492//
f 492// 494// 503//
f 492// 503// 500//
f 483// 504// 481//
f 481// 504// 484//
f 481// 484// 505//
f 505// 484// 486//
f 504// 489// 484//
f 484// 489// 499//
f 484// 499// 452//
f 452// 499// 506//
f 452// 506// 450//
f 450// 506// 507//
f 450// 507// 493//
f 253// 240// 250//
f 250// 240// 242//
f 250// 242// 255//
f 255// 242// 480//
f 255// 480// 295//
f 295// 480// 508//
f 81// 508// 509//
f 509// 508// 510//
f 510// 508// 511//
f 511// 508// 480//
f 511// 480// 512//
f 81// 509// 75//
f 75// 509// 513//
f 75// 513// 480//
f 480// 513// 514//
f 480// 514// 512//
f 515// 516// 517//
f 517// 516// 511//
f 517// 511// 518//
f 518// 511// 512//
f 518// 512// 519//
f 519// 512// 520//
f 440// 439// 463//
f 463// 439// 521//
f 463// 521// 454//
f 454// 521// 522//
f 454// 522// 452//
f 452// 522// 523//
f 452// 523// 484//
f 67// 69// 81//
f 81// 69// 262//
f 81// 262// 508//
f 508// 262// 342//
f 508// 342// 295//
f 295// 342// 344//
f 295// 344// 293//
f 524// 523// 261//
f 261// 523// 522//
f 261// 522// 259//
f 259// 522// 521//
f 259// 521// 525//
f 525// 521// 439//
f 525// 439// 526//
f 526// 439// 432//
f 526// 432// 527//
f 527// 432// 352//
f 527// 352// 528//
f 528// 352// 341//
f 528// 341// 529//
f 529// 341// 342//
f 529// 342// 530//
f 530// 342// 262//
f 530// 262// 531//
f 531// 262// 263//
f 531// 263// 532//
f 22// 533// 26//
f 26// 533// 534//
f 26// 534// 29//
f 29// 534// 535//
f 29// 535// 47//
f 47// 535// 536//
f 47// 536// 42//
f 42// 536// 537//
f 42// 537// 54//
f 54// 537// 538//
f 54// 538// 57//
f 57// 538// 539//
usemtl 2
f 540// 541// 542//
f 542// 541// 543//
f 544// 545// 543//
f 543// 545// 542//
f 546// 542// 547//
f 547// 542// 545//
usemtl 1
f 548// 549// 550//
f 550// 549// 551//
f 552// 553// 554//
f 554// 553// 555//
usemtl 2
f 556// 557// 558//
f 558// 557// 559//
f 560// 559// 561//
f 561// 559// 557//
f 562// 563// 557//
f 557// 563// 561//
f 564// 565// 566//
f 566// 565// 562//
f 565// 567// 562//
f 562// 567// 563//
f 561// 563// 560//
f 560// 563// 567//
f 559// 560// 565//
f 565// 560// 567//
f 568// 569// 570//
f 570// 569// 571//
f 558// 559// 564//
f 564// 559// 565//
f 572// 573// 568//
f 568// 573// 569//
f 574// 575// 572//
f 572// 575// 573//
f 576// 573// 577//
f 577// 573// 575//
f 573// 576// 569//
f 569// 576// 578//
f 569// 578// 571//
f 571// 578// 579//
f 577// 579// 576//
f 576// 579// 578//
f 571// 579// 575//
f 575// 579// 577//
f 566// 562// 556//
f 556// 562// 557//
f 570// 571// 574//
f 574// 571// 575//
usemtl 1
f 555// 580// 566//
f 566// 580// 581//
f 566// 581// 564//
f 564// 581// 549//
f 564// 549// 558//
f 558// 549// 548//
f 558// 548// 556//
f 556// 548// 554//
f 556// 554// 566//
f 566// 554// 555//
f 581// 580// 582//
f 582// 580// 583//
f 584// 585// 586//
f 586// 585// 587//
f 582// 588// 581//
f 581// 588// 549//
f 589// 590// 587//
f 585// 551// 587//
f 587// 551// 549//
f 587// 549// 589//
f 589// 549// 588//
usemtl 2
f 591// 592// 593//
f 593// 592// 594//
f 595// 594// 596//
f 596// 594// 592//
f 597// 598// 592//
f 592// 598// 596//
f 599// 600// 601//
f 601// 600// 597//
f 600// 602// 597//
f 597// 602// 598//
f 596// 598// 595//
f 595// 598// 602//
f 594// 595// 600//
f 600// 595// 602//
f 603// 604// 605//
f 605// 604// 606//
f 593// 594// 599//
f 599// 594// 600//
f 607// 608// 603//
f 603// 608// 604//
f 609// 610// 607//
f 607// 610// 608//
f 611// 608// 612//
f 612// 608// 610//
f 608// 611// 604//
f 604// 611// 613//
f 604// 613// 606//
f 606// 613// 614//
f 612// 614// 611//
f 611// 614// 613//
f 606// 614// 610//
f 610// 614// 612//
f 601// 597// 591//
f 591// 597// 592//
f 605// 606// 609//
f 609// 606// 610//
usemtl 1
f 261// 615// 599//
f 599// 615// 593//
f 524// 261// 590//
f 590// 261// 599//
f 590// 599// 587//
f 587// 599// 601//
f 587// 601// 591//
f 593// 615// 591//
f 591// 615// 586//
f 591// 586// 587//
f 615// 261// 616//
f 616// 261// 260//
f 617// 618// 619//
f 619// 618// 620//
f 621// 622// 617//
f 617// 622// 618//
f 623// 624// 621//
f 621// 624// 622//
f 625// 626// 623//
f 623// 626// 624//
f 620// 618// 622//
f 627// 628// 626//
f 626// 628// 620//
f 626// 620// 624//
f 624// 620// 622//
f 629// 619// 630//
f 630// 619// 620//
f 630// 620// 628//
f 619// 629// 631//
f 621// 617// 623//
f 623// 617// 619//
f 623// 619// 625//
f 625// 619// 631//
f 632// 633// 634//
f 634// 633// 635//
f 632// 634// 636//
f 636// 634// 637//
f 637// 638// 636//
f 636// 638// 639//
f 640// 641// 642//
f 642// 641// 643//
f 643// 644// 642//
f 642// 644// 645//
f 636// 639// 632//
f 632// 639// 633//
f 642// 645// 640//
f 640// 645// 646//
f 640// 646// 641//
f 641// 646// 647//
f 634// 635// 637//
f 637// 635// 638//
f 641// 647// 643//
f 643// 647// 644//
f 648// 649// 639//
f 639// 649// 650//
f 639// 650// 633//
f 633// 650// 651//
f 633// 651// 635//
f 635// 651// 652//
f 635// 652// 638//
f 638// 652// 648//
f 638// 648// 639//
f 653// 654// 655//
f 655// 654// 656//
usemtl 2
f 657// 658// 659//
f 659// 658// 660//
f 661// 660// 662//
f 662// 660// 658//
f 663// 664// 658//
f 658// 664// 662//
f 665// 666// 667//
f 667// 666// 663//
f 666// 668// 663//
f 663// 668// 664//
f 662// 664// 661//
f 661// 664// 668//
f 660// 661// 666//
f 666// 661// 668//
f 669// 670// 671//
f 671// 670// 672//
f 659// 660// 665//
f 665// 660// 666//
f 673// 674// 669//
f 669// 674// 670//
f 675// 676// 673//
f 673// 676// 674//
f 677// 674// 678//
f 678// 674// 676//
f 674// 677// 670//
f 670// 677// 679//
f 670// 679// 672//
f 672// 679// 680//
f 678// 680// 677//
f 677// 680// 679//
f 672// 680// 676//
f 676// 680// 678//
f 667// 663// 657//
f 657// 663// 658//
f 671// 672// 675//
f 675// 672// 676//
usemtl 1
f 656// 681// 667//
f 667// 681// 682//
f 667// 682// 665//
f 665// 682// 683//
f 665// 683// 659//
f 659// 683// 684//
f 659// 684// 657//
f 657// 684// 655//
f 657// 655// 667//
f 667// 655// 656//
f 682// 681// 685//
f 685// 681// 686//
f 687// 688// 689//
f 689// 688// 690//
f 691// 692// 693//
f 693// 692// 694//
usemtl 2
f 695// 696// 697//
f 697// 696// 698//
f 699// 698// 700//
f 700// 698// 696//
f 701// 702// 696//
f 696// 702// 700//
f 703// 704// 705//
f 705// 704// 701//
f 704// 706// 701//
f 701// 706// 702//
f 700// 702// 699//
f 699// 702// 706//
f 698// 699// 704//
f 704// 699// 706//
f 707// 708// 709//
f 709// 708// 710//
f 697// 698// 703//
f 703// 698// 704//
f 711// 712// 707//
f 707// 712// 708//
f 713// 714// 711//
f 711// 714// 712//
f 715// 712// 716//
f 716// 712// 714//
f 712// 715// 708//
f 708// 715// 717//
f 708// 717// 710//
f 710// 717// 718//
f 716// 718// 715//
f 715// 718// 717//
f 710// 718// 714//
f 714// 718// 716//
f 705// 701// 695//
f 695// 701// 696//
f 709// 710// 713//
f 713// 710// 714//
usemtl 1
f 692// 691// 703//
f 703// 691// 697//
f 690// 692// 689//
f 689// 692// 703//
f 689// 703// 719//
f 719// 703// 705//
f 719// 705// 695//
f 697// 691// 695//
f 695// 691// 720//
f 695// 720// 719//
f 721// 722// 720//
f 720// 722// 719//
f 683// 682// 685//
f 687// 689// 719//
f 722// 723// 719//
f 719// 723// 683//
f 719// 683// 687//
f 687// 683// 685//
f 684// 683// 724//
f 724// 683// 723//
f 648// 652// 655//
f 655// 652// 653//
f 724// 721// 684//
f 684// 721// 720//
f 655// 684// 648//
f 648// 684// 720//
f 648// 720// 631//
f 631// 720// 691//
f 631// 691// 625//
f 693// 552// 691//
f 691// 552// 554//
f 625// 691// 626//
f 626// 691// 554//
f 626// 554// 627//
f 550// 584// 548//
f 548// 584// 586//
f 615// 725// 586//
f 586// 725// 627//
f 586// 627// 548//
f 548// 627// 554//
f 726// 727// 728//
f 728// 727// 725//
f 728// 725// 729//
f 729// 725// 615//
f 729// 615// 730//
f 730// 615// 616//
f 728// 58// 726//
f 726// 58// 59//
f 724// 723// 721//
f 721// 723// 722//
f 550// 551// 584//
f 584// 551// 585//
f 651// 654// 652//
f 652// 654// 653//
f 552// 693// 553//
f 553// 693// 694//
f 730// 616// 532//
f 532// 616// 260//
f 727// 726// 539//
f 539// 726// 59//
f 730// 532// 729//
f 729// 532// 263//
f 728// 547// 731//
f 547// 728// 546//
f 546// 728// 729//
f 546// 729// 732//
f 732// 729// 263//
f 732// 263// 731//
f 731// 263// 58//
f 731// 58// 728//
usemtl 2
f 731// 733// 732//
f 732// 733// 540//
f 733// 734// 540//
f 540// 734// 541//
f 543// 541// 544//
f 544// 541// 734//
f 545// 544// 733//
f 733// 544// 734//
f 735// 736// 737//
f 737// 736// 738//
f 547// 545// 731//
f 731// 545// 733//
f 739// 740// 735//
f 735// 740// 736//
f 741// 742// 739//
f 739// 742// 740//
f 743// 740// 744//
f 744// 740// 742//
f 740// 743// 736//
f 736// 743// 745//
f 736// 745// 738//
f 738// 745// 746//
f 744// 746// 743//
f 743// 746// 745//
f 738// 746// 742//
f 742// 746// 744//
f 732// 540// 546//
f 546// 540// 542//
f 737// 738// 741//
f 741// 738// 742//
usemtl 1
f 628// 627// 725//
f 589// 588// 747//
f 747// 588// 582//
f 686// 650// 685//
f 685// 650// 649//
f 685// 649// 687//
f 748// 533// 472//
f 741// 739// 748//
f 748// 739// 735//
f 725// 748// 628//
f 628// 748// 735//
f 628// 735// 630//
f 630// 735// 737//
f 472// 589// 748//
f 748// 589// 747//
f 748// 747// 741//
f 741// 747// 607//
f 741// 607// 737//
f 737// 607// 603//
f 737// 603// 630//
f 630// 603// 605//
f 630// 605// 747//
f 747// 605// 609//
f 747// 609// 607//
f 570// 629// 568//
f 568// 629// 630//
f 568// 630// 572//
f 572// 630// 747//
f 572// 747// 574//
f 711// 649// 713//
f 713// 649// 673//
f 713// 673// 709//
f 669// 671// 629//
f 631// 629// 648//
f 648// 629// 671//
f 648// 671// 649//
f 649// 671// 675//
f 649// 675// 673//
f 673// 669// 709//
f 709// 669// 629//
f 709// 629// 707//
f 707// 629// 570//
f 707// 570// 711//
f 711// 570// 574//
f 711// 574// 649//
f 649// 574// 747//
f 649// 747// 687//
f 687// 747// 582//
f 687// 582// 688//
f 688// 582// 583//
f 589// 472// 590//
f 590// 472// 524//
f 583// 580// 688//
f 688// 580// 555//
f 690// 688// 692//
f 692// 688// 555//
f 692// 555// 694//
f 694// 555// 553//
f 654// 651// 656//
f 656// 651// 650//
f 656// 650// 681//
f 681// 650// 686//
f 539// 533// 646//
f 646// 533// 748//
f 646// 748// 647//
f 647// 748// 725//
f 647// 725// 644//
f 644// 725// 727//
f 644// 727// 645//
f 645// 727// 539//
f 645// 539// 646//
usemtl 3
f 749// 750// 474//
f 474// 750// 475//
f 751// 749// 479//
f 479// 749// 474//
f 752// 751// 478//
f 478// 751// 479//
f 753// 752// 477//
f 477// 752// 478//
f 754// 753// 476//
f 476// 753// 477//
f 750// 754// 475//
f 475// 754// 476//
f 752// 753// 751//
f 751// 753// 754//
f 751// 754// 749//
f 749// 754// 750//
f 755// 257// 756//
f 756// 257// 8//
f 8// 7// 756//
f 756// 7// 210//
f 756// 210// 757//
f 757// 210// 213//
f 757// 213// 758//
f 759// 758// 212//
f 212// 758// 213//
f 759// 212// 211//
f 759// 211// 760//
f 760// 211// 209//
f 760// 209// 761//
f 761// 209// 208//
f 761// 208// 762//
f 762// 208// 225//
f 762// 225// 763//
f 763// 225// 224//
f 763// 224// 764//
f 764// 224// 223//
f 764// 223// 765//
f 765// 223// 231//
f 765// 231// 766//
f 766// 231// 230//
f 766// 230// 767//
f 767// 230// 222//
f 767// 222// 768//
f 768// 222// 221//
f 768// 221// 769//
f 769// 221// 220//
f 769// 220// 770//
f 770// 220// 219//
f 770// 219// 771//
f 771// 219// 218//
f 771// 218// 772//
f 772// 218// 217//
f 772// 217// 773//
f 773// 217// 216//
f 773// 216// 774//
f 774// 216// 229//
f 774// 229// 775//
f 775// 229// 228//
f 775// 228// 776//
f 776// 228// 227//
f 776// 227// 777//
f 777// 227// 215//
f 777// 215// 778//
f 778// 215// 214//
f 778// 214// 779//
f 779// 214// 226//
f 779// 226// 780//
f 780// 226// 207//
f 780// 207// 781//
f 782// 781// 203//
f 203// 781// 207//
f 233// 783// 784//
f 782// 203// 204//
f 782// 204// 785//
f 785// 204// 205//
f 785// 205// 784//
f 784// 205// 235//
f 784// 235// 233//
f 783// 233// 5//
f 783// 5// 786//
f 5// 4// 786//
f 786// 4// 236//
f 786// 236// 787//
f 787// 236// 239//
f 787// 239// 788//
f 788// 239// 238//
f 788// 238// 789//
f 789// 238// 237//
f 247// 790// 237//
f 237// 790// 791//
f 237// 791// 789//
f 247// 246// 790//
f 790// 246// 244//
f 790// 244// 792//
f 792// 244// 243//
f 792// 243// 793//
f 793// 243// 241//
f 240// 794// 241//
f 241// 794// 795//
f 241// 795// 793//
f 240// 253// 794//
f 794// 253// 252//
f 794// 252// 796//
f 796// 252// 251//
f 796// 251// 797//
f 257// 755// 798//
f 797// 251// 249//
f 797// 249// 799//
f 799// 249// 248//
f 799// 248// 800//
f 800// 248// 254//
f 800// 254// 798//
f 798// 254// 256//
f 798// 256// 257//
f 780// 781// 782//
f 775// 776// 786//
f 771// 772// 791//
f 786// 776// 783//
f 791// 772// 789//
f 780// 782// 779//
f 786// 787// 775//
f 775// 787// 788//
f 775// 788// 774//
f 774// 788// 789//
f 774// 789// 773//
f 773// 789// 772//
f 776// 777// 783//
f 783// 777// 778//
f 783// 778// 784//
f 784// 778// 779//
f 784// 779// 785//
f 785// 779// 782//
f 793// 770// 792//
f 792// 770// 771//
f 792// 771// 790//
f 790// 771// 791//
f 758// 759// 757//
f 757// 759// 760//
f 757// 760// 756//
f 756// 760// 761//
f 756// 761// 755//
f 755// 761// 762//
f 755// 762// 798//
f 798// 762// 763//
f 798// 763// 800//
f 800// 763// 764//
f 800// 764// 799//
f 799// 764// 765//
f 799// 765// 797//
f 797// 765// 766//
f 797// 766// 796//
f 796// 766// 767//
f 796// 767// 794//
f 794// 767// 795//
f 795// 767// 768//
f 795// 768// 793//
f 793// 768// 769//
f 793// 769// 770//
f 801// 802// 190//
f 190// 802// 192//
f 184// 803// 183//
f 183// 803// 801//
f 183// 801// 190//
f 804// 803// 182//
f 182// 803// 184//
f 804// 182// 805//
f 805// 182// 181//
f 805// 181// 194//
f 806// 805// 195//
f 195// 805// 194//
f 199// 807// 196//
f 196// 807// 806//
f 196// 806// 195//
f 808// 807// 198//
f 198// 807// 199//
f 189// 809// 197//
f 197// 809// 808//
f 197// 808// 198//
f 810// 809// 187//
f 187// 809// 189//
f 200// 811// 188//
f 188// 811// 810//
f 188// 810// 187//
f 812// 811// 202//
f 202// 811// 200//
f 192// 802// 206//
f 206// 802// 812//
f 206// 812// 202//
f 812// 802// 801//
f 801// 803// 812//
f 812// 803// 804//
f 812// 804// 811//
f 809// 810// 808//
f 808// 810// 811//
f 808// 811// 807//
f 807// 811// 804//
f 807// 804// 806//
f 806// 804// 805//
f 813// 814// 815//
f 815// 814// 816//
f 815// 816// 817//
f 817// 816// 818//
f 817// 818// 819//
f 819// 818// 820//
f 819// 820// 821//
f 821// 820// 822//
f 821// 822// 823//
f 823// 822// 824//
f 823// 824// 825//
f 825// 824// 826//
f 825// 826// 827//
f 827// 826// 828//
f 827// 828// 829//
f 829// 828// 830//
f 829// 830// 831//
f 831// 830// 832//
f 831// 832// 833//
f 833// 832// 834//
f 833// 834// 835//
f 835// 834// 836//
f 835// 836// 837//
f 837// 836// 838//
f 837// 838// 839//
f 839// 838// 840//
f 839// 840// 841//
f 841// 840// 842//
f 841// 842// 843//
f 843// 842// 844//
f 843// 844// 845//
f 845// 844// 846//
f 845// 846// 847//
f 847// 846// 813//
f 847// 813// 815//
f 821// 823// 282//
f 282// 823// 283//
f 275// 815// 817//
f 821// 282// 281//
f 821// 281// 819//
f 819// 281// 272//
f 819// 272// 817//
f 817// 272// 274//
f 817// 274// 275//
f 815// 275// 268//
f 815// 268// 847//
f 847// 268// 267//
f 847// 267// 845//
f 845// 267// 278//
f 845// 278// 843//
f 843// 278// 277//
f 843// 277// 841//
f 841// 277// 276//
f 841// 276// 839//
f 839// 276// 271//
f 839// 271// 837//
f 837// 271// 270//
f 837// 270// 835//
f 835// 270// 269//
f 835// 269// 833//
f 833// 269// 266//
f 265// 829// 266//
f 266// 829// 831//
f 266// 831// 833//
f 265// 280// 829//
f 829// 280// 279//
f 829// 279// 827//
f 825// 827// 284//
f 284// 827// 279//
f 823// 825// 283//
f 283// 825// 284//
f 828// 826// 848//
f 848// 826// 849//
f 826// 824// 849//
f 849// 824// 850//
f 824// 822// 850//
f 850// 822// 851//
f 814// 852// 853//
f 814// 853// 816//
f 816// 853// 854//
f 816// 854// 818//
f 818// 854// 855//
f 818// 855// 820//
f 820// 855// 851//
f 820// 851// 822//
f 842// 856// 857//
f 842// 857// 844//
f 844// 857// 858//
f 844// 858// 846//
f 846// 858// 859//
f 846// 859// 813//
f 813// 859// 852//
f 813// 852// 814//
f 834// 860// 861//
f 834// 861// 836//
f 836// 861// 862//
f 836// 862// 838//
f 838// 862// 863//
f 838// 863// 840//
f 840// 863// 856//
f 840// 856// 842//
f 828// 848// 864//
f 828// 864// 830//
f 830// 864// 865//
f 830// 865// 832//
f 832// 865// 860//
f 832// 860// 834//
usemtl 1
f 849// 850// 848//
f 848// 850// 851//
f 848// 851// 855//
f 855// 854// 848//
f 848// 854// 853//
f 848// 853// 852//
f 857// 856// 848//
f 848// 856// 863//
f 848// 863// 862//
f 862// 861// 848//
f 848// 861// 860//
f 848// 860// 864//
f 864// 860// 865//
f 852// 859// 848//
f 848// 859// 858//
f 848// 858// 857//
usemtl 3
f 866// 867// 868//
f 868// 867// 869//
f 870// 871// 866//
f 866// 871// 872//
f 866// 872// 867//
f 867// 872// 873//
f 870// 874// 871//
f 871// 874// 875//
f 871// 875// 876//
f 876// 875// 877//
f 876// 877// 878//
f 878// 879// 876//
f 876// 879// 868//
f 876// 868// 880//
f 880// 868// 869//
f 880// 869// 881//
f 876// 880// 172//
f 172// 880// 169//
f 871// 876// 180//
f 180// 876// 172//
f 177// 872// 179//
f 179// 872// 871//
f 179// 871// 180//
f 873// 872// 175//
f 175// 872// 177//
f 867// 873// 174//
f 174// 873// 175//
f 165// 869// 166//
f 166// 869// 867//
f 166// 867// 174//
f 881// 869// 167//
f 167// 869// 165//
f 880// 881// 169//
f 169// 881// 167//
f 866// 868// 882//
f 882// 868// 883//
f 868// 879// 883//
f 883// 879// 884//
f 877// 885// 886//
f 877// 886// 878//
f 878// 886// 884//
f 878// 884// 879//
f 877// 875// 885//
f 885// 875// 887//
f 870// 888// 889//
f 870// 889// 874//
f 874// 889// 887//
f 874// 887// 875//
f 870// 866// 888//
f 888// 866// 882//
usemtl 1
f 885// 887// 886//
f 886// 887// 889//
f 886// 889// 884//
f 884// 889// 888//
f 884// 888// 883//
f 883// 888// 882//
usemtl 3
f 890// 891// 511//
f 511// 891// 510//
f 892// 890// 516//
f 516// 890// 511//
f 893// 892// 515//
f 515// 892// 516//
f 894// 893// 517//
f 517// 893// 515//
f 895// 894// 518//
f 518// 894// 517//
f 896// 895// 519//
f 519// 895// 518//
f 897// 896// 520//
f 520// 896// 519//
f 898// 897// 512//
f 512// 897// 520//
f 899// 898// 514//
f 514// 898// 512//
f 900// 899// 513//
f 513// 899// 514//
f 901// 900// 509//
f 509// 900// 513//
f 891// 901// 510//
f 510// 901// 509//
f 901// 891// 890//
f 890// 892// 901//
f 901// 892// 893//
f 901// 893// 900//
f 898// 899// 897//
f 897// 899// 900//
f 897// 900// 896//
f 896// 900// 893//
f 896// 893// 895//
f 895// 893// 894//
f 902// 903// 904//
f 905// 906// 907//
f 907// 906// 908//
f 909// 910// 903//
f 903// 910// 906//
f 903// 906// 904//
f 904// 906// 905//
f 911// 912// 913//
f 904// 914// 902//
f 902// 914// 915//
f 902// 915// 916//
f 916// 915// 917//
f 916// 917// 918//
f 918// 917// 919//
f 918// 919// 920//
f 920// 919// 921//
f 920// 921// 922//
f 922// 921// 923//
f 922// 923// 924//
f 924// 923// 925//
f 924// 925// 926//
f 926// 925// 927//
f 926// 927// 928//
f 928// 927// 929//
f 928// 929// 930//
f 930// 929// 931//
f 913// 912// 932//
f 932// 912// 933//
f 932// 933// 934//
f 911// 913// 935//
f 935// 913// 936//
f 935// 936// 937//
f 937// 936// 938//
f 937// 938// 939//
f 939// 938// 940//
f 939// 940// 941//
f 941// 940// 942//
f 941// 942// 943//
f 943// 942// 944//
f 943// 944// 945//
f 945// 944// 946//
f 945// 946// 947//
f 947// 946// 948//
f 947// 948// 931//
f 931// 948// 949//
f 931// 949// 930//
f 950// 951// 952//
f 952// 951// 953//
f 952// 953// 954//
f 954// 953// 955//
f 954// 955// 956//
f 956// 955// 957//
f 956// 957// 958//
f 958// 957// 959//
f 958// 959// 960//
f 960// 959// 961//
f 960// 961// 962//
f 962// 961// 963//
f 962// 963// 964//
f 964// 963// 965//
f 964// 965// 966//
f 966// 965// 967//
f 966// 967// 968//
f 968// 967// 969//
f 968// 969// 906//
f 906// 969// 934//
f 906// 934// 908//
f 908// 934// 933//
f 956// 322// 321//
f 956// 321// 954//
f 954// 321// 315//
f 954// 315// 952//
f 952// 315// 314//
f 952// 314// 950//
f 951// 950// 289//
f 289// 950// 314//
f 951// 289// 301//
f 951// 301// 953//
f 953// 301// 305//
f 953// 305// 955//
f 955// 305// 304//
f 955// 304// 957//
f 957// 304// 303//
f 957// 303// 959//
f 959// 303// 339//
f 959// 339// 961//
f 961// 339// 338//
f 961// 338// 963//
f 963// 338// 332//
f 963// 332// 965//
f 965// 332// 331//
f 965// 331// 967//
f 967// 331// 330//
f 967// 330// 969//
f 969// 330// 329//
f 969// 329// 934//
f 932// 934// 302//
f 302// 934// 329//
f 932// 302// 300//
f 932// 300// 913//
f 913// 300// 299//
f 913// 299// 936//
f 936// 299// 288//
f 936// 288// 938//
f 938// 288// 290//
f 938// 290// 940//
f 940// 290// 291//
f 940// 291// 942//
f 942// 291// 320//
f 942// 320// 944//
f 944// 320// 319//
f 944// 319// 946//
f 946// 319// 308//
f 946// 308// 948//
f 948// 308// 307//
f 948// 307// 949//
f 949// 307// 306//
f 949// 306// 930//
f 343// 924// 344//
f 344// 924// 926//
f 344// 926// 293//
f 293// 926// 928//
f 293// 928// 294//
f 294// 928// 930//
f 294// 930// 306//
f 924// 343// 340//
f 924// 340// 922//
f 922// 340// 286//
f 922// 286// 920//
f 286// 285// 920//
f 920// 285// 292//
f 920// 292// 918//
f 918// 292// 318//
f 918// 318// 916//
f 916// 318// 317//
f 916// 317// 902//
f 903// 902// 316//
f 316// 902// 317//
f 909// 903// 287//
f 287// 903// 316//
f 910// 909// 346//
f 346// 909// 287//
f 906// 910// 326//
f 326// 910// 346//
f 906// 326// 313//
f 906// 313// 968//
f 968// 313// 312//
f 968// 312// 966//
f 966// 312// 310//
f 966// 310// 964//
f 964// 310// 309//
f 964// 309// 962//
f 962// 309// 296//
f 962// 296// 960//
f 960// 296// 323//
f 960// 323// 958//
f 958// 323// 322//
f 958// 322// 956//
f 935// 970// 971//
f 935// 971// 911//
f 911// 971// 972//
f 911// 972// 912//
f 912// 972// 973//
f 912// 973// 933//
f 943// 974// 975//
f 943// 975// 941//
f 941// 975// 976//
f 941// 976// 939//
f 939// 976// 977//
f 939// 977// 937//
f 937// 977// 970//
f 937// 970// 935//
f 929// 978// 979//
f 929// 979// 931//
f 931// 979// 980//
f 931// 980// 947//
f 947// 980// 981//
f 947// 981// 945//
f 945// 981// 974//
f 945// 974// 943//
f 923// 982// 983//
f 923// 983// 925//
f 925// 983// 984//
f 925// 984// 927//
f 927// 984// 978//
f 927// 978// 929//
f 915// 985// 986//
f 915// 986// 917//
f 917// 986// 987//
f 917// 987// 919//
f 919// 987// 988//
f 919// 988// 921//
f 921// 988// 982//
f 921// 982// 923//
f 907// 989// 990//
f 907// 990// 905//
f 905// 990// 991//
f 905// 991// 904//
f 904// 991// 992//
f 904// 992// 914//
f 914// 992// 985//
f 914// 985// 915//
f 907// 908// 989//
f 989// 908// 993//
f 908// 933// 993//
f 993// 933// 973//
usemtl 1
f 990// 989// 970//
f 989// 993// 973//
f 973// 972// 989//
f 989// 972// 971//
f 989// 971// 970//
f 990// 970// 991//
f 991// 970// 977//
f 991// 977// 992//
f 979// 978// 986//
f 979// 986// 980//
f 987// 986// 988//
f 988// 986// 982//
f 977// 976// 992//
f 992// 976// 975//
f 992// 975// 985//
f 985// 975// 974//
f 985// 974// 986//
f 986// 974// 981//
f 986// 981// 980//
f 978// 984// 986//
f 986// 984// 983//
f 986// 983// 982//
usemtl 3
f 334// 994// 995//
f 996// 392// 389//
f 996// 389// 997//
f 997// 389// 337//
f 997// 337// 995//
f 995// 337// 336//
f 995// 336// 334//
f 998// 994// 345//
f 345// 994// 334//
f 998// 345// 999//
f 999// 345// 347//
f 351// 1000// 350//
f 350// 1000// 999//
f 350// 999// 349//
f 349// 999// 347//
f 1000// 351// 1001//
f 1001// 351// 2//
f 2// 1// 1001//
f 1001// 1// 370//
f 1001// 370// 1002//
f 1002// 370// 369//
f 1002// 369// 1003//
f 1003// 369// 359//
f 1003// 359// 1004//
f 1004// 359// 358//
f 1004// 358// 1005//
f 1005// 358// 357//
f 1005// 357// 1006//
f 1006// 357// 368//
f 1006// 368// 1007//
f 1007// 368// 367//
f 1007// 367// 1008//
f 1008// 367// 366//
f 1008// 366// 1009//
f 1009// 366// 365//
f 1009// 365// 1010//
f 1010// 365// 385//
f 1010// 385// 1011//
f 1011// 385// 384//
f 1011// 384// 1012//
f 1012// 384// 382//
f 1012// 382// 1013//
f 1013// 382// 380//
f 1013// 380// 1014//
f 1014// 380// 379//
f 1014// 379// 1015//
f 1015// 379// 378//
f 1015// 378// 1016//
f 1016// 378// 377//
f 1016// 377// 1017//
f 1017// 377// 376//
f 1017// 376// 1018//
f 1018// 376// 373//
f 1018// 373// 1019//
f 1019// 373// 388//
f 1019// 388// 1020//
f 1020// 388// 387//
f 1020// 387// 1021//
f 1021// 387// 386//
f 1021// 386// 1022//
f 1022// 386// 375//
f 1022// 375// 1023//
f 1023// 375// 374//
f 1023// 374// 1024//
f 1024// 374// 372//
f 1024// 372// 1025//
f 1025// 372// 371//
f 1025// 371// 1026//
f 1026// 371// 381//
f 1026// 381// 1027//
f 1027// 381// 383//
f 1027// 383// 1028//
f 1028// 383// 354//
f 1028// 354// 1029//
f 1030// 1029// 353//
f 353// 1029// 354//
f 1030// 353// 364//
f 1030// 364// 1031//
f 1031// 364// 362//
f 1031// 362// 1032//
f 1032// 362// 361//
f 1032// 361// 1033//
f 1033// 361// 356//
f 1033// 356// 1034//
f 1034// 356// 355//
f 1034// 355// 1035//
f 355// 360// 1035//
f 1035// 360// 1036//
f 360// 298// 1036//
f 1036// 298// 297//
f 1036// 297// 1037//
f 1037// 297// 311//
f 1037// 311// 1038//
f 1038// 311// 328//
f 1038// 328// 1039//
f 1039// 328// 327//
f 1039// 327// 1040//
f 1040// 327// 325//
f 1040// 325// 1041//
f 1041// 325// 324//
f 1041// 324// 1042//
f 390// 1043// 1044//
f 1042// 324// 333//
f 1042// 333// 1045//
f 1045// 333// 335//
f 1045// 335// 1044//
f 1044// 335// 391//
f 1044// 391// 390//
f 1043// 390// 394//
f 1043// 394// 1046//
f 1046// 394// 405//
f 1046// 405// 1047//
f 1047// 405// 404//
f 1047// 404// 1048//
f 1048// 404// 403//
f 1048// 403// 1049//
f 1049// 403// 397//
f 1049// 397// 1050//
f 1050// 397// 396//
f 1050// 396// 1051//
f 1051// 396// 402//
f 1051// 402// 1052//
f 1052// 402// 401//
f 1052// 401// 1053//
f 1053// 401// 400//
f 1053// 400// 1054//
f 1054// 400// 399//
f 1054// 399// 1055//
f 1055// 399// 398//
f 1055// 398// 1056//
f 1056// 398// 395//
f 1056// 395// 1057//
f 1057// 395// 393//
f 1057// 393// 1058//
f 1058// 393// 392//
f 1058// 392// 996//
f 1022// 1023// 1034//
f 1034// 1023// 1033//
f 1046// 1013// 1043//
f 1043// 1013// 1014//
f 1000// 996// 999//
f 999// 996// 997//
f 999// 997// 998//
f 998// 997// 995//
f 998// 995// 994//
f 1023// 1024// 1033//
f 1033// 1024// 1025//
f 1033// 1025// 1032//
f 1032// 1025// 1026//
f 1032// 1026// 1031//
f 1031// 1026// 1027//
f 1031// 1027// 1030//
f 1030// 1027// 1028//
f 1030// 1028// 1029//
f 1002// 1003// 1054//
f 1054// 1003// 1004//
f 1054// 1004// 1053//
f 1053// 1004// 1005//
f 1053// 1005// 1052//
f 1052// 1005// 1006//
f 1052// 1006// 1051//
f 1051// 1006// 1007//
f 1051// 1007// 1050//
f 1050// 1007// 1008//
f 1050// 1008// 1049//
f 1049// 1008// 1009//
f 1049// 1009// 1048//
f 1048// 1009// 1010//
f 1048// 1010// 1047//
f 1047// 1010// 1011//
f 1047// 1011// 1046//
f 1046// 1011// 1012//
f 1046// 1012// 1013//
f 1054// 1055// 1002//
f 1002// 1055// 1056//
f 1002// 1056// 1001//
f 1001// 1056// 1057//
f 1001// 1057// 1000//
f 1000// 1057// 1058//
f 1000// 1058// 996//
f 1034// 1035// 1022//
f 1022// 1035// 1036//
f 1022// 1036// 1021//
f 1021// 1036// 1037//
f 1021// 1037// 1020//
f 1020// 1037// 1038//
f 1020// 1038// 1019//
f 1019// 1038// 1039//
f 1019// 1039// 1018//
f 1018// 1039// 1040//
f 1018// 1040// 1017//
f 1017// 1040// 1041//
f 1017// 1041// 1016//
f 1016// 1041// 1042//
f 1016// 1042// 1015//
f 1015// 1042// 1045//
f 1015// 1045// 1014//
f 1014// 1045// 1044//
f 1014// 1044// 1043//
f 1059// 1060// 406//
f 406// 1060// 407//
f 1061// 1059// 414//
f 414// 1059// 406//
f 1061// 414// 415//
f 1061// 415// 1062//
f 1062// 415// 411//
f 1062// 411// 1063//
f 1064// 1063// 410//
f 410// 1063// 411//
f 1065// 1064// 409//
f 409// 1064// 410//
f 418// 1066// 413//
f 413// 1066// 1065//
f 413// 1065// 409//
f 1067// 1066// 417//
f 417// 1066// 418//
f 420// 1068// 416//
f 416// 1068// 1067//
f 416// 1067// 417//
f 424// 1069// 419//
f 419// 1069// 1068//
f 419// 1068// 420//
f 1069// 424// 422//
f 1069// 422// 1070//
f 1070// 422// 421//
f 1070// 421// 1071//
f 421// 436// 1071//
f 1071// 436// 435//
f 1071// 435// 1072//
f 1072// 435// 429//
f 1072// 429// 1073//
f 1073// 429// 428//
f 1073// 428// 1074//
f 1074// 428// 427//
f 1074// 427// 1075//
f 1075// 427// 425//
f 1075// 425// 1076//
f 1077// 1076// 426//
f 426// 1076// 425//
f 1077// 426// 434//
f 1077// 434// 1078//
f 1078// 434// 433//
f 1078// 433// 1079//
f 1079// 433// 431//
f 1079// 431// 1080//
f 1080// 431// 430//
f 1080// 430// 1081//
f 430// 443// 1081//
f 1081// 443// 442//
f 1081// 442// 1082//
f 1082// 442// 441//
f 1082// 441// 1083//
f 1083// 441// 438//
f 1083// 438// 1084//
f 1084// 438// 437//
f 1084// 437// 1085//
f 407// 1060// 440//
f 440// 1060// 1085//
f 440// 1085// 437//
f 1062// 1063// 1085//
f 1060// 1059// 1085//
f 1085// 1059// 1061//
f 1085// 1061// 1062//
f 1066// 1067// 1065//
f 1065// 1067// 1068//
f 1065// 1068// 1064//
f 1084// 1070// 1083//
f 1083// 1070// 1071//
f 1076// 1077// 1075//
f 1075// 1077// 1078//
f 1075// 1078// 1074//
f 1074// 1078// 1079//
f 1074// 1079// 1073//
f 1073// 1079// 1080//
f 1073// 1080// 1072//
f 1072// 1080// 1081//
f 1072// 1081// 1071//
f 1071// 1081// 1082//
f 1071// 1082// 1083//
f 1063// 1064// 1085//
f 1085// 1064// 1068//
f 1085// 1068// 1084//
f 1084// 1068// 1069//
f 1084// 1069// 1070//
f 1086// 1087// 451//
f 451// 1087// 453//
f 447// 1088// 446//
f 446// 1088// 1086//
f 446// 1086// 451//
f 1089// 1088// 445//
f 445// 1088// 447//
f 455// 1090// 444//
f 444// 1090// 1089//
f 444// 1089// 445//
f 1091// 1090// 456//
f 456// 1090// 455//
f 460// 1092// 457//
f 457// 1092// 1091//
f 457// 1091// 456//
f 1093// 1092// 459//
f 459// 1092// 460//
f 449// 1094// 458//
f 458// 1094// 1093//
f 458// 1093// 459//
f 1095// 1094// 448//
f 448// 1094// 449//
f 464// 1096// 465//
f 465// 1096// 1095//
f 465// 1095// 448//
f 1097// 1096// 462//
f 462// 1096// 464//
f 453// 1087// 461//
f 461// 1087// 1097//
f 461// 1097// 462//
f 1097// 1087// 1086//
f 1086// 1088// 1097//
f 1097// 1088// 1089//
f 1097// 1089// 1096//
f 1094// 1095// 1093//
f 1093// 1095// 1096//
f 1093// 1096// 1092//
f 1092// 1096// 1089//
f 1092// 1089// 1091//
f 1091// 1089// 1090//
f 1098// 1099// 1100//
f 1100// 1099// 1101//
f 1100// 1101// 1102//
f 1102// 1101// 1103//
f 1102// 1103// 1104//
f 1104// 1103// 1105//
f 1104// 1105// 1106//
f 1106// 1105// 1107//
f 1106// 1107// 1108//
f 1108// 1107// 1109//
f 1108// 1109// 1110//
f 1110// 1109// 1111//
f 1110// 1111// 1112//
f 1112// 1111// 1113//
f 1112// 1113// 1114//
f 1114// 1113// 1115//
f 1114// 1115// 1116//
f 1116// 1115// 1117//
f 1116// 1117// 1118//
f 1118// 1117// 1119//
f 1118// 1119// 1120//
f 1120// 1119// 1121//
f 1120// 1121// 1122//
f 1122// 1121// 1123//
f 1122// 1123// 1124//
f 1124// 1123// 1125//
f 1124// 1125// 1126//
f 1126// 1125// 1127//
f 1126// 1127// 1128//
f 1128// 1127// 1129//
f 1128// 1129// 1130//
f 1130// 1129// 1131//
f 1130// 1131// 1132//
f 1132// 1131// 1098//
f 1132// 1098// 1100//
f 1106// 1108// 499//
f 499// 1108// 506//
f 1106// 499// 498//
f 1106// 498// 1104//
f 1104// 498// 497//
f 1104// 497// 1102//
f 1102// 497// 491//
f 1102// 491// 1100//
f 1100// 491// 490//
f 1100// 490// 1132//
f 1132// 490// 488//
f 1132// 488// 1130//
f 1130// 488// 487//
f 1130// 487// 1128//
f 1128// 487// 495//
f 1128// 495// 1126//
f 1126// 495// 496//
f 1126// 496// 1124//
f 1124// 496// 502//
f 1124// 502// 1122//
f 1122// 502// 501//
f 1122// 501// 1120//
f 1120// 501// 500//
f 1120// 500// 1118//
f 1118// 500// 503//
f 1118// 503// 1116//
f 1116// 503// 494//
f 1116// 494// 1114//
f 1114// 494// 493//
f 1114// 493// 1112//
f 1110// 1112// 507//
f 507// 1112// 493//
f 1108// 1110// 506//
f 506// 1110// 507//
f 1113// 1111// 1133//
f 1133// 1111// 1134//
f 1111// 1109// 1134//
f 1134// 1109// 1135//
f 1109// 1107// 1135//
f 1135// 1107// 1136//
f 1099// 1137// 1138//
f 1099// 1138// 1101//
f 1101// 1138// 1139//
f 1101// 1139// 1103//
f 1103// 1139// 1140//
f 1103// 1140// 1105//
f 1105// 1140// 1136//
f 1105// 1136// 1107//
f 1127// 1141// 1142//
f 1127// 1142// 1129//
f 1129// 1142// 1143//
f 1129// 1143// 1131//
f 1131// 1143// 1144//
f 1131// 1144// 1098//
f 1098// 1144// 1137//
f 1098// 1137// 1099//
f 1119// 1145// 1146//
f 1119// 1146// 1121//
f 1121// 1146// 1147//
f 1121// 1147// 1123//
f 1123// 1147// 1148//
f 1123// 1148// 1125//
f 1125// 1148// 1141//
f 1125// 1141// 1127//
f 1113// 1133// 1149//
f 1113// 1149// 1115//
f 1115// 1149// 1150//
f 1115// 1150// 1117//
f 1117// 1150// 1145//
f 1117// 1145// 1119//
usemtl 1
f 1134// 1135// 1133//
f 1133// 1135// 1136//
f 1133// 1136// 1140//
f 1140// 1139// 1133//
f 1133// 1139// 1138//
f 1133// 1138// 1137//
f 1142// 1141// 1133//
f 1133// 1141// 1148//
f 1133// 1148// 1147//
f 1147// 1146// 1133//
f 1133// 1146// 1145//
f 1133// 1145// 1149//
f 1149// 1145// 1150//
f 1137// 1144// 1133//
f 1133// 1144// 1143//
f 1133// 1143// 1142//
usemtl 3
f 1151// 1152// 1153//
f 1153// 1152// 1154//
f 1155// 1156// 1151//
f 1151// 1156// 1157//
f 1151// 1157// 1152//
f 1152// 1157// 1158//
f 1155// 1159// 1156//
f 1156// 1159// 1160//
f 1156// 1160// 1161//
f 1161// 1160// 1162//
f 1161// 1162// 1163//
f 1163// 1164// 1161//
f 1161// 1164// 1153//
f 1161// 1153// 1165//
f 1165// 1153// 1154//
f 1165// 1154// 1166//
f 1161// 1165// 486//
f 486// 1165// 505//
f 1156// 1161// 492//
f 492// 1161// 486//
f 1157// 1156// 489//
f 489// 1156// 492//
f 1158// 1157// 504//
f 504// 1157// 489//
f 1152// 1158// 483//
f 483// 1158// 504//
f 1154// 1152// 482//
f 482// 1152// 483//
f 1166// 1154// 481//
f 481// 1154// 482//
f 1165// 1166// 505//
f 505// 1166// 481//
f 1151// 1153// 1167//
f 1167// 1153// 1168//
f 1153// 1164// 1168//
f 1168// 1164// 1169//
f 1162// 1170// 1171//
f 1162// 1171// 1163//
f 1163// 1171// 1169//
f 1163// 1169// 1164//
f 1162// 1160// 1170//
f 1170// 1160// 1172//
f 1155// 1173// 1174//
f 1155// 1174// 1159//
f 1159// 1174// 1172//
f 1159// 1172// 1160//
f 1155// 1151// 1173//
f 1173// 1151// 1167//
usemtl 1
f 1170// 1172// 1171//
f 1171// 1172// 1174//
f 1171// 1174// 1169//
f 1169// 1174// 1173//
f 1169// 1173// 1168//
f 1168// 1173// 1167//
usemtl 3
f 1175// 1176// 1177//
f 1178// 1179// 1180//
f 1181// 1182// 1183//
f 1184// 1185// 1177//
f 1177// 1185// 1186//
f 1177// 1186// 1175//
f 1180// 1179// 1187//
f 1188// 1189// 1190//
f 1190// 1189// 1191//
f 1190// 1191// 1192//
f 1193// 1194// 1190//
f 1190// 1194// 1195//
f 1190// 1195// 1188//
f 1188// 1195// 1196//
f 1197// 1198// 1199//
f 1199// 1198// 1200//
f 1199// 1200// 1201//
f 1201// 1200// 1202//
f 1201// 1202// 1203//
f 1203// 1202// 1204//
f 1203// 1204// 1205//
f 1205// 1204// 1177//
f 1205// 1177// 1206//
f 1206// 1177// 1207//
f 1208// 1209// 1197//
f 1197// 1209// 1210//
f 1197// 1210// 1198//
f 1192// 1211// 1190//
f 1190// 1211// 1212//
f 1190// 1212// 1213//
f 1213// 1212// 1214//
f 1213// 1214// 1215//
f 1216// 1217// 1218//
f 1218// 1217// 1219//
f 1218// 1219// 1220//
f 1220// 1219// 1221//
f 1220// 1221// 1222//
f 1222// 1221// 1223//
f 1181// 1183// 1224//
f 1224// 1183// 1225//
f 1224// 1225// 1226//
f 1226// 1225// 1227//
f 1226// 1227// 1228//
f 1179// 1229// 1187//
f 1187// 1229// 1230//
f 1187// 1230// 1231//
f 1231// 1230// 1232//
f 1231// 1232// 1181//
f 1181// 1232// 1233//
f 1181// 1233// 1182//
f 1196// 1195// 1197//
f 1197// 1195// 1234//
f 1197// 1234// 1208//
f 1235// 1236// 1237//
f 1237// 1236// 1238//
f 1237// 1238// 1239//
f 1239// 1238// 1240//
f 1239// 1240// 1241//
f 1241// 1240// 1242//
f 1241// 1242// 1243//
f 1243// 1242// 1244//
f 1243// 1244// 1245//
f 1207// 1177// 1246//
f 1246// 1177// 1176//
f 1246// 1176// 1247//
f 1221// 1248// 1223//
f 1223// 1248// 1249//
f 1223// 1249// 1250//
f 1250// 1249// 1251//
f 1250// 1251// 1252//
f 1252// 1251// 1253//
f 1252// 1253// 1254//
f 1254// 1253// 1255//
f 1254// 1255// 1256//
f 1256// 1255// 1257//
f 1256// 1257// 1258//
f 1258// 1257// 1259//
f 1258// 1259// 1235//
f 1235// 1259// 1260//
f 1235// 1260// 1236//
f 1261// 1262// 1263//
f 1263// 1262// 1264//
f 1263// 1264// 1218//
f 1218// 1264// 1265//
f 1218// 1265// 1216//
f 1266// 1267// 1268//
f 1268// 1267// 1269//
f 1268// 1269// 1270//
f 1270// 1269// 1271//
f 1270// 1271// 1272//
f 1272// 1271// 1273//
f 1272// 1273// 1274//
f 1274// 1273// 1275//
f 1274// 1275// 1184//
f 1184// 1275// 1276//
f 1184// 1276// 1185//
f 1215// 1214// 1277//
f 1277// 1214// 1278//
f 1277// 1278// 1279//
f 1279// 1278// 1280//
f 1279// 1280// 1281//
f 1281// 1280// 1282//
f 1281// 1282// 1283//
f 1283// 1282// 1284//
f 1283// 1284// 1285//
f 1285// 1284// 1286//
f 1285// 1286// 1287//
f 1287// 1286// 1288//
f 1287// 1288// 1289//
f 1289// 1288// 1290//
f 1289// 1290// 1291//
f 1291// 1290// 1292//
f 1291// 1292// 1293//
f 1293// 1292// 1294//
f 1293// 1294// 1176//
f 1176// 1294// 1295//
f 1176// 1295// 1247//
f 1228// 1227// 1296//
f 1296// 1227// 1297//
f 1296// 1297// 1298//
f 1298// 1297// 1299//
f 1298// 1299// 1300//
f 1300// 1299// 1301//
f 1300// 1301// 1302//
f 1302// 1301// 1303//
f 1302// 1303// 1261//
f 1261// 1303// 1304//
f 1261// 1304// 1262//
f 1180// 1305// 1178//
f 1178// 1305// 1306//
f 1178// 1306// 1307//
f 1307// 1306// 1308//
f 1307// 1308// 1309//
f 1309// 1308// 1310//
f 1309// 1310// 1266//
f 1266// 1310// 1311//
f 1266// 1311// 1267//
f 1312// 1313// 1314//
f 1244// 1315// 1245//
f 1245// 1315// 1312//
f 1245// 1312// 1316//
f 1316// 1312// 1314//
f 1317// 1318// 1312//
f 1312// 1318// 1319//
f 1312// 1319// 1313//
f 1320// 1321// 1322//
f 1321// 1323// 1322//
f 1322// 1323// 1324//
f 1322// 1324// 1325//
f 1317// 1312// 1322//
f 1322// 1312// 1326//
f 1322// 1326// 1320//
f 162// 1223// 163//
f 163// 1223// 1250//
f 163// 1250// 164//
f 164// 1250// 1252//
f 164// 1252// 73//
f 73// 1252// 1254//
f 73// 1254// 74//
f 162// 11// 1223//
f 1223// 11// 10//
f 1223// 10// 1222//
f 1222// 10// 19//
f 1222// 19// 1220//
f 1220// 19// 18//
f 1220// 18// 1218//
f 1218// 18// 17//
f 1218// 17// 1263//
f 1263// 17// 16//
f 1263// 16// 1261//
f 1302// 1261// 15//
f 15// 1261// 16//
f 15// 14// 1302//
f 1302// 14// 25//
f 1302// 25// 1300//
f 1300// 25// 24//
f 1300// 24// 1298//
f 1298// 24// 21//
f 1298// 21// 1296//
f 1296// 21// 20//
f 1296// 20// 1228//
f 1228// 20// 1226//
f 1226// 20// 33//
f 1226// 33// 34//
f 1226// 34// 35//
f 1226// 35// 1224//
f 1224// 35// 37//
f 1224// 37// 1181//
f 1181// 37// 36//
f 1181// 36// 1231//
f 1231// 36// 28//
f 1231// 28// 1187//
f 1187// 28// 27//
f 1187// 27// 1180//
f 1180// 27// 39//
f 1180// 39// 1305//
f 1305// 39// 38//
f 1305// 38// 1306//
f 1306// 38// 32//
f 1306// 32// 1308//
f 50// 1267// 51//
f 51// 1267// 1311//
f 51// 1311// 30//
f 30// 1311// 1310//
f 30// 1310// 31//
f 31// 1310// 1308//
f 31// 1308// 32//
f 50// 49// 1267//
f 1267// 49// 48//
f 1267// 48// 1269//
f 1269// 48// 46//
f 1269// 46// 1271//
f 1271// 46// 45//
f 1271// 45// 1273//
f 1273// 45// 44//
f 1273// 44// 1275//
f 1275// 44// 43//
f 1275// 43// 1276//
f 1276// 43// 41//
f 1276// 41// 1185//
f 1185// 41// 40//
f 1185// 40// 1186//
f 1186// 40// 56//
f 1186// 56// 1175//
f 56// 55// 1175//
f 1175// 55// 53//
f 1175// 53// 1176//
f 1176// 53// 52//
f 1176// 52// 1293//
f 1293// 52// 66//
f 1293// 66// 1291//
f 66// 65// 1291//
f 1291// 65// 64//
f 1291// 64// 1289//
f 1289// 64// 60//
f 1289// 60// 1287//
f 124// 1213// 1215//
f 1287// 60// 61//
f 63// 1283// 61//
f 61// 1283// 1285//
f 61// 1285// 1287//
f 63// 72// 1283//
f 1283// 72// 71//
f 1283// 71// 1281//
f 1281// 71// 70//
f 1281// 70// 1279//
f 1279// 70// 68//
f 1279// 68// 1277//
f 1277// 68// 67//
f 1277// 67// 1215//
f 1215// 67// 123//
f 1215// 123// 124//
f 1190// 1213// 110//
f 110// 1213// 124//
f 1193// 1190// 78//
f 78// 1190// 110//
f 1194// 1193// 83//
f 83// 1193// 78//
f 1195// 1194// 82//
f 82// 1194// 83//
f 1195// 82// 84//
f 1195// 84// 1234//
f 1234// 84// 85//
f 1234// 85// 1208//
f 1208// 85// 107//
f 1208// 107// 1209//
f 1209// 107// 106//
f 1209// 106// 1210//
f 1210// 106// 105//
f 1210// 105// 1198//
f 1198// 105// 101//
f 1198// 101// 1200//
f 1200// 101// 102//
f 1200// 102// 1202//
f 1202// 102// 98//
f 1202// 98// 1204//
f 1204// 98// 100//
f 1204// 100// 1177//
f 1177// 100// 99//
f 1177// 99// 1184//
f 1184// 99// 97//
f 1184// 97// 1274//
f 1274// 97// 96//
f 1274// 96// 1272//
f 1272// 96// 104//
f 1272// 104// 1270//
f 1270// 104// 103//
f 1270// 103// 1268//
f 1266// 1268// 103//
f 103// 91// 1266//
f 1266// 91// 135//
f 1266// 135// 134//
f 147// 1307// 134//
f 134// 1307// 1309//
f 134// 1309// 1266//
f 147// 161// 1307//
f 1307// 161// 160//
f 1307// 160// 1178//
f 1178// 160// 159//
f 1178// 159// 1179//
f 1179// 159// 153//
f 1179// 153// 1229//
f 1229// 153// 152//
f 1229// 152// 1230//
f 1230// 152// 151//
f 1230// 151// 1232//
f 1232// 151// 148//
f 1232// 148// 1233//
f 1233// 148// 143//
f 1233// 143// 1182//
f 1182// 143// 146//
f 1182// 146// 1183//
f 1183// 146// 154//
f 1183// 154// 1225//
f 1225// 154// 156//
f 1225// 156// 1227//
f 1227// 156// 158//
f 1227// 158// 1297//
f 1297// 158// 157//
f 1297// 157// 1299//
f 1299// 157// 155//
f 1299// 155// 1301//
f 1301// 155// 145//
f 1301// 145// 1303//
f 1303// 145// 144//
f 1303// 144// 1304//
f 1304// 144// 142//
f 1304// 142// 1262//
f 1262// 142// 141//
f 1262// 141// 1264//
f 1264// 141// 150//
f 1264// 150// 1265//
f 1265// 150// 1216//
f 1216// 150// 149//
f 1216// 149// 133//
f 1217// 1216// 136//
f 136// 1216// 133//
f 1217// 136// 140//
f 1217// 140// 1219//
f 1219// 140// 139//
f 1219// 139// 1221//
f 1221// 139// 138//
f 1221// 138// 1248//
f 1248// 138// 137//
f 1248// 137// 1249//
f 1249// 137// 90//
f 1249// 90// 1251//
f 90// 89// 1251//
f 1251// 89// 88//
f 1251// 88// 1253//
f 1253// 88// 116//
f 1253// 116// 1255//
f 1255// 116// 115//
f 1255// 115// 1257//
f 1257// 115// 114//
f 1257// 114// 1259//
f 1259// 114// 113//
f 1259// 113// 1260//
f 1260// 113// 132//
f 1260// 132// 1236//
f 1236// 132// 131//
f 1236// 131// 1238//
f 1238// 131// 130//
f 1238// 130// 1240//
f 1240// 130// 129//
f 1240// 129// 1242//
f 1244// 1242// 128//
f 128// 1242// 129//
f 1244// 128// 95//
f 1244// 95// 1315//
f 1315// 95// 94//
f 1315// 94// 1312//
f 1312// 94// 93//
f 1312// 93// 1326//
f 1326// 93// 77//
f 1326// 77// 1320//
f 1320// 77// 76//
f 1320// 76// 1321//
f 1321// 76// 86//
f 1321// 86// 1323//
f 1323// 86// 112//
f 1323// 112// 1324//
f 1324// 112// 111//
f 1324// 111// 1325//
f 1325// 111// 109//
f 1325// 109// 1322//
f 1322// 109// 108//
f 1322// 108// 1317//
f 1317// 108// 122//
f 1317// 122// 1318//
f 1318// 122// 121//
f 1318// 121// 1319//
f 1319// 121// 120//
f 1319// 120// 1313//
f 1313// 120// 119//
f 1313// 119// 1314//
f 1314// 119// 118//
f 1314// 118// 1316//
f 1316// 118// 117//
f 1316// 117// 1245//
f 1245// 117// 127//
f 1245// 127// 1243//
f 1241// 1243// 126//
f 126// 1243// 127//
f 1241// 126// 125//
f 1241// 125// 1239//
f 1239// 125// 80//
f 1239// 80// 1237//
f 1237// 80// 79//
f 1237// 79// 1235//
f 1235// 79// 87//
f 1235// 87// 1258//
f 1258// 87// 92//
f 1258// 92// 1256//
f 1256// 92// 74//
f 1256// 74// 1254//
f 1196// 1327// 1328//
f 1196// 1328// 1188//
f 1188// 1328// 1329//
f 1188// 1329// 1189//
f 1189// 1329// 1330//
f 1189// 1330// 1191//
f 1191// 1330// 1331//
f 1191// 1331// 1192//
f 1192// 1331// 1332//
f 1192// 1332// 1211//
f 1211// 1332// 1333//
f 1211// 1333// 1212//
f 1212// 1333// 1334//
f 1212// 1334// 1214//
f 1214// 1334// 1335//
f 1214// 1335// 1278//
f 1278// 1335// 1336//
f 1278// 1336// 1280//
f 1280// 1336// 1337//
f 1280// 1337// 1282//
f 1282// 1337// 1338//
f 1282// 1338// 1284//
f 1284// 1338// 1339//
f 1284// 1339// 1286//
f 1286// 1339// 1340//
f 1286// 1340// 1288//
f 1288// 1340// 1341//
f 1288// 1341// 1290//
f 1290// 1341// 1342//
f 1290// 1342// 1292//
f 1292// 1342// 1343//
f 1292// 1343// 1294//
f 1294// 1343// 1344//
f 1294// 1344// 1295//
f 1295// 1344// 1345//
f 1295// 1345// 1247//
f 1247// 1345// 1346//
f 1247// 1346// 1246//
f 1246// 1346// 1347//
f 1246// 1347// 1207//
f 1207// 1347// 1348//
f 1207// 1348// 1206//
f 1206// 1348// 1349//
f 1206// 1349// 1205//
f 1205// 1349// 1350//
f 1205// 1350// 1203//
f 1203// 1350// 1351//
f 1203// 1351// 1201//
f 1201// 1351// 1352//
f 1201// 1352// 1199//
f 1199// 1352// 1353//
f 1199// 1353// 1197//
f 1197// 1353// 1327//
f 1197// 1327// 1196//
usemtl 1
f 1341// 1351// 1350//
f 1339// 1338// 1328//
f 1327// 1353// 1341//
f 1341// 1353// 1352//
f 1341// 1352// 1351//
f 1346// 1345// 1350//
f 1350// 1345// 1344//
f 1327// 1341// 1328//
f 1328// 1341// 1340//
f 1328// 1340// 1339//
f 1349// 1348// 1350//
f 1350// 1348// 1347//
f 1350// 1347// 1346//
f 1344// 1343// 1350//
f 1350// 1343// 1342//
f 1350// 1342// 1341//
f 1338// 1337// 1328//
f 1328// 1337// 1336//
f 1328// 1336// 1335//
f 1335// 1334// 1328//
f 1328// 1334// 1333//
f 1328// 1333// 1332//
f 1332// 1331// 1328//
f 1328// 1331// 1330//
f 1328// 1330// 1329//
