M48
; DRILL file KiCad 10.0.6 date 2026-09-08T17:14:30
; FORMAT={-:-/ absolute / metric / decimal}
; #@! TF.CreationDate,2026-09-08T17:14:30-07:00
; #@! TF.GenerationSoftware,Kicad,Pcbnew,10.0.6
; #@! TF.FileFunction,Plated,1,4,PTH
FMAT,2
METRIC
; #@! TA.AperFunction,Plated,PTH,ViaDrill
T1C0.500
; #@! TA.AperFunction,Plated,PTH,ViaDrill
T2C0.600
; #@! TA.AperFunction,Plated,PTH,ComponentDrill
T3C0.800
; #@! TA.AperFunction,Plated,PTH,ComponentDrill
T4C0.900
; #@! TA.AperFunction,Plated,PTH,ViaDrill
T5C1.000
; #@! TA.AperFunction,Plated,PTH,ComponentDrill
T6C1.000
; #@! TA.AperFunction,Plated,PTH,ComponentDrill
T7C1.100
; #@! TA.AperFunction,Plated,PTH,ComponentDrill
T8C1.190
; #@! TA.AperFunction,Plated,PTH,ComponentDrill
T9C1.300
; #@! TA.AperFunction,Plated,PTH,ComponentDrill
T10C1.400
; #@! TA.AperFunction,Plated,PTH,ComponentDrill
T11C1.700
; #@! TA.AperFunction,Plated,PTH,ComponentDrill
T12C2.000
%
G90
G05
T1
X15.4Y-43.1
X17.0Y-43.1
X18.6Y-43.1
X28.8Y-43.1
X30.4Y-43.1
X32.0Y-43.1
X150.85Y-70.75
X155.6Y-71.2
X157.6Y-70.9
X157.9Y-101.58
X196.2Y-117.5
X276.542Y-64.618
X276.542Y-65.818
X277.742Y-64.618
X277.742Y-65.818
X277.9Y-24.4
X277.9Y-26.0
X277.9Y-27.6
X279.5Y-24.4
X279.5Y-26.0
X279.5Y-27.6
X281.1Y-24.4
X281.1Y-26.0
X281.1Y-27.6
X284.1Y-10.4
X284.1Y-12.0
X284.1Y-13.6
X293.1Y-112.4
X293.1Y-114.0
X293.1Y-115.6
X298.9Y-10.4
X298.9Y-12.0
X298.9Y-13.6
X301.9Y-24.4
X301.9Y-26.0
X301.9Y-27.6
X303.5Y-24.4
X303.5Y-26.0
X303.5Y-27.6
X305.1Y-24.4
X305.1Y-26.0
X305.1Y-27.6
X314.1Y-128.0
X314.1Y-129.6
X348.4Y-64.1
X350.0Y-64.1
X351.6Y-64.1
X354.4Y-146.6
X361.8Y-64.1
X363.4Y-64.1
X365.0Y-64.1
X365.8Y-146.6
X384.6Y-148.2
X394.0Y-150.4
T2
X4.2Y-132.0
X4.6Y-85.2
X5.8Y-132.8
X9.6Y-79.2
X10.0Y-8.0
X10.0Y-48.0
X10.0Y-90.6
X10.0Y-94.4
X10.4Y-102.8
X10.8Y-97.0
X10.8Y-113.8
X11.2Y-89.0
X11.6Y-116.2
X11.6Y-118.4
X12.0Y-103.2
X12.2Y-120.4
X12.2Y-123.6
X12.8Y-86.4
X12.8Y-88.0
X12.8Y-91.6
X13.8Y-119.8
X14.0Y-107.0
X14.6Y-123.6
X15.0Y-112.6
X15.0Y-117.4
X15.76Y-26.65
X16.2Y-119.8
X17.8Y-132.4
X18.0Y-8.0
X18.0Y-48.0
X18.0Y-89.6
X18.0Y-91.2
X18.0Y-100.8
X18.0Y-117.4
X18.29Y-207.504
X20.832Y-129.416
X20.84Y-26.65
X22.0Y-123.6
X23.6Y-123.6
X24.4Y-97.2
X24.4Y-98.8
X24.4Y-113.0
X24.4Y-118.8
X25.0Y-8.0
X26.0Y-48.0
X27.6Y-113.0
X27.6Y-118.6
X29.16Y-26.65
X33.0Y-8.0
X34.0Y-48.0
X34.24Y-26.65
X38.8Y-100.0
X40.4Y-84.0
X40.4Y-89.4
X40.4Y-98.4
X40.4Y-101.4
X40.4Y-121.8
X43.6Y-85.8
X43.6Y-90.6
X44.723Y-51.036
X58.0Y-158.2
X58.6Y-163.6
X62.401Y-153.646
X64.842Y-59.419
X65.4Y-69.6
X65.6Y-102.6
X71.264Y-69.997
X71.6Y-60.6
X72.192Y-37.723
X73.6Y-130.8
X75.0Y-65.6
X76.192Y-35.412
X77.8Y-36.2
X78.0Y-67.8
X82.2Y-73.4
X82.4Y-63.0
X83.8Y-74.4
X85.8Y-83.2
X85.8Y-88.2
X86.2Y-75.6
X88.2Y-97.2
X88.8Y-64.0
X89.8Y-96.0
X90.8Y-136.8
X91.0Y-91.4
X91.4Y-96.0
X91.6Y-67.8
X92.6Y-91.4
X93.297Y-70.22
X93.4Y-60.6
X93.6Y-80.6
X93.8Y-94.8
X94.6Y-65.6
X95.4Y-96.0
X95.6Y-131.0
X95.897Y-71.49
X95.897Y-74.03
X96.2Y-136.8
X96.6Y-55.2
X96.6Y-186.0
X97.0Y-96.0
X97.6Y-72.0
X97.6Y-74.0
X98.6Y-137.2
X98.8Y-180.4
X99.0Y-84.4
X99.6Y-96.0
X99.956Y-126.79
X100.05Y-80.77
X101.0Y-60.6
X101.0Y-62.6
X101.632Y-177.925
X102.2Y-84.4
X102.4Y-71.6
X102.6Y-59.4
X103.8Y-54.0
X103.8Y-74.0
X103.8Y-78.4
X103.8Y-84.4
X105.6Y-65.6
X107.0Y-57.6
X109.2Y-102.6
X109.6Y-110.6
X110.4Y-109.0
X115.0Y-74.0
X115.0Y-85.4
X115.2Y-130.8
X116.2Y-87.0
X116.4Y-126.0
X116.8Y-98.8
X116.8Y-123.0
X116.8Y-130.8
X118.0Y-116.2
X118.0Y-126.0
X118.2Y-118.8
X118.797Y-79.446
X119.38Y-84.971
X119.6Y-102.6
X119.6Y-120.6
X119.6Y-128.4
X121.2Y-128.2
X122.0Y-32.6
X122.6Y-130.8
X122.6Y-134.0
X122.8Y-120.2
X122.8Y-123.4
X123.6Y-114.6
X123.6Y-118.6
X124.0Y-71.4
X124.0Y-83.2
X125.0Y-129.6
X125.0Y-134.0
X125.0Y-139.6
X125.2Y-115.8
X126.2Y-106.6
X126.2Y-159.8
X126.4Y-75.2
X127.4Y-113.2
X127.4Y-134.0
X129.0Y-134.0
X130.8Y-89.4
X131.2Y-81.6
X132.4Y-88.2
X132.4Y-106.6
X133.0Y-81.6
X133.0Y-84.8
X134.0Y-107.8
X134.0Y-109.6
X134.6Y-81.6
X134.6Y-86.4
X136.2Y-86.6
X137.0Y-102.8
X137.0Y-134.0
X137.2Y-115.6
X137.2Y-118.6
X137.6Y-211.2
X138.2Y-100.2
X138.384Y-83.544
X138.4Y-122.4
X139.2Y-81.6
X139.4Y-134.0
X139.8Y-202.0
X140.0Y-205.8
X140.8Y-80.4
X140.8Y-127.2
X141.48Y-88.936
X141.6Y-205.2
X141.8Y-103.8
X141.8Y-112.6
X142.709Y-151.938
X142.709Y-203.493
X143.0Y-105.4
X143.4Y-107.2
X143.444Y-81.664
X143.8Y-102.8
X145.0Y-111.4
X145.8Y-126.0
X145.827Y-67.063
X147.2Y-100.0
X148.4Y-72.2
X148.4Y-79.0
X148.8Y-109.2
X149.0Y-105.0
X149.0Y-106.6
X149.0Y-137.2
X149.6Y-122.4
X150.2Y-102.6
X150.4Y-99.6
X150.8Y-86.2
X150.8Y-89.6
X151.0Y-135.2
X151.2Y-123.6
X151.547Y-74.741
X152.0Y-99.6
X152.182Y-78.741
X152.477Y-67.063
X152.6Y-129.6
X153.2Y-87.4
X153.2Y-97.2
X153.4Y-154.8
X153.8Y-79.6
X154.2Y-103.0
X154.2Y-108.2
X154.203Y-122.501
X154.8Y-72.2
X154.8Y-98.4
X155.0Y-74.6
X156.6Y-123.6
X156.6Y-127.2
X156.6Y-128.8
X156.6Y-136.8
X156.6Y-138.4
X157.6Y-169.8
X157.8Y-114.4
X157.8Y-122.0
X158.4Y-76.0
X159.0Y-94.8
X159.0Y-104.2
X159.0Y-146.6
X160.2Y-101.6
X160.2Y-123.6
X160.2Y-126.0
X160.2Y-127.6
X160.2Y-136.8
X160.239Y-69.578
X160.245Y-73.769
X160.4Y-111.8
X160.6Y-94.8
X160.6Y-100.0
X160.695Y-149.607
X160.695Y-176.013
X160.695Y-202.419
X160.695Y-228.825
X161.0Y-122.0
X161.2Y-110.2
X161.4Y-96.4
X161.4Y-142.6
X161.4Y-153.4
X161.4Y-169.0
X161.4Y-174.2
X162.2Y-94.8
X162.6Y-122.0
X162.6Y-186.8
X162.6Y-213.2
X163.8Y-102.8
X163.8Y-108.8
X163.8Y-110.4
X164.4Y-101.2
X164.8Y-115.6
X164.8Y-117.2
X165.0Y-123.6
X165.595Y-140.863
X165.595Y-167.268
X165.595Y-193.668
X165.595Y-220.08
X165.6Y-122.0
X165.6Y-127.0
X165.8Y-163.6
X167.0Y-96.0
X167.4Y-163.6
X167.492Y-113.015
X167.8Y-142.6
X167.8Y-165.6
X168.0Y-118.6
X168.2Y-89.8
X168.2Y-104.2
X169.0Y-124.0
X169.4Y-96.0
X170.0Y-111.8
X170.6Y-109.2
X171.0Y-126.0
X171.4Y-118.6
X171.8Y-96.0
X171.8Y-102.8
X171.8Y-105.4
X171.8Y-130.0
X172.0Y-87.4
X172.2Y-115.2
X172.6Y-146.6
X173.0Y-110.0
X173.0Y-132.4
X173.4Y-97.2
X173.4Y-103.0
X173.4Y-106.8
X173.4Y-122.501
X173.4Y-141.4
X173.4Y-144.0
X176.6Y-91.6
X176.6Y-128.0
X177.6Y-112.8
X177.8Y-96.0
X177.8Y-102.0
X178.4Y-42.0
X179.2Y-87.4
X179.2Y-91.6
X179.2Y-112.8
X180.2Y-98.8
X180.2Y-106.6
X181.8Y-105.4
X182.0Y-94.8
X182.0Y-114.6
X182.0Y-116.2
X182.8Y-122.2
X183.2Y-97.2
X183.2Y-102.2
X183.4Y-104.2
X183.4Y-108.0
X183.4Y-111.6
X184.4Y-85.0
X184.4Y-91.6
X184.4Y-118.6
X186.4Y-118.6
X186.773Y-113.015
X187.315Y-87.501
X187.6Y-98.4
X187.6Y-108.8
X187.6Y-114.6
X188.0Y-117.4
X188.0Y-124.8
X188.07Y-122.463
X188.4Y-110.4
X188.6Y-83.8
X188.8Y-96.8
X188.8Y-102.0
X189.6Y-106.8
X189.6Y-123.6
X189.6Y-146.2
X189.6Y-171.4
X190.6Y-133.6
X190.8Y-109.0
X190.8Y-147.8
X191.0Y-126.6
X191.0Y-141.4
X191.2Y-95.8
X191.2Y-171.4
X191.4Y-101.4
X191.4Y-105.6
X191.4Y-113.4
X191.8Y-162.4
X191.8Y-167.2
X192.8Y-82.2
X192.8Y-104.0
X192.8Y-109.0
X192.8Y-111.8
X193.0Y-135.0
X193.8Y-114.4
X194.2Y-126.4
X194.2Y-128.0
X194.2Y-158.2
X194.2Y-165.6
X194.2Y-167.2
X194.2Y-184.6
X194.2Y-211.0
X194.226Y-151.1
X194.226Y-177.506
X194.226Y-203.914
X194.226Y-230.318
X194.4Y-80.8
X194.4Y-87.4
X194.4Y-89.2
X194.4Y-98.8
X194.4Y-124.8
X194.4Y-141.6
X195.0Y-122.4
X195.0Y-147.8
X195.0Y-149.4
X195.6Y-91.6
X196.2Y-114.4
X196.8Y-102.8
X196.8Y-104.6
X197.6Y-109.0
X198.4Y-105.4
X198.6Y-116.2
X199.126Y-142.346
X199.126Y-168.752
X199.126Y-195.165
X199.126Y-221.564
X199.2Y-109.0
X199.2Y-162.2
X200.2Y-115.0
X200.4Y-112.6
X200.6Y-104.2
X202.2Y-171.0
X205.6Y-166.8
X208.8Y-108.0
X210.0Y-111.8
X210.0Y-153.0
X211.6Y-113.0
X211.8Y-95.8
X212.4Y-107.8
X212.4Y-110.6
X214.0Y-109.2
X214.2Y-142.4
X214.2Y-144.8
X214.2Y-147.8
X214.4Y-105.4
X214.6Y-98.4
X215.0Y-95.6
X215.2Y-120.8
X215.2Y-122.4
X215.6Y-163.8
X216.0Y-159.8
X216.2Y-98.4
X216.4Y-115.4
X217.622Y-113.015
X217.698Y-151.1
X217.698Y-177.506
X217.698Y-203.914
X217.698Y-230.318
X218.0Y-129.6
X218.0Y-163.8
X218.0Y-168.0
X218.4Y-90.4
X218.4Y-98.2
X218.4Y-104.0
X218.4Y-105.6
X218.4Y-108.8
X218.918Y-122.463
X219.2Y-107.2
X219.2Y-111.8
X219.2Y-113.4
X219.2Y-115.8
X219.2Y-124.0
X219.2Y-186.2
X219.6Y-212.6
X221.4Y-86.2
X221.6Y-162.6
X221.6Y-166.8
X222.2Y-98.4
X222.2Y-144.8
X222.597Y-142.346
X222.597Y-168.752
X222.597Y-195.165
X222.597Y-221.564
X222.8Y-165.0
X223.0Y-82.2
X223.0Y-85.0
X223.0Y-87.4
X223.0Y-90.4
X223.4Y-118.6
X223.529Y-122.501
X223.8Y-166.6
X224.0Y-78.4
X224.6Y-80.8
X224.6Y-83.8
X224.6Y-86.2
X224.6Y-89.2
X224.6Y-91.6
X224.6Y-96.8
X224.6Y-98.4
X224.8Y-71.6
X225.4Y-114.4
X225.6Y-128.0
X227.4Y-109.2
X227.6Y-102.8
X227.6Y-106.6
X227.8Y-97.2
X227.8Y-101.2
X229.2Y-105.4
X229.2Y-108.0
X229.4Y-97.2
X229.4Y-111.6
X229.4Y-121.0
X229.6Y-151.2
X230.2Y-124.6
X230.2Y-149.6
X230.2Y-152.8
X231.0Y-96.8
X231.0Y-110.4
X235.0Y-118.6
X236.6Y-96.8
X236.6Y-118.6
X237.8Y-115.8
X238.0Y-146.2
X238.2Y-83.8
X238.8Y-177.6
X239.0Y-151.2
X239.8Y-85.0
X241.4Y-119.0
X241.4Y-120.6
X241.4Y-185.4
X241.421Y-149.607
X241.421Y-176.013
X241.421Y-202.419
X241.421Y-228.825
X241.8Y-122.2
X241.8Y-123.8
X241.8Y-125.8
X242.2Y-146.2
X242.2Y-151.2
X242.2Y-152.8
X243.0Y-115.0
X243.0Y-160.6
X244.361Y-72.889
X244.4Y-208.0
X245.4Y-119.2
X245.8Y-109.0
X246.321Y-140.863
X246.321Y-167.268
X246.321Y-193.668
X246.321Y-220.08
X247.2Y-74.2
X247.4Y-77.2
X247.4Y-106.6
X247.4Y-109.2
X247.8Y-119.6
X248.6Y-118.0
X249.8Y-89.2
X250.2Y-101.6
X251.4Y-90.4
X252.6Y-109.0
X252.6Y-119.2
X253.0Y-91.6
X253.0Y-114.2
X253.4Y-120.8
X253.8Y-106.6
X253.8Y-112.6
X254.2Y-100.2
X254.2Y-118.0
X254.6Y-115.4
X255.4Y-68.8
X255.4Y-97.2
X255.8Y-119.2
X256.8Y-58.6
X257.0Y-115.4
X257.189Y-113.015
X257.6Y-97.2
X257.8Y-109.2
X258.0Y-111.4
X258.2Y-117.0
X258.2Y-118.6
X258.6Y-68.8
X258.8Y-55.0
X259.4Y-109.0
X260.2Y-101.6
X260.6Y-104.2
X260.6Y-106.6
X260.6Y-113.0
X260.6Y-152.0
X261.8Y-100.2
X261.817Y-56.465
X262.2Y-106.6
X262.963Y-52.515
X263.0Y-95.8
X263.0Y-98.4
X263.096Y-122.501
X263.2Y-212.0
X263.217Y-149.607
X263.217Y-176.013
X263.217Y-202.419
X263.217Y-228.825
X263.942Y-71.131
X264.8Y-160.0
X264.8Y-186.4
X264.852Y-76.581
X266.0Y-114.2
X266.0Y-125.8
X266.4Y-69.4
X267.0Y-105.4
X267.2Y-102.8
X267.2Y-108.0
X267.2Y-110.4
X267.2Y-151.4
X268.117Y-140.863
X268.117Y-167.268
X268.117Y-193.668
X268.117Y-220.08
X268.8Y-103.0
X268.8Y-106.6
X268.8Y-109.2
X268.8Y-111.8
X269.0Y-73.4
X269.002Y-68.908
X272.0Y-25.0
X272.0Y-33.0
X272.0Y-41.0
X272.755Y-75.06
X272.8Y-68.8
X273.0Y-73.4
X274.883Y-56.95
X275.4Y-58.6
X276.2Y-125.0
X277.777Y-69.218
X277.8Y-123.8
X278.0Y-130.0
X278.6Y-122.2
X278.8Y-117.0
X280.2Y-118.6
X280.2Y-122.2
X280.2Y-146.2
X280.2Y-150.0
X281.498Y-57.842
X283.2Y-57.8
X284.173Y-153.25
X284.173Y-178.812
X284.173Y-204.392
X284.173Y-229.96
X285.8Y-142.8
X285.8Y-168.2
X285.8Y-193.8
X285.8Y-219.4
X287.0Y-157.2
X289.0Y-9.0
X289.0Y-17.0
X289.074Y-140.617
X289.074Y-166.129
X289.074Y-191.712
X289.074Y-217.279
X289.95Y-23.46
X289.95Y-28.54
X294.4Y-125.2
X295.0Y-88.6
X295.2Y-70.4
X295.65Y-23.46
X295.65Y-28.54
X296.2Y-85.0
X297.65Y-127.96
X298.0Y-115.0
X298.2Y-103.0
X298.95Y-130.54
X299.0Y-120.8
X299.8Y-102.8
X300.6Y-122.2
X301.4Y-102.8
X301.4Y-109.0
X303.0Y-33.0
X303.0Y-102.8
X303.0Y-107.8
X303.0Y-117.0
X303.0Y-118.6
X303.0Y-123.4
X303.0Y-141.8
X303.0Y-146.2
X303.6Y-220.6
X304.65Y-130.54
X304.787Y-71.45
X304.787Y-77.36
X306.4Y-162.6
X307.0Y-106.6
X308.735Y-153.25
X308.735Y-178.812
X308.735Y-204.392
X308.735Y-229.96
X309.0Y-188.2
X309.2Y-138.8
X310.4Y-168.2
X311.0Y-25.0
X311.0Y-33.0
X311.6Y-105.2
X311.6Y-121.4
X313.635Y-140.617
X313.635Y-166.129
X313.635Y-191.712
X313.635Y-217.279
X319.0Y-25.0
X319.0Y-33.0
X320.4Y-120.2
X320.6Y-114.2
X320.6Y-127.0
X321.8Y-109.6
X322.2Y-91.6
X323.0Y-127.0
X323.8Y-91.6
X324.6Y-125.8
X325.4Y-129.4
X326.2Y-124.6
X327.4Y-140.2
X327.4Y-146.2
X327.8Y-118.6
X327.8Y-123.4
X327.8Y-128.2
X327.8Y-141.8
X328.2Y-117.0
X329.6Y-127.0
X330.0Y-115.0
X330.2Y-157.0
X331.4Y-145.0
X331.4Y-155.4
X332.597Y-153.695
X332.6Y-143.0
X333.008Y-116.255
X333.008Y-127.685
X333.2Y-145.4
X333.8Y-121.4
X333.8Y-123.4
X333.8Y-125.8
X334.0Y-148.0
X334.2Y-100.4
X334.465Y-173.636
X334.6Y-140.6
X335.4Y-120.2
X335.608Y-204.57
X335.608Y-225.108
X335.8Y-157.4
X336.2Y-126.4
X336.2Y-170.0
X337.0Y-114.2
X337.2Y-120.4
X337.4Y-157.4
X338.4Y-150.0
X338.475Y-173.636
X338.6Y-140.6
X338.8Y-120.0
X338.8Y-127.6
X339.0Y-125.2
X339.6Y-170.0
X339.8Y-91.6
X339.8Y-97.0
X340.0Y-66.0
X340.0Y-74.0
X340.4Y-129.0
X341.0Y-24.0
X341.0Y-32.0
X341.6Y-217.8
X341.682Y-204.57
X341.689Y-225.108
X341.8Y-172.4
X341.802Y-150.584
X342.062Y-38.008
X342.308Y-117.525
X342.4Y-146.0
X342.8Y-126.4
X343.0Y-119.2
X343.0Y-124.6
X343.0Y-189.8
X343.558Y-97.561
X343.6Y-144.2
X343.8Y-99.2
X344.0Y-82.0
X344.0Y-91.4
X344.4Y-150.2
X344.6Y-167.4
X345.0Y-75.0
X345.0Y-85.0
X345.2Y-198.6
X345.2Y-207.2
X346.214Y-210.483
X346.304Y-231.44
X346.4Y-192.0
X346.612Y-188.076
X346.618Y-122.92
X346.619Y-222.255
X346.8Y-162.4
X347.0Y-217.6
X347.2Y-174.2
X347.4Y-172.6
X347.4Y-186.4
X347.6Y-203.0
X347.632Y-166.141
X347.8Y-219.2
X348.0Y-74.0
X348.0Y-90.0
X348.0Y-98.0
X348.2Y-150.2
X348.4Y-145.8
X348.76Y-47.65
X349.0Y-24.0
X350.0Y-95.0
X350.0Y-145.8
X350.0Y-164.2
X350.2Y-173.2
X351.24Y-47.65
X351.4Y-130.2
X351.4Y-189.6
X351.562Y-170.842
X351.6Y-168.4
X351.882Y-162.599
X352.0Y-82.0
X352.4Y-144.6
X353.05Y-153.527
X353.4Y-155.2
X353.4Y-204.6
X354.4Y-123.8
X354.6Y-149.0
X354.6Y-159.4
X354.6Y-172.4
X354.6Y-174.8
X355.0Y-75.0
X355.0Y-85.0
X355.0Y-105.0
X355.8Y-154.8
X355.8Y-166.8
X355.8Y-220.8
X355.844Y-162.596
X356.0Y-90.0
X356.0Y-98.0
X357.0Y-177.4
X357.0Y-219.2
X358.6Y-147.4
X359.806Y-173.636
X362.0Y-24.0
X362.0Y-32.0
X362.16Y-47.65
X362.219Y-150.584
X363.0Y-152.2
X364.6Y-151.6
X364.64Y-47.65
X365.0Y-105.0
X365.4Y-217.6
X366.6Y-222.4
X366.8Y-127.4
X366.8Y-167.2
X367.2Y-183.8
X367.2Y-196.8
X367.4Y-207.2
X368.0Y-70.0
X368.0Y-78.0
X368.0Y-86.0
X368.0Y-98.0
X368.0Y-106.0
X368.0Y-146.4
X368.2Y-171.4
X368.291Y-210.483
X368.291Y-220.963
X368.296Y-200.005
X368.321Y-231.44
X368.4Y-217.6
X369.2Y-151.6
X369.4Y-183.8
X369.4Y-203.8
X369.836Y-175.182
X370.0Y-24.0
X370.0Y-32.0
X370.0Y-48.0
X370.0Y-70.0
X370.0Y-80.0
X370.0Y-90.0
X370.0Y-199.0
X370.4Y-162.6
X370.6Y-173.4
X370.8Y-171.2
X370.8Y-190.2
X370.8Y-193.4
X371.0Y-180.8
X371.2Y-145.8
X371.2Y-197.4
X371.4Y-140.6
X371.615Y-165.822
X371.8Y-216.0
X372.4Y-171.2
X372.4Y-236.8
X372.6Y-190.2
X372.6Y-224.0
X372.8Y-155.0
X374.0Y-203.8
X374.2Y-206.2
X374.28Y-153.444
X374.4Y-162.6
X374.4Y-186.6
X374.6Y-143.4
X375.0Y-105.0
X375.0Y-169.4
X375.593Y-165.825
X376.0Y-138.6
X376.6Y-172.4
X377.8Y-166.4
X379.2Y-154.8
X380.6Y-175.2
X381.4Y-162.2
X381.6Y-155.8
X381.6Y-157.4
X381.6Y-159.0
X381.6Y-160.6
X381.6Y-172.6
X382.0Y-138.6
X382.6Y-198.6
X382.8Y-152.4
X383.0Y-176.2
X383.442Y-150.584
X383.5Y-143.4
X383.6Y-138.6
X384.4Y-153.4
X384.6Y-94.8
X384.762Y-170.063
X385.2Y-143.2
X386.501Y-204.57
X386.501Y-225.108
X386.8Y-155.8
X386.8Y-161.8
X387.648Y-153.444
X388.0Y-143.0
X388.8Y-219.0
X388.975Y-173.972
X389.4Y-152.6
X390.2Y-197.2
X390.6Y-155.8
X391.6Y-139.4
X391.6Y-170.2
X392.611Y-204.57
X392.611Y-225.108
X392.936Y-173.636
X394.0Y-138.2
X394.0Y-140.6
X395.4Y-159.0
X395.6Y-152.4
X396.6Y-160.6
X396.826Y-150.584
X396.897Y-173.636
X397.0Y-158.2
X397.4Y-152.2
X398.6Y-144.6
X399.0Y-152.0
X399.4Y-157.0
X400.2Y-143.4
X401.0Y-156.8
X402.2Y-150.4
X402.2Y-152.0
X402.2Y-158.4
X403.4Y-156.8
X403.6Y-187.2
X403.6Y-204.2
X404.6Y-140.6
X404.6Y-143.0
X405.0Y-147.2
X405.0Y-150.4
X405.058Y-171.132
X405.8Y-241.0
X407.6Y-237.0
X408.2Y-231.2
X408.4Y-228.2
X408.6Y-179.4
X408.6Y-196.2
X408.6Y-213.2
X409.0Y-159.6
X409.0Y-161.2
X409.0Y-162.8
X409.0Y-164.4
X409.0Y-187.0
X409.0Y-204.0
X409.0Y-220.8
X409.2Y-222.4
X410.0Y-156.6
X411.0Y-150.8
X411.4Y-185.4
X416.0Y-167.4
X416.8Y-163.6
X416.8Y-172.0
X417.6Y-166.0
X418.179Y-155.981
X418.4Y-162.2
X420.0Y-178.0
X421.66Y-176.761
X422.0Y-165.2
X422.15Y-158.128
X422.2Y-173.0
X422.4Y-168.8
X422.4Y-170.4
X423.4Y-179.0
X424.2Y-202.6
X424.6Y-176.4
X425.4Y-212.2
X425.4Y-229.0
X426.0Y-171.6
X426.0Y-174.0
X426.6Y-245.8
X427.6Y-172.8
X427.6Y-175.2
X431.6Y-166.6
X431.6Y-170.4
X431.6Y-195.2
X431.6Y-197.6
X431.6Y-202.4
X431.6Y-211.6
X431.6Y-219.2
X431.6Y-228.4
X431.6Y-236.0
X431.6Y-245.2
X434.0Y-185.4
X434.0Y-193.6
T3
X15.48Y-79.943
X15.48Y-82.483
X15.48Y-85.023
X15.48Y-87.563
X15.48Y-90.103
X15.48Y-92.643
X15.48Y-95.183
X15.48Y-97.723
X15.48Y-100.263
X15.48Y-102.803
X20.65Y-89.583
X20.65Y-92.123
X20.65Y-94.663
X20.65Y-97.203
X20.65Y-99.743
X20.65Y-102.283
X20.65Y-104.823
X20.65Y-107.363
X20.65Y-109.903
X20.65Y-112.443
T4
X5.68Y-87.819
X5.68Y-90.359
X5.68Y-92.899
X5.68Y-95.439
X5.68Y-97.979
X5.68Y-100.519
X5.68Y-103.059
X5.68Y-105.599
X5.68Y-108.139
X5.68Y-110.679
X5.68Y-113.219
X5.68Y-115.759
X5.68Y-118.299
X5.68Y-120.839
X5.68Y-123.379
X5.68Y-125.919
X5.68Y-128.459
X8.22Y-87.819
X8.22Y-90.359
X8.22Y-92.899
X8.22Y-95.439
X8.22Y-97.979
X8.22Y-100.519
X8.22Y-103.059
X8.22Y-105.599
X8.22Y-108.139
X8.22Y-110.679
X8.22Y-113.219
X8.22Y-115.759
X8.22Y-118.299
X8.22Y-120.839
X8.22Y-123.379
X8.22Y-125.919
X8.22Y-128.459
T5
X12.8Y-211.2
X15.4Y-229.6
X20.2Y-115.8
X21.0Y-34.2
X21.6Y-222.6
X34.2Y-194.8
X34.2Y-218.4
X36.6Y-43.4
X38.4Y-63.2
X41.8Y-164.0
X49.0Y-230.0
X52.0Y-16.0
X52.2Y-261.2
X52.2Y-268.4
X59.6Y-84.6
X62.4Y-49.0
X63.0Y-162.0
X63.6Y-151.0
X63.6Y-245.2
X63.8Y-52.0
X64.0Y-119.4
X65.6Y-80.4
X67.6Y-84.6
X68.0Y-63.6
X68.0Y-67.4
X73.4Y-70.4
X75.6Y-222.0
X76.6Y-76.8
X78.2Y-141.6
X78.8Y-70.0
X81.2Y-139.0
X83.0Y-46.0
X84.6Y-69.6
X93.4Y-133.0
X95.8Y-36.0
X96.6Y-175.8
X99.2Y-135.2
X100.6Y-67.8
X101.0Y-187.6
X101.6Y-52.0
X107.4Y-46.0
X107.6Y-160.2
X108.0Y-49.0
X110.2Y-196.2
X110.2Y-199.2
X110.4Y-65.0
X110.4Y-69.4
X114.0Y-160.2
X116.2Y-217.4
X118.4Y-52.0
X120.6Y-242.2
X124.0Y-160.2
X126.2Y-256.4
X133.4Y-236.2
X135.6Y-219.6
X137.8Y-199.8
X137.8Y-242.2
X140.0Y-236.2
X141.0Y-253.0
X141.6Y-209.8
X142.0Y-160.6
X142.0Y-212.8
X146.0Y-75.4
X147.6Y-185.6
X150.6Y-159.2
X153.0Y-157.0
X154.6Y-49.6
X154.6Y-77.6
X157.8Y-209.8
X157.8Y-236.2
X160.8Y-79.0
X160.8Y-178.8
X163.6Y-242.2
X164.6Y-236.2
X165.4Y-185.2
X167.6Y-211.6
X168.0Y-60.2
X168.0Y-76.4
X168.6Y-52.0
X170.4Y-60.2
X170.4Y-66.4
X171.0Y-176.6
X171.6Y-48.4
X172.2Y-152.8
X176.0Y-236.2
X180.0Y-236.2
X180.6Y-40.0
X183.6Y-206.8
X196.0Y-213.0
X197.2Y-242.2
X197.6Y-233.6
X200.0Y-119.2
X200.4Y-165.2
X201.0Y-197.4
X202.0Y-236.2
X202.6Y-112.4
X203.8Y-177.8
X205.4Y-233.6
X207.6Y-181.0
X207.6Y-242.2
X209.8Y-177.2
X211.4Y-41.2
X211.4Y-47.8
X212.0Y-44.8
X214.2Y-236.0
X214.8Y-50.2
X214.8Y-195.0
X216.4Y-184.2
X217.8Y-207.2
X217.8Y-233.6
X218.0Y-227.8
X220.2Y-63.8
X221.2Y-246.6
X221.6Y-210.6
X221.8Y-233.6
X223.2Y-192.0
X224.4Y-155.6
X226.8Y-38.2
X228.0Y-180.0
X231.0Y-155.6
X231.6Y-174.0
X233.0Y-122.4
X233.0Y-128.2
X233.0Y-148.6
X233.2Y-210.2
X234.6Y-41.2
X234.6Y-56.6
X234.6Y-180.0
X235.4Y-219.0
X236.0Y-70.4
X237.6Y-38.2
X237.6Y-41.8
X237.6Y-47.8
X237.6Y-222.2
X238.6Y-174.0
X239.8Y-205.2
X240.2Y-53.8
X240.8Y-211.6
X241.8Y-242.2
X243.2Y-48.4
X243.2Y-64.0
X246.2Y-38.2
X246.2Y-41.8
X246.2Y-53.8
X247.6Y-217.0
X248.4Y-64.0
X249.6Y-181.8
X249.6Y-236.0
X250.4Y-174.0
X250.4Y-228.0
X251.0Y-48.4
X251.0Y-51.4
X254.0Y-42.4
X255.6Y-179.6
X256.4Y-216.2
X257.0Y-51.4
X257.0Y-157.2
X257.0Y-175.0
X257.4Y-228.6
X257.6Y-46.0
X260.6Y-69.2
X261.0Y-160.2
X261.6Y-178.0
X266.0Y-233.8
X266.4Y-178.0
X267.2Y-210.0
X267.6Y-52.8
X271.0Y-164.2
X272.6Y-233.8
X273.2Y-160.6
X273.4Y-181.4
X275.6Y-160.6
X277.0Y-6.8
X277.8Y-166.4
X277.8Y-181.4
X279.8Y-153.0
X280.4Y-159.8
X280.6Y-69.0
X281.2Y-185.0
X281.4Y-211.8
X285.0Y-20.8
X289.8Y-157.4
X290.8Y-144.6
X291.0Y-140.2
X293.6Y-244.0
X295.6Y-61.4
X295.6Y-254.8
X295.8Y-222.2
X295.8Y-230.8
X304.0Y-159.2
X304.8Y-254.8
X304.8Y-257.2
X305.4Y-232.6
X306.0Y-17.2
X306.0Y-185.4
X306.0Y-211.8
X309.0Y-24.4
X310.4Y-20.8
X311.0Y-66.0
X311.4Y-83.6
X311.4Y-97.6
X312.2Y-235.6
X312.8Y-180.2
X312.8Y-184.6
X313.6Y-78.8
X314.0Y-17.2
X314.4Y-223.0
X315.0Y-255.6
X315.6Y-244.0
X316.4Y-134.2
X317.4Y-97.6
X319.4Y-82.8
X319.4Y-164.2
X319.6Y-74.4
X320.2Y-88.8
X322.6Y-166.4
X323.0Y-182.4
X323.0Y-186.2
X324.6Y-149.0
X329.0Y-186.2
X329.0Y-244.0
X329.8Y-166.6
X331.0Y-253.4
X331.2Y-238.0
X332.8Y-255.8
X333.8Y-150.2
X335.6Y-47.0
X338.6Y-36.0
X340.2Y-238.0
X340.6Y-137.6
X342.4Y-61.4
X342.4Y-233.6
X342.4Y-244.0
X343.6Y-156.4
X344.6Y-50.0
X349.4Y-102.2
X349.4Y-185.6
X351.8Y-202.6
X352.4Y-102.6
X354.0Y-54.2
X354.2Y-131.0
X354.2Y-218.8
X359.8Y-90.6
X359.8Y-98.6
X360.2Y-105.2
X363.4Y-75.2
X365.0Y-136.6
X370.4Y-219.4
X371.0Y-37.8
X371.0Y-61.4
X373.8Y-136.6
X374.6Y-97.6
X383.0Y-144.8
X383.6Y-44.4
X385.8Y-54.2
X387.2Y-237.4
X387.8Y-254.6
X388.0Y-168.4
X388.8Y-149.6
X397.4Y-147.0
X399.0Y-170.4
X400.2Y-15.0
X401.6Y-41.4
X401.8Y-90.4
X403.8Y-101.6
X405.0Y-232.6
X405.2Y-224.0
X405.6Y-177.0
X405.6Y-190.2
X405.6Y-207.0
X405.8Y-199.2
X406.0Y-182.4
X406.0Y-216.0
X407.4Y-15.0
X411.4Y-101.6
X412.6Y-152.8
X413.0Y-158.6
X415.4Y-154.0
X418.0Y-118.2
X418.0Y-140.6
X418.8Y-94.4
X422.2Y-200.2
X424.2Y-30.8
X424.2Y-46.4
X426.2Y-240.6
X427.4Y-207.2
X427.4Y-215.0
X427.4Y-223.6
X427.4Y-232.0
X427.8Y-76.4
X431.0Y-193.2
X436.8Y-184.4
T6
X39.232Y-76.284
X46.776Y-61.614
X47.195Y-93.469
X65.638Y-93.469
X113.847Y-65.89
X113.847Y-70.89
X133.484Y-60.186
X133.484Y-65.186
X241.868Y-78.895
X241.868Y-83.895
X245.785Y-112.749
X245.785Y-121.132
X254.418Y-78.923
X254.418Y-83.923
X308.069Y-77.518
X308.283Y-50.297
X411.43Y-139.993
T7
X38.393Y-156.734
X38.393Y-159.274
X38.393Y-161.814
X78.044Y-129.909
X78.044Y-132.449
X78.044Y-134.989
X78.044Y-182.302
X78.044Y-184.842
X78.044Y-187.382
X117.444Y-207.45
X117.444Y-209.99
X117.444Y-212.53
X128.341Y-155.057
X128.341Y-157.597
X128.341Y-160.137
X347.46Y-32.65
X347.46Y-53.35
X350.0Y-32.65
X350.0Y-53.35
X352.54Y-32.65
X352.54Y-53.35
X360.86Y-17.65
X363.4Y-17.65
X365.94Y-17.65
X373.46Y-77.35
X376.0Y-77.35
X378.54Y-77.35
T8
X77.323Y-15.927
X79.863Y-15.927
X82.403Y-15.927
X84.943Y-15.927
X87.483Y-15.927
X349.045Y-244.779
X349.045Y-257.772
X349.045Y-267.49
X351.585Y-244.779
X351.585Y-257.772
X351.585Y-267.49
X354.125Y-244.779
X354.125Y-257.772
X354.125Y-267.49
X356.665Y-244.779
X356.665Y-257.772
X356.665Y-267.49
X359.205Y-244.779
X359.205Y-257.772
X359.205Y-267.49
X361.745Y-244.779
X361.745Y-257.772
X361.745Y-267.49
X364.285Y-244.779
X364.285Y-257.772
X364.285Y-267.49
X366.825Y-244.779
X366.825Y-257.772
X366.825Y-267.49
X369.365Y-244.779
X369.365Y-257.772
X369.365Y-267.49
T9
X93.474Y-30.703
X93.474Y-38.203
X98.474Y-30.703
X98.474Y-38.203
X103.474Y-30.703
X103.474Y-38.203
X118.474Y-30.703
X118.474Y-38.203
T10
X242.988Y-14.304
X242.988Y-32.304
X254.588Y-14.304
X260.988Y-32.304
T11
X7.61Y-163.489
X7.61Y-167.449
X7.61Y-171.409
X7.61Y-175.369
X7.61Y-179.329
X7.61Y-183.289
X7.61Y-187.249
X7.61Y-202.042
X7.61Y-206.002
X7.61Y-209.962
X7.61Y-213.922
X7.61Y-217.882
X7.61Y-221.842
X7.61Y-225.802
X7.61Y-229.762
X7.61Y-233.722
X7.61Y-237.682
X7.61Y-241.642
X7.61Y-245.602
X16.107Y-247.713
X16.107Y-265.3
X20.067Y-247.713
X20.067Y-265.3
X21.39Y-204.038
X21.39Y-218.624
X21.39Y-233.211
X24.027Y-247.713
X24.027Y-265.3
X27.987Y-247.713
X27.987Y-265.3
X28.15Y-204.038
X28.15Y-218.624
X28.15Y-233.211
X35.387Y-247.713
X37.74Y-204.038
X37.74Y-218.624
X37.74Y-233.211
X38.625Y-265.3
X39.347Y-247.713
X42.585Y-265.3
X43.307Y-247.713
X44.5Y-204.038
X44.5Y-218.624
X44.5Y-233.211
X46.545Y-265.3
X47.267Y-247.713
X51.43Y-11.736
X55.39Y-11.736
X57.255Y-29.102
X57.255Y-35.862
X57.255Y-45.452
X57.255Y-52.212
X59.35Y-11.736
X59.418Y-265.3
X63.31Y-11.736
X63.378Y-265.3
X66.238Y-218.624
X66.238Y-233.211
X67.27Y-11.736
X67.338Y-265.3
X70.399Y-247.713
X71.298Y-265.3
X72.998Y-218.624
X72.998Y-233.211
X74.359Y-247.713
X75.258Y-265.3
X78.319Y-247.713
X79.218Y-265.3
X79.902Y-92.63
X82.279Y-247.713
X82.588Y-218.624
X82.588Y-233.211
X83.178Y-265.3
X86.239Y-247.713
X86.662Y-92.63
X87.138Y-265.3
X89.348Y-218.624
X89.348Y-233.211
X90.199Y-247.713
X91.098Y-265.3
X94.159Y-247.713
X95.058Y-265.3
X96.252Y-92.63
X98.119Y-247.713
X99.018Y-265.3
X102.079Y-247.713
X103.012Y-92.63
X106.039Y-247.713
X106.382Y-11.736
X109.999Y-247.713
X110.342Y-11.736
X112.669Y-265.3
X114.302Y-11.736
X116.629Y-265.3
X118.262Y-11.736
X120.589Y-265.3
X121.26Y-247.713
X122.222Y-11.736
X124.549Y-265.3
X125.22Y-247.713
X126.182Y-11.736
X128.509Y-265.3
X129.18Y-247.713
X130.142Y-11.736
X132.469Y-265.3
X133.14Y-247.713
X134.102Y-11.736
X136.429Y-265.3
X137.1Y-247.713
X138.062Y-11.736
X140.389Y-265.3
X144.349Y-265.3
X144.983Y-247.713
X148.943Y-247.713
X149.154Y-11.736
X152.903Y-247.713
X153.114Y-11.736
X156.863Y-247.713
X157.074Y-11.736
X160.823Y-247.713
X161.034Y-11.736
X164.994Y-11.736
X165.142Y-53.161
X165.142Y-59.921
X165.142Y-69.511
X165.142Y-76.271
X168.954Y-11.736
X172.914Y-11.736
X175.416Y-265.3
X179.376Y-265.3
X180.483Y-53.161
X180.483Y-59.921
X180.483Y-69.511
X180.483Y-76.271
X183.336Y-265.3
X186.522Y-247.713
X187.296Y-265.3
X190.482Y-247.713
X191.256Y-265.3
X194.442Y-247.713
X194.797Y-11.736
X195.216Y-265.3
X196.494Y-53.161
X196.494Y-59.921
X196.494Y-69.511
X196.494Y-76.271
X198.402Y-247.713
X198.757Y-11.736
X199.176Y-265.3
X202.362Y-247.713
X202.717Y-11.736
X203.136Y-265.3
X206.322Y-247.713
X207.096Y-265.3
X207.886Y-33.95
X210.282Y-247.713
X211.056Y-265.3
X211.834Y-53.161
X211.834Y-59.921
X211.834Y-69.511
X211.834Y-76.271
X211.846Y-33.95
X214.242Y-247.713
X214.309Y-11.736
X215.016Y-265.3
X215.806Y-33.95
X218.202Y-247.713
X218.269Y-11.736
X218.976Y-265.3
X219.766Y-33.95
X222.229Y-11.736
X222.936Y-265.3
X223.726Y-33.95
X226.189Y-11.736
X227.343Y-53.161
X227.343Y-59.921
X227.343Y-69.511
X227.343Y-76.271
X227.686Y-33.95
X230.149Y-11.736
X236.651Y-247.713
X237.027Y-265.3
X240.611Y-247.713
X240.987Y-265.3
X244.571Y-247.713
X244.947Y-265.3
X248.531Y-247.713
X248.907Y-265.3
X252.491Y-247.713
X252.867Y-265.3
X256.451Y-247.713
X259.66Y-265.3
X260.411Y-247.713
X263.62Y-265.3
X264.371Y-247.713
X267.58Y-265.3
X268.331Y-247.713
X271.54Y-265.3
X275.5Y-265.3
X290.637Y-247.713
X294.597Y-247.713
X298.473Y-265.3
X298.557Y-247.713
X302.433Y-265.3
X302.517Y-247.713
X306.393Y-265.3
X306.477Y-247.713
X310.353Y-265.3
X310.437Y-247.713
X314.313Y-265.3
X314.397Y-247.713
X318.357Y-247.713
X322.317Y-247.713
X323.621Y-265.3
X327.581Y-265.3
X331.541Y-265.3
X335.501Y-265.3
X339.461Y-265.3
X376.453Y-265.3
X380.413Y-265.3
X384.373Y-265.3
X389.396Y-46.525
X389.396Y-61.614
X389.396Y-76.451
X389.396Y-91.373
X390.979Y-246.875
X390.979Y-265.3
X392.612Y-10.898
X392.612Y-33.531
X394.939Y-246.875
X394.939Y-265.3
X396.156Y-46.525
X396.156Y-61.614
X396.156Y-76.451
X396.156Y-91.373
X396.572Y-10.898
X396.572Y-33.531
X398.899Y-246.875
X398.899Y-265.3
X400.532Y-10.898
X400.532Y-33.531
X402.859Y-246.875
X402.859Y-265.3
X404.492Y-10.898
X404.492Y-33.531
X405.746Y-46.525
X405.746Y-61.614
X405.746Y-76.451
X405.746Y-91.373
X406.819Y-246.875
X406.819Y-265.3
X408.452Y-10.898
X408.452Y-33.531
X410.779Y-246.875
X410.779Y-265.3
X412.506Y-46.525
X412.506Y-61.614
X412.506Y-76.451
X412.506Y-91.373
X414.739Y-246.875
X414.739Y-265.3
X418.699Y-246.875
X418.699Y-265.3
X422.659Y-246.875
X422.659Y-265.3
X431.968Y-28.01
X431.968Y-31.97
X431.968Y-35.93
X431.968Y-39.89
X431.968Y-49.714
X431.968Y-53.674
X431.968Y-57.634
X431.968Y-61.594
X431.968Y-65.554
X431.968Y-69.514
X431.968Y-73.474
X431.968Y-77.434
X431.968Y-81.394
X431.968Y-101.288
X431.968Y-105.248
X431.968Y-109.208
X431.968Y-113.168
X431.968Y-117.128
X431.968Y-121.088
X431.968Y-125.048
T12
X16.6Y-57.0
X16.6Y-67.0
X299.0Y-89.056
X299.0Y-99.056
X324.583Y-53.345
X324.583Y-63.345
X325.951Y-16.46
X325.951Y-26.46
X326.508Y-88.469
X326.508Y-98.469
X356.049Y-117.863
X366.049Y-117.863
X394.694Y-117.527
X404.694Y-117.527
M30
