v 2.65 1.7 1.45
v 2.65 1.7 0.95
v 2.65 2.5 1.45
newmtl 1
Ka 0.7686274509803922 0.7686274509803922 0.7686274509803922
Kd 0.7686274509803922 0.7686274509803922 0.7686274509803922
Ks 0.615686274509804 0.615686274509804 0.615686274509804
d 0.0
endmtl
v 2.65 2.5 0.95
v 1.95 1.7 1.45
v 1.95 2.5 1.45
v 1.95 1.7 0.95
v 1.95 2.5 0.95
v 5.5 2.55 2.3
v 5.5 3.698142 2.3
v 4.012852 3.698142 2.3
newmtl 2
Ka 0.25098039215686274 0.25098039215686274 0.25098039215686274
Kd 0.25098039215686274 0.25098039215686274 0.25098039215686274
Ks 0.07450980392156863 0.07450980392156863 0.07450980392156863
d 0.0
endmtl
v 2.114747 5.670327 2.3
v 2.114747 8.35296 2.3
v 1.495305 8.35296 2.3
v 5.5 5.670327 2.3
v 5.5 8.35296 2.3
v 4.012852 8.35296 2.3
v 4.25454 5.636993 2.3
v 4.259529 5.63754 2.3
v 4.012852 5.63754 2.3
v 2.547907 4.975675 2.3
v 2.550524 4.979617 2.3
v 2.287922 4.979617 2.3
v 0.622607 5.567595 2.3
v 0.351569 5.567595 2.3
v 0.351569 4.979617 2.3
v 0.622607 5.659398 2.3
v 0.622607 5.63754 2.3
v 0.648998 5.63754 2.3
v 0.648998 4.979617 2.3
v 0.351569 4.859398 2.3
v 0.24665 4.979617 2.3
v 0.24665 5.567595 2.3
v -0.462194 4.979617 2.3
v -0.024388 5.567595 2.3
v -0.462194 5.63754 2.3
v -0.024388 5.63754 2.3
v -0.462194 5.670327 2.3
v -0.024388 5.659398 2.3
v 0.648998 5.670327 2.3
v 1.495305 5.63754 2.3
v 1.257499 5.63754 2.3
v 1.286897 5.623231 2.3
v 1.495305 4.979617 2.3
v 1.457903 5.257212 2.3
v 1.448272 5.161739 2.3
v 1.352985 5.567595 2.3
v 1.397201 5.498917 2.3
v 1.439653 5.390383 2.3
v 1.214444 5.658497 2.3
v 1.495305 5.670327 2.3
v 1.157927 5.670327 2.3
v 0.871816 5.63754 2.3
v 0.875202 5.639808 2.3
v 1.115289 5.679252 2.3
v 1.068832 5.681256 2.3
v 0.648998 8.35296 2.3
v 0.971288 5.670327 2.3
v 0.953613 5.668347 2.3
v 0.698334 5.41115 2.3
v 0.739721 5.507199 2.3
v 0.806537 5.593824 2.3
v 0.76024 4.979617 2.3
v 0.739025 5.012965 2.3
v 0.693402 5.126265 2.3
v 0.67539 5.257212 2.3
v 0.676566 5.281977 2.3
v 0.24665 4.859398 2.3
v -0.462194 3.698142 2.3
v 0.648998 3.698142 2.3
v 0.767193 4.968688 2.3
v 1.324488 4.928646 2.3
v 1.261864 4.887664 2.3
v 1.495305 3.698142 2.3
v 1.414654 5.052658 2.3
v 1.369514 4.979617 2.3
v 1.357357 4.959945 2.3
v 0.979119 4.853396 2.3
v 0.885814 4.880796 2.3
v 0.825856 4.914709 2.3
v 1.182263 4.8589 2.3
v 1.068832 4.846283 2.3
v 1.04301 4.846829 2.3
v 1.558716 5.447139 2.3
v 1.581981 5.515078 2.3
v 1.550192 5.36213 2.3
v 1.53853 4.92442 2.3
v 1.55349 4.979617 2.3
v 1.558764 4.999076 2.3
v 1.669072 5.466098 2.3
v 1.656569 5.422565 2.3
v 1.799814 5.554241 2.3
v 1.650739 5.36213 2.3
v 1.808116 5.55448 2.3
v 1.594289 5.065 2.3
v 1.645082 5.121 2.3
v 1.716313 5.16978 2.3
v 1.821231 5.230983 2.3
v 1.880746 5.268967 2.3
v 1.620138 5.571967 2.3
v 1.640696 5.591209 2.3
v 1.681771 5.617597 2.3
v 1.934892 5.314043 2.3
v 1.942547 5.326278 2.3
v 1.958144 5.361871 2.3
v 1.965493 5.414589 2.3
v 1.965438 5.415247 2.3
v 1.957781 5.458972 2.3
v 1.915945 5.522193 2.3
v 1.889722 5.537867 2.3
v 1.854339 5.54923 2.3
v 1.757165 5.54801 2.3
v 1.729234 5.536932 2.3
v 1.685383 5.497197 2.3
v 1.705603 5.520422 2.3
v 1.945946 5.487269 2.3
v 1.927518 5.511811 2.3
v 1.641996 4.951201 2.3
v 2.070411 4.951201 2.3
v 2.114747 4.979617 2.3
v 2.070411 4.859398 2.3
v 2.065286 5.3506 2.3
v 2.048921 5.306125 2.3
v 2.017109 5.564244 2.3
v 2.114747 5.63754 2.3
v 1.982818 5.596325 2.3
v 1.9406 5.620575 2.3
v 2.019633 5.261963 2.3
v 1.955803 5.203852 2.3
v 1.856203 5.147923 2.3
v 2.042365 5.525312 2.3
v 2.060823 5.474835 2.3
v 2.070411 5.410218 2.3
v 1.773143 5.099835 2.3
v 1.713949 5.060733 2.3
v 1.672913 5.019737 2.3
v 1.652671 4.986658 2.3
v 1.650551 4.979617 2.3
v 1.821231 5.646283 2.3
v 1.741496 5.63754 2.3
v 1.736508 5.636993 2.3
v 1.882685 5.63754 2.3
v 1.871847 5.640715 2.3
v 2.191164 4.950336 2.3
v 2.178309 4.979617 2.3
v 2.170724 4.996892 2.3
v 2.158814 5.056119 2.3
v 2.246246 5.628797 2.3
v 2.652803 5.628797 2.3
v 2.738535 5.63754 2.3
v 2.25936 5.056119 2.3
v 2.272475 5.200381 2.3
v 2.189415 5.204753 2.3
v 2.596882 5.316355 2.3
v 2.638363 5.279866 2.3
v 2.652803 5.532622 2.3
v 2.262784 5.036504 2.3
v 2.468416 5.268021 2.3
v 2.421109 5.274699 2.3
v 2.380921 5.270775 2.3
v 2.698934 5.075725 2.3
v 2.686405 5.016534 2.3
v 2.738535 4.979617 2.3
v 2.340171 5.257117 2.3
v 2.305751 5.235145 2.3
v 2.320563 5.532622 2.3
v 2.289962 5.318414 2.3
v 2.322155 5.338614 2.3
v 2.591601 5.099835 2.3
v 2.587188 5.138214 2.3
v 2.573417 5.183424 2.3
v 2.55628 5.213037 2.3
v 2.275973 4.997969 2.3
v 2.567234 5.004788 2.3
v 2.582762 5.046005 2.3
v 2.547418 5.342273 2.3
v 2.533121 5.237131 2.3
v 2.504672 5.255081 2.3
v 2.667626 5.237434 2.3
v 2.689187 5.182698 2.3
v 2.70089 5.11295 2.3
v 2.373873 5.358534 2.3
v 2.438596 5.366502 2.3
v 2.466158 5.363262 2.3
v 2.448628 4.922994 2.3
v 2.429852 4.9206 2.3
v 2.381674 4.924476 2.3
v 2.345174 4.934775 2.3
v 2.292966 4.971869 2.3
v 2.314404 4.951571 2.3
v 2.493117 4.935645 2.3
v 2.523589 4.952954 2.3
v 2.617224 4.911653 2.3
v 2.571844 4.879483 2.3
v 2.738535 3.698142 2.3
v 2.302794 4.863204 2.3
v 2.25298 4.886488 2.3
v 2.114747 3.698142 2.3
v 2.216838 4.916065 2.3
v 2.669002 4.979617 2.3
v 2.661666 4.964057 2.3
v 2.622202 4.916229 2.3
v 1.532706 4.859398 2.3
v 2.513393 4.857592 2.3
v 2.412366 4.846283 2.3
v 2.381315 4.847801 2.3
v 2.802189 5.447139 2.3
v 2.825454 5.515078 2.3
v 2.793665 5.36213 2.3
v 2.782003 4.92442 2.3
v 2.796963 4.979617 2.3
v 2.802237 4.999076 2.3
v 2.912545 5.466098 2.3
v 2.900042 5.422565 2.3
v 3.043287 5.554241 2.3
v 2.894212 5.36213 2.3
v 3.051589 5.55448 2.3
v 2.837762 5.065 2.3
v 2.888555 5.121 2.3
v 2.959785 5.16978 2.3
v 3.064703 5.230983 2.3
v 3.124219 5.268967 2.3
v 2.863611 5.571967 2.3
v 2.884169 5.591209 2.3
v 2.925244 5.617597 2.3
v 3.178365 5.314043 2.3
v 3.18602 5.326278 2.3
v 3.201617 5.361871 2.3
v 3.208966 5.414589 2.3
v 3.208911 5.415247 2.3
v 3.201254 5.458972 2.3
v 3.159418 5.522193 2.3
v 3.133195 5.537867 2.3
v 3.097812 5.54923 2.3
v 3.000638 5.54801 2.3
v 2.972707 5.536932 2.3
v 2.928856 5.497197 2.3
v 2.949075 5.520422 2.3
v 3.189419 5.487269 2.3
v 3.170991 5.511811 2.3
v 2.885468 4.951201 2.3
v 3.313884 4.951201 2.3
v 3.362592 4.979617 2.3
v 3.313884 4.859398 2.3
v 3.308759 5.3506 2.3
v 3.292394 5.306125 2.3
v 3.126158 5.63754 2.3
v 3.184073 5.620575 2.3
v 3.362592 5.63754 2.3
v 3.226291 5.596325 2.3
v 3.260582 5.564244 2.3
v 3.263106 5.261963 2.3
v 3.199275 5.203852 2.3
v 3.099676 5.147923 2.3
v 3.285838 5.525312 2.3
v 3.304296 5.474835 2.3
v 3.313884 5.410218 2.3
v 3.016616 5.099835 2.3
v 2.957422 5.060733 2.3
v 2.916386 5.019737 2.3
v 2.896144 4.986658 2.3
v 2.894024 4.979617 2.3
v 2.979981 5.636993 2.3
v 2.984968 5.63754 2.3
v 2.738535 5.670327 2.3
v 3.064703 5.646283 2.3
v 3.362592 5.670327 2.3
v 3.11532 5.640715 2.3
v 4.012852 4.979617 2.3
v 4.068225 5.36213 2.3
v 4.187105 5.466098 2.3
v 4.174602 5.422565 2.3
v 4.317847 5.554241 2.3
v 4.168772 5.36213 2.3
v 4.326149 5.55448 2.3
v 4.112322 5.065 2.3
v 4.076797 4.999076 2.3
v 4.071523 4.979617 2.3
v 4.056563 4.92442 2.3
v 4.076749 5.447139 2.3
v 4.100014 5.515078 2.3
v 4.13817 5.571967 2.3
v 4.163115 5.121 2.3
v 4.234345 5.16978 2.3
v 4.339263 5.230983 2.3
v 4.398778 5.268967 2.3
v 4.158729 5.591209 2.3
v 4.199804 5.617597 2.3
v 4.452925 5.314043 2.3
v 4.46058 5.326278 2.3
v 4.476177 5.361871 2.3
v 4.483526 5.414589 2.3
v 4.483471 5.415247 2.3
v 4.475814 5.458972 2.3
v 4.433978 5.522193 2.3
v 4.407754 5.537867 2.3
v 4.372372 5.54923 2.3
v 4.275198 5.54801 2.3
v 4.247266 5.536932 2.3
v 4.203416 5.497197 2.3
v 4.223635 5.520422 2.3
v 4.463979 5.487269 2.3
v 4.445551 5.511811 2.3
v 4.050739 4.859398 2.3
v 4.588444 4.859398 2.3
v 4.588444 4.951201 2.3
v 5.5 4.979617 2.3
v 4.500851 5.596325 2.3
v 4.535142 5.564244 2.3
v 5.5 5.63754 2.3
v 4.560398 5.525312 2.3
v 4.566954 5.306125 2.3
v 4.537666 5.261963 2.3
v 4.473835 5.203852 2.3
v 4.374236 5.147923 2.3
v 4.578856 5.474835 2.3
v 4.588444 5.410218 2.3
v 4.583319 5.3506 2.3
v 4.291176 5.099835 2.3
v 4.231981 5.060733 2.3
v 4.190946 5.019737 2.3
v 4.160028 4.951201 2.3
v 4.168583 4.979617 2.3
v 4.170704 4.986658 2.3
v 4.012852 5.670327 2.3
v 4.339263 5.646283 2.3
v 4.38988 5.640715 2.3
v 4.400719 5.63754 2.3
v 4.458633 5.620575 2.3
v 3.362592 8.35296 2.3
v 2.738535 8.35296 2.3
v -0.462194 8.35296 2.3
v 3.41103 5.099835 2.3
v 3.41103 5.182895 2.3
v 3.974964 5.099835 2.3
v 3.974964 5.182895 2.3
v 2.776179 4.859398 2.3
v 3.362592 3.698142 2.3
v -0.9 8.35296 2.3
v -0.9 5.670327 2.3
v -0.9 5.63754 2.3
v -0.9 4.979617 2.3
v -0.9 3.698142 2.3
v 4.012852 2.55 2.3
v 3.362592 2.55 2.3
v 2.738535 2.55 2.3
v 2.114747 2.55 2.3
v 1.495305 2.55 2.3
v 0.648998 2.55 2.3
v -0.462194 2.55 2.3
v -0.9 2.55 2.3
v -0.34 2.505255 1.45
v -0.9 2.5 1.5
v -0.34 2.557807 0.95
v -0.9 2.657656 0.0
v 0.36 2.557807 0.95
v 5.5 2.657656 -0.0
v 4.24 2.557807 0.95
v 0.36 2.505255 1.45
v 4.24 2.505255 1.45
v 5.5 2.5 1.5
v 4.94 2.505255 1.45
v 4.94 2.557807 0.95
v 5.55 2.707932 -0.0
v 5.55 8.549809 0.0
v 5.55 2.55 1.50262
v 5.55 8.35296 2.25
v 5.55 2.55 2.25
v -0.2 8.6 0.0
v -0.9 8.6 -0.0
v -0.2 8.556256 0.5
v -0.9 8.402769 2.254358
v 4.8 8.556256 0.5
v 5.5 8.402769 2.254358
v 4.8 8.6 0.0
v 5.5 8.6 0.0
v -0.95 2.55 2.25
v -0.95 8.35296 2.25
v -0.95 2.55 1.50262
v -0.95 8.549809 -0.0
v -0.95 2.707932 -0.0
v 5.5 2.5 2.25
v -0.9 2.5 2.25
v -0.2 8.4 0.0
v 0.3 8.4 0.0
v 0.3 8.1 0.0
v 4.3 8.1 0.0
v 4.3 8.4 0.0
v 4.8 8.1 0.0
v 4.8 8.4 0.0
v 5.539092 8.581102 0.0
v 5.545049 8.571586 0.0
v 5.548746 8.560978 0.0
v -0.930438 8.589628 0.0
v -0.935355 8.585299 0.0
v -0.948296 8.562799 0.0
v -0.943301 8.574904 0.0
v -0.133013 4.25 0.0
v -0.053553 4.146447 0.0
v -0.925 8.593276 0.0
v -0.919134 8.596179 0.0
v -0.912941 8.598289 0.0
v 4.653553 4.146447 0.0
v 4.733013 4.25 0.0
v 4.782963 4.370591 0.0
v 4.8 4.5 0.0
v 5.511126 8.598742 0.0
v 5.521694 8.59503 0.0
v 5.531175 8.589049 0.0
v -0.948746 2.696744 0.0
v 0.05 4.066988 0.0
v -0.945048 2.686118 0.0
v 4.55 4.066988 0.0
v 5.548746 2.696744 0.0
v 5.545049 2.686118 0.0
v -0.2 8.1 0.0
v -0.2 4.5 0.0
v -0.182963 4.370591 0.0
v -0.906526 8.599571 0.0
v -0.921694 2.662635 0.0
v -0.931175 2.668625 0.0
v -0.939092 2.676585 0.0
v 4.3 4.0 0.0
v 0.3 4.0 0.0
v 0.17059 4.017037 0.0
v 5.539092 2.676585 0.0
v 5.531175 2.668625 0.0
v 5.521694 2.662635 0.0
v -0.911126 2.658917 0.0
v 4.42941 4.017037 0.0
v 5.511126 2.658917 0.0
v -0.943301 8.377864 2.252179
v -0.935355 8.388181 2.253081
v -0.948296 8.36585 2.251128
v -0.948278 8.365894 2.251132
v -0.912941 8.401072 2.254209
v -0.925 8.396095 2.253774
v -0.93528 8.388238 2.253087
v -0.912894 8.401078 2.25421
v 5.5 8.401794 2.260732
v -0.9 8.401794 2.260732
v 5.5 8.399888 2.266313
v -0.9 8.399888 2.266313
v 5.5 8.398153 2.27139
v -0.9 8.398153 2.27139
v 5.5 8.394479 2.277317
v -0.9 8.394479 2.277317
v 5.5 8.392219 2.280964
v -0.9 8.392219 2.280964
v 5.5 8.386554 2.286681
v -0.9 8.386554 2.286681
v 5.5 8.384292 2.288965
v -0.9 8.384292 2.288965
v 5.5 8.376584 2.293844
v -0.9 8.376584 2.293844
v 5.5 8.374775 2.29499
v -0.9 8.374775 2.29499
v 5.5 8.36516 2.298376
v -0.9 8.36516 2.298376
v -0.9 8.364151 2.298731
v 5.5 8.364151 2.298731
v 5.511126 8.401521 2.254249
v 5.512839 8.400924 2.254196
v 5.521694 8.397837 2.253926
v 5.524783 8.395904 2.253757
v 5.531175 8.391903 2.253407
v 5.535067 8.388024 2.253068
v 5.539092 8.384015 2.252717
v 5.543022 8.377785 2.252172
v 5.545049 8.374571 2.251891
v 5.548116 8.365838 2.251127
v 5.548746 8.364043 2.25097
v -0.948539 2.538901 1.502039
v -0.948296 2.537059 1.501942
v -0.944726 2.52844 1.50149
v -0.943301 2.525 1.50131
v -0.938759 2.519081 1.501
v -0.935355 2.514645 1.500768
v -0.931175 2.510909 1.500572
v -0.911126 2.501254 1.500066
v -0.912883 2.501868 1.500098
v -0.921694 2.504951 1.50026
v -0.924851 2.506935 1.500363
v -0.921072 8.358606 2.29499
v -0.91081 8.355856 2.298731
v -0.909692 8.358555 2.298731
v -0.911192 8.35296 2.298731
v -0.947171 8.365599 2.260732
v -0.942292 8.377377 2.260732
v -0.934531 8.387491 2.260732
v -0.924417 8.395252 2.260732
v -0.912639 8.40013 2.260732
v -0.902897 8.36377 2.298731
v -0.905596 8.362652 2.298731
v -0.918893 8.363867 2.29499
v -0.907914 8.360873 2.298731
v -0.915426 8.368385 2.29499
v -0.910908 8.371852 2.29499
v -0.905646 8.374032 2.29499
v -0.931332 8.35296 2.288965
v -0.924852 8.35296 2.293067
v -0.921815 8.35296 2.29499
v -0.912884 8.35296 2.298135
v -0.930265 8.361069 2.288965
v -0.927134 8.368626 2.288965
v -0.922155 8.375114 2.288965
v -0.915666 8.380094 2.288965
v -0.908109 8.383224 2.288965
v -0.943052 8.35296 2.274845
v -0.939259 8.35296 2.280964
v -0.937921 8.36312 2.280964
v -0.93513 8.35296 2.285132
v -0.933999 8.372589 2.280964
v -0.92776 8.380719 2.280964
v -0.919629 8.386958 2.280964
v -0.910161 8.390882 2.280964
v -0.948103 8.35296 2.262875
v -0.945193 8.35296 2.27139
v -0.943654 8.364656 2.27139
v -0.939139 8.375556 2.27139
v -0.931957 8.384916 2.27139
v -0.922597 8.392098 2.27139
v -0.911697 8.396613 2.27139
v -0.948835 8.35296 2.260732
v 5.505646 8.374032 2.29499
v 5.502897 8.36377 2.298731
v 5.505596 8.362652 2.298731
v 5.51264 8.40013 2.260732
v 5.524417 8.395252 2.260732
v 5.534532 8.387491 2.260732
v 5.542292 8.377377 2.260732
v 5.547171 8.365599 2.260732
v 5.548835 8.35296 2.260732
v 5.511192 8.35296 2.298731
v 5.51081 8.355856 2.298731
v 5.512884 8.35296 2.298135
v 5.509692 8.358555 2.298731
v 5.510908 8.371852 2.29499
v 5.507914 8.360873 2.298731
v 5.515426 8.368385 2.29499
v 5.518893 8.363867 2.29499
v 5.521072 8.358606 2.29499
v 5.50811 8.383224 2.288965
v 5.515666 8.380094 2.288965
v 5.522155 8.375114 2.288965
v 5.527134 8.368626 2.288965
v 5.530265 8.361069 2.288965
v 5.510161 8.390882 2.280964
v 5.521815 8.35296 2.29499
v 5.524852 8.35296 2.293067
v 5.531332 8.35296 2.288965
v 5.53513 8.35296 2.285132
v 5.537921 8.36312 2.280964
v 5.533999 8.372589 2.280964
v 5.527761 8.380719 2.280964
v 5.519629 8.386958 2.280964
v 5.511697 8.396613 2.27139
v 5.522597 8.392098 2.27139
v 5.531957 8.384916 2.27139
v 5.539139 8.375556 2.27139
v 5.543653 8.364656 2.27139
v 5.539259 8.35296 2.280964
v 5.543052 8.35296 2.274845
v 5.545193 8.35296 2.27139
v 5.548103 8.35296 2.262875
v 5.511126 2.501254 1.500066
v 5.512883 2.501868 1.500098
v 5.521694 2.504951 1.50026
v 5.524851 2.506935 1.500363
v 5.531175 2.510909 1.500572
v 5.535133 2.514867 1.500779
v 5.539092 2.518826 1.500987
v 5.543065 2.525149 1.501318
v 5.545049 2.528306 1.501483
v 5.548131 2.537117 1.501945
v 5.548746 2.538874 1.502037
v -0.912941 2.501704 2.25
v -0.925 2.506699 2.25
v -0.935355 2.514645 2.25
v -0.943301 2.525 2.25
v -0.948296 2.537059 2.25
v -0.912941 2.55 2.298296
v -0.925 2.55 2.293301
v -0.935355 2.55 2.285355
v -0.943301 2.55 2.275
v -0.948296 2.55 2.262941
v 5.512941 2.55 2.298296
v 5.525 2.55 2.293301
v 5.535355 2.55 2.285355
v 5.543302 2.55 2.275
v 5.548296 2.55 2.262941
v 5.548296 2.537059 2.25
v 5.543302 2.525 2.25
v 5.535355 2.514645 2.25
v 5.525 2.506699 2.25
v 5.512941 2.501704 2.25
v -0.9 2.501704 2.262941
v -0.9125 2.50335 2.262941
v -0.9125 2.528349 2.293301
v -0.90647 2.538793 2.298296
v -0.909151 2.540849 2.298296
v -0.9125 2.546651 2.298296
v -0.903349 2.5375 2.298296
v -0.90647 2.525852 2.293301
v -0.909151 2.515849 2.285355
v -0.9 2.537059 2.298296
v -0.917678 2.532322 2.293301
v -0.911207 2.54353 2.298296
v -0.921651 2.5375 2.293301
v -0.924148 2.54353 2.293301
v -0.9 2.525 2.293301
v -0.9 2.514645 2.285355
v -0.9 2.506699 2.275
v -0.917678 2.519382 2.285355
v -0.925 2.525 2.285355
v -0.930619 2.532322 2.285355
v -0.934151 2.540849 2.285355
v -0.911207 2.508174 2.275
v -0.921651 2.5125 2.275
v -0.930619 2.519382 2.275
v -0.9375 2.528349 2.275
v -0.941826 2.538793 2.275
v -0.924148 2.508174 2.262941
v -0.934151 2.515849 2.262941
v -0.941826 2.525852 2.262941
v -0.946651 2.5375 2.262941
v 5.546651 2.5375 2.262941
v 5.52165 2.5375 2.293301
v 5.511207 2.54353 2.298296
v 5.509151 2.540849 2.298296
v 5.5 2.537059 2.298296
v 5.503349 2.5375 2.298296
v 5.5125 2.546651 2.298296
v 5.524148 2.54353 2.293301
v 5.534151 2.540849 2.285355
v 5.517678 2.532322 2.293301
v 5.50647 2.538793 2.298296
v 5.5125 2.528349 2.293301
v 5.50647 2.525852 2.293301
v 5.5 2.525 2.293301
v 5.530619 2.532322 2.285355
v 5.525 2.525 2.285355
v 5.517678 2.519382 2.285355
v 5.509151 2.515849 2.285355
v 5.5 2.514645 2.285355
v 5.541826 2.538793 2.275
v 5.5375 2.528349 2.275
v 5.530619 2.519382 2.275
v 5.52165 2.5125 2.275
v 5.511207 2.508174 2.275
v 5.5 2.506699 2.275
v 5.541826 2.525852 2.262941
v 5.534151 2.515849 2.262941
v 5.524148 2.508174 2.262941
v 5.5125 2.50335 2.262941
v 5.5 2.501704 2.262941
v 4.3 8.4 0.5
v 4.8 8.4 0.5
v -0.2 8.4 0.5
v 0.3 8.4 0.5
v 0.3 8.1 0.5
v 4.3 8.1 0.5
v 0.17059 4.017037 0.5
v 0.3 4.0 0.5
v 4.8 8.1 0.5
v 4.8 4.5 0.5
v 4.3 4.0 0.5
v 4.782963 4.370591 0.5
v -0.053553 4.146447 0.5
v -0.133013 4.25 0.5
v 0.05 4.066988 0.5
v -0.2 8.1 0.5
v -0.2 4.5 0.5
v -0.182963 4.370591 0.5
v 4.733013 4.25 0.5
v 4.653553 4.146447 0.5
v 4.55 4.066988 0.5
v 4.42941 4.017037 0.5
v 4.24 -0.013084 0.499657
v 4.94 -0.013084 0.499657
v 4.24 0.743384 0.539302
v 4.94 0.743384 0.539302
v 4.24 0.013084 3.43E-4
v 4.24 0.769552 0.039987
v 4.94 0.013084 3.43E-4
v 4.94 0.769552 0.039987
v 4.94 0.935088 0.645565
v 4.24 0.935088 0.645565
v 4.94 0.897583 0.603173
v 4.24 0.897583 0.603173
v 4.94 0.851502 0.570305
v 4.24 0.851502 0.570305
v 4.94 0.799209 0.548644
v 4.24 0.799209 0.548644
v 4.24 1.344664 0.358777
v 4.24 1.232148 0.231601
v 4.24 1.093907 0.132995
v 4.24 0.937028 0.068013
v 4.94 0.937028 0.068013
v 4.94 1.093907 0.132995
v 4.94 1.232148 0.231601
v 4.94 1.344664 0.358777
v 4.24 1.27442 1.130182
v 4.94 1.27442 1.130182
v 4.24 1.683996 0.843394
v 4.94 1.683996 0.843394
v 4.94 1.394275 1.26388
v 4.24 1.394275 1.26388
v 4.94 1.542473 1.365258
v 4.24 1.542473 1.365258
v 4.94 1.71052 1.428507
v 4.24 1.71052 1.428507
v 4.94 1.888784 1.45
v 4.24 1.888784 1.45
v 4.24 1.723948 0.88796
v 4.24 1.773347 0.921753
v 4.24 1.829363 0.942836
v 4.24 1.888784 0.95
v 4.94 1.888784 0.95
v 4.94 1.829363 0.942836
v 4.94 1.773347 0.921753
v 4.94 1.723948 0.88796
v -0.34 -0.013084 0.499657
v 0.36 -0.013084 0.499657
v -0.34 0.743384 0.539302
v 0.36 0.743384 0.539302
v -0.34 0.013084 3.43E-4
v -0.34 0.769552 0.039987
v 0.36 0.013084 3.43E-4
v 0.36 0.769552 0.039987
v 0.36 0.935088 0.645565
v -0.34 0.935088 0.645565
v 0.36 0.897583 0.603173
v -0.34 0.897583 0.603173
v 0.36 0.851502 0.570305
v -0.34 0.851502 0.570305
v 0.36 0.799209 0.548644
v -0.34 0.799209 0.548644
v -0.34 1.344664 0.358777
v -0.34 1.232148 0.231601
v -0.34 1.093907 0.132995
v -0.34 0.937028 0.068013
v 0.36 0.937028 0.068013
v 0.36 1.093907 0.132995
v 0.36 1.232148 0.231601
v 0.36 1.344664 0.358777
v -0.34 1.27442 1.130182
v 0.36 1.27442 1.130182
v -0.34 1.683996 0.843394
v 0.36 1.683996 0.843394
v 0.36 1.394275 1.26388
v -0.34 1.394275 1.26388
v 0.36 1.542473 1.365258
v -0.34 1.542473 1.365258
v 0.36 1.71052 1.428507
v -0.34 1.71052 1.428507
v 0.36 1.888784 1.45
v -0.34 1.888784 1.45
v -0.34 1.723948 0.88796
v -0.34 1.773347 0.921753
v -0.34 1.829363 0.942836
v -0.34 1.888784 0.95
v 0.36 1.888784 0.95
v 0.36 1.829363 0.942836
v 0.36 1.773347 0.921753
v 0.36 1.723948 0.88796
v -0.024388 5.567595 2.29
newmtl 3
Ka 0.6431372549019608 0.615686274509804 0.6
Kd 0.45098039215686275 0.43137254901960786 0.4196078431372549
Ks 0.03137254901960784 0.03137254901960784 0.03137254901960784
d 0.0
endmtl
v -0.024388 5.659398 2.29
v 0.622607 5.659398 2.29
v 0.622607 5.567595 2.29
v 0.351569 5.567595 2.29
v 0.351569 4.859398 2.29
v 0.24665 4.859398 2.29
v 0.24665 5.567595 2.29
v 1.286958 5.475019 2.29
v 1.321033 5.406551 2.29
v 1.439653 5.390383 2.29
v 1.457903 5.257212 2.29
v 1.397201 5.498917 2.29
v 1.352985 5.567595 2.29
v 1.247103 5.521288 2.29
v 1.286897 5.623231 2.29
v 1.200857 5.554033 2.29
v 1.214444 5.658497 2.29
v 1.143502 5.577055 2.29
v 1.068832 5.589453 2.29
v 0.994778 4.944309 2.29
v 1.04301 4.846829 2.29
v 1.068832 4.933715 2.29
v 1.068832 4.846283 2.29
v 1.115154 4.939344 2.29
v 1.182263 4.8589 2.29
v 1.186422 4.961183 2.29
v 1.261864 4.887664 2.29
v 1.237654 4.992493 2.29
v 1.324488 4.928646 2.29
v 1.277841 5.03299 2.29
v 1.357357 4.959945 2.29
v 1.310413 5.086719 2.29
v 1.414654 5.052658 2.29
v 1.335023 5.159407 2.29
v 1.448272 5.161739 2.29
v 1.348614 5.257212 2.29
v 1.345486 5.295891 2.29
v 1.115289 5.679252 2.29
v 1.068832 5.681256 2.29
v 0.998351 5.579556 2.29
v 0.953613 5.668347 2.29
v 0.943533 5.560139 2.29
v 0.875202 5.639808 2.29
v 0.894385 5.52849 2.29
v 0.806537 5.593824 2.29
v 0.856211 5.487984 2.29
v 0.739721 5.507199 2.29
v 0.825404 5.4345 2.29
v 0.801331 5.359438 2.29
v 0.698334 5.41115 2.29
v 0.676566 5.281977 2.29
v 0.789051 5.257212 2.29
v 0.67539 5.257212 2.29
v 0.797309 5.178467 2.29
v 0.693402 5.126265 2.29
v 0.82243 5.091404 2.29
v 0.739025 5.012965 2.29
v 0.851127 5.03966 2.29
v 0.767193 4.968688 2.29
v 0.89003 4.996763 2.29
v 0.825856 4.914709 2.29
v 0.936393 4.965868 2.29
v 0.885814 4.880796 2.29
v 0.979119 4.853396 2.29
v 1.068832 5.589453 2.3
v 1.143502 5.577055 2.3
v 1.200857 5.554033 2.3
v 1.247103 5.521288 2.3
v 1.286958 5.475019 2.3
v 1.321033 5.406551 2.3
v 1.345486 5.295891 2.3
v 1.348614 5.257212 2.3
v 1.335023 5.159407 2.3
v 1.310413 5.086719 2.3
v 1.277841 5.03299 2.3
v 1.237654 4.992493 2.3
v 1.186422 4.961183 2.3
v 1.115154 4.939344 2.3
v 1.068832 4.933715 2.3
v 0.994778 4.944309 2.3
v 0.936393 4.965868 2.3
v 0.89003 4.996763 2.3
v 0.851127 5.03966 2.3
v 0.82243 5.091404 2.3
v 0.797309 5.178467 2.3
v 0.789051 5.257212 2.3
v 0.801331 5.359438 2.3
v 0.825404 5.4345 2.3
v 0.856211 5.487984 2.3
v 0.894385 5.52849 2.3
v 0.943533 5.560139 2.3
v 0.998351 5.579556 2.3
v 1.650739 5.36213 2.29
v 1.550192 5.36213 2.29
v 1.620138 5.571967 2.29
v 1.581981 5.515078 2.29
v 1.558716 5.447139 2.29
v 1.821231 5.646283 2.29
v 1.736508 5.636993 2.29
v 1.681771 5.617597 2.29
v 1.640696 5.591209 2.29
v 1.982818 5.596325 2.29
v 2.017109 5.564244 2.29
v 2.042365 5.525312 2.29
v 2.060823 5.474835 2.29
v 2.070411 5.410218 2.29
v 1.871847 5.640715 2.29
v 1.9406 5.620575 2.29
v 1.856203 5.147923 2.29
v 1.955803 5.203852 2.29
v 2.019633 5.261963 2.29
v 2.048921 5.306125 2.29
v 2.065286 5.3506 2.29
v 1.773143 5.099835 2.29
v 1.641996 4.951201 2.29
v 1.652671 4.986658 2.29
v 1.672913 5.019737 2.29
v 1.713949 5.060733 2.29
v 2.070411 4.951201 2.29
v 2.070411 4.859398 2.29
v 1.532706 4.859398 2.29
v 1.53853 4.92442 2.29
v 1.716313 5.16978 2.29
v 1.645082 5.121 2.29
v 1.594289 5.065 2.29
v 1.558764 4.999076 2.29
v 1.821231 5.230983 2.29
v 1.934892 5.314043 2.29
v 1.880746 5.268967 2.29
v 1.965493 5.414589 2.29
v 1.958144 5.361871 2.29
v 1.942547 5.326278 2.29
v 1.808116 5.55448 2.29
v 1.854339 5.54923 2.29
v 1.889722 5.537867 2.29
v 1.915945 5.522193 2.29
v 1.927518 5.511811 2.29
v 1.945946 5.487269 2.29
v 1.957781 5.458972 2.29
v 1.965438 5.415247 2.29
v 1.656569 5.422565 2.29
v 1.669072 5.466098 2.29
v 1.685383 5.497197 2.29
v 1.705603 5.520422 2.29
v 1.729234 5.536932 2.29
v 1.757165 5.54801 2.29
v 1.799814 5.554241 2.29
v 2.320563 5.532622 2.29
v 2.289962 5.318414 2.29
v 2.438596 5.366502 2.29
v 2.373873 5.358534 2.29
v 2.322155 5.338614 2.29
v 2.70089 5.11295 2.29
v 2.689187 5.182698 2.29
v 2.667626 5.237434 2.29
v 2.638363 5.279866 2.29
v 2.596882 5.316355 2.29
v 2.547418 5.342273 2.29
v 2.466158 5.363262 2.29
v 2.622202 4.916229 2.29
v 2.661666 4.964057 2.29
v 2.686405 5.016534 2.29
v 2.698934 5.075725 2.29
v 2.412366 4.846283 2.29
v 2.513393 4.857592 2.29
v 2.571844 4.879483 2.29
v 2.617224 4.911653 2.29
v 2.158814 5.056119 2.29
v 2.170724 4.996892 2.29
v 2.191164 4.950336 2.29
v 2.216838 4.916065 2.29
v 2.25298 4.886488 2.29
v 2.302794 4.863204 2.29
v 2.381315 4.847801 2.29
v 2.25936 5.056119 2.29
v 2.429852 4.9206 2.29
v 2.381674 4.924476 2.29
v 2.345174 4.934775 2.29
v 2.314404 4.951571 2.29
v 2.292966 4.971869 2.29
v 2.275973 4.997969 2.29
v 2.262784 5.036504 2.29
v 2.591601 5.099835 2.29
v 2.582762 5.046005 2.29
v 2.567234 5.004788 2.29
v 2.547907 4.975675 2.29
v 2.523589 4.952954 2.29
v 2.493117 4.935645 2.29
v 2.448628 4.922994 2.29
v 2.421109 5.274699 2.29
v 2.468416 5.268021 2.29
v 2.504672 5.255081 2.29
v 2.533121 5.237131 2.29
v 2.55628 5.213037 2.29
v 2.573417 5.183424 2.29
v 2.587188 5.138214 2.29
v 2.272475 5.200381 2.29
v 2.305751 5.235145 2.29
v 2.340171 5.257117 2.29
v 2.380921 5.270775 2.29
v 2.189415 5.204753 2.29
v 2.246246 5.628797 2.29
v 2.652803 5.628797 2.29
v 2.652803 5.532622 2.29
v 2.894212 5.36213 2.29
v 2.793665 5.36213 2.29
v 2.863611 5.571967 2.29
v 2.825454 5.515078 2.29
v 2.802189 5.447139 2.29
v 3.064703 5.646283 2.29
v 2.979981 5.636993 2.29
v 2.925244 5.617597 2.29
v 2.884169 5.591209 2.29
v 3.226291 5.596325 2.29
v 3.260582 5.564244 2.29
v 3.285838 5.525312 2.29
v 3.304296 5.474835 2.29
v 3.313884 5.410218 2.29
v 3.11532 5.640715 2.29
v 3.184073 5.620575 2.29
v 3.099676 5.147923 2.29
v 3.199275 5.203852 2.29
v 3.263106 5.261963 2.29
v 3.292394 5.306125 2.29
v 3.308759 5.3506 2.29
v 3.016616 5.099835 2.29
v 2.885468 4.951201 2.29
v 2.896144 4.986658 2.29
v 2.916386 5.019737 2.29
v 2.957422 5.060733 2.29
v 3.313884 4.951201 2.29
v 3.313884 4.859398 2.29
v 2.776179 4.859398 2.29
v 2.782003 4.92442 2.29
v 2.959785 5.16978 2.29
v 2.888555 5.121 2.29
v 2.837762 5.065 2.29
v 2.802237 4.999076 2.29
v 3.064703 5.230983 2.29
v 3.178365 5.314043 2.29
v 3.124219 5.268967 2.29
v 3.208966 5.414589 2.29
v 3.201617 5.361871 2.29
v 3.18602 5.326278 2.29
v 3.051589 5.55448 2.29
v 3.097812 5.54923 2.29
v 3.133195 5.537867 2.29
v 3.159418 5.522193 2.29
v 3.170991 5.511811 2.29
v 3.189419 5.487269 2.29
v 3.201254 5.458972 2.29
v 3.208911 5.415247 2.29
v 2.900042 5.422565 2.29
v 2.912545 5.466098 2.29
v 2.928856 5.497197 2.29
v 2.949075 5.520422 2.29
v 2.972707 5.536932 2.29
v 3.000638 5.54801 2.29
v 3.043287 5.554241 2.29
v 3.974964 5.099835 2.29
v 3.41103 5.099835 2.29
v 3.41103 5.182895 2.29
v 3.974964 5.182895 2.29
v 4.168772 5.36213 2.29
v 4.068225 5.36213 2.29
v 4.13817 5.571967 2.29
v 4.100014 5.515078 2.29
v 4.076749 5.447139 2.29
v 4.339263 5.646283 2.29
v 4.25454 5.636993 2.29
v 4.199804 5.617597 2.29
v 4.158729 5.591209 2.29
v 4.500851 5.596325 2.29
v 4.535142 5.564244 2.29
v 4.560398 5.525312 2.29
v 4.578856 5.474835 2.29
v 4.588444 5.410218 2.29
v 4.38988 5.640715 2.29
v 4.458633 5.620575 2.29
v 4.374236 5.147923 2.29
v 4.473835 5.203852 2.29
v 4.537666 5.261963 2.29
v 4.566954 5.306125 2.29
v 4.583319 5.3506 2.29
v 4.291176 5.099835 2.29
v 4.160028 4.951201 2.29
v 4.170704 4.986658 2.29
v 4.190946 5.019737 2.29
v 4.231981 5.060733 2.29
v 4.588444 4.951201 2.29
v 4.588444 4.859398 2.29
v 4.050739 4.859398 2.29
v 4.056563 4.92442 2.29
v 4.234345 5.16978 2.29
v 4.163115 5.121 2.29
v 4.112322 5.065 2.29
v 4.076797 4.999076 2.29
v 4.339263 5.230983 2.29
v 4.452925 5.314043 2.29
v 4.398778 5.268967 2.29
v 4.483526 5.414589 2.29
v 4.476177 5.361871 2.29
v 4.46058 5.326278 2.29
v 4.326149 5.55448 2.29
v 4.372372 5.54923 2.29
v 4.407754 5.537867 2.29
v 4.433978 5.522193 2.29
v 4.445551 5.511811 2.29
v 4.463979 5.487269 2.29
v 4.475814 5.458972 2.29
v 4.483471 5.415247 2.29
v 4.174602 5.422565 2.29
v 4.187105 5.466098 2.29
v 4.203416 5.497197 2.29
v 4.223635 5.520422 2.29
v 4.247266 5.536932 2.29
v 4.275198 5.54801 2.29
v 4.317847 5.554241 2.29
v -0.2 5.255258 0.0
v 2.209298 5.255258 0.0
v 1.648323 5.258307 0.0
v 1.721494 5.258307 0.0
v 1.343445 5.258307 0.0
v 1.394035 5.398551 0.0
v 1.60059 5.398551 0.0
v 1.783046 5.395346 0.0
v 1.81172 5.350624 0.0
v 1.852875 5.311219 0.0
v 1.905081 5.28088 0.0
v -0.2 9.406256 0.0
v 0.3 9.906256 0.0
v 2.209298 9.906256 0.0
v 2.160518 5.758307 0.0
v 2.019417 5.758307 0.0
v 1.94718 5.750586 0.0
v 1.532469 5.758307 0.0
v 1.88868 5.730043 0.0
v 1.834259 5.693572 0.0
v 2.160518 5.258307 0.0
v 2.024561 5.258307 0.0
v 1.962695 5.263707 0.0
v 1.833736 5.693112 0.0
v 1.798378 5.653907 0.0
v 1.775142 5.610906 0.0
v 1.270274 5.258307 0.0
v 1.465396 5.758307 0.0
v 1.761713 5.561643 0.0
v 1.758079 5.514595 0.0
v 1.765095 5.44768 0.0
v 2.727754 5.255258 0.0
v 2.747837 5.252444 0.0
v 2.209298 4.0 0.0
v 2.761509 5.25221 0.0
v 2.790913 5.255258 0.0
v 4.8 5.255258 0.0
v 2.258079 5.313185 0.0
v 2.258079 5.258307 0.0
v 2.526371 5.258307 0.0
v 2.270274 5.758307 0.0
v 2.270274 5.703429 0.0
v 2.623933 5.284222 0.0
v 2.623933 5.339099 0.0
v 2.526371 5.758307 0.0
v 2.67723 5.262338 0.0
v 4.3 9.906256 0.0
v 4.8 9.406256 0.0
v 2.459298 5.483917 0.0
v 2.459298 5.313185 0.0
v 2.282469 5.483917 0.0
v 2.282469 5.538795 0.0
v 2.459298 5.538795 0.0
v 2.459298 5.703429 0.0
v 2.790259 5.703997 0.0
v 2.827683 5.690491 0.0
v 2.632894 5.334136 0.0
v 2.862291 5.667339 0.0
v 2.892484 5.634006 0.0
v 2.928811 5.502972 0.0
v 2.923748 5.448844 0.0
v 2.910164 5.405837 0.0
v 2.798903 5.312319 0.0
v 2.752267 5.307088 0.0
v 2.835335 5.325731 0.0
v 2.866022 5.346414 0.0
v 2.889484 5.371166 0.0
v 2.685897 5.314454 0.0
v 3.294664 5.258307 0.0
v 3.038567 5.258307 0.0
v 2.823127 5.258598 0.0
v 2.871588 5.275279 0.0
v 2.969459 5.62669 0.0
v 2.940137 5.673426 0.0
v 3.227591 5.758307 0.0
v 2.913098 5.595401 0.0
v 2.926425 5.541874 0.0
v 2.741596 5.764404 0.0
v 2.681741 5.760274 0.0
v 2.623933 5.744587 0.0
v 2.623933 5.677514 0.0
v 2.680252 5.701631 0.0
v 2.741025 5.709527 0.0
v 2.911808 5.300962 0.0
v 2.949364 5.340501 0.0
v 3.038567 5.313185 0.0
v 2.976001 5.388044 0.0
v 3.227591 5.313185 0.0
v 2.894973 5.71683 0.0
v 2.847475 5.744147 0.0
v 2.791734 5.760319 0.0
v 3.294664 5.758307 0.0
v 2.991049 5.440969 0.0
v 2.995884 5.498875 0.0
v 2.988691 5.56996 0.0
v 4.8 9.406256 0.5
v 4.3 9.906256 0.5
v 0.3 9.906256 0.5
v -0.2 9.406256 0.5
v 1.465396 5.758307 0.01
v 1.270274 5.258307 0.01
v 1.343445 5.258307 0.01
v 1.394035 5.398551 0.01
v 1.60059 5.398551 0.01
v 1.648323 5.258307 0.01
v 1.721494 5.258307 0.01
v 1.532469 5.758307 0.01
v 1.583727 5.453429 0.01
v 1.41652 5.453429 0.01
v 1.509127 5.662271 0.01
v 1.504315 5.679612 0.01
v 1.501124 5.697331 0.01
v 1.499504 5.697331 0.01
v 1.496241 5.679665 0.01
v 1.491787 5.662271 0.01
v 1.583727 5.453429 0.0
v 1.41652 5.453429 0.0
v 1.509127 5.662271 0.0
v 1.504315 5.679612 0.0
v 1.501124 5.697331 0.0
v 1.499504 5.697331 0.0
v 1.496241 5.679665 0.0
v 1.491787 5.662271 0.0
v 2.024561 5.258307 0.01
v 2.160518 5.258307 0.01
v 2.160518 5.758307 0.01
v 2.019417 5.758307 0.01
v 1.758079 5.514595 0.01
v 1.761713 5.561643 0.01
v 1.775142 5.610906 0.01
v 1.798378 5.653907 0.01
v 1.833736 5.693112 0.01
v 1.834259 5.693572 0.01
v 1.88868 5.730043 0.01
v 1.94718 5.750586 0.01
v 1.962695 5.263707 0.01
v 1.905081 5.28088 0.01
v 1.852875 5.311219 0.01
v 1.81172 5.350624 0.01
v 1.783046 5.395346 0.01
v 1.765095 5.44768 0.01
v 1.858442 5.633314 0.01
v 1.882729 5.659101 0.01
v 1.919251 5.682695 0.01
v 1.960523 5.697138 0.01
v 2.019702 5.703429 0.01
v 2.093445 5.703429 0.01
v 2.093445 5.313185 0.01
v 2.022465 5.313185 0.01
v 1.969715 5.318095 0.01
v 1.927639 5.331228 0.01
v 1.89354 5.351477 0.01
v 1.865496 5.379176 0.01
v 1.844408 5.41365 0.01
v 1.829743 5.460649 0.01
v 1.825152 5.513166 0.01
v 1.8294 5.562929 0.01
v 1.841072 5.602475 0.01
v 2.019702 5.703429 0.0
v 2.093445 5.703429 0.0
v 1.960523 5.697138 0.0
v 1.919251 5.682695 0.0
v 1.882729 5.659101 0.0
v 1.858442 5.633314 0.0
v 1.841072 5.602475 0.0
v 1.8294 5.562929 0.0
v 1.825152 5.513166 0.0
v 1.829743 5.460649 0.0
v 1.844408 5.41365 0.0
v 1.865496 5.379176 0.0
v 1.89354 5.351477 0.0
v 1.927639 5.331228 0.0
v 1.969715 5.318095 0.0
v 2.022465 5.313185 0.0
v 2.093445 5.313185 0.0
v 2.258079 5.313185 0.01
v 2.258079 5.258307 0.01
v 2.526371 5.258307 0.01
v 2.526371 5.758307 0.01
v 2.270274 5.758307 0.01
v 2.270274 5.703429 0.01
v 2.459298 5.703429 0.01
v 2.459298 5.538795 0.01
v 2.282469 5.538795 0.01
v 2.282469 5.483917 0.01
v 2.459298 5.483917 0.01
v 2.459298 5.313185 0.01
v 2.623933 5.339099 0.01
v 2.623933 5.284222 0.01
v 2.67723 5.262338 0.01
v 2.761509 5.25221 0.01
v 2.747837 5.252444 0.01
v 2.995884 5.498875 0.01
v 2.991049 5.440969 0.01
v 2.976001 5.388044 0.01
v 2.949364 5.340501 0.01
v 2.911808 5.300962 0.01
v 2.871588 5.275279 0.01
v 2.823127 5.258598 0.01
v 2.741596 5.764404 0.01
v 2.791734 5.760319 0.01
v 2.847475 5.744147 0.01
v 2.894973 5.71683 0.01
v 2.940137 5.673426 0.01
v 2.969459 5.62669 0.01
v 2.988691 5.56996 0.01
v 2.623933 5.744587 0.01
v 2.681741 5.760274 0.01
v 2.623933 5.677514 0.01
v 2.741025 5.709527 0.01
v 2.680252 5.701631 0.01
v 2.928811 5.502972 0.01
v 2.926425 5.541874 0.01
v 2.913098 5.595401 0.01
v 2.892484 5.634006 0.01
v 2.862291 5.667339 0.01
v 2.827683 5.690491 0.01
v 2.790259 5.703997 0.01
v 2.752267 5.307088 0.01
v 2.798903 5.312319 0.01
v 2.835335 5.325731 0.01
v 2.866022 5.346414 0.01
v 2.889484 5.371166 0.01
v 2.910164 5.405837 0.01
v 2.923748 5.448844 0.01
v 2.632894 5.334136 0.01
v 2.685897 5.314454 0.01
v 3.038567 5.313185 0.01
v 3.038567 5.258307 0.01
v 3.294664 5.258307 0.01
v 3.294664 5.758307 0.01
v 3.227591 5.758307 0.01
v 3.227591 5.313185 0.01
usemtl 1
f 1// 2// 3//
f 3// 2// 4//
f 5// 1// 6//
f 6// 1// 3//
f 7// 5// 8//
f 8// 5// 6//
f 2// 7// 4//
f 4// 7// 8//
f 5// 7// 1//
f 1// 7// 2//
f 8// 6// 4//
f 4// 6// 3//
usemtl 2
f 9// 10// 11//
f 12// 13// 14//
f 15// 16// 17//
f 18// 19// 20//
f 21// 22// 23//
f 24// 25// 26//
f 27// 28// 29//
f 29// 28// 24//
f 29// 24// 30//
f 30// 24// 26//
f 30// 26// 31//
f 32// 33// 34//
f 34// 33// 35//
f 34// 35// 36//
f 36// 35// 37//
f 36// 37// 38//
f 39// 27// 40//
f 41// 42// 43//
f 44// 45// 46//
f 43// 47// 41//
f 41// 47// 48//
f 41// 48// 49//
f 42// 41// 50//
f 50// 41// 51//
f 50// 51// 52//
f 27// 29// 40//
f 40// 29// 53//
f 40// 53// 54//
f 55// 14// 56//
f 56// 14// 57//
f 56// 57// 58//
f 58// 57// 40//
f 58// 40// 59//
f 59// 40// 54//
f 60// 61// 29//
f 29// 61// 62//
f 29// 62// 53//
f 30// 63// 64//
f 64// 65// 30//
f 30// 65// 66//
f 30// 66// 29//
f 29// 66// 67//
f 29// 67// 60//
f 32// 34// 68//
f 68// 34// 69//
f 68// 69// 31//
f 31// 69// 70//
f 31// 70// 30//
f 30// 70// 71//
f 30// 71// 63//
f 72// 73// 74//
f 46// 75// 44//
f 44// 75// 76//
f 44// 76// 74//
f 74// 76// 77//
f 74// 77// 72//
f 78// 79// 70//
f 70// 79// 80//
f 70// 80// 71//
f 73// 81// 74//
f 74// 81// 82//
f 74// 82// 70//
f 70// 82// 83//
f 70// 83// 78//
f 84// 85// 41//
f 84// 41// 86//
f 87// 88// 44//
f 44// 88// 89//
f 90// 91// 92//
f 92// 91// 93//
f 92// 93// 94//
f 49// 45// 41//
f 41// 45// 44//
f 41// 44// 86//
f 86// 44// 89//
f 86// 89// 95//
f 95// 96// 86//
f 86// 96// 97//
f 86// 97// 93//
f 93// 97// 98//
f 93// 98// 99//
f 85// 100// 41//
f 41// 100// 101//
f 41// 101// 102//
f 99// 103// 93//
f 93// 103// 104//
f 93// 104// 105//
f 105// 106// 93//
f 93// 106// 107//
f 93// 107// 108//
f 109// 110// 93//
f 93// 110// 111//
f 93// 111// 94//
f 92// 112// 90//
f 90// 112// 113//
f 90// 113// 114//
f 114// 113// 115//
f 108// 116// 93//
f 93// 116// 117//
f 93// 117// 109//
f 118// 119// 120//
f 120// 119// 121//
f 120// 122// 123//
f 124// 125// 126//
f 126// 125// 127//
f 123// 128// 120//
f 120// 128// 129//
f 120// 129// 130//
f 124// 131// 125//
f 125// 131// 132//
f 125// 132// 133//
f 130// 134// 120//
f 120// 134// 135//
f 120// 135// 136//
f 136// 137// 120//
f 120// 137// 138//
f 120// 138// 118//
f 139// 51// 140//
f 140// 51// 41//
f 140// 41// 141//
f 141// 41// 102//
f 127// 125// 142//
f 142// 125// 12//
f 142// 12// 143//
f 144// 145// 120//
f 120// 145// 146//
f 120// 146// 147//
f 148// 149// 150//
f 147// 151// 152//
f 152// 153// 147//
f 147// 153// 125//
f 147// 125// 120//
f 120// 125// 133//
f 120// 133// 122//
f 154// 155// 156//
f 157// 158// 151//
f 151// 158// 159//
f 151// 159// 160//
f 161// 162// 163//
f 160// 164// 151//
f 151// 164// 165//
f 151// 165// 152//
f 166// 167// 168//
f 169// 170// 157//
f 157// 170// 171//
f 157// 171// 172//
f 23// 22// 173//
f 173// 22// 174//
f 173// 174// 157//
f 157// 174// 175//
f 157// 175// 169//
f 154// 156// 176//
f 172// 177// 157//
f 157// 177// 178//
f 157// 178// 158//
f 155// 179// 156//
f 156// 179// 180//
f 156// 180// 163//
f 163// 180// 181//
f 163// 181// 161//
f 168// 182// 166//
f 166// 182// 183//
f 166// 183// 156//
f 156// 183// 184//
f 156// 184// 176//
f 185// 23// 186//
f 186// 23// 187//
f 187// 23// 188//
f 188// 23// 189//
f 188// 189// 190//
f 185// 191// 23//
f 23// 191// 192//
f 23// 192// 21//
f 193// 194// 195//
f 196// 197// 198//
f 198// 197// 199//
f 162// 200// 163//
f 163// 200// 201//
f 163// 201// 195//
f 195// 201// 202//
f 195// 202// 193//
f 87// 44// 203//
f 203// 44// 74//
f 203// 74// 121//
f 121// 74// 198//
f 121// 198// 120//
f 120// 198// 199//
f 120// 199// 144//
f 194// 204// 195//
f 195// 204// 205//
f 195// 205// 198//
f 198// 205// 206//
f 198// 206// 196//
f 207// 208// 150//
f 207// 150// 209//
f 210// 211// 163//
f 163// 211// 212//
f 213// 214// 215//
f 215// 214// 216//
f 215// 216// 217//
f 149// 156// 150//
f 150// 156// 163//
f 150// 163// 209//
f 209// 163// 212//
f 209// 212// 218//
f 218// 219// 209//
f 209// 219// 220//
f 209// 220// 216//
f 216// 220// 221//
f 216// 221// 222//
f 208// 223// 150//
f 150// 223// 224//
f 150// 224// 225//
f 222// 226// 216//
f 216// 226// 227//
f 216// 227// 228//
f 228// 229// 216//
f 216// 229// 230//
f 216// 230// 231//
f 232// 233// 216//
f 216// 233// 234//
f 216// 234// 217//
f 215// 235// 213//
f 213// 235// 236//
f 213// 236// 237//
f 237// 236// 238//
f 231// 239// 216//
f 216// 239// 240//
f 216// 240// 232//
f 241// 242// 243//
f 243// 242// 244//
f 243// 245// 246//
f 247// 248// 249//
f 249// 248// 250//
f 249// 250// 251//
f 246// 252// 243//
f 243// 252// 253//
f 243// 253// 254//
f 251// 255// 249//
f 249// 255// 256//
f 249// 256// 257//
f 254// 258// 243//
f 243// 258// 259//
f 243// 259// 260//
f 260// 261// 243//
f 243// 261// 262//
f 243// 262// 241//
f 225// 263// 150//
f 150// 263// 264//
f 150// 264// 265//
f 265// 264// 266//
f 265// 266// 267//
f 267// 266// 268//
f 267// 268// 247//
f 20// 269// 270//
f 271// 272// 273//
f 273// 272// 274//
f 273// 274// 275//
f 276// 270// 277//
f 277// 270// 269//
f 277// 269// 278//
f 278// 269// 279//
f 270// 280// 20//
f 20// 280// 281//
f 20// 281// 282//
f 276// 283// 270//
f 270// 283// 284//
f 270// 284// 274//
f 274// 284// 285//
f 274// 285// 286//
f 282// 287// 20//
f 20// 287// 288//
f 20// 288// 18//
f 286// 289// 274//
f 274// 289// 290//
f 274// 290// 291//
f 291// 292// 274//
f 274// 292// 293//
f 274// 293// 294//
f 295// 296// 274//
f 274// 296// 297//
f 274// 297// 275//
f 273// 298// 271//
f 271// 298// 299//
f 271// 299// 300//
f 300// 299// 301//
f 294// 302// 274//
f 274// 302// 303//
f 274// 303// 295//
f 304// 11// 305//
f 305// 11// 10//
f 305// 10// 306//
f 306// 10// 307//
f 308// 309// 310//
f 310// 309// 311//
f 312// 313// 307//
f 307// 313// 314//
f 307// 314// 315//
f 311// 316// 310//
f 310// 316// 317//
f 310// 317// 307//
f 307// 317// 318//
f 307// 318// 312//
f 315// 319// 307//
f 307// 319// 320//
f 307// 320// 321//
f 322// 306// 323//
f 323// 306// 307//
f 323// 307// 324//
f 324// 307// 321//
f 15// 325// 326//
f 326// 327// 15//
f 15// 327// 328//
f 15// 328// 310//
f 310// 328// 329//
f 310// 329// 308//
f 15// 17// 325//
f 325// 17// 330//
f 325// 330// 267//
f 267// 330// 331//
f 267// 331// 265//
f 55// 52// 14//
f 14// 52// 51//
f 14// 51// 12//
f 12// 51// 139//
f 12// 139// 143//
f 57// 332// 40//
f 40// 332// 38//
f 40// 38// 39//
f 39// 38// 37//
f 247// 249// 267//
f 267// 249// 20//
f 267// 20// 325//
f 325// 20// 19//
f 325// 19// 326//
f 331// 13// 265//
f 265// 13// 12//
f 265// 12// 150//
f 150// 12// 125//
f 150// 125// 148//
f 148// 125// 153//
f 243// 333// 334//
f 333// 243// 335//
f 335// 243// 269//
f 335// 269// 336//
f 336// 269// 20//
f 336// 20// 334//
f 334// 20// 249//
f 334// 249// 243//
f 243// 249// 257//
f 243// 257// 245//
f 210// 163// 337//
f 337// 163// 195//
f 337// 195// 244//
f 244// 195// 338//
f 244// 338// 243//
f 243// 338// 11//
f 243// 11// 269//
f 269// 11// 304//
f 269// 304// 279//
f 332// 339// 38//
f 38// 339// 340//
f 38// 340// 36//
f 36// 340// 341//
f 36// 341// 34//
f 34// 341// 342//
f 34// 342// 69//
f 69// 342// 343//
f 9// 11// 344//
f 344// 11// 338//
f 344// 338// 345//
f 345// 338// 195//
f 345// 195// 346//
f 346// 195// 198//
f 346// 198// 347//
f 347// 198// 74//
f 347// 74// 348//
f 348// 74// 70//
f 348// 70// 349//
f 349// 70// 69//
f 349// 69// 350//
f 350// 69// 343//
f 350// 343// 351//
f 352// 353// 354//
f 354// 353// 355//
f 354// 355// 356//
f 355// 357// 356//
f 356// 357// 358//
f 356// 358// 359//
f 359// 358// 360//
f 352// 359// 353//
f 353// 359// 360//
f 353// 360// 361//
f 361// 360// 362//
f 361// 362// 357//
f 357// 362// 363//
f 357// 363// 358//
f 364// 365// 366//
f 366// 365// 367//
f 366// 367// 368//
f 369// 370// 371//
f 371// 370// 372//
f 371// 372// 373//
f 373// 372// 374//
f 373// 374// 375//
f 375// 374// 376//
f 377// 378// 379//
f 379// 378// 380//
f 379// 380// 381//
f 382// 383// 361//
f 361// 383// 353//
f 384// 385// 386//
f 370// 369// 384//
f 387// 388// 389//
f 389// 388// 390//
f 391// 392// 376//
f 376// 392// 393//
f 376// 393// 365//
f 394// 380// 395//
f 395// 380// 396//
f 395// 396// 397//
f 398// 399// 381//
f 394// 400// 380//
f 380// 400// 401//
f 380// 401// 402//
f 403// 404// 364//
f 364// 404// 405//
f 364// 405// 406//
f 407// 408// 376//
f 376// 408// 409//
f 376// 409// 391//
f 381// 399// 410//
f 410// 399// 411//
f 410// 411// 412//
f 403// 364// 413//
f 413// 364// 414//
f 413// 414// 415//
f 406// 389// 364//
f 364// 389// 390//
f 364// 390// 365//
f 365// 390// 375//
f 365// 375// 376//
f 416// 417// 381//
f 381// 417// 418//
f 381// 418// 398//
f 386// 416// 384//
f 384// 416// 381//
f 384// 381// 370//
f 370// 381// 380//
f 370// 380// 419//
f 419// 380// 402//
f 420// 421// 411//
f 411// 421// 422//
f 411// 422// 412//
f 423// 357// 424//
f 424// 357// 355//
f 424// 355// 425//
f 415// 426// 413//
f 413// 426// 427//
f 413// 427// 428//
f 425// 355// 411//
f 411// 355// 429//
f 411// 429// 420//
f 423// 430// 357//
f 357// 430// 413//
f 357// 413// 431//
f 431// 413// 428//
f 397// 432// 433//
f 378// 434// 380//
f 380// 434// 396//
f 396// 434// 397//
f 397// 434// 435//
f 397// 435// 432//
f 436// 401// 437//
f 437// 401// 400//
f 437// 400// 438//
f 438// 400// 394//
f 438// 394// 433//
f 433// 394// 395//
f 433// 395// 397//
f 372// 370// 439//
f 439// 370// 419//
f 439// 419// 436//
f 436// 419// 402//
f 436// 402// 401//
f 374// 372// 440//
f 440// 372// 441//
f 440// 441// 442//
f 442// 441// 443//
f 442// 443// 444//
f 444// 443// 445//
f 444// 445// 446//
f 446// 445// 447//
f 446// 447// 448//
f 448// 447// 449//
f 448// 449// 450//
f 450// 449// 451//
f 450// 451// 452//
f 452// 451// 453//
f 452// 453// 454//
f 454// 453// 455//
f 454// 455// 456//
f 456// 455// 457//
f 456// 457// 458//
f 458// 457// 459//
f 339// 332// 460//
f 460// 332// 459//
f 332// 57// 459//
f 459// 57// 14//
f 459// 14// 13//
f 13// 331// 459//
f 459// 331// 330//
f 459// 330// 458//
f 458// 330// 17//
f 458// 17// 461//
f 461// 17// 16//
f 408// 407// 462//
f 462// 407// 376//
f 462// 376// 374//
f 462// 463// 408//
f 408// 463// 464//
f 408// 464// 409//
f 464// 465// 409//
f 409// 465// 466//
f 409// 466// 391//
f 391// 466// 467//
f 467// 468// 391//
f 391// 468// 469//
f 391// 469// 392//
f 469// 470// 392//
f 392// 470// 471//
f 392// 471// 393//
f 471// 472// 393//
f 393// 472// 367//
f 393// 367// 365//
f 381// 410// 379//
f 379// 410// 473//
f 473// 410// 474//
f 474// 410// 412//
f 474// 412// 475//
f 475// 412// 476//
f 476// 412// 422//
f 476// 422// 477//
f 477// 422// 478//
f 478// 422// 421//
f 478// 421// 479//
f 480// 481// 420//
f 420// 481// 482//
f 420// 482// 421//
f 421// 482// 483//
f 421// 483// 479//
f 420// 429// 480//
f 480// 429// 355//
f 480// 355// 353//
f 484// 485// 486//
f 486// 485// 339//
f 487// 339// 485//
f 434// 488// 435//
f 435// 488// 489//
f 435// 489// 432//
f 432// 489// 433//
f 433// 489// 490//
f 433// 490// 438//
f 438// 490// 491//
f 438// 491// 437//
f 437// 491// 436//
f 436// 491// 492//
f 436// 492// 439//
f 439// 492// 441//
f 439// 441// 372//
f 339// 460// 493//
f 493// 460// 459//
f 494// 339// 493//
f 495// 496// 497//
f 497// 496// 494//
f 497// 494// 498//
f 498// 494// 493//
f 498// 493// 499//
f 499// 493// 459//
f 500// 501// 484//
f 484// 501// 502//
f 484// 502// 485//
f 485// 502// 503//
f 485// 503// 487//
f 504// 495// 505//
f 505// 495// 497//
f 505// 497// 506//
f 506// 497// 498//
f 506// 498// 507//
f 507// 498// 499//
f 507// 499// 508//
f 509// 510// 511//
f 511// 510// 512//
f 459// 457// 499//
f 499// 457// 455//
f 499// 455// 508//
f 508// 455// 453//
f 508// 453// 451//
f 512// 504// 511//
f 511// 504// 505//
f 511// 505// 513//
f 513// 505// 506//
f 513// 506// 514//
f 514// 506// 507//
f 514// 507// 515//
f 515// 507// 508//
f 515// 508// 516//
f 516// 508// 451//
f 517// 518// 519//
f 519// 518// 509//
f 509// 511// 519//
f 519// 511// 513//
f 519// 513// 520//
f 520// 513// 514//
f 520// 514// 521//
f 521// 514// 515//
f 521// 515// 522//
f 522// 515// 516//
f 522// 516// 523//
f 496// 339// 494//
f 512// 500// 504//
f 504// 500// 484//
f 504// 484// 495//
f 495// 484// 486//
f 495// 486// 496//
f 496// 486// 339//
f 517// 488// 524//
f 524// 488// 434//
f 524// 434// 378//
f 451// 449// 516//
f 516// 449// 447//
f 516// 447// 523//
f 523// 447// 445//
f 523// 445// 443//
f 517// 519// 488//
f 488// 519// 520//
f 488// 520// 489//
f 489// 520// 521//
f 489// 521// 490//
f 490// 521// 522//
f 490// 522// 491//
f 491// 522// 523//
f 491// 523// 492//
f 492// 523// 443//
f 492// 443// 441//
f 525// 526// 527//
f 527// 526// 16//
f 528// 463// 462//
f 463// 528// 464//
f 464// 528// 529//
f 464// 529// 465//
f 465// 529// 466//
f 466// 529// 530//
f 466// 530// 467//
f 467// 530// 468//
f 468// 530// 531//
f 468// 531// 469//
f 469// 531// 470//
f 470// 531// 532//
f 470// 532// 471//
f 471// 532// 472//
f 472// 532// 533//
f 472// 533// 367//
f 454// 456// 525//
f 525// 456// 458//
f 525// 458// 526//
f 526// 458// 461//
f 526// 461// 16//
f 16// 534// 535//
f 535// 534// 536//
f 537// 16// 535//
f 538// 539// 540//
f 540// 539// 537//
f 540// 537// 541//
f 541// 537// 535//
f 541// 535// 542//
f 542// 535// 536//
f 543// 538// 544//
f 544// 538// 540//
f 544// 540// 545//
f 545// 540// 541//
f 545// 541// 546//
f 546// 541// 542//
f 546// 542// 547//
f 446// 448// 548//
f 548// 448// 450//
f 536// 549// 542//
f 542// 549// 550//
f 542// 550// 547//
f 547// 550// 551//
f 547// 551// 552//
f 552// 553// 547//
f 547// 553// 554//
f 547// 554// 546//
f 546// 554// 555//
f 546// 555// 545//
f 545// 555// 556//
f 545// 556// 544//
f 544// 556// 548//
f 544// 548// 543//
f 543// 548// 450//
f 543// 450// 452//
f 442// 444// 557//
f 557// 444// 446//
f 446// 548// 557//
f 557// 548// 556//
f 557// 556// 558//
f 558// 556// 555//
f 558// 555// 559//
f 559// 555// 554//
f 559// 554// 560//
f 560// 554// 553//
f 560// 553// 561//
f 539// 16// 537//
f 452// 454// 543//
f 543// 454// 525//
f 543// 525// 538//
f 538// 525// 527//
f 538// 527// 539//
f 539// 527// 16//
f 442// 528// 440//
f 440// 528// 462//
f 440// 462// 374//
f 552// 562// 553//
f 553// 562// 563//
f 553// 563// 561//
f 561// 563// 564//
f 561// 564// 565//
f 442// 557// 528//
f 528// 557// 558//
f 528// 558// 529//
f 529// 558// 559//
f 529// 559// 530//
f 530// 559// 560//
f 530// 560// 531//
f 531// 560// 561//
f 531// 561// 532//
f 532// 561// 565//
f 532// 565// 533//
f 357// 431// 361//
f 361// 431// 566//
f 566// 431// 567//
f 567// 431// 428//
f 567// 428// 568//
f 568// 428// 569//
f 569// 428// 427//
f 569// 427// 570//
f 570// 427// 571//
f 571// 427// 426//
f 571// 426// 572//
f 572// 426// 573//
f 573// 426// 415//
f 573// 415// 574//
f 574// 415// 575//
f 575// 415// 414//
f 575// 414// 576//
f 576// 414// 364//
f 576// 364// 366//
f 353// 383// 480//
f 480// 383// 577//
f 480// 577// 481//
f 481// 577// 482//
f 482// 577// 578//
f 482// 578// 483//
f 483// 578// 479//
f 479// 578// 579//
f 479// 579// 478//
f 478// 579// 477//
f 477// 579// 580//
f 477// 580// 476//
f 476// 580// 475//
f 475// 580// 581//
f 475// 581// 474//
f 474// 581// 473//
f 473// 581// 377//
f 473// 377// 379//
f 351// 343// 582//
f 582// 343// 342//
f 342// 341// 582//
f 582// 341// 340//
f 582// 340// 487//
f 487// 340// 339//
f 487// 503// 582//
f 582// 503// 502//
f 582// 502// 583//
f 502// 501// 583//
f 583// 501// 500//
f 583// 500// 584//
f 584// 500// 512//
f 584// 512// 585//
f 512// 510// 585//
f 585// 510// 509//
f 585// 509// 586//
f 509// 518// 586//
f 586// 518// 517//
f 586// 517// 377//
f 377// 517// 524//
f 377// 524// 378//
f 534// 16// 15//
f 534// 15// 536//
f 310// 307// 587//
f 587// 307// 10//
f 587// 10// 9//
f 15// 310// 536//
f 536// 310// 587//
f 536// 587// 549//
f 549// 587// 550//
f 550// 587// 588//
f 550// 588// 551//
f 551// 588// 552//
f 552// 588// 589//
f 552// 589// 562//
f 562// 589// 590//
f 562// 590// 563//
f 563// 590// 564//
f 564// 590// 591//
f 564// 591// 565//
f 565// 591// 533//
f 533// 591// 368//
f 533// 368// 367//
f 366// 368// 576//
f 576// 368// 592//
f 576// 592// 575//
f 575// 592// 574//
f 574// 592// 593//
f 574// 593// 573//
f 573// 593// 572//
f 572// 593// 594//
f 572// 594// 571//
f 571// 594// 570//
f 570// 594// 595//
f 570// 595// 569//
f 569// 595// 568//
f 568// 595// 596//
f 568// 596// 567//
f 567// 596// 566//
f 566// 596// 382//
f 566// 382// 361//
f 383// 597// 598//
f 599// 600// 601//
f 351// 582// 602//
f 601// 600// 351//
f 603// 351// 600//
f 603// 600// 604//
f 604// 600// 599//
f 604// 599// 605//
f 606// 351// 603//
f 607// 608// 609//
f 609// 608// 602//
f 609// 602// 610//
f 610// 602// 582//
f 610// 582// 583//
f 606// 603// 611//
f 611// 603// 604//
f 611// 604// 612//
f 612// 604// 605//
f 612// 605// 613//
f 614// 607// 615//
f 615// 607// 609//
f 615// 609// 616//
f 616// 609// 610//
f 616// 610// 617//
f 617// 610// 583//
f 617// 583// 584//
f 618// 614// 619//
f 619// 614// 615//
f 619// 615// 620//
f 620// 615// 616//
f 620// 616// 621//
f 621// 616// 617//
f 621// 617// 622//
f 622// 617// 584//
f 622// 584// 585//
f 597// 618// 598//
f 598// 618// 619//
f 598// 619// 623//
f 623// 619// 620//
f 623// 620// 624//
f 624// 620// 621//
f 624// 621// 625//
f 625// 621// 622//
f 625// 622// 626//
f 626// 622// 585//
f 626// 585// 586//
f 383// 598// 577//
f 577// 598// 623//
f 577// 623// 578//
f 578// 623// 624//
f 578// 624// 579//
f 579// 624// 625//
f 579// 625// 580//
f 580// 625// 626//
f 580// 626// 581//
f 581// 626// 586//
f 581// 586// 377//
f 608// 351// 602//
f 597// 613// 618//
f 618// 613// 605//
f 618// 605// 614//
f 614// 605// 599//
f 614// 599// 607//
f 607// 599// 601//
f 607// 601// 608//
f 608// 601// 351//
f 368// 591// 627//
f 628// 629// 630//
f 9// 631// 632//
f 630// 629// 9//
f 633// 9// 629//
f 633// 629// 634//
f 634// 629// 628//
f 634// 628// 635//
f 587// 9// 633//
f 636// 637// 638//
f 638// 637// 632//
f 638// 632// 639//
f 639// 632// 631//
f 639// 631// 640//
f 587// 633// 588//
f 588// 633// 634//
f 588// 634// 589//
f 589// 634// 635//
f 589// 635// 590//
f 641// 636// 642//
f 642// 636// 638//
f 642// 638// 643//
f 643// 638// 639//
f 643// 639// 644//
f 644// 639// 640//
f 644// 640// 645//
f 646// 641// 647//
f 647// 641// 642//
f 647// 642// 648//
f 648// 642// 643//
f 648// 643// 649//
f 649// 643// 644//
f 649// 644// 650//
f 650// 644// 645//
f 650// 645// 651//
f 591// 646// 627//
f 627// 646// 647//
f 627// 647// 652//
f 652// 647// 648//
f 652// 648// 653//
f 653// 648// 649//
f 653// 649// 654//
f 654// 649// 650//
f 654// 650// 655//
f 655// 650// 651//
f 655// 651// 656//
f 368// 627// 592//
f 592// 627// 652//
f 592// 652// 593//
f 593// 652// 653//
f 593// 653// 594//
f 594// 653// 654//
f 594// 654// 595//
f 595// 654// 655//
f 595// 655// 596//
f 596// 655// 656//
f 596// 656// 382//
f 637// 9// 632//
f 591// 590// 646//
f 646// 590// 635//
f 646// 635// 641//
f 641// 635// 628//
f 641// 628// 636//
f 636// 628// 630//
f 636// 630// 637//
f 637// 630// 9//
f 9// 344// 631//
f 631// 344// 345//
f 345// 346// 631//
f 631// 346// 347//
f 631// 347// 348//
f 348// 349// 606//
f 606// 349// 350//
f 606// 350// 351//
f 348// 606// 631//
f 631// 606// 611//
f 631// 611// 640//
f 640// 611// 612//
f 640// 612// 645//
f 645// 612// 613//
f 645// 613// 651//
f 651// 613// 597//
f 651// 597// 656//
f 656// 597// 383//
f 656// 383// 382//
f 371// 373// 657//
f 657// 373// 658//
f 659// 371// 660//
f 660// 371// 657//
f 660// 657// 661//
f 661// 657// 662//
f 661// 662// 663//
f 663// 662// 664//
f 662// 665// 664//
f 664// 665// 666//
f 664// 666// 667//
f 667// 666// 668//
f 669// 670// 671//
f 671// 670// 663//
f 672// 661// 673//
f 673// 661// 663//
f 673// 663// 674//
f 674// 663// 670//
f 668// 675// 676//
f 676// 677// 668//
f 668// 677// 678//
f 668// 678// 667//
f 658// 373// 390//
f 390// 373// 375//
f 384// 369// 659//
f 659// 369// 371//
f 659// 660// 384//
f 384// 660// 385//
f 660// 661// 385//
f 385// 661// 386//
f 661// 672// 386//
f 386// 672// 416//
f 672// 673// 416//
f 416// 673// 417//
f 664// 424// 663//
f 663// 424// 425//
f 663// 425// 671//
f 671// 425// 411//
f 671// 411// 669//
f 669// 411// 399//
f 669// 399// 670//
f 670// 399// 398//
f 670// 398// 674//
f 674// 398// 418//
f 674// 418// 673//
f 673// 418// 417//
f 664// 667// 424//
f 424// 667// 423//
f 666// 406// 668//
f 668// 406// 405//
f 668// 405// 675//
f 675// 405// 404//
f 675// 404// 676//
f 676// 404// 403//
f 676// 403// 677//
f 677// 403// 413//
f 677// 413// 678//
f 678// 413// 430//
f 678// 430// 667//
f 667// 430// 423//
f 666// 665// 406//
f 406// 665// 389//
f 665// 662// 389//
f 389// 662// 387//
f 662// 657// 387//
f 387// 657// 388//
f 657// 658// 388//
f 388// 658// 390//
usemtl 1
f 679// 680// 681//
f 681// 680// 682//
f 683// 679// 684//
f 684// 679// 681//
f 685// 683// 686//
f 686// 683// 684//
f 680// 685// 682//
f 682// 685// 686//
f 687// 688// 689//
f 689// 688// 690//
f 689// 690// 691//
f 691// 690// 692//
f 691// 692// 693//
f 693// 692// 694//
f 693// 694// 682//
f 682// 694// 681//
f 688// 695// 690//
f 690// 695// 696//
f 690// 696// 692//
f 692// 696// 697//
f 692// 697// 694//
f 694// 697// 698//
f 694// 698// 681//
f 681// 698// 684//
f 686// 684// 698//
f 686// 698// 699//
f 699// 698// 697//
f 699// 697// 700//
f 700// 697// 696//
f 700// 696// 701//
f 701// 696// 695//
f 701// 695// 702//
f 682// 686// 693//
f 693// 686// 699//
f 693// 699// 691//
f 691// 699// 700//
f 691// 700// 689//
f 689// 700// 701//
f 689// 701// 687//
f 687// 701// 702//
f 688// 687// 703//
f 703// 687// 704//
f 695// 688// 705//
f 705// 688// 703//
f 702// 695// 706//
f 706// 695// 705//
f 687// 702// 704//
f 704// 702// 706//
f 703// 704// 707//
f 703// 707// 708//
f 708// 707// 709//
f 708// 709// 710//
f 710// 709// 711//
f 710// 711// 712//
f 712// 711// 713//
f 712// 713// 714//
f 705// 703// 715//
f 715// 703// 708//
f 715// 708// 716//
f 716// 708// 710//
f 716// 710// 717//
f 717// 710// 712//
f 717// 712// 718//
f 718// 712// 714//
f 718// 719// 717//
f 717// 719// 720//
f 717// 720// 716//
f 716// 720// 721//
f 716// 721// 715//
f 715// 721// 722//
f 715// 722// 705//
f 705// 722// 706//
f 719// 713// 720//
f 720// 713// 711//
f 720// 711// 721//
f 721// 711// 709//
f 721// 709// 722//
f 722// 709// 707//
f 722// 707// 706//
f 706// 707// 704//
f 713// 719// 362//
f 362// 719// 363//
f 714// 713// 360//
f 360// 713// 362//
f 718// 714// 358//
f 358// 714// 360//
f 719// 718// 363//
f 363// 718// 358//
f 679// 683// 680//
f 680// 683// 685//
f 723// 724// 725//
f 725// 724// 726//
f 727// 723// 728//
f 728// 723// 725//
f 729// 727// 730//
f 730// 727// 728//
f 724// 729// 726//
f 726// 729// 730//
f 731// 732// 733//
f 733// 732// 734//
f 733// 734// 735//
f 735// 734// 736//
f 735// 736// 737//
f 737// 736// 738//
f 737// 738// 726//
f 726// 738// 725//
f 732// 739// 734//
f 734// 739// 740//
f 734// 740// 736//
f 736// 740// 741//
f 736// 741// 738//
f 738// 741// 742//
f 738// 742// 725//
f 725// 742// 728//
f 730// 728// 742//
f 730// 742// 743//
f 743// 742// 741//
f 743// 741// 744//
f 744// 741// 740//
f 744// 740// 745//
f 745// 740// 739//
f 745// 739// 746//
f 726// 730// 737//
f 737// 730// 743//
f 737// 743// 735//
f 735// 743// 744//
f 735// 744// 733//
f 733// 744// 745//
f 733// 745// 731//
f 731// 745// 746//
f 732// 731// 747//
f 747// 731// 748//
f 739// 732// 749//
f 749// 732// 747//
f 746// 739// 750//
f 750// 739// 749//
f 731// 746// 748//
f 748// 746// 750//
f 747// 748// 751//
f 747// 751// 752//
f 752// 751// 753//
f 752// 753// 754//
f 754// 753// 755//
f 754// 755// 756//
f 756// 755// 757//
f 756// 757// 758//
f 749// 747// 759//
f 759// 747// 752//
f 759// 752// 760//
f 760// 752// 754//
f 760// 754// 761//
f 761// 754// 756//
f 761// 756// 762//
f 762// 756// 758//
f 762// 763// 761//
f 761// 763// 764//
f 761// 764// 760//
f 760// 764// 765//
f 760// 765// 759//
f 759// 765// 766//
f 759// 766// 749//
f 749// 766// 750//
f 763// 757// 764//
f 764// 757// 755//
f 764// 755// 765//
f 765// 755// 753//
f 765// 753// 766//
f 766// 753// 751//
f 766// 751// 750//
f 750// 751// 748//
f 757// 763// 359//
f 359// 763// 356//
f 758// 757// 352//
f 352// 757// 359//
f 762// 758// 354//
f 354// 758// 352//
f 763// 762// 356//
f 356// 762// 354//
f 723// 727// 724//
f 724// 727// 729//
usemtl 3
f 35// 767// 37//
f 37// 767// 768//
f 37// 768// 39//
f 768// 769// 39//
f 39// 769// 27//
f 770// 24// 769//
f 769// 24// 28//
f 769// 28// 27//
f 770// 771// 24//
f 24// 771// 25//
f 25// 771// 26//
f 26// 771// 772//
f 26// 772// 31//
f 772// 773// 31//
f 31// 773// 68//
f 68// 773// 32//
f 32// 773// 774//
f 32// 774// 33//
f 774// 767// 33//
f 33// 767// 35//
f 769// 768// 774//
f 774// 768// 767//
f 770// 769// 771//
f 771// 769// 774//
f 771// 774// 772//
f 772// 774// 773//
f 775// 776// 777//
f 777// 776// 778//
f 777// 779// 775//
f 775// 779// 780//
f 775// 780// 781//
f 781// 780// 782//
f 781// 782// 783//
f 783// 782// 784//
f 783// 784// 785//
f 785// 784// 786//
f 787// 788// 789//
f 789// 788// 790//
f 789// 790// 791//
f 791// 790// 792//
f 791// 792// 793//
f 793// 792// 794//
f 793// 794// 795//
f 795// 794// 796//
f 795// 796// 797//
f 797// 796// 798//
f 797// 798// 799//
f 799// 798// 800//
f 799// 800// 801//
f 801// 800// 802//
f 801// 802// 803//
f 803// 802// 778//
f 803// 778// 804//
f 804// 778// 776//
f 784// 805// 786//
f 786// 805// 806//
f 786// 806// 807//
f 807// 806// 808//
f 807// 808// 809//
f 809// 808// 810//
f 809// 810// 811//
f 811// 810// 812//
f 811// 812// 813//
f 813// 812// 814//
f 813// 814// 815//
f 815// 814// 816//
f 814// 817// 816//
f 816// 817// 818//
f 816// 818// 819//
f 819// 818// 820//
f 819// 820// 821//
f 821// 820// 822//
f 821// 822// 823//
f 823// 822// 824//
f 823// 824// 825//
f 825// 824// 826//
f 825// 826// 827//
f 827// 826// 828//
f 827// 828// 829//
f 829// 828// 830//
f 829// 830// 787//
f 787// 830// 831//
f 787// 831// 788//
f 798// 77// 76//
f 798// 76// 800//
f 76// 75// 800//
f 800// 75// 46//
f 800// 46// 802//
f 802// 46// 45//
f 802// 45// 778//
f 790// 82// 81//
f 790// 81// 792//
f 792// 81// 73//
f 792// 73// 794//
f 794// 73// 72//
f 794// 72// 796//
f 796// 72// 77//
f 796// 77// 798//
f 826// 71// 80//
f 826// 80// 828//
f 828// 80// 79//
f 828// 79// 830//
f 830// 79// 78//
f 830// 78// 831//
f 831// 78// 83//
f 831// 83// 788//
f 788// 83// 82//
f 788// 82// 790//
f 820// 66// 65//
f 820// 65// 822//
f 822// 65// 64//
f 822// 64// 824//
f 824// 64// 826//
f 826// 64// 63//
f 826// 63// 71//
f 812// 62// 61//
f 812// 61// 814//
f 814// 61// 60//
f 814// 60// 817//
f 817// 60// 67//
f 817// 67// 818//
f 818// 67// 66//
f 818// 66// 820//
f 806// 56// 808//
f 808// 56// 58//
f 62// 812// 53//
f 53// 812// 810//
f 53// 810// 54//
f 54// 810// 808//
f 54// 808// 59//
f 59// 808// 58//
f 56// 806// 805//
f 780// 47// 43//
f 780// 43// 782//
f 782// 43// 42//
f 782// 42// 784//
f 42// 50// 784//
f 784// 50// 52//
f 784// 52// 805//
f 805// 52// 55//
f 805// 55// 56//
f 778// 45// 49//
f 778// 49// 777//
f 777// 49// 48//
f 777// 48// 779//
f 779// 48// 47//
f 779// 47// 780//
f 786// 832// 833//
f 786// 833// 785//
f 785// 833// 834//
f 785// 834// 783//
f 783// 834// 835//
f 783// 835// 781//
f 781// 835// 836//
f 781// 836// 775//
f 775// 836// 837//
f 775// 837// 776//
f 776// 837// 838//
f 776// 838// 804//
f 804// 838// 839//
f 804// 839// 803//
f 803// 839// 840//
f 803// 840// 801//
f 801// 840// 841//
f 801// 841// 799//
f 799// 841// 842//
f 799// 842// 797//
f 797// 842// 843//
f 797// 843// 795//
f 795// 843// 844//
f 795// 844// 793//
f 793// 844// 845//
f 793// 845// 791//
f 791// 845// 846//
f 791// 846// 789//
f 789// 846// 847//
f 789// 847// 787//
f 787// 847// 848//
f 787// 848// 829//
f 829// 848// 849//
f 829// 849// 827//
f 827// 849// 850//
f 827// 850// 825//
f 825// 850// 851//
f 825// 851// 823//
f 823// 851// 852//
f 823// 852// 821//
f 821// 852// 853//
f 821// 853// 819//
f 819// 853// 854//
f 819// 854// 816//
f 816// 854// 855//
f 816// 855// 815//
f 815// 855// 856//
f 815// 856// 813//
f 813// 856// 857//
f 813// 857// 811//
f 811// 857// 858//
f 811// 858// 809//
f 809// 858// 859//
f 809// 859// 807//
f 807// 859// 832//
f 807// 832// 786//
usemtl 2
f 855// 854// 838//
f 841// 840// 852//
f 845// 852// 846//
f 846// 852// 847//
f 841// 852// 842//
f 854// 853// 838//
f 838// 853// 852//
f 838// 852// 839//
f 839// 852// 840//
f 834// 833// 838//
f 833// 832// 838//
f 838// 832// 859//
f 838// 859// 858//
f 852// 851// 847//
f 847// 851// 850//
f 847// 850// 848//
f 848// 850// 849//
f 845// 844// 852//
f 852// 844// 843//
f 852// 843// 842//
f 834// 838// 835//
f 835// 838// 837//
f 835// 837// 836//
f 858// 857// 838//
f 838// 857// 856//
f 838// 856// 855//
usemtl 3
f 860// 861// 93//
f 93// 861// 86//
f 862// 100// 85//
f 862// 85// 863//
f 863// 85// 84//
f 863// 84// 864//
f 864// 84// 86//
f 864// 86// 861//
f 139// 140// 865//
f 865// 140// 866//
f 140// 141// 866//
f 866// 141// 102//
f 866// 102// 867//
f 867// 102// 101//
f 867// 101// 868//
f 868// 101// 100//
f 868// 100// 862//
f 127// 869// 126//
f 126// 869// 870//
f 126// 870// 124//
f 124// 870// 871//
f 124// 871// 131//
f 131// 871// 872//
f 131// 872// 132//
f 132// 872// 873//
f 132// 873// 133//
f 142// 874// 127//
f 127// 874// 875//
f 127// 875// 869//
f 142// 143// 874//
f 874// 143// 139//
f 874// 139// 865//
f 876// 130// 129//
f 876// 129// 877//
f 877// 129// 128//
f 877// 128// 878//
f 878// 128// 123//
f 878// 123// 879//
f 879// 123// 122//
f 879// 122// 880//
f 880// 122// 133//
f 880// 133// 873//
f 876// 881// 130//
f 130// 881// 134//
f 882// 118// 883//
f 883// 118// 138//
f 138// 137// 883//
f 883// 137// 136//
f 883// 136// 884//
f 884// 136// 135//
f 884// 135// 885//
f 885// 135// 134//
f 885// 134// 881//
f 882// 886// 118//
f 118// 886// 119//
f 886// 887// 119//
f 119// 887// 121//
f 887// 888// 121//
f 121// 888// 203//
f 203// 888// 889//
f 890// 97// 96//
f 890// 96// 891//
f 891// 96// 95//
f 891// 95// 892//
f 892// 95// 89//
f 892// 89// 893//
f 893// 89// 88//
f 893// 88// 889//
f 889// 88// 87//
f 889// 87// 203//
f 890// 894// 97//
f 97// 894// 98//
f 895// 103// 99//
f 895// 99// 896//
f 896// 99// 98//
f 896// 98// 894//
f 897// 106// 105//
f 897// 105// 898//
f 898// 105// 104//
f 898// 104// 899//
f 899// 104// 103//
f 899// 103// 895//
f 900// 94// 111//
f 900// 111// 901//
f 901// 111// 110//
f 901// 110// 902//
f 902// 110// 109//
f 902// 109// 903//
f 903// 109// 117//
f 903// 117// 904//
f 904// 117// 116//
f 904// 116// 905//
f 905// 116// 108//
f 905// 108// 906//
f 906// 108// 107//
f 906// 107// 907//
f 907// 107// 106//
f 907// 106// 897//
f 860// 93// 91//
f 860// 91// 908//
f 908// 91// 90//
f 908// 90// 909//
f 909// 90// 114//
f 909// 114// 910//
f 910// 114// 115//
f 910// 115// 911//
f 911// 115// 113//
f 911// 113// 912//
f 912// 113// 112//
f 912// 112// 913//
f 913// 112// 92//
f 913// 92// 914//
f 914// 92// 94//
f 914// 94// 900//
f 887// 886// 888//
f 888// 886// 882//
f 873// 897// 880//
f 880// 897// 898//
f 880// 898// 879//
f 879// 898// 899//
f 879// 899// 878//
f 878// 899// 895//
f 878// 895// 877//
f 877// 895// 896//
f 877// 896// 876//
f 876// 896// 894//
f 876// 894// 881//
f 881// 894// 890//
f 881// 890// 885//
f 885// 890// 891//
f 885// 891// 884//
f 884// 891// 892//
f 884// 892// 883//
f 883// 892// 893//
f 883// 893// 882//
f 882// 893// 889//
f 882// 889// 888//
f 861// 860// 864//
f 864// 860// 908//
f 864// 908// 863//
f 863// 908// 909//
f 863// 909// 862//
f 862// 909// 910//
f 862// 910// 868//
f 868// 910// 911//
f 868// 911// 867//
f 867// 911// 912//
f 867// 912// 866//
f 866// 912// 913//
f 866// 913// 865//
f 913// 914// 865//
f 865// 914// 900//
f 865// 900// 874//
f 874// 900// 901//
f 874// 901// 875//
f 875// 901// 902//
f 875// 902// 869//
f 869// 902// 903//
f 869// 903// 870//
f 870// 903// 904//
f 870// 904// 871//
f 871// 904// 905//
f 871// 905// 872//
f 872// 905// 906//
f 872// 906// 873//
f 873// 906// 907//
f 873// 907// 897//
f 915// 916// 166//
f 166// 916// 167//
f 917// 183// 182//
f 917// 182// 918//
f 918// 182// 168//
f 918// 168// 919//
f 919// 168// 167//
f 919// 167// 916//
f 920// 181// 180//
f 920// 180// 921//
f 921// 180// 179//
f 921// 179// 922//
f 922// 179// 155//
f 922// 155// 923//
f 923// 155// 154//
f 923// 154// 924//
f 924// 154// 176//
f 924// 176// 925//
f 925// 176// 184//
f 925// 184// 926//
f 926// 184// 183//
f 926// 183// 917//
f 927// 202// 201//
f 927// 201// 928//
f 928// 201// 200//
f 928// 200// 929//
f 200// 162// 929//
f 929// 162// 161//
f 929// 161// 930//
f 930// 161// 181//
f 930// 181// 920//
f 931// 205// 204//
f 931// 204// 932//
f 932// 204// 194//
f 932// 194// 933//
f 933// 194// 193//
f 933// 193// 934//
f 934// 193// 202//
f 934// 202// 927//
f 935// 147// 146//
f 935// 146// 936//
f 936// 146// 145//
f 936// 145// 937//
f 145// 144// 937//
f 937// 144// 199//
f 937// 199// 938//
f 938// 199// 197//
f 938// 197// 939//
f 939// 197// 196//
f 939// 196// 940//
f 940// 196// 206//
f 940// 206// 941//
f 941// 206// 205//
f 941// 205// 931//
f 935// 942// 147//
f 147// 942// 151//
f 943// 186// 187//
f 943// 187// 944//
f 944// 187// 188//
f 944// 188// 945//
f 945// 188// 190//
f 945// 190// 946//
f 946// 190// 189//
f 946// 189// 947//
f 947// 189// 23//
f 947// 23// 948//
f 23// 173// 948//
f 948// 173// 157//
f 948// 157// 949//
f 949// 157// 151//
f 949// 151// 942//
f 950// 169// 175//
f 950// 175// 951//
f 951// 175// 174//
f 951// 174// 952//
f 952// 174// 22//
f 952// 22// 953//
f 22// 21// 953//
f 953// 21// 192//
f 953// 192// 954//
f 954// 192// 191//
f 954// 191// 955//
f 955// 191// 185//
f 955// 185// 956//
f 956// 185// 186//
f 956// 186// 943//
f 957// 159// 158//
f 957// 158// 958//
f 958// 158// 178//
f 958// 178// 959//
f 959// 178// 177//
f 959// 177// 960//
f 960// 177// 172//
f 960// 172// 961//
f 961// 172// 171//
f 961// 171// 962//
f 962// 171// 170//
f 962// 170// 963//
f 963// 170// 169//
f 963// 169// 950//
f 964// 152// 165//
f 964// 165// 965//
f 965// 165// 164//
f 965// 164// 966//
f 966// 164// 160//
f 966// 160// 967//
f 967// 160// 159//
f 967// 159// 957//
f 964// 968// 152//
f 152// 968// 153//
f 968// 969// 153//
f 153// 969// 148//
f 969// 970// 148//
f 148// 970// 149//
f 970// 971// 149//
f 149// 971// 156//
f 971// 915// 156//
f 156// 915// 166//
f 971// 970// 915//
f 915// 970// 969//
f 915// 969// 916//
f 916// 969// 968//
f 932// 933// 954//
f 954// 933// 934//
f 954// 934// 953//
f 953// 934// 927//
f 953// 927// 952//
f 952// 927// 928//
f 952// 928// 951//
f 942// 935// 949//
f 949// 935// 936//
f 949// 936// 948//
f 948// 936// 937//
f 948// 937// 947//
f 947// 937// 938//
f 947// 938// 946//
f 946// 938// 939//
f 946// 939// 945//
f 945// 939// 940//
f 945// 940// 944//
f 944// 940// 941//
f 944// 941// 943//
f 943// 941// 931//
f 943// 931// 956//
f 956// 931// 932//
f 956// 932// 955//
f 955// 932// 954//
f 968// 964// 916//
f 916// 964// 965//
f 916// 965// 919//
f 919// 965// 966//
f 919// 966// 918//
f 918// 966// 967//
f 918// 967// 917//
f 917// 967// 957//
f 917// 957// 926//
f 926// 957// 958//
f 926// 958// 925//
f 925// 958// 959//
f 925// 959// 924//
f 924// 959// 960//
f 924// 960// 923//
f 923// 960// 961//
f 923// 961// 922//
f 922// 961// 962//
f 922// 962// 921//
f 921// 962// 963//
f 921// 963// 920//
f 920// 963// 950//
f 920// 950// 930//
f 930// 950// 951//
f 930// 951// 929//
f 929// 951// 928//
f 972// 973// 216//
f 216// 973// 209//
f 974// 223// 208//
f 974// 208// 975//
f 975// 208// 207//
f 975// 207// 976//
f 976// 207// 209//
f 976// 209// 973//
f 266// 264// 977//
f 977// 264// 978//
f 264// 263// 978//
f 978// 263// 225//
f 978// 225// 979//
f 979// 225// 224//
f 979// 224// 980//
f 980// 224// 223//
f 980// 223// 974//
f 248// 981// 250//
f 250// 981// 982//
f 250// 982// 251//
f 251// 982// 983//
f 251// 983// 255//
f 255// 983// 984//
f 255// 984// 256//
f 256// 984// 985//
f 256// 985// 257//
f 247// 986// 248//
f 248// 986// 987//
f 248// 987// 981//
f 247// 268// 986//
f 986// 268// 266//
f 986// 266// 977//
f 988// 254// 253//
f 988// 253// 989//
f 989// 253// 252//
f 989// 252// 990//
f 990// 252// 246//
f 990// 246// 991//
f 991// 246// 245//
f 991// 245// 992//
f 992// 245// 257//
f 992// 257// 985//
f 988// 993// 254//
f 254// 993// 258//
f 994// 241// 995//
f 995// 241// 262//
f 262// 261// 995//
f 995// 261// 260//
f 995// 260// 996//
f 996// 260// 259//
f 996// 259// 997//
f 997// 259// 258//
f 997// 258// 993//
f 994// 998// 241//
f 241// 998// 242//
f 998// 999// 242//
f 242// 999// 244//
f 999// 1000// 244//
f 244// 1000// 337//
f 337// 1000// 1001//
f 1002// 220// 219//
f 1002// 219// 1003//
f 1003// 219// 218//
f 1003// 218// 1004//
f 1004// 218// 212//
f 1004// 212// 1005//
f 1005// 212// 211//
f 1005// 211// 1001//
f 1001// 211// 210//
f 1001// 210// 337//
f 1002// 1006// 220//
f 220// 1006// 221//
f 1007// 226// 222//
f 1007// 222// 1008//
f 1008// 222// 221//
f 1008// 221// 1006//
f 1009// 229// 228//
f 1009// 228// 1010//
f 1010// 228// 227//
f 1010// 227// 1011//
f 1011// 227// 226//
f 1011// 226// 1007//
f 1012// 217// 234//
f 1012// 234// 1013//
f 1013// 234// 233//
f 1013// 233// 1014//
f 1014// 233// 232//
f 1014// 232// 1015//
f 1015// 232// 240//
f 1015// 240// 1016//
f 1016// 240// 239//
f 1016// 239// 1017//
f 1017// 239// 231//
f 1017// 231// 1018//
f 1018// 231// 230//
f 1018// 230// 1019//
f 1019// 230// 229//
f 1019// 229// 1009//
f 972// 216// 214//
f 972// 214// 1020//
f 1020// 214// 213//
f 1020// 213// 1021//
f 1021// 213// 237//
f 1021// 237// 1022//
f 1022// 237// 238//
f 1022// 238// 1023//
f 1023// 238// 236//
f 1023// 236// 1024//
f 1024// 236// 235//
f 1024// 235// 1025//
f 1025// 235// 215//
f 1025// 215// 1026//
f 1026// 215// 217//
f 1026// 217// 1012//
f 999// 998// 1000//
f 1000// 998// 994//
f 985// 1009// 992//
f 992// 1009// 1010//
f 992// 1010// 991//
f 991// 1010// 1011//
f 991// 1011// 990//
f 990// 1011// 1007//
f 990// 1007// 989//
f 989// 1007// 1008//
f 989// 1008// 988//
f 988// 1008// 1006//
f 988// 1006// 993//
f 993// 1006// 1002//
f 993// 1002// 997//
f 997// 1002// 1003//
f 997// 1003// 996//
f 996// 1003// 1004//
f 996// 1004// 995//
f 995// 1004// 1005//
f 995// 1005// 994//
f 994// 1005// 1001//
f 994// 1001// 1000//
f 973// 972// 976//
f 976// 972// 1020//
f 976// 1020// 975//
f 975// 1020// 1021//
f 975// 1021// 974//
f 974// 1021// 1022//
f 974// 1022// 980//
f 980// 1022// 1023//
f 980// 1023// 979//
f 979// 1023// 1024//
f 979// 1024// 978//
f 978// 1024// 1025//
f 978// 1025// 977//
f 1025// 1026// 977//
f 977// 1026// 1012//
f 977// 1012// 986//
f 986// 1012// 1013//
f 986// 1013// 987//
f 987// 1013// 1014//
f 987// 1014// 981//
f 981// 1014// 1015//
f 981// 1015// 982//
f 982// 1015// 1016//
f 982// 1016// 983//
f 983// 1016// 1017//
f 983// 1017// 984//
f 984// 1017// 1018//
f 984// 1018// 985//
f 985// 1018// 1019//
f 985// 1019// 1009//
f 1027// 1028// 335//
f 335// 1028// 333//
f 1028// 1029// 333//
f 333// 1029// 334//
f 1029// 1030// 334//
f 334// 1030// 336//
f 1030// 1027// 336//
f 336// 1027// 335//
f 1030// 1029// 1027//
f 1027// 1029// 1028//
f 1031// 1032// 274//
f 274// 1032// 270//
f 1033// 282// 281//
f 1033// 281// 1034//
f 1034// 281// 280//
f 1034// 280// 1035//
f 1035// 280// 270//
f 1035// 270// 1032//
f 326// 19// 1036//
f 1036// 19// 1037//
f 19// 18// 1037//
f 1037// 18// 288//
f 1037// 288// 1038//
f 1038// 288// 287//
f 1038// 287// 1039//
f 1039// 287// 282//
f 1039// 282// 1033//
f 329// 1040// 308//
f 308// 1040// 1041//
f 308// 1041// 309//
f 309// 1041// 1042//
f 309// 1042// 311//
f 311// 1042// 1043//
f 311// 1043// 316//
f 316// 1043// 1044//
f 316// 1044// 317//
f 328// 1045// 329//
f 329// 1045// 1046//
f 329// 1046// 1040//
f 328// 327// 1045//
f 1045// 327// 326//
f 1045// 326// 1036//
f 1047// 315// 314//
f 1047// 314// 1048//
f 1048// 314// 313//
f 1048// 313// 1049//
f 1049// 313// 312//
f 1049// 312// 1050//
f 1050// 312// 318//
f 1050// 318// 1051//
f 1051// 318// 317//
f 1051// 317// 1044//
f 1047// 1052// 315//
f 315// 1052// 319//
f 1053// 322// 1054//
f 1054// 322// 323//
f 323// 324// 1054//
f 1054// 324// 321//
f 1054// 321// 1055//
f 1055// 321// 320//
f 1055// 320// 1056//
f 1056// 320// 319//
f 1056// 319// 1052//
f 1053// 1057// 322//
f 322// 1057// 306//
f 1057// 1058// 306//
f 306// 1058// 305//
f 1058// 1059// 305//
f 305// 1059// 304//
f 304// 1059// 1060//
f 1061// 284// 283//
f 1061// 283// 1062//
f 1062// 283// 276//
f 1062// 276// 1063//
f 1063// 276// 277//
f 1063// 277// 1064//
f 1064// 277// 278//
f 1064// 278// 1060//
f 1060// 278// 279//
f 1060// 279// 304//
f 1061// 1065// 284//
f 284// 1065// 285//
f 1066// 289// 286//
f 1066// 286// 1067//
f 1067// 286// 285//
f 1067// 285// 1065//
f 1068// 292// 291//
f 1068// 291// 1069//
f 1069// 291// 290//
f 1069// 290// 1070//
f 1070// 290// 289//
f 1070// 289// 1066//
f 1071// 275// 297//
f 1071// 297// 1072//
f 1072// 297// 296//
f 1072// 296// 1073//
f 1073// 296// 295//
f 1073// 295// 1074//
f 1074// 295// 303//
f 1074// 303// 1075//
f 1075// 303// 302//
f 1075// 302// 1076//
f 1076// 302// 294//
f 1076// 294// 1077//
f 1077// 294// 293//
f 1077// 293// 1078//
f 1078// 293// 292//
f 1078// 292// 1068//
f 1031// 274// 272//
f 1031// 272// 1079//
f 1079// 272// 271//
f 1079// 271// 1080//
f 1080// 271// 300//
f 1080// 300// 1081//
f 1081// 300// 301//
f 1081// 301// 1082//
f 1082// 301// 299//
f 1082// 299// 1083//
f 1083// 299// 298//
f 1083// 298// 1084//
f 1084// 298// 273//
f 1084// 273// 1085//
f 1085// 273// 275//
f 1085// 275// 1071//
f 1058// 1057// 1059//
f 1059// 1057// 1053//
f 1044// 1068// 1051//
f 1051// 1068// 1069//
f 1051// 1069// 1050//
f 1050// 1069// 1070//
f 1050// 1070// 1049//
f 1049// 1070// 1066//
f 1049// 1066// 1048//
f 1048// 1066// 1067//
f 1048// 1067// 1047//
f 1047// 1067// 1065//
f 1047// 1065// 1052//
f 1052// 1065// 1061//
f 1052// 1061// 1056//
f 1056// 1061// 1062//
f 1056// 1062// 1055//
f 1055// 1062// 1063//
f 1055// 1063// 1054//
f 1054// 1063// 1064//
f 1054// 1064// 1053//
f 1053// 1064// 1060//
f 1053// 1060// 1059//
f 1032// 1031// 1035//
f 1035// 1031// 1079//
f 1035// 1079// 1034//
f 1034// 1079// 1080//
f 1034// 1080// 1033//
f 1033// 1080// 1081//
f 1033// 1081// 1039//
f 1039// 1081// 1082//
f 1039// 1082// 1038//
f 1038// 1082// 1083//
f 1038// 1083// 1037//
f 1037// 1083// 1084//
f 1037// 1084// 1036//
f 1084// 1085// 1036//
f 1036// 1085// 1071//
f 1036// 1071// 1045//
f 1045// 1071// 1072//
f 1045// 1072// 1046//
f 1046// 1072// 1073//
f 1046// 1073// 1040//
f 1040// 1073// 1074//
f 1040// 1074// 1041//
f 1041// 1074// 1075//
f 1041// 1075// 1042//
f 1042// 1075// 1076//
f 1042// 1076// 1043//
f 1043// 1076// 1077//
f 1043// 1077// 1044//
f 1044// 1077// 1078//
f 1044// 1078// 1068//
usemtl 1
f 417// 1086// 1087//
f 1088// 1089// 1087//
f 1090// 1091// 1092//
f 1093// 1094// 1089//
f 1089// 1094// 1095//
f 1089// 1095// 1096//
f 1097// 1098// 1099//
f 384// 1097// 385//
f 385// 1097// 1099//
f 385// 1099// 386//
f 386// 1099// 1100//
f 1101// 1102// 1103//
f 1103// 1102// 1104//
f 1103// 1104// 1105//
f 1106// 1087// 1107//
f 1107// 1087// 1089//
f 1107// 1089// 1108//
f 1108// 1089// 1096//
f 1105// 1109// 1103//
f 1103// 1109// 1110//
f 1103// 1110// 1111//
f 1092// 1088// 1090//
f 1090// 1088// 1087//
f 1090// 1087// 1112//
f 1112// 1087// 1086//
f 1112// 1086// 1113//
f 1113// 1086// 416//
f 1113// 416// 1103//
f 1103// 416// 386//
f 1103// 386// 1101//
f 1101// 386// 1100//
f 1111// 1114// 1103//
f 1103// 1114// 1115//
f 1103// 1115// 1089//
f 1089// 1115// 1116//
f 1089// 1116// 1093//
f 425// 411// 417//
f 411// 399// 417//
f 417// 399// 398//
f 417// 398// 418//
f 1117// 1118// 1119//
f 1119// 1118// 1120//
f 1119// 1120// 1121//
f 1122// 406// 423//
f 423// 406// 405//
f 423// 405// 404//
f 404// 403// 423//
f 423// 403// 413//
f 423// 413// 430//
f 1123// 1124// 1087//
f 1087// 1124// 1125//
f 1106// 1100// 1087//
f 1087// 1100// 1099//
f 1087// 1099// 1123//
f 1123// 1099// 1126//
f 1123// 1126// 1127//
f 1128// 1125// 1129//
f 1129// 1125// 1130//
f 1128// 1131// 1125//
f 1125// 1131// 1117//
f 1125// 1117// 1087//
f 1087// 1117// 1119//
f 1087// 1119// 417//
f 417// 1119// 424//
f 417// 424// 425//
f 1099// 1132// 388//
f 388// 1132// 1133//
f 388// 1133// 390//
f 1134// 1135// 1136//
f 1136// 1135// 1123//
f 1136// 1123// 1137//
f 1137// 1123// 1127//
f 1137// 1127// 1138//
f 1138// 1127// 1139//
f 1140// 1141// 1142//
f 1142// 1141// 1143//
f 1142// 1143// 1144//
f 1145// 1146// 1142//
f 1142// 1146// 1147//
f 1148// 1149// 1150//
f 1150// 1149// 1151//
f 1147// 1152// 1142//
f 1142// 1152// 1151//
f 1142// 1151// 1153//
f 1153// 1151// 1149//
f 1154// 1121// 1155//
f 1155// 1121// 1156//
f 1155// 1156// 1157//
f 1099// 388// 1126//
f 1126// 388// 387//
f 1126// 387// 1130//
f 1158// 1159// 1160//
f 1144// 1161// 1142//
f 1142// 1161// 1162//
f 1142// 1162// 1145//
f 1163// 1164// 387//
f 387// 1164// 1165//
f 387// 1165// 1130//
f 1130// 1165// 1166//
f 1130// 1166// 1129//
f 1129// 1166// 1167//
f 1129// 1167// 1142//
f 1142// 1167// 1168//
f 1142// 1168// 1140//
f 1157// 1169// 1155//
f 1155// 1169// 1170//
f 1155// 1170// 1171//
f 1171// 1170// 1172//
f 1171// 1172// 1173//
f 1159// 1174// 1160//
f 1160// 1174// 1175//
f 1160// 1175// 1176//
f 1176// 1163// 1160//
f 1160// 1163// 387//
f 1160// 387// 1177//
f 1177// 387// 389//
f 1177// 389// 1154//
f 1154// 389// 1122//
f 1154// 1122// 1121//
f 1121// 1122// 423//
f 1121// 423// 1119//
f 1172// 1178// 1173//
f 1173// 1178// 1179//
f 1173// 1179// 1160//
f 1160// 1179// 1180//
f 1160// 1180// 1158//
f 662// 657// 660//
f 658// 1181// 657//
f 657// 1181// 1182//
f 657// 1182// 660//
f 660// 1182// 1183//
f 660// 1183// 659//
f 659// 1183// 1184//
f 666// 665// 662//
f 672// 664// 661//
f 661// 664// 667//
f 661// 667// 678//
f 672// 673// 664//
f 664// 673// 674//
f 664// 674// 670//
f 677// 676// 675//
f 670// 669// 664//
f 664// 669// 671//
f 664// 671// 663//
f 660// 661// 662//
f 662// 661// 678//
f 662// 678// 666//
f 666// 678// 677//
f 666// 677// 668//
f 668// 677// 675//
f 385// 660// 384//
f 384// 660// 659//
f 386// 661// 385//
f 385// 661// 660//
f 416// 672// 386//
f 386// 672// 661//
f 672// 416// 673//
f 673// 416// 1086//
f 673// 1086// 417//
f 424// 664// 663//
f 424// 663// 425//
f 425// 663// 671//
f 425// 671// 411//
f 411// 671// 669//
f 411// 669// 399//
f 399// 669// 670//
f 399// 670// 398//
f 398// 670// 674//
f 398// 674// 418//
f 418// 674// 673//
f 418// 673// 417//
f 423// 667// 1119//
f 1119// 667// 664//
f 1119// 664// 424//
f 406// 666// 668//
f 406// 668// 405//
f 405// 668// 675//
f 405// 675// 404//
f 404// 675// 676//
f 404// 676// 403//
f 403// 676// 677//
f 403// 677// 413//
f 413// 677// 678//
f 413// 678// 430//
f 430// 678// 667//
f 430// 667// 423//
f 389// 665// 1122//
f 1122// 665// 666//
f 1122// 666// 406//
f 387// 662// 389//
f 389// 662// 665//
f 388// 657// 387//
f 387// 657// 662//
f 390// 658// 388//
f 388// 658// 657//
f 1133// 1181// 390//
f 390// 1181// 658//
f 1132// 1182// 1133//
f 1133// 1182// 1181//
f 1098// 1183// 1099//
f 1099// 1183// 1182//
f 1099// 1182// 1132//
f 1097// 1184// 1098//
f 1098// 1184// 1183//
f 384// 659// 1097//
f 1097// 659// 1184//
usemtl 2
f 1185// 1186// 1113//
f 1113// 1186// 1112//
usemtl 1
f 1186// 1187// 1112//
f 1112// 1187// 1090//
usemtl 2
f 1187// 1188// 1090//
f 1090// 1188// 1091//
usemtl 1
f 1188// 1189// 1091//
f 1091// 1189// 1092//
usemtl 2
f 1189// 1190// 1092//
f 1092// 1190// 1088//
f 1190// 1191// 1088//
f 1088// 1191// 1089//
f 1191// 1192// 1089//
f 1089// 1192// 1103//
f 1192// 1185// 1103//
f 1103// 1185// 1113//
usemtl 1
f 1193// 1189// 1194//
f 1194// 1189// 1188//
f 1195// 1192// 1193//
f 1193// 1192// 1191//
f 1193// 1191// 1189//
f 1189// 1191// 1190//
f 1195// 1196// 1192//
f 1192// 1196// 1197//
f 1192// 1197// 1185//
f 1185// 1197// 1198//
f 1185// 1198// 1199//
f 1199// 1200// 1185//
f 1185// 1200// 1194//
f 1185// 1194// 1186//
f 1186// 1194// 1188//
f 1186// 1188// 1187//
usemtl 2
f 1193// 1194// 1201//
f 1201// 1194// 1202//
usemtl 1
f 1195// 1193// 1203//
f 1203// 1193// 1201//
usemtl 2
f 1195// 1203// 1204//
f 1195// 1204// 1196//
f 1196// 1204// 1205//
f 1196// 1205// 1197//
f 1198// 1197// 1206//
f 1206// 1197// 1205//
f 1198// 1206// 1207//
f 1198// 1207// 1199//
f 1199// 1207// 1208//
f 1199// 1208// 1200//
f 1194// 1200// 1202//
f 1202// 1200// 1208//
f 1209// 1210// 1107//
f 1107// 1210// 1106//
usemtl 1
f 1210// 1211// 1106//
f 1106// 1211// 1100//
usemtl 2
f 1211// 1212// 1100//
f 1100// 1212// 1101//
f 1213// 1115// 1114//
f 1213// 1114// 1214//
f 1214// 1114// 1111//
f 1214// 1111// 1215//
f 1215// 1111// 1110//
f 1215// 1110// 1216//
f 1216// 1110// 1109//
f 1216// 1109// 1217//
f 1217// 1109// 1105//
f 1217// 1105// 1218//
f 1218// 1105// 1104//
f 1218// 1104// 1219//
f 1219// 1104// 1102//
f 1219// 1102// 1220//
f 1220// 1102// 1101//
f 1220// 1101// 1212//
f 1209// 1107// 1108//
f 1209// 1108// 1221//
f 1221// 1108// 1096//
f 1221// 1096// 1222//
f 1222// 1096// 1095//
f 1222// 1095// 1223//
f 1223// 1095// 1094//
f 1223// 1094// 1224//
f 1224// 1094// 1093//
f 1224// 1093// 1225//
f 1225// 1093// 1116//
f 1225// 1116// 1226//
f 1226// 1116// 1115//
f 1226// 1115// 1213//
f 1215// 1216// 1227//
f 1227// 1216// 1217//
f 1227// 1217// 1228//
f 1228// 1217// 1218//
f 1228// 1218// 1229//
f 1229// 1218// 1219//
f 1229// 1219// 1230//
f 1230// 1219// 1220//
f 1230// 1220// 1231//
f 1231// 1220// 1212//
f 1231// 1212// 1232//
f 1232// 1212// 1211//
f 1232// 1211// 1233//
f 1233// 1211// 1210//
f 1233// 1210// 1234//
f 1234// 1210// 1209//
f 1234// 1209// 1235//
f 1235// 1209// 1221//
f 1235// 1221// 1236//
f 1236// 1221// 1222//
f 1236// 1222// 1237//
f 1237// 1222// 1223//
f 1237// 1223// 1238//
f 1238// 1223// 1224//
f 1238// 1224// 1239//
f 1239// 1224// 1225//
f 1239// 1225// 1240//
f 1240// 1225// 1226//
f 1240// 1226// 1241//
f 1241// 1226// 1213//
f 1241// 1213// 1242//
f 1242// 1213// 1214//
f 1242// 1214// 1243//
f 1243// 1214// 1215//
f 1243// 1215// 1227//
f 1231// 1232// 1244//
f 1244// 1232// 1245//
usemtl 1
f 1231// 1244// 1246//
f 1231// 1246// 1230//
f 1230// 1246// 1247//
f 1230// 1247// 1229//
f 1229// 1247// 1248//
f 1229// 1248// 1228//
f 1228// 1248// 1249//
f 1228// 1249// 1227//
f 1227// 1249// 1250//
f 1227// 1250// 1243//
f 1243// 1250// 1251//
f 1243// 1251// 1242//
f 1242// 1251// 1252//
f 1242// 1252// 1241//
f 1241// 1252// 1253//
f 1241// 1253// 1240//
f 1240// 1253// 1254//
f 1240// 1254// 1239//
f 1239// 1254// 1255//
f 1239// 1255// 1238//
f 1238// 1255// 1256//
f 1238// 1256// 1237//
f 1237// 1256// 1257//
f 1237// 1257// 1236//
f 1236// 1257// 1258//
f 1236// 1258// 1235//
f 1235// 1258// 1259//
f 1235// 1259// 1234//
f 1233// 1234// 1260//
f 1260// 1234// 1259//
usemtl 2
f 1232// 1233// 1245//
f 1245// 1233// 1260//
usemtl 1
f 1261// 1262// 1123//
f 1123// 1262// 1124//
usemtl 2
f 1262// 1263// 1124//
f 1124// 1263// 1125//
usemtl 1
f 1263// 1264// 1125//
f 1125// 1264// 1130//
usemtl 2
f 1264// 1265// 1130//
f 1130// 1265// 1126//
usemtl 1
f 1265// 1266// 1126//
f 1126// 1266// 1127//
f 1266// 1267// 1127//
f 1127// 1267// 1139//
usemtl 2
f 1267// 1268// 1139//
f 1139// 1268// 1138//
f 1268// 1269// 1138//
f 1138// 1269// 1137//
usemtl 1
f 1269// 1270// 1137//
f 1137// 1270// 1136//
usemtl 2
f 1270// 1271// 1136//
f 1136// 1271// 1134//
usemtl 1
f 1271// 1272// 1134//
f 1134// 1272// 1135//
f 1272// 1261// 1135//
f 1135// 1261// 1123//
usemtl 3
f 1263// 1262// 1261//
f 1261// 1272// 1263//
f 1263// 1272// 1271//
f 1263// 1271// 1264//
f 1266// 1265// 1267//
f 1267// 1265// 1264//
f 1267// 1264// 1268//
f 1268// 1264// 1271//
f 1268// 1271// 1269//
f 1269// 1271// 1270//
f 1273// 1274// 1129//
f 1129// 1274// 1128//
usemtl 1
f 1128// 1274// 1275//
f 1276// 1120// 1118//
f 1276// 1118// 1277//
f 1277// 1118// 1117//
f 1277// 1117// 1275//
f 1275// 1117// 1131//
f 1275// 1131// 1128//
usemtl 3
f 1278// 1179// 1178//
f 1278// 1178// 1279//
f 1279// 1178// 1172//
f 1279// 1172// 1280//
f 1280// 1172// 1170//
f 1280// 1170// 1281//
f 1281// 1170// 1169//
f 1281// 1169// 1282//
f 1282// 1169// 1157//
f 1282// 1157// 1283//
f 1283// 1157// 1156//
f 1283// 1156// 1284//
f 1284// 1156// 1276//
f 1276// 1156// 1121//
f 1276// 1121// 1120//
usemtl 1
f 1285// 1163// 1176//
f 1285// 1176// 1286//
f 1286// 1176// 1175//
f 1286// 1175// 1287//
f 1287// 1175// 1174//
f 1287// 1174// 1288//
f 1288// 1174// 1159//
f 1288// 1159// 1289//
f 1289// 1159// 1158//
f 1289// 1158// 1290//
f 1290// 1158// 1180//
f 1290// 1180// 1291//
f 1291// 1180// 1179//
f 1291// 1179// 1278//
usemtl 3
f 1292// 1165// 1164//
f 1292// 1164// 1293//
f 1293// 1164// 1163//
f 1293// 1163// 1285//
f 1292// 1294// 1165//
f 1165// 1294// 1166//
f 1295// 1168// 1167//
f 1295// 1167// 1296//
f 1296// 1167// 1166//
f 1296// 1166// 1294//
f 1297// 1145// 1162//
f 1297// 1162// 1298//
f 1298// 1162// 1161//
f 1298// 1161// 1299//
f 1299// 1161// 1144//
f 1299// 1144// 1300//
f 1300// 1144// 1143//
f 1300// 1143// 1301//
f 1301// 1143// 1141//
f 1301// 1141// 1302//
f 1302// 1141// 1140//
f 1302// 1140// 1303//
f 1303// 1140// 1168//
f 1303// 1168// 1295//
f 1304// 1149// 1148//
f 1304// 1148// 1305//
f 1305// 1148// 1150//
f 1305// 1150// 1306//
f 1306// 1150// 1151//
f 1306// 1151// 1307//
f 1307// 1151// 1152//
f 1307// 1152// 1308//
f 1308// 1152// 1147//
f 1308// 1147// 1309//
f 1309// 1147// 1146//
f 1309// 1146// 1310//
f 1310// 1146// 1145//
f 1310// 1145// 1297//
f 1273// 1129// 1142//
f 1273// 1142// 1311//
f 1311// 1142// 1153//
f 1311// 1153// 1312//
f 1312// 1153// 1149//
f 1312// 1149// 1304//
f 1305// 1276// 1304//
f 1304// 1276// 1277//
f 1304// 1277// 1312//
f 1312// 1277// 1275//
f 1312// 1275// 1311//
f 1311// 1275// 1274//
f 1311// 1274// 1273//
f 1294// 1292// 1296//
f 1296// 1292// 1293//
f 1296// 1293// 1295//
f 1295// 1293// 1285//
f 1295// 1285// 1303//
f 1303// 1285// 1286//
f 1303// 1286// 1302//
f 1302// 1286// 1287//
f 1302// 1287// 1301//
f 1301// 1287// 1288//
f 1301// 1288// 1300//
f 1300// 1288// 1289//
f 1300// 1289// 1299//
f 1299// 1289// 1290//
f 1299// 1290// 1298//
f 1298// 1290// 1291//
f 1298// 1291// 1297//
f 1297// 1291// 1278//
f 1297// 1278// 1310//
f 1310// 1278// 1279//
f 1310// 1279// 1309//
f 1309// 1279// 1280//
f 1309// 1280// 1308//
f 1308// 1280// 1281//
f 1308// 1281// 1307//
f 1307// 1281// 1282//
f 1307// 1282// 1306//
f 1306// 1282// 1283//
f 1306// 1283// 1305//
f 1305// 1283// 1284//
f 1305// 1284// 1276//
f 1313// 1314// 1171//
f 1171// 1314// 1155//
usemtl 1
f 1314// 1315// 1155//
f 1155// 1315// 1154//
f 1315// 1316// 1154//
f 1154// 1316// 1177//
f 1316// 1317// 1177//
f 1177// 1317// 1160//
usemtl 3
f 1317// 1318// 1160//
f 1160// 1318// 1173//
usemtl 1
f 1318// 1313// 1173//
f 1173// 1313// 1171//
usemtl 3
f 1317// 1316// 1318//
f 1318// 1316// 1315//
f 1318// 1315// 1313//
f 1313// 1315// 1314//
usemtl 1
f 1201// 1202// 1203//
f 1203// 1202// 1208//
f 1203// 1208// 1204//
f 1204// 1208// 1207//
f 1204// 1207// 1205//
f 1205// 1207// 1206//
f 1245// 1260// 1244//
f 1244// 1260// 1259//
f 1244// 1259// 1258//
f 1252// 1251// 1244//
f 1244// 1251// 1250//
f 1244// 1250// 1246//
f 1258// 1257// 1244//
f 1244// 1257// 1256//
f 1244// 1256// 1255//
f 1255// 1254// 1244//
f 1244// 1254// 1253//
f 1244// 1253// 1252//
f 1249// 1248// 1250//
f 1250// 1248// 1247//
f 1250// 1247// 1246//
