v 2.65 1.7 1.45
v 2.65 1.7 0.95
v 2.65 2.5 1.45
newmtl 1
Ka 0.7686274509803922 0.7686274509803922 0.7686274509803922
Kd 0.7686274509803922 0.7686274509803922 0.7686274509803922
Ks 0.615686274509804 0.615686274509804 0.615686274509804
d 0.0
endmtl
v 2.65 2.5 0.95
v 1.95 1.7 1.45
v 1.95 2.5 1.45
v 1.95 1.7 0.95
v 1.95 2.5 0.95
v 5.55 2.55 2.3
v 5.55 3.698142 2.3
v 4.012852 3.698142 2.3
newmtl 2
Ka 0.25098039215686274 0.25098039215686274 0.25098039215686274
Kd 0.25098039215686274 0.25098039215686274 0.25098039215686274
Ks 0.07450980392156863 0.07450980392156863 0.07450980392156863
d 0.0
endmtl
v 2.114747 5.670327 2.3
v 2.114747 8.35296 2.3
v 1.495305 8.35296 2.3
v 5.55 5.670327 2.3
v 5.55 8.35296 2.3
v 4.012852 8.35296 2.3
v 4.25454 5.636993 2.3
v 4.259529 5.63754 2.3
v 4.012852 5.63754 2.3
v 2.547907 4.975675 2.3
v 2.550524 4.979617 2.3
v 2.287922 4.979617 2.3
v 0.622607 5.567595 2.3
v 0.351569 5.567595 2.3
v 0.351569 4.979617 2.3
v 0.622607 5.659398 2.3
v 0.622607 5.63754 2.3
v 0.648998 5.63754 2.3
v 0.648998 4.979617 2.3
v 0.351569 4.859398 2.3
v 0.24665 4.979617 2.3
v 0.24665 5.567595 2.3
v -0.487194 4.979617 2.3
v -0.024388 5.567595 2.3
v -0.487194 5.63754 2.3
v -0.024388 5.63754 2.3
v -0.487194 5.670327 2.3
v -0.024388 5.659398 2.3
v 0.648998 5.670327 2.3
v 1.495305 5.63754 2.3
v 1.257499 5.63754 2.3
v 1.286897 5.623231 2.3
v 1.457903 5.257212 2.3
v 1.448272 5.161739 2.3
v 1.495305 4.979617 2.3
v 1.352985 5.567595 2.3
v 1.397093 5.499121 2.3
v 1.439562 5.390732 2.3
v 1.214444 5.658497 2.3
v 1.495305 5.670327 2.3
v 1.157927 5.670327 2.3
v 0.871816 5.63754 2.3
v 0.875202 5.639808 2.3
v 1.115289 5.679252 2.3
v 1.068832 5.681256 2.3
v 0.648998 8.35296 2.3
v 0.971288 5.670327 2.3
v 0.953613 5.668347 2.3
v 0.698334 5.41115 2.3
v 0.739721 5.507199 2.3
v 0.806537 5.593824 2.3
v 0.760234 4.979617 2.3
v 0.739205 5.012643 2.3
v 0.693493 5.125922 2.3
v 0.67539 5.257212 2.3
v 0.676566 5.281977 2.3
v 0.24665 4.859398 2.3
v -0.487194 3.698142 2.3
v 0.648998 3.698142 2.3
v 0.767193 4.968688 2.3
v 1.324499 4.928656 2.3
v 1.261876 4.887671 2.3
v 1.495305 3.698142 2.3
v 1.414654 5.052658 2.3
v 1.369514 4.979617 2.3
v 1.357357 4.959945 2.3
v 0.979119 4.853396 2.3
v 0.885814 4.880796 2.3
v 0.825856 4.914709 2.3
v 1.182263 4.8589 2.3
v 1.068832 4.846283 2.3
v 1.04301 4.846829 2.3
v 1.558716 5.447139 2.3
v 1.581981 5.515078 2.3
v 1.550192 5.36213 2.3
v 1.53853 4.92442 2.3
v 1.55349 4.979617 2.3
v 1.558764 4.999076 2.3
v 1.669072 5.466098 2.3
v 1.656569 5.422565 2.3
v 1.799814 5.554241 2.3
v 1.650739 5.36213 2.3
v 1.808116 5.55448 2.3
v 1.594289 5.065 2.3
v 1.645082 5.121 2.3
v 1.716313 5.16978 2.3
v 1.821231 5.230983 2.3
v 1.880746 5.268967 2.3
v 1.620138 5.571967 2.3
v 1.640696 5.591209 2.3
v 1.681771 5.617597 2.3
v 1.934892 5.314043 2.3
v 1.942547 5.326278 2.3
v 1.958144 5.361871 2.3
v 1.965493 5.414589 2.3
v 1.965438 5.415247 2.3
v 1.957781 5.458972 2.3
v 1.915945 5.522193 2.3
v 1.889722 5.537867 2.3
v 1.854339 5.54923 2.3
v 1.757165 5.54801 2.3
v 1.729234 5.536932 2.3
v 1.685383 5.497197 2.3
v 1.705603 5.520422 2.3
v 1.945946 5.487269 2.3
v 1.927518 5.511811 2.3
v 1.641996 4.951201 2.3
v 2.070411 4.951201 2.3
v 2.114747 4.979617 2.3
v 2.070411 4.859398 2.3
v 2.065286 5.3506 2.3
v 2.048921 5.306125 2.3
v 2.017109 5.564244 2.3
v 2.114747 5.63754 2.3
v 1.982818 5.596325 2.3
v 1.9406 5.620575 2.3
v 2.019633 5.261963 2.3
v 1.955803 5.203852 2.3
v 1.856203 5.147923 2.3
v 2.042365 5.525312 2.3
v 2.060823 5.474835 2.3
v 2.070411 5.410218 2.3
v 1.773143 5.099835 2.3
v 1.713949 5.060733 2.3
v 1.672913 5.019737 2.3
v 1.652671 4.986658 2.3
v 1.650551 4.979617 2.3
v 1.821231 5.646283 2.3
v 1.741496 5.63754 2.3
v 1.736508 5.636993 2.3
v 1.882685 5.63754 2.3
v 1.871847 5.640715 2.3
v 2.191164 4.950336 2.3
v 2.178309 4.979617 2.3
v 2.170724 4.996892 2.3
v 2.158814 5.056119 2.3
v 2.246246 5.628797 2.3
v 2.652803 5.628797 2.3
v 2.738535 5.63754 2.3
v 2.25936 5.056119 2.3
v 2.272475 5.200381 2.3
v 2.189415 5.204753 2.3
v 2.596882 5.316355 2.3
v 2.638363 5.279866 2.3
v 2.652803 5.532622 2.3
v 2.262784 5.036504 2.3
v 2.468416 5.268021 2.3
v 2.421109 5.274699 2.3
v 2.380921 5.270775 2.3
v 2.698934 5.075725 2.3
v 2.686405 5.016534 2.3
v 2.738535 4.979617 2.3
v 2.340171 5.257117 2.3
v 2.305751 5.235145 2.3
v 2.320563 5.532622 2.3
v 2.289962 5.318414 2.3
v 2.322155 5.338614 2.3
v 2.591601 5.099835 2.3
v 2.587188 5.138214 2.3
v 2.573417 5.183424 2.3
v 2.55628 5.213037 2.3
v 2.275973 4.997969 2.3
v 2.567234 5.004788 2.3
v 2.582762 5.046005 2.3
v 2.547418 5.342273 2.3
v 2.533121 5.237131 2.3
v 2.504672 5.255081 2.3
v 2.667626 5.237434 2.3
v 2.689187 5.182698 2.3
v 2.70089 5.11295 2.3
v 2.373873 5.358534 2.3
v 2.438596 5.366502 2.3
v 2.466158 5.363262 2.3
v 2.448628 4.922994 2.3
v 2.429852 4.9206 2.3
v 2.381674 4.924476 2.3
v 2.345174 4.934775 2.3
v 2.292966 4.971869 2.3
v 2.314404 4.951571 2.3
v 2.493117 4.935645 2.3
v 2.523589 4.952954 2.3
v 2.617224 4.911653 2.3
v 2.571844 4.879483 2.3
v 2.738535 3.698142 2.3
v 2.302794 4.863204 2.3
v 2.25298 4.886488 2.3
v 2.114747 3.698142 2.3
v 2.216838 4.916065 2.3
v 2.669002 4.979617 2.3
v 2.661666 4.964057 2.3
v 2.622202 4.916229 2.3
v 1.532706 4.859398 2.3
v 2.513393 4.857592 2.3
v 2.412366 4.846283 2.3
v 2.381315 4.847801 2.3
v 2.802189 5.447139 2.3
v 2.825454 5.515078 2.3
v 2.793665 5.36213 2.3
v 2.782003 4.92442 2.3
v 2.796963 4.979617 2.3
v 2.802237 4.999076 2.3
v 2.912545 5.466098 2.3
v 2.900042 5.422565 2.3
v 3.043287 5.554241 2.3
v 2.894212 5.36213 2.3
v 3.051589 5.55448 2.3
v 2.837762 5.065 2.3
v 2.888555 5.121 2.3
v 2.959785 5.16978 2.3
v 3.064703 5.230983 2.3
v 3.124219 5.268967 2.3
v 2.863611 5.571967 2.3
v 2.884169 5.591209 2.3
v 2.925244 5.617597 2.3
v 3.178365 5.314043 2.3
v 3.18602 5.326278 2.3
v 3.201617 5.361871 2.3
v 3.208966 5.414589 2.3
v 3.208911 5.415247 2.3
v 3.201254 5.458972 2.3
v 3.159418 5.522193 2.3
v 3.133195 5.537867 2.3
v 3.097812 5.54923 2.3
v 3.000638 5.54801 2.3
v 2.972707 5.536932 2.3
v 2.928856 5.497197 2.3
v 2.949075 5.520422 2.3
v 3.189419 5.487269 2.3
v 3.170991 5.511811 2.3
v 2.885468 4.951201 2.3
v 3.313884 4.951201 2.3
v 3.362592 4.979617 2.3
v 3.313884 4.859398 2.3
v 3.308759 5.3506 2.3
v 3.292394 5.306125 2.3
v 3.126158 5.63754 2.3
v 3.184073 5.620575 2.3
v 3.362592 5.63754 2.3
v 3.226291 5.596325 2.3
v 3.260582 5.564244 2.3
v 3.263106 5.261963 2.3
v 3.199275 5.203852 2.3
v 3.099676 5.147923 2.3
v 3.285838 5.525312 2.3
v 3.304296 5.474835 2.3
v 3.313884 5.410218 2.3
v 3.016616 5.099835 2.3
v 2.957422 5.060733 2.3
v 2.916386 5.019737 2.3
v 2.896144 4.986658 2.3
v 2.894024 4.979617 2.3
v 2.979981 5.636993 2.3
v 2.984968 5.63754 2.3
v 2.738535 5.670327 2.3
v 3.064703 5.646283 2.3
v 3.362592 5.670327 2.3
v 3.11532 5.640715 2.3
v 4.012852 4.979617 2.3
v 4.068225 5.36213 2.3
v 4.187105 5.466098 2.3
v 4.174602 5.422565 2.3
v 4.317847 5.554241 2.3
v 4.168772 5.36213 2.3
v 4.326149 5.55448 2.3
v 4.112322 5.065 2.3
v 4.076797 4.999076 2.3
v 4.071523 4.979617 2.3
v 4.056563 4.92442 2.3
v 4.076749 5.447139 2.3
v 4.100014 5.515078 2.3
v 4.13817 5.571967 2.3
v 4.163115 5.121 2.3
v 4.234345 5.16978 2.3
v 4.339263 5.230983 2.3
v 4.398778 5.268967 2.3
v 4.158729 5.591209 2.3
v 4.199804 5.617597 2.3
v 4.452925 5.314043 2.3
v 4.46058 5.326278 2.3
v 4.476177 5.361871 2.3
v 4.483526 5.414589 2.3
v 4.483471 5.415247 2.3
v 4.475814 5.458972 2.3
v 4.433978 5.522193 2.3
v 4.407754 5.537867 2.3
v 4.372372 5.54923 2.3
v 4.275198 5.54801 2.3
v 4.247266 5.536932 2.3
v 4.203416 5.497197 2.3
v 4.223635 5.520422 2.3
v 4.463979 5.487269 2.3
v 4.445551 5.511811 2.3
v 4.050739 4.859398 2.3
v 4.588444 4.859398 2.3
v 4.588444 4.951201 2.3
v 5.55 4.979617 2.3
v 4.500851 5.596325 2.3
v 4.535142 5.564244 2.3
v 5.55 5.63754 2.3
v 4.560398 5.525312 2.3
v 4.566954 5.306125 2.3
v 4.537666 5.261963 2.3
v 4.473835 5.203852 2.3
v 4.374236 5.147923 2.3
v 4.578856 5.474835 2.3
v 4.588444 5.410218 2.3
v 4.583319 5.3506 2.3
v 4.291176 5.099835 2.3
v 4.231981 5.060733 2.3
v 4.190946 5.019737 2.3
v 4.160028 4.951201 2.3
v 4.168583 4.979617 2.3
v 4.170704 4.986658 2.3
v 4.012852 5.670327 2.3
v 4.339263 5.646283 2.3
v 4.38988 5.640715 2.3
v 4.400719 5.63754 2.3
v 4.458633 5.620575 2.3
v 3.362592 8.35296 2.3
v 2.738535 8.35296 2.3
v -0.487194 8.35296 2.3
v 3.41103 5.099835 2.3
v 3.41103 5.182895 2.3
v 3.974964 5.099835 2.3
v 3.974964 5.182895 2.3
v 2.776179 4.859398 2.3
v 3.362592 3.698142 2.3
v -0.95 8.35296 2.3
v -0.95 5.670327 2.3
v -0.95 5.63754 2.3
v -0.95 4.979617 2.3
v -0.95 3.698142 2.3
v 4.012852 2.55 2.3
v 3.362592 2.55 2.3
v 2.738535 2.55 2.3
v 2.114747 2.55 2.3
v 1.495305 2.55 2.3
v 0.648998 2.55 2.3
v -0.487194 2.55 2.3
v -0.95 2.55 2.3
v -0.34 2.505255 1.45
v -0.95 2.5 1.5
v -0.34 2.557807 0.95
v -0.95 2.657656 -0.0
v 0.36 2.557807 0.95
v 5.55 2.657656 -0.0
v 4.24 2.557807 0.95
v 0.36 2.505255 1.45
v 4.24 2.505255 1.45
v 5.55 2.5 1.5
v 4.94 2.505255 1.45
v 4.94 2.557807 0.95
v 5.6 2.707932 -0.0
v 5.6 8.549809 0.0
v 5.6 2.55 1.50262
v 5.6 8.35296 2.25
v 5.6 2.55 2.25
v -0.2 8.6 0.0
v -0.95 8.6 -0.0
v -0.2 8.556256 0.5
v -0.95 8.402769 2.254358
v 4.8 8.556256 0.5
v 5.55 8.402769 2.254358
v 4.8 8.6 0.0
v 5.55 8.6 0.0
v -1.0 2.55 2.25
v -1.0 8.35296 2.25
v -1.0 2.55 1.50262
v -1.0 8.549809 -0.0
v -1.0 2.707932 -0.0
v 5.55 2.5 2.25
v -0.95 2.5 2.25
v -0.2 8.4 0.0
v 0.3 8.4 0.0
v 0.3 8.1 0.0
v 4.3 8.1 0.0
v 4.3 8.4 0.0
v 4.8 8.1 0.0
v 4.8 8.4 0.0
v 5.569134 8.596179 0.0
v 5.575 8.593276 0.0
v 5.580438 8.589628 0.0
v 5.585355 8.585299 0.0
v 5.598297 8.562799 0.0
v 5.593301 8.574904 0.0
v -0.980438 8.589628 0.0
v -0.985355 8.585299 0.0
v -0.998296 8.562799 0.0
v -0.993301 8.574904 0.0
v -0.975 8.593276 0.0
v -0.969134 8.596179 0.0
v -0.962941 8.598289 0.0
v 5.585355 2.672382 0.0
v 5.580438 2.668046 0.0
v 4.55 4.066988 0.0
v 4.653553 4.146447 0.0
v 4.733013 4.25 0.0
v 4.782963 4.370591 0.0
v 4.8 4.5 0.0
v 5.556526 8.599571 0.0
v 5.562941 8.598289 0.0
v -0.2 4.5 0.0
v -0.182963 4.370591 0.0
v 0.05 4.066988 0.0
v -0.980438 2.668046 0.0
v -0.985355 2.672382 0.0
v 5.593301 2.682794 0.0
v -0.2 8.1 0.0
v -0.962941 2.659369 0.0
v -0.969134 2.661483 0.0
v -0.975 2.664392 0.0
v -0.956526 8.599571 0.0
v -0.133013 4.25 0.0
v -0.053553 4.146447 0.0
v -0.998296 2.69492 0.0
v -0.993301 2.682794 0.0
v 4.3 4.0 0.0
v 0.3 4.0 0.0
v 0.17059 4.017037 0.0
v 5.598297 2.69492 0.0
v 5.575 2.664392 0.0
v 5.569134 2.661483 0.0
v 5.562941 2.659369 0.0
v -0.956526 2.658086 0.0
v 4.42941 4.017037 0.0
v 5.556526 2.658086 0.0
v -0.993301 8.377864 2.252179
v -0.985355 8.388181 2.253081
v -0.998296 8.36585 2.251128
v -0.998278 8.365894 2.251132
v -0.962941 8.401072 2.254209
v -0.975 8.396095 2.253774
v -0.98528 8.388238 2.253087
v -0.962894 8.401078 2.25421
v -0.95 8.364151 2.298731
v -0.95 8.36516 2.298376
v 5.55 8.36516 2.298376
v -0.95 8.374775 2.29499
v 5.55 8.374775 2.29499
v -0.95 8.376584 2.293844
v 5.55 8.376584 2.293844
v -0.95 8.384292 2.288965
v 5.55 8.384292 2.288965
v -0.95 8.386554 2.286681
v 5.55 8.386554 2.286681
v -0.95 8.392219 2.280964
v 5.55 8.392219 2.280964
v -0.95 8.394479 2.277317
v 5.55 8.394479 2.277317
v -0.95 8.398153 2.27139
v 5.55 8.398153 2.27139
v -0.95 8.399888 2.266313
v 5.55 8.399888 2.266313
v -0.95 8.401794 2.260732
v 5.55 8.401794 2.260732
v 5.55 8.364151 2.298731
v 5.562894 8.401078 2.25421
v 5.562941 8.401072 2.254209
v 5.575 8.396095 2.253774
v 5.58528 8.388238 2.253087
v 5.585355 8.388181 2.253081
v 5.593301 8.377864 2.252179
v 5.598278 8.365894 2.251132
v 5.598297 8.36585 2.251128
v -0.993301 2.525 1.50131
v -0.998296 2.537059 1.501942
v -0.956526 2.500428 1.500022
v -0.962941 2.501704 1.500089
v -0.969134 2.503806 1.500199
v -0.975 2.506699 1.500351
v -0.980438 2.510332 1.500541
v -0.985355 2.514645 1.500768
v -0.971072 8.358606 2.29499
v -0.96081 8.355856 2.298731
v -0.959692 8.358555 2.298731
v -0.961192 8.35296 2.298731
v -0.997171 8.365599 2.260732
v -0.992292 8.377377 2.260732
v -0.984531 8.387491 2.260732
v -0.974417 8.395252 2.260732
v -0.962639 8.40013 2.260732
v -0.952897 8.36377 2.298731
v -0.955596 8.362652 2.298731
v -0.968893 8.363867 2.29499
v -0.957914 8.360873 2.298731
v -0.965426 8.368385 2.29499
v -0.960908 8.371852 2.29499
v -0.955646 8.374032 2.29499
v -0.981332 8.35296 2.288965
v -0.974852 8.35296 2.293067
v -0.971815 8.35296 2.29499
v -0.962884 8.35296 2.298135
v -0.980264 8.361069 2.288965
v -0.977134 8.368626 2.288965
v -0.972155 8.375114 2.288965
v -0.965666 8.380094 2.288965
v -0.958109 8.383224 2.288965
v -0.993052 8.35296 2.274845
v -0.989259 8.35296 2.280964
v -0.987921 8.36312 2.280964
v -0.98513 8.35296 2.285132
v -0.983999 8.372589 2.280964
v -0.97776 8.380719 2.280964
v -0.969629 8.386958 2.280964
v -0.960161 8.390882 2.280964
v -0.998103 8.35296 2.262875
v -0.995193 8.35296 2.27139
v -0.993654 8.364656 2.27139
v -0.989139 8.375556 2.27139
v -0.981957 8.384916 2.27139
v -0.972597 8.392098 2.27139
v -0.961697 8.396613 2.27139
v -0.998835 8.35296 2.260732
v 5.555646 8.374032 2.29499
v 5.552897 8.36377 2.298731
v 5.555596 8.362652 2.298731
v 5.562639 8.40013 2.260732
v 5.574417 8.395252 2.260732
v 5.584531 8.387491 2.260732
v 5.592292 8.377377 2.260732
v 5.597171 8.365599 2.260732
v 5.598835 8.35296 2.260732
v 5.561192 8.35296 2.298731
v 5.56081 8.355856 2.298731
v 5.562884 8.35296 2.298135
v 5.559692 8.358555 2.298731
v 5.560907 8.371852 2.29499
v 5.557914 8.360873 2.298731
v 5.565426 8.368385 2.29499
v 5.568892 8.363867 2.29499
v 5.571072 8.358606 2.29499
v 5.558109 8.383224 2.288965
v 5.565666 8.380094 2.288965
v 5.572155 8.375114 2.288965
v 5.577135 8.368626 2.288965
v 5.580265 8.361069 2.288965
v 5.560161 8.390882 2.280964
v 5.571815 8.35296 2.29499
v 5.574852 8.35296 2.293067
v 5.581332 8.35296 2.288965
v 5.58513 8.35296 2.285132
v 5.587921 8.36312 2.280964
v 5.583999 8.372589 2.280964
v 5.57776 8.380719 2.280964
v 5.569629 8.386958 2.280964
v 5.561697 8.396613 2.27139
v 5.572597 8.392098 2.27139
v 5.581957 8.384916 2.27139
v 5.589139 8.375556 2.27139
v 5.593654 8.364656 2.27139
v 5.589259 8.35296 2.280964
v 5.593051 8.35296 2.274845
v 5.595193 8.35296 2.27139
v 5.598103 8.35296 2.262875
v 5.556526 2.500428 1.500022
v 5.562941 2.501704 1.500089
v 5.569134 2.503806 1.500199
v 5.575 2.506699 1.500351
v 5.580438 2.510332 1.500541
v 5.585355 2.514645 1.500768
v 5.593301 2.525 1.50131
v 5.598297 2.537059 1.501942
v -0.962941 2.501704 2.25
v -0.975 2.506699 2.25
v -0.985355 2.514645 2.25
v -0.993301 2.525 2.25
v -0.998296 2.537059 2.25
v -0.962941 2.55 2.298296
v -0.975 2.55 2.293301
v -0.985355 2.55 2.285355
v -0.993301 2.55 2.275
v -0.998296 2.55 2.262941
v 5.562941 2.55 2.298296
v 5.575 2.55 2.293301
v 5.585355 2.55 2.285355
v 5.593301 2.55 2.275
v 5.598297 2.55 2.262941
v 5.598297 2.537059 2.25
v 5.593301 2.525 2.25
v 5.585355 2.514645 2.25
v 5.575 2.506699 2.25
v 5.562941 2.501704 2.25
v -0.95 2.501704 2.262941
v -0.9625 2.50335 2.262941
v -0.9625 2.528349 2.293301
v -0.95647 2.538793 2.298296
v -0.959151 2.540849 2.298296
v -0.9625 2.546651 2.298296
v -0.953349 2.5375 2.298296
v -0.95647 2.525852 2.293301
v -0.959151 2.515849 2.285355
v -0.95 2.537059 2.298296
v -0.967678 2.532322 2.293301
v -0.961207 2.54353 2.298296
v -0.971651 2.5375 2.293301
v -0.974148 2.54353 2.293301
v -0.95 2.525 2.293301
v -0.95 2.514645 2.285355
v -0.95 2.506699 2.275
v -0.967678 2.519382 2.285355
v -0.975 2.525 2.285355
v -0.980619 2.532322 2.285355
v -0.984151 2.540849 2.285355
v -0.961207 2.508174 2.275
v -0.971651 2.5125 2.275
v -0.980619 2.519382 2.275
v -0.9875 2.528349 2.275
v -0.991826 2.538793 2.275
v -0.974148 2.508174 2.262941
v -0.984151 2.515849 2.262941
v -0.991826 2.525852 2.262941
v -0.996651 2.5375 2.262941
v 5.596651 2.5375 2.262941
v 5.571651 2.5375 2.293301
v 5.561207 2.54353 2.298296
v 5.559151 2.540849 2.298296
v 5.55 2.537059 2.298296
v 5.553349 2.5375 2.298296
v 5.5625 2.546651 2.298296
v 5.574148 2.54353 2.293301
v 5.58415 2.540849 2.285355
v 5.567678 2.532322 2.293301
v 5.55647 2.538793 2.298296
v 5.5625 2.528349 2.293301
v 5.55647 2.525852 2.293301
v 5.55 2.525 2.293301
v 5.580618 2.532322 2.285355
v 5.575 2.525 2.285355
v 5.567678 2.519382 2.285355
v 5.559151 2.515849 2.285355
v 5.55 2.514645 2.285355
v 5.591826 2.538793 2.275
v 5.5875 2.528349 2.275
v 5.580618 2.519382 2.275
v 5.571651 2.5125 2.275
v 5.561207 2.508174 2.275
v 5.55 2.506699 2.275
v 5.591826 2.525852 2.262941
v 5.58415 2.515849 2.262941
v 5.574148 2.508174 2.262941
v 5.5625 2.50335 2.262941
v 5.55 2.501704 2.262941
v 4.3 8.4 0.5
v 4.8 8.4 0.5
v -0.2 8.4 0.5
v 0.3 8.4 0.5
v 0.3 8.1 0.5
v 4.3 8.1 0.5
v 0.17059 4.017037 0.5
v 0.3 4.0 0.5
v 4.8 8.1 0.5
v 4.8 4.5 0.5
v 4.3 4.0 0.5
v 4.782963 4.370591 0.5
v -0.053553 4.146447 0.5
v -0.133013 4.25 0.5
v 0.05 4.066988 0.5
v -0.2 8.1 0.5
v -0.2 4.5 0.5
v -0.182963 4.370591 0.5
v 4.733013 4.25 0.5
v 4.653553 4.146447 0.5
v 4.55 4.066988 0.5
v 4.42941 4.017037 0.5
v 4.24 -0.013084 0.499657
v 4.94 -0.013084 0.499657
v 4.24 0.743384 0.539302
v 4.94 0.743384 0.539302
v 4.24 0.013084 3.43E-4
v 4.24 0.769552 0.039987
v 4.94 0.013084 3.43E-4
v 4.94 0.769552 0.039987
v 4.94 0.935088 0.645565
v 4.24 0.935088 0.645565
v 4.94 0.897583 0.603173
v 4.24 0.897583 0.603173
v 4.94 0.851502 0.570305
v 4.24 0.851502 0.570305
v 4.94 0.799209 0.548644
v 4.24 0.799209 0.548644
v 4.24 1.344664 0.358777
v 4.24 1.232148 0.231601
v 4.24 1.093907 0.132995
v 4.24 0.937028 0.068013
v 4.94 0.937028 0.068013
v 4.94 1.093907 0.132995
v 4.94 1.232148 0.231601
v 4.94 1.344664 0.358777
v 4.24 1.27442 1.130182
v 4.94 1.27442 1.130182
v 4.24 1.683996 0.843394
v 4.94 1.683996 0.843394
v 4.94 1.394275 1.26388
v 4.24 1.394275 1.26388
v 4.94 1.542473 1.365258
v 4.24 1.542473 1.365258
v 4.94 1.71052 1.428507
v 4.24 1.71052 1.428507
v 4.94 1.888784 1.45
v 4.24 1.888784 1.45
v 4.24 1.723948 0.88796
v 4.24 1.773347 0.921753
v 4.24 1.829363 0.942836
v 4.24 1.888784 0.95
v 4.94 1.888784 0.95
v 4.94 1.829363 0.942836
v 4.94 1.773347 0.921753
v 4.94 1.723948 0.88796
v -0.34 -0.013084 0.499657
v 0.36 -0.013084 0.499657
v -0.34 0.743384 0.539302
v 0.36 0.743384 0.539302
v -0.34 0.013084 3.43E-4
v -0.34 0.769552 0.039987
v 0.36 0.013084 3.43E-4
v 0.36 0.769552 0.039987
v 0.36 0.935088 0.645565
v -0.34 0.935088 0.645565
v 0.36 0.897583 0.603173
v -0.34 0.897583 0.603173
v 0.36 0.851502 0.570305
v -0.34 0.851502 0.570305
v 0.36 0.799209 0.548644
v -0.34 0.799209 0.548644
v -0.34 1.344664 0.358777
v -0.34 1.232148 0.231601
v -0.34 1.093907 0.132995
v -0.34 0.937028 0.068013
v 0.36 0.937028 0.068013
v 0.36 1.093907 0.132995
v 0.36 1.232148 0.231601
v 0.36 1.344664 0.358777
v -0.34 1.27442 1.130182
v 0.36 1.27442 1.130182
v -0.34 1.683996 0.843394
v 0.36 1.683996 0.843394
v 0.36 1.394275 1.26388
v -0.34 1.394275 1.26388
v 0.36 1.542473 1.365258
v -0.34 1.542473 1.365258
v 0.36 1.71052 1.428507
v -0.34 1.71052 1.428507
v 0.36 1.888784 1.45
v -0.34 1.888784 1.45
v -0.34 1.723948 0.88796
v -0.34 1.773347 0.921753
v -0.34 1.829363 0.942836
v -0.34 1.888784 0.95
v 0.36 1.888784 0.95
v 0.36 1.829363 0.942836
v 0.36 1.773347 0.921753
v 0.36 1.723948 0.88796
v -0.024388 5.567595 2.29
newmtl 3
Ka 0.6431372549019608 0.615686274509804 0.6
Kd 0.45098039215686275 0.43137254901960786 0.4196078431372549
Ks 0.03137254901960784 0.03137254901960784 0.03137254901960784
d 0.0
endmtl
v -0.024388 5.659398 2.29
v 0.622607 5.659398 2.29
v 0.622607 5.567595 2.29
v 0.351569 5.567595 2.29
v 0.351569 4.859398 2.29
v 0.24665 4.859398 2.29
v 0.24665 5.567595 2.29
v 1.286958 5.475019 2.29
v 1.321033 5.406551 2.29
v 1.439562 5.390732 2.29
v 1.457903 5.257212 2.29
v 1.397093 5.499121 2.29
v 1.352985 5.567595 2.29
v 1.247103 5.521288 2.29
v 1.286897 5.623231 2.29
v 1.200857 5.554033 2.29
v 1.214444 5.658497 2.29
v 1.143502 5.577055 2.29
v 1.068832 5.589453 2.29
v 0.994778 4.944309 2.29
v 1.04301 4.846829 2.29
v 1.068832 4.933715 2.29
v 1.068832 4.846283 2.29
v 1.115154 4.939344 2.29
v 1.182263 4.8589 2.29
v 1.186422 4.961183 2.29
v 1.261876 4.887671 2.29
v 1.237654 4.992493 2.29
v 1.324499 4.928656 2.29
v 1.277841 5.03299 2.29
v 1.357357 4.959945 2.29
v 1.310413 5.086719 2.29
v 1.414654 5.052658 2.29
v 1.335023 5.159407 2.29
v 1.448272 5.161739 2.29
v 1.348614 5.257212 2.29
v 1.345486 5.295891 2.29
v 1.115289 5.679252 2.29
v 1.068832 5.681256 2.29
v 0.998351 5.579556 2.29
v 0.953613 5.668347 2.29
v 0.943533 5.560139 2.29
v 0.875202 5.639808 2.29
v 0.894385 5.52849 2.29
v 0.806537 5.593824 2.29
v 0.856211 5.487984 2.29
v 0.739721 5.507199 2.29
v 0.825404 5.4345 2.29
v 0.801331 5.359438 2.29
v 0.698334 5.41115 2.29
v 0.676566 5.281977 2.29
v 0.789051 5.257212 2.29
v 0.67539 5.257212 2.29
v 0.797309 5.178467 2.29
v 0.693493 5.125922 2.29
v 0.82243 5.091404 2.29
v 0.739205 5.012643 2.29
v 0.851127 5.03966 2.29
v 0.767193 4.968688 2.29
v 0.89003 4.996763 2.29
v 0.825856 4.914709 2.29
v 0.936393 4.965868 2.29
v 0.885814 4.880796 2.29
v 0.979119 4.853396 2.29
v 1.068832 5.589453 2.3
v 1.143502 5.577055 2.3
v 1.200857 5.554033 2.3
v 1.247103 5.521288 2.3
v 1.286958 5.475019 2.3
v 1.321033 5.406551 2.3
v 1.345486 5.295891 2.3
v 1.348614 5.257212 2.3
v 1.335023 5.159407 2.3
v 1.310413 5.086719 2.3
v 1.277841 5.03299 2.3
v 1.237654 4.992493 2.3
v 1.186422 4.961183 2.3
v 1.115154 4.939344 2.3
v 1.068832 4.933715 2.3
v 0.994778 4.944309 2.3
v 0.936393 4.965868 2.3
v 0.89003 4.996763 2.3
v 0.851127 5.03966 2.3
v 0.82243 5.091404 2.3
v 0.797309 5.178467 2.3
v 0.789051 5.257212 2.3
v 0.801331 5.359438 2.3
v 0.825404 5.4345 2.3
v 0.856211 5.487984 2.3
v 0.894385 5.52849 2.3
v 0.943533 5.560139 2.3
v 0.998351 5.579556 2.3
v 1.650739 5.36213 2.29
v 1.550192 5.36213 2.29
v 1.620138 5.571967 2.29
v 1.581981 5.515078 2.29
v 1.558716 5.447139 2.29
v 1.821231 5.646283 2.29
v 1.736508 5.636993 2.29
v 1.681771 5.617597 2.29
v 1.640696 5.591209 2.29
v 1.982818 5.596325 2.29
v 2.017109 5.564244 2.29
v 2.042365 5.525312 2.29
v 2.060823 5.474835 2.29
v 2.070411 5.410218 2.29
v 1.871847 5.640715 2.29
v 1.9406 5.620575 2.29
v 1.856203 5.147923 2.29
v 1.955803 5.203852 2.29
v 2.019633 5.261963 2.29
v 2.048921 5.306125 2.29
v 2.065286 5.3506 2.29
v 1.773143 5.099835 2.29
v 1.641996 4.951201 2.29
v 1.652671 4.986658 2.29
v 1.672913 5.019737 2.29
v 1.713949 5.060733 2.29
v 2.070411 4.951201 2.29
v 2.070411 4.859398 2.29
v 1.532706 4.859398 2.29
v 1.53853 4.92442 2.29
v 1.716313 5.16978 2.29
v 1.645082 5.121 2.29
v 1.594289 5.065 2.29
v 1.558764 4.999076 2.29
v 1.821231 5.230983 2.29
v 1.934892 5.314043 2.29
v 1.880746 5.268967 2.29
v 1.965493 5.414589 2.29
v 1.958144 5.361871 2.29
v 1.942547 5.326278 2.29
v 1.808116 5.55448 2.29
v 1.854339 5.54923 2.29
v 1.889722 5.537867 2.29
v 1.915945 5.522193 2.29
v 1.927518 5.511811 2.29
v 1.945946 5.487269 2.29
v 1.957781 5.458972 2.29
v 1.965438 5.415247 2.29
v 1.656569 5.422565 2.29
v 1.669072 5.466098 2.29
v 1.685383 5.497197 2.29
v 1.705603 5.520422 2.29
v 1.729234 5.536932 2.29
v 1.757165 5.54801 2.29
v 1.799814 5.554241 2.29
v 2.320563 5.532622 2.29
v 2.289962 5.318414 2.29
v 2.438596 5.366502 2.29
v 2.373873 5.358534 2.29
v 2.322155 5.338614 2.29
v 2.70089 5.11295 2.29
v 2.689187 5.182698 2.29
v 2.667626 5.237434 2.29
v 2.638363 5.279866 2.29
v 2.596882 5.316355 2.29
v 2.547418 5.342273 2.29
v 2.466158 5.363262 2.29
v 2.622202 4.916229 2.29
v 2.661666 4.964057 2.29
v 2.686405 5.016534 2.29
v 2.698934 5.075725 2.29
v 2.412366 4.846283 2.29
v 2.513393 4.857592 2.29
v 2.571844 4.879483 2.29
v 2.617224 4.911653 2.29
v 2.158814 5.056119 2.29
v 2.170724 4.996892 2.29
v 2.191164 4.950336 2.29
v 2.216838 4.916065 2.29
v 2.25298 4.886488 2.29
v 2.302794 4.863204 2.29
v 2.381315 4.847801 2.29
v 2.25936 5.056119 2.29
v 2.429852 4.9206 2.29
v 2.381674 4.924476 2.29
v 2.345174 4.934775 2.29
v 2.314404 4.951571 2.29
v 2.292966 4.971869 2.29
v 2.275973 4.997969 2.29
v 2.262784 5.036504 2.29
v 2.591601 5.099835 2.29
v 2.582762 5.046005 2.29
v 2.567234 5.004788 2.29
v 2.547907 4.975675 2.29
v 2.523589 4.952954 2.29
v 2.493117 4.935645 2.29
v 2.448628 4.922994 2.29
v 2.421109 5.274699 2.29
v 2.468416 5.268021 2.29
v 2.504672 5.255081 2.29
v 2.533121 5.237131 2.29
v 2.55628 5.213037 2.29
v 2.573417 5.183424 2.29
v 2.587188 5.138214 2.29
v 2.272475 5.200381 2.29
v 2.305751 5.235145 2.29
v 2.340171 5.257117 2.29
v 2.380921 5.270775 2.29
v 2.189415 5.204753 2.29
v 2.246246 5.628797 2.29
v 2.652803 5.628797 2.29
v 2.652803 5.532622 2.29
v 2.894212 5.36213 2.29
v 2.793665 5.36213 2.29
v 2.863611 5.571967 2.29
v 2.825454 5.515078 2.29
v 2.802189 5.447139 2.29
v 3.064703 5.646283 2.29
v 2.979981 5.636993 2.29
v 2.925244 5.617597 2.29
v 2.884169 5.591209 2.29
v 3.226291 5.596325 2.29
v 3.260582 5.564244 2.29
v 3.285838 5.525312 2.29
v 3.304296 5.474835 2.29
v 3.313884 5.410218 2.29
v 3.11532 5.640715 2.29
v 3.184073 5.620575 2.29
v 3.099676 5.147923 2.29
v 3.199275 5.203852 2.29
v 3.263106 5.261963 2.29
v 3.292394 5.306125 2.29
v 3.308759 5.3506 2.29
v 3.016616 5.099835 2.29
v 2.885468 4.951201 2.29
v 2.896144 4.986658 2.29
v 2.916386 5.019737 2.29
v 2.957422 5.060733 2.29
v 3.313884 4.951201 2.29
v 3.313884 4.859398 2.29
v 2.776179 4.859398 2.29
v 2.782003 4.92442 2.29
v 2.959785 5.16978 2.29
v 2.888555 5.121 2.29
v 2.837762 5.065 2.29
v 2.802237 4.999076 2.29
v 3.064703 5.230983 2.29
v 3.178365 5.314043 2.29
v 3.124219 5.268967 2.29
v 3.208966 5.414589 2.29
v 3.201617 5.361871 2.29
v 3.18602 5.326278 2.29
v 3.051589 5.55448 2.29
v 3.097812 5.54923 2.29
v 3.133195 5.537867 2.29
v 3.159418 5.522193 2.29
v 3.170991 5.511811 2.29
v 3.189419 5.487269 2.29
v 3.201254 5.458972 2.29
v 3.208911 5.415247 2.29
v 2.900042 5.422565 2.29
v 2.912545 5.466098 2.29
v 2.928856 5.497197 2.29
v 2.949075 5.520422 2.29
v 2.972707 5.536932 2.29
v 3.000638 5.54801 2.29
v 3.043287 5.554241 2.29
v 3.974964 5.099835 2.29
v 3.41103 5.099835 2.29
v 3.41103 5.182895 2.29
v 3.974964 5.182895 2.29
v 4.168772 5.36213 2.29
v 4.068225 5.36213 2.29
v 4.13817 5.571967 2.29
v 4.100014 5.515078 2.29
v 4.076749 5.447139 2.29
v 4.339263 5.646283 2.29
v 4.25454 5.636993 2.29
v 4.199804 5.617597 2.29
v 4.158729 5.591209 2.29
v 4.500851 5.596325 2.29
v 4.535142 5.564244 2.29
v 4.560398 5.525312 2.29
v 4.578856 5.474835 2.29
v 4.588444 5.410218 2.29
v 4.38988 5.640715 2.29
v 4.458633 5.620575 2.29
v 4.374236 5.147923 2.29
v 4.473835 5.203852 2.29
v 4.537666 5.261963 2.29
v 4.566954 5.306125 2.29
v 4.583319 5.3506 2.29
v 4.291176 5.099835 2.29
v 4.160028 4.951201 2.29
v 4.170704 4.986658 2.29
v 4.190946 5.019737 2.29
v 4.231981 5.060733 2.29
v 4.588444 4.951201 2.29
v 4.588444 4.859398 2.29
v 4.050739 4.859398 2.29
v 4.056563 4.92442 2.29
v 4.234345 5.16978 2.29
v 4.163115 5.121 2.29
v 4.112322 5.065 2.29
v 4.076797 4.999076 2.29
v 4.339263 5.230983 2.29
v 4.452925 5.314043 2.29
v 4.398778 5.268967 2.29
v 4.483526 5.414589 2.29
v 4.476177 5.361871 2.29
v 4.46058 5.326278 2.29
v 4.326149 5.55448 2.29
v 4.372372 5.54923 2.29
v 4.407754 5.537867 2.29
v 4.433978 5.522193 2.29
v 4.445551 5.511811 2.29
v 4.463979 5.487269 2.29
v 4.475814 5.458972 2.29
v 4.483471 5.415247 2.29
v 4.174602 5.422565 2.29
v 4.187105 5.466098 2.29
v 4.203416 5.497197 2.29
v 4.223635 5.520422 2.29
v 4.247266 5.536932 2.29
v 4.275198 5.54801 2.29
v 4.317847 5.554241 2.29
v -0.2 5.255258 0.0
v 2.209298 5.255258 0.0
v 1.648323 5.258307 0.0
v 1.721494 5.258307 0.0
v 1.343445 5.258307 0.0
v 1.394035 5.398551 0.0
v 1.60059 5.398551 0.0
v 1.783046 5.395346 0.0
v 1.81172 5.350624 0.0
v 1.852875 5.311219 0.0
v 1.905081 5.28088 0.0
v -0.2 9.406256 0.0
v 0.3 9.906256 0.0
v 2.209298 9.906256 0.0
v 2.160518 5.758307 0.0
v 2.019417 5.758307 0.0
v 1.94718 5.750586 0.0
v 1.532469 5.758307 0.0
v 1.88868 5.730043 0.0
v 1.834259 5.693572 0.0
v 2.160518 5.258307 0.0
v 2.024561 5.258307 0.0
v 1.962695 5.263707 0.0
v 1.833736 5.693112 0.0
v 1.798378 5.653907 0.0
v 1.775142 5.610906 0.0
v 1.270274 5.258307 0.0
v 1.465396 5.758307 0.0
v 1.761713 5.561643 0.0
v 1.758079 5.514595 0.0
v 1.765095 5.44768 0.0
v 2.727754 5.255258 0.0
v 2.747837 5.252444 0.0
v 2.209298 4.0 0.0
v 2.761509 5.25221 0.0
v 2.790913 5.255258 0.0
v 4.8 5.255258 0.0
v 2.258079 5.313185 0.0
v 2.258079 5.258307 0.0
v 2.526371 5.258307 0.0
v 2.270274 5.758307 0.0
v 2.270274 5.703429 0.0
v 2.623933 5.284222 0.0
v 2.623933 5.339099 0.0
v 2.526371 5.758307 0.0
v 2.67723 5.262338 0.0
v 4.3 9.906256 0.0
v 4.8 9.406256 0.0
v 2.459298 5.483917 0.0
v 2.459298 5.313185 0.0
v 2.282469 5.483917 0.0
v 2.282469 5.538795 0.0
v 2.459298 5.538795 0.0
v 2.459298 5.703429 0.0
v 2.790259 5.703997 0.0
v 2.827683 5.690491 0.0
v 2.632894 5.334136 0.0
v 2.862291 5.667339 0.0
v 2.892484 5.634006 0.0
v 2.928811 5.502972 0.0
v 2.923748 5.448844 0.0
v 2.910164 5.405837 0.0
v 2.798903 5.312319 0.0
v 2.752267 5.307088 0.0
v 2.835335 5.325731 0.0
v 2.866022 5.346414 0.0
v 2.889484 5.371166 0.0
v 2.685897 5.314454 0.0
v 3.294664 5.258307 0.0
v 3.038567 5.258307 0.0
v 2.823127 5.258598 0.0
v 2.871588 5.275279 0.0
v 2.969459 5.62669 0.0
v 2.940137 5.673426 0.0
v 3.227591 5.758307 0.0
v 2.913098 5.595401 0.0
v 2.926425 5.541874 0.0
v 2.741596 5.764404 0.0
v 2.681741 5.760274 0.0
v 2.623933 5.744587 0.0
v 2.623933 5.677514 0.0
v 2.680252 5.701631 0.0
v 2.741025 5.709527 0.0
v 2.911808 5.300962 0.0
v 2.949364 5.340501 0.0
v 3.038567 5.313185 0.0
v 2.976001 5.388044 0.0
v 3.227591 5.313185 0.0
v 2.894973 5.71683 0.0
v 2.847475 5.744147 0.0
v 2.791734 5.760319 0.0
v 3.294664 5.758307 0.0
v 2.991049 5.440969 0.0
v 2.995884 5.498875 0.0
v 2.988691 5.56996 0.0
v 4.8 9.406256 0.5
v 4.3 9.906256 0.5
v 0.3 9.906256 0.5
v -0.2 9.406256 0.5
v 1.465396 5.758307 0.01
v 1.270274 5.258307 0.01
v 1.343445 5.258307 0.01
v 1.394035 5.398551 0.01
v 1.60059 5.398551 0.01
v 1.648323 5.258307 0.01
v 1.721494 5.258307 0.01
v 1.532469 5.758307 0.01
v 1.583727 5.453429 0.01
v 1.41652 5.453429 0.01
v 1.509127 5.662271 0.01
v 1.504315 5.679612 0.01
v 1.501124 5.697331 0.01
v 1.499504 5.697331 0.01
v 1.496241 5.679665 0.01
v 1.491787 5.662271 0.01
v 1.583727 5.453429 0.0
v 1.41652 5.453429 0.0
v 1.509127 5.662271 0.0
v 1.504315 5.679612 0.0
v 1.501124 5.697331 0.0
v 1.499504 5.697331 0.0
v 1.496241 5.679665 0.0
v 1.491787 5.662271 0.0
v 2.024561 5.258307 0.01
v 2.160518 5.258307 0.01
v 2.160518 5.758307 0.01
v 2.019417 5.758307 0.01
v 1.758079 5.514595 0.01
v 1.761713 5.561643 0.01
v 1.775142 5.610906 0.01
v 1.798378 5.653907 0.01
v 1.833736 5.693112 0.01
v 1.834259 5.693572 0.01
v 1.88868 5.730043 0.01
v 1.94718 5.750586 0.01
v 1.962695 5.263707 0.01
v 1.905081 5.28088 0.01
v 1.852875 5.311219 0.01
v 1.81172 5.350624 0.01
v 1.783046 5.395346 0.01
v 1.765095 5.44768 0.01
v 1.858442 5.633314 0.01
v 1.882729 5.659101 0.01
v 1.919251 5.682695 0.01
v 1.960523 5.697138 0.01
v 2.019702 5.703429 0.01
v 2.093445 5.703429 0.01
v 2.093445 5.313185 0.01
v 2.022465 5.313185 0.01
v 1.969715 5.318095 0.01
v 1.927639 5.331228 0.01
v 1.89354 5.351477 0.01
v 1.865496 5.379176 0.01
v 1.844408 5.41365 0.01
v 1.829743 5.460649 0.01
v 1.825152 5.513166 0.01
v 1.8294 5.562929 0.01
v 1.841072 5.602475 0.01
v 2.019702 5.703429 0.0
v 2.093445 5.703429 0.0
v 1.960523 5.697138 0.0
v 1.919251 5.682695 0.0
v 1.882729 5.659101 0.0
v 1.858442 5.633314 0.0
v 1.841072 5.602475 0.0
v 1.8294 5.562929 0.0
v 1.825152 5.513166 0.0
v 1.829743 5.460649 0.0
v 1.844408 5.41365 0.0
v 1.865496 5.379176 0.0
v 1.89354 5.351477 0.0
v 1.927639 5.331228 0.0
v 1.969715 5.318095 0.0
v 2.022465 5.313185 0.0
v 2.093445 5.313185 0.0
v 2.258079 5.313185 0.01
v 2.258079 5.258307 0.01
v 2.526371 5.258307 0.01
v 2.526371 5.758307 0.01
v 2.270274 5.758307 0.01
v 2.270274 5.703429 0.01
v 2.459298 5.703429 0.01
v 2.459298 5.538795 0.01
v 2.282469 5.538795 0.01
v 2.282469 5.483917 0.01
v 2.459298 5.483917 0.01
v 2.459298 5.313185 0.01
v 2.623933 5.339099 0.01
v 2.623933 5.284222 0.01
v 2.67723 5.262338 0.01
v 2.761509 5.25221 0.01
v 2.747837 5.252444 0.01
v 2.995884 5.498875 0.01
v 2.991049 5.440969 0.01
v 2.976001 5.388044 0.01
v 2.949364 5.340501 0.01
v 2.911808 5.300962 0.01
v 2.871588 5.275279 0.01
v 2.823127 5.258598 0.01
v 2.741596 5.764404 0.01
v 2.791734 5.760319 0.01
v 2.847475 5.744147 0.01
v 2.894973 5.71683 0.01
v 2.940137 5.673426 0.01
v 2.969459 5.62669 0.01
v 2.988691 5.56996 0.01
v 2.623933 5.744587 0.01
v 2.681741 5.760274 0.01
v 2.623933 5.677514 0.01
v 2.741025 5.709527 0.01
v 2.680252 5.701631 0.01
v 2.928811 5.502972 0.01
v 2.926425 5.541874 0.01
v 2.913098 5.595401 0.01
v 2.892484 5.634006 0.01
v 2.862291 5.667339 0.01
v 2.827683 5.690491 0.01
v 2.790259 5.703997 0.01
v 2.752267 5.307088 0.01
v 2.798903 5.312319 0.01
v 2.835335 5.325731 0.01
v 2.866022 5.346414 0.01
v 2.889484 5.371166 0.01
v 2.910164 5.405837 0.01
v 2.923748 5.448844 0.01
v 2.632894 5.334136 0.01
v 2.685897 5.314454 0.01
v 3.038567 5.313185 0.01
v 3.038567 5.258307 0.01
v 3.294664 5.258307 0.01
v 3.294664 5.758307 0.01
v 3.227591 5.758307 0.01
v 3.227591 5.313185 0.01
usemtl 1
f 1// 2// 3//
f 3// 2// 4//
f 5// 1// 6//
f 6// 1// 3//
f 7// 5// 8//
f 8// 5// 6//
f 2// 7// 4//
f 4// 7// 8//
f 5// 7// 1//
f 1// 7// 2//
f 8// 6// 4//
f 4// 6// 3//
usemtl 2
f 9// 10// 11//
f 12// 13// 14//
f 15// 16// 17//
f 18// 19// 20//
f 21// 22// 23//
f 24// 25// 26//
f 27// 28// 29//
f 29// 28// 24//
f 29// 24// 30//
f 30// 24// 26//
f 30// 26// 31//
f 32// 33// 34//
f 34// 33// 35//
f 34// 35// 36//
f 36// 35// 37//
f 36// 37// 38//
f 39// 27// 40//
f 41// 42// 43//
f 44// 45// 46//
f 43// 47// 41//
f 41// 47// 48//
f 41// 48// 49//
f 42// 41// 50//
f 50// 41// 51//
f 50// 51// 52//
f 27// 29// 40//
f 40// 29// 53//
f 40// 53// 54//
f 55// 14// 56//
f 56// 14// 57//
f 56// 57// 58//
f 58// 57// 40//
f 58// 40// 59//
f 59// 40// 54//
f 60// 61// 29//
f 29// 61// 62//
f 29// 62// 53//
f 30// 63// 64//
f 64// 65// 30//
f 30// 65// 66//
f 30// 66// 29//
f 29// 66// 67//
f 29// 67// 60//
f 32// 34// 68//
f 68// 34// 69//
f 68// 69// 31//
f 31// 69// 70//
f 31// 70// 30//
f 30// 70// 71//
f 30// 71// 63//
f 72// 73// 74//
f 45// 75// 46//
f 46// 75// 76//
f 46// 76// 74//
f 74// 76// 77//
f 74// 77// 72//
f 78// 79// 70//
f 70// 79// 80//
f 70// 80// 71//
f 73// 81// 74//
f 74// 81// 82//
f 74// 82// 70//
f 70// 82// 83//
f 70// 83// 78//
f 84// 85// 41//
f 84// 41// 86//
f 87// 88// 46//
f 46// 88// 89//
f 90// 91// 92//
f 92// 91// 93//
f 92// 93// 94//
f 49// 44// 41//
f 41// 44// 46//
f 41// 46// 86//
f 86// 46// 89//
f 86// 89// 95//
f 95// 96// 86//
f 86// 96// 97//
f 86// 97// 93//
f 93// 97// 98//
f 93// 98// 99//
f 85// 100// 41//
f 41// 100// 101//
f 41// 101// 102//
f 99// 103// 93//
f 93// 103// 104//
f 93// 104// 105//
f 105// 106// 93//
f 93// 106// 107//
f 93// 107// 108//
f 109// 110// 93//
f 93// 110// 111//
f 93// 111// 94//
f 92// 112// 90//
f 90// 112// 113//
f 90// 113// 114//
f 114// 113// 115//
f 108// 116// 93//
f 93// 116// 117//
f 93// 117// 109//
f 118// 119// 120//
f 120// 119// 121//
f 120// 122// 123//
f 124// 125// 126//
f 126// 125// 127//
f 123// 128// 120//
f 120// 128// 129//
f 120// 129// 130//
f 124// 131// 125//
f 125// 131// 132//
f 125// 132// 133//
f 130// 134// 120//
f 120// 134// 135//
f 120// 135// 136//
f 136// 137// 120//
f 120// 137// 138//
f 120// 138// 118//
f 139// 51// 140//
f 140// 51// 41//
f 140// 41// 141//
f 141// 41// 102//
f 127// 125// 142//
f 142// 125// 12//
f 142// 12// 143//
f 144// 145// 120//
f 120// 145// 146//
f 120// 146// 147//
f 148// 149// 150//
f 147// 151// 152//
f 152// 153// 147//
f 147// 153// 125//
f 147// 125// 120//
f 120// 125// 133//
f 120// 133// 122//
f 154// 155// 156//
f 157// 158// 151//
f 151// 158// 159//
f 151// 159// 160//
f 161// 162// 163//
f 160// 164// 151//
f 151// 164// 165//
f 151// 165// 152//
f 166// 167// 168//
f 169// 170// 157//
f 157// 170// 171//
f 157// 171// 172//
f 23// 22// 173//
f 173// 22// 174//
f 173// 174// 157//
f 157// 174// 175//
f 157// 175// 169//
f 154// 156// 176//
f 172// 177// 157//
f 157// 177// 178//
f 157// 178// 158//
f 155// 179// 156//
f 156// 179// 180//
f 156// 180// 163//
f 163// 180// 181//
f 163// 181// 161//
f 168// 182// 166//
f 166// 182// 183//
f 166// 183// 156//
f 156// 183// 184//
f 156// 184// 176//
f 185// 23// 186//
f 186// 23// 187//
f 187// 23// 188//
f 188// 23// 189//
f 188// 189// 190//
f 185// 191// 23//
f 23// 191// 192//
f 23// 192// 21//
f 193// 194// 195//
f 196// 197// 198//
f 198// 197// 199//
f 162// 200// 163//
f 163// 200// 201//
f 163// 201// 195//
f 195// 201// 202//
f 195// 202// 193//
f 87// 46// 203//
f 203// 46// 74//
f 203// 74// 121//
f 121// 74// 198//
f 121// 198// 120//
f 120// 198// 199//
f 120// 199// 144//
f 194// 204// 195//
f 195// 204// 205//
f 195// 205// 198//
f 198// 205// 206//
f 198// 206// 196//
f 207// 208// 150//
f 207// 150// 209//
f 210// 211// 163//
f 163// 211// 212//
f 213// 214// 215//
f 215// 214// 216//
f 215// 216// 217//
f 149// 156// 150//
f 150// 156// 163//
f 150// 163// 209//
f 209// 163// 212//
f 209// 212// 218//
f 218// 219// 209//
f 209// 219// 220//
f 209// 220// 216//
f 216// 220// 221//
f 216// 221// 222//
f 208// 223// 150//
f 150// 223// 224//
f 150// 224// 225//
f 222// 226// 216//
f 216// 226// 227//
f 216// 227// 228//
f 228// 229// 216//
f 216// 229// 230//
f 216// 230// 231//
f 232// 233// 216//
f 216// 233// 234//
f 216// 234// 217//
f 215// 235// 213//
f 213// 235// 236//
f 213// 236// 237//
f 237// 236// 238//
f 231// 239// 216//
f 216// 239// 240//
f 216// 240// 232//
f 241// 242// 243//
f 243// 242// 244//
f 243// 245// 246//
f 247// 248// 249//
f 249// 248// 250//
f 249// 250// 251//
f 246// 252// 243//
f 243// 252// 253//
f 243// 253// 254//
f 251// 255// 249//
f 249// 255// 256//
f 249// 256// 257//
f 254// 258// 243//
f 243// 258// 259//
f 243// 259// 260//
f 260// 261// 243//
f 243// 261// 262//
f 243// 262// 241//
f 225// 263// 150//
f 150// 263// 264//
f 150// 264// 265//
f 265// 264// 266//
f 265// 266// 267//
f 267// 266// 268//
f 267// 268// 247//
f 20// 269// 270//
f 271// 272// 273//
f 273// 272// 274//
f 273// 274// 275//
f 276// 270// 277//
f 277// 270// 269//
f 277// 269// 278//
f 278// 269// 279//
f 270// 280// 20//
f 20// 280// 281//
f 20// 281// 282//
f 276// 283// 270//
f 270// 283// 284//
f 270// 284// 274//
f 274// 284// 285//
f 274// 285// 286//
f 282// 287// 20//
f 20// 287// 288//
f 20// 288// 18//
f 286// 289// 274//
f 274// 289// 290//
f 274// 290// 291//
f 291// 292// 274//
f 274// 292// 293//
f 274// 293// 294//
f 295// 296// 274//
f 274// 296// 297//
f 274// 297// 275//
f 273// 298// 271//
f 271// 298// 299//
f 271// 299// 300//
f 300// 299// 301//
f 294// 302// 274//
f 274// 302// 303//
f 274// 303// 295//
f 304// 11// 305//
f 305// 11// 10//
f 305// 10// 306//
f 306// 10// 307//
f 308// 309// 310//
f 310// 309// 311//
f 312// 313// 307//
f 307// 313// 314//
f 307// 314// 315//
f 311// 316// 310//
f 310// 316// 317//
f 310// 317// 307//
f 307// 317// 318//
f 307// 318// 312//
f 315// 319// 307//
f 307// 319// 320//
f 307// 320// 321//
f 322// 306// 323//
f 323// 306// 307//
f 323// 307// 324//
f 324// 307// 321//
f 15// 325// 326//
f 326// 327// 15//
f 15// 327// 328//
f 15// 328// 310//
f 310// 328// 329//
f 310// 329// 308//
f 15// 17// 325//
f 325// 17// 330//
f 325// 330// 267//
f 267// 330// 331//
f 267// 331// 265//
f 55// 52// 14//
f 14// 52// 51//
f 14// 51// 12//
f 12// 51// 139//
f 12// 139// 143//
f 57// 332// 40//
f 40// 332// 38//
f 40// 38// 39//
f 39// 38// 37//
f 247// 249// 267//
f 267// 249// 20//
f 267// 20// 325//
f 325// 20// 19//
f 325// 19// 326//
f 331// 13// 265//
f 265// 13// 12//
f 265// 12// 150//
f 150// 12// 125//
f 150// 125// 148//
f 148// 125// 153//
f 243// 333// 334//
f 333// 243// 335//
f 335// 243// 269//
f 335// 269// 336//
f 336// 269// 20//
f 336// 20// 334//
f 334// 20// 249//
f 334// 249// 243//
f 243// 249// 257//
f 243// 257// 245//
f 210// 163// 337//
f 337// 163// 195//
f 337// 195// 244//
f 244// 195// 338//
f 244// 338// 243//
f 243// 338// 11//
f 243// 11// 269//
f 269// 11// 304//
f 269// 304// 279//
f 332// 339// 38//
f 38// 339// 340//
f 38// 340// 36//
f 36// 340// 341//
f 36// 341// 34//
f 34// 341// 342//
f 34// 342// 69//
f 69// 342// 343//
f 9// 11// 344//
f 344// 11// 338//
f 344// 338// 345//
f 345// 338// 195//
f 345// 195// 346//
f 346// 195// 198//
f 346// 198// 347//
f 347// 198// 74//
f 347// 74// 348//
f 348// 74// 70//
f 348// 70// 349//
f 349// 70// 69//
f 349// 69// 350//
f 350// 69// 343//
f 350// 343// 351//
f 352// 353// 354//
f 354// 353// 355//
f 354// 355// 356//
f 355// 357// 356//
f 356// 357// 358//
f 356// 358// 359//
f 359// 358// 360//
f 352// 359// 353//
f 353// 359// 360//
f 353// 360// 361//
f 361// 360// 362//
f 361// 362// 357//
f 357// 362// 363//
f 357// 363// 358//
f 364// 365// 366//
f 366// 365// 367//
f 366// 367// 368//
f 369// 370// 371//
f 371// 370// 372//
f 371// 372// 373//
f 373// 372// 374//
f 373// 374// 375//
f 375// 374// 376//
f 377// 378// 379//
f 379// 378// 380//
f 379// 380// 381//
f 382// 383// 361//
f 361// 383// 353//
f 365// 364// 376//
f 384// 385// 386//
f 370// 369// 384//
f 387// 388// 389//
f 389// 388// 390//
f 391// 392// 365//
f 392// 393// 365//
f 365// 393// 394//
f 365// 394// 395//
f 395// 394// 396//
f 397// 380// 398//
f 398// 380// 399//
f 398// 399// 400//
f 397// 401// 380//
f 380// 401// 402//
f 380// 402// 403//
f 404// 405// 406//
f 407// 408// 364//
f 364// 408// 409//
f 364// 409// 410//
f 376// 411// 365//
f 365// 411// 412//
f 365// 412// 391//
f 413// 414// 381//
f 415// 416// 417//
f 404// 406// 418//
f 375// 376// 390//
f 390// 376// 364//
f 390// 364// 389//
f 389// 364// 410//
f 413// 381// 419//
f 420// 421// 415//
f 415// 421// 422//
f 415// 422// 416//
f 386// 419// 384//
f 384// 419// 381//
f 384// 381// 370//
f 370// 381// 380//
f 370// 380// 423//
f 423// 380// 403//
f 414// 424// 381//
f 381// 424// 425//
f 381// 425// 426//
f 426// 425// 415//
f 426// 415// 427//
f 427// 415// 417//
f 428// 357// 429//
f 429// 357// 355//
f 429// 355// 430//
f 407// 364// 406//
f 406// 364// 431//
f 406// 431// 418//
f 405// 432// 406//
f 406// 432// 433//
f 406// 433// 434//
f 430// 355// 415//
f 415// 355// 435//
f 415// 435// 420//
f 428// 436// 357//
f 357// 436// 406//
f 357// 406// 437//
f 437// 406// 434//
f 400// 438// 439//
f 378// 440// 380//
f 380// 440// 399//
f 399// 440// 400//
f 400// 440// 441//
f 400// 441// 438//
f 442// 402// 443//
f 443// 402// 401//
f 443// 401// 444//
f 444// 401// 397//
f 444// 397// 439//
f 439// 397// 398//
f 439// 398// 400//
f 372// 370// 445//
f 445// 370// 423//
f 445// 423// 442//
f 442// 423// 403//
f 442// 403// 402//
f 446// 339// 332//
f 446// 332// 447//
f 447// 332// 57//
f 447// 57// 14//
f 13// 331// 448//
f 14// 13// 447//
f 447// 13// 448//
f 447// 448// 449//
f 449// 448// 450//
f 449// 450// 451//
f 451// 450// 452//
f 451// 452// 453//
f 453// 452// 454//
f 453// 454// 455//
f 455// 454// 456//
f 455// 456// 457//
f 457// 456// 458//
f 457// 458// 459//
f 459// 458// 460//
f 459// 460// 461//
f 461// 460// 462//
f 461// 462// 463//
f 463// 462// 464//
f 463// 464// 465//
f 465// 464// 466//
f 465// 466// 372//
f 372// 466// 374//
f 331// 330// 448//
f 448// 330// 17//
f 448// 17// 467//
f 467// 17// 16//
f 376// 374// 411//
f 411// 374// 468//
f 411// 468// 412//
f 412// 468// 469//
f 412// 469// 391//
f 391// 469// 470//
f 391// 470// 392//
f 392// 470// 393//
f 393// 470// 471//
f 393// 471// 394//
f 471// 472// 394//
f 394// 472// 473//
f 394// 473// 396//
f 396// 473// 474//
f 396// 474// 395//
f 474// 475// 395//
f 395// 475// 367//
f 395// 367// 365//
f 417// 476// 427//
f 427// 476// 477//
f 427// 477// 426//
f 426// 477// 379//
f 426// 379// 381//
f 355// 353// 435//
f 435// 353// 478//
f 435// 478// 420//
f 420// 478// 479//
f 420// 479// 421//
f 421// 479// 480//
f 421// 480// 422//
f 422// 480// 481//
f 422// 481// 416//
f 416// 481// 482//
f 416// 482// 417//
f 417// 482// 483//
f 417// 483// 476//
f 484// 485// 486//
f 486// 485// 339//
f 487// 339// 485//
f 440// 488// 441//
f 441// 488// 489//
f 441// 489// 438//
f 438// 489// 439//
f 439// 489// 490//
f 439// 490// 444//
f 444// 490// 491//
f 444// 491// 443//
f 443// 491// 442//
f 442// 491// 492//
f 442// 492// 445//
f 445// 492// 465//
f 445// 465// 372//
f 339// 446// 493//
f 493// 446// 447//
f 494// 339// 493//
f 495// 496// 497//
f 497// 496// 494//
f 497// 494// 498//
f 498// 494// 493//
f 498// 493// 499//
f 499// 493// 447//
f 500// 501// 484//
f 484// 501// 502//
f 484// 502// 485//
f 485// 502// 503//
f 485// 503// 487//
f 504// 495// 505//
f 505// 495// 497//
f 505// 497// 506//
f 506// 497// 498//
f 506// 498// 507//
f 507// 498// 499//
f 507// 499// 508//
f 509// 510// 511//
f 511// 510// 512//
f 447// 449// 499//
f 499// 449// 451//
f 499// 451// 508//
f 508// 451// 453//
f 508// 453// 455//
f 512// 504// 511//
f 511// 504// 505//
f 511// 505// 513//
f 513// 505// 506//
f 513// 506// 514//
f 514// 506// 507//
f 514// 507// 515//
f 515// 507// 508//
f 515// 508// 516//
f 516// 508// 455//
f 517// 518// 519//
f 519// 518// 509//
f 509// 511// 519//
f 519// 511// 513//
f 519// 513// 520//
f 520// 513// 514//
f 520// 514// 521//
f 521// 514// 515//
f 521// 515// 522//
f 522// 515// 516//
f 522// 516// 523//
f 496// 339// 494//
f 512// 500// 504//
f 504// 500// 484//
f 504// 484// 495//
f 495// 484// 486//
f 495// 486// 496//
f 496// 486// 339//
f 517// 488// 524//
f 524// 488// 440//
f 524// 440// 378//
f 455// 457// 516//
f 516// 457// 459//
f 516// 459// 523//
f 523// 459// 461//
f 523// 461// 463//
f 517// 519// 488//
f 488// 519// 520//
f 488// 520// 489//
f 489// 520// 521//
f 489// 521// 490//
f 490// 521// 522//
f 490// 522// 491//
f 491// 522// 523//
f 491// 523// 492//
f 492// 523// 463//
f 492// 463// 465//
f 525// 526// 527//
f 527// 526// 16//
f 468// 528// 469//
f 469// 528// 529//
f 469// 529// 470//
f 470// 529// 530//
f 470// 530// 471//
f 471// 530// 472//
f 472// 530// 531//
f 472// 531// 473//
f 473// 531// 532//
f 473// 532// 474//
f 474// 532// 475//
f 475// 532// 533//
f 475// 533// 367//
f 452// 450// 525//
f 525// 450// 448//
f 525// 448// 526//
f 526// 448// 467//
f 526// 467// 16//
f 16// 534// 535//
f 535// 534// 536//
f 537// 16// 535//
f 538// 539// 540//
f 540// 539// 537//
f 540// 537// 541//
f 541// 537// 535//
f 541// 535// 542//
f 542// 535// 536//
f 543// 538// 544//
f 544// 538// 540//
f 544// 540// 545//
f 545// 540// 541//
f 545// 541// 546//
f 546// 541// 542//
f 546// 542// 547//
f 460// 458// 548//
f 548// 458// 456//
f 536// 549// 542//
f 542// 549// 550//
f 542// 550// 547//
f 547// 550// 551//
f 547// 551// 552//
f 552// 553// 547//
f 547// 553// 554//
f 547// 554// 546//
f 546// 554// 555//
f 546// 555// 545//
f 545// 555// 556//
f 545// 556// 544//
f 544// 556// 548//
f 544// 548// 543//
f 543// 548// 456//
f 543// 456// 454//
f 464// 462// 557//
f 557// 462// 460//
f 460// 548// 557//
f 557// 548// 556//
f 557// 556// 558//
f 558// 556// 555//
f 558// 555// 559//
f 559// 555// 554//
f 559// 554// 560//
f 560// 554// 553//
f 560// 553// 561//
f 539// 16// 537//
f 454// 452// 543//
f 543// 452// 525//
f 543// 525// 538//
f 538// 525// 527//
f 538// 527// 539//
f 539// 527// 16//
f 468// 374// 528//
f 528// 374// 466//
f 528// 466// 464//
f 552// 562// 553//
f 553// 562// 563//
f 553// 563// 561//
f 561// 563// 564//
f 561// 564// 565//
f 464// 557// 528//
f 528// 557// 558//
f 528// 558// 529//
f 529// 558// 559//
f 529// 559// 530//
f 530// 559// 560//
f 530// 560// 531//
f 531// 560// 561//
f 531// 561// 532//
f 532// 561// 565//
f 532// 565// 533//
f 361// 357// 566//
f 566// 357// 437//
f 566// 437// 567//
f 567// 437// 434//
f 567// 434// 568//
f 568// 434// 433//
f 568// 433// 569//
f 569// 433// 432//
f 569// 432// 570//
f 570// 432// 405//
f 570// 405// 571//
f 405// 404// 571//
f 571// 404// 418//
f 571// 418// 572//
f 572// 418// 431//
f 572// 431// 573//
f 573// 431// 364//
f 573// 364// 366//
f 353// 383// 478//
f 478// 383// 574//
f 478// 574// 479//
f 479// 574// 480//
f 480// 574// 575//
f 480// 575// 481//
f 481// 575// 482//
f 482// 575// 576//
f 482// 576// 483//
f 483// 576// 577//
f 483// 577// 476//
f 476// 577// 578//
f 476// 578// 477//
f 477// 578// 377//
f 477// 377// 379//
f 351// 343// 579//
f 579// 343// 342//
f 342// 341// 579//
f 579// 341// 340//
f 579// 340// 487//
f 487// 340// 339//
f 487// 503// 579//
f 579// 503// 502//
f 579// 502// 580//
f 502// 501// 580//
f 580// 501// 500//
f 580// 500// 581//
f 581// 500// 512//
f 581// 512// 582//
f 512// 510// 582//
f 582// 510// 509//
f 582// 509// 583//
f 509// 518// 583//
f 583// 518// 517//
f 583// 517// 377//
f 377// 517// 524//
f 377// 524// 378//
f 534// 16// 15//
f 534// 15// 536//
f 310// 307// 584//
f 584// 307// 10//
f 584// 10// 9//
f 15// 310// 536//
f 536// 310// 584//
f 536// 584// 549//
f 549// 584// 550//
f 550// 584// 585//
f 550// 585// 551//
f 551// 585// 552//
f 552// 585// 586//
f 552// 586// 562//
f 562// 586// 587//
f 562// 587// 563//
f 563// 587// 564//
f 564// 587// 588//
f 564// 588// 565//
f 565// 588// 533//
f 533// 588// 368//
f 533// 368// 367//
f 366// 368// 589//
f 366// 589// 573//
f 573// 589// 590//
f 573// 590// 572//
f 572// 590// 591//
f 572// 591// 571//
f 571// 591// 570//
f 570// 591// 592//
f 570// 592// 569//
f 569// 592// 568//
f 568// 592// 593//
f 568// 593// 567//
f 567// 593// 566//
f 566// 593// 382//
f 566// 382// 361//
f 383// 594// 595//
f 596// 597// 598//
f 351// 579// 599//
f 598// 597// 351//
f 600// 351// 597//
f 600// 597// 601//
f 601// 597// 596//
f 601// 596// 602//
f 603// 351// 600//
f 604// 605// 606//
f 606// 605// 599//
f 606// 599// 607//
f 607// 599// 579//
f 607// 579// 580//
f 603// 600// 608//
f 608// 600// 601//
f 608// 601// 609//
f 609// 601// 602//
f 609// 602// 610//
f 611// 604// 612//
f 612// 604// 606//
f 612// 606// 613//
f 613// 606// 607//
f 613// 607// 614//
f 614// 607// 580//
f 614// 580// 581//
f 615// 611// 616//
f 616// 611// 612//
f 616// 612// 617//
f 617// 612// 613//
f 617// 613// 618//
f 618// 613// 614//
f 618// 614// 619//
f 619// 614// 581//
f 619// 581// 582//
f 594// 615// 595//
f 595// 615// 616//
f 595// 616// 620//
f 620// 616// 617//
f 620// 617// 621//
f 621// 617// 618//
f 621// 618// 622//
f 622// 618// 619//
f 622// 619// 623//
f 623// 619// 582//
f 623// 582// 583//
f 383// 595// 574//
f 574// 595// 620//
f 574// 620// 575//
f 575// 620// 621//
f 575// 621// 576//
f 576// 621// 622//
f 576// 622// 577//
f 577// 622// 623//
f 577// 623// 578//
f 578// 623// 583//
f 578// 583// 377//
f 605// 351// 599//
f 594// 610// 615//
f 615// 610// 602//
f 615// 602// 611//
f 611// 602// 596//
f 611// 596// 604//
f 604// 596// 598//
f 604// 598// 605//
f 605// 598// 351//
f 368// 588// 624//
f 625// 626// 627//
f 9// 628// 629//
f 627// 626// 9//
f 630// 9// 626//
f 630// 626// 631//
f 631// 626// 625//
f 631// 625// 632//
f 584// 9// 630//
f 633// 634// 635//
f 635// 634// 629//
f 635// 629// 636//
f 636// 629// 628//
f 636// 628// 637//
f 584// 630// 585//
f 585// 630// 631//
f 585// 631// 586//
f 586// 631// 632//
f 586// 632// 587//
f 638// 633// 639//
f 639// 633// 635//
f 639// 635// 640//
f 640// 635// 636//
f 640// 636// 641//
f 641// 636// 637//
f 641// 637// 642//
f 643// 638// 644//
f 644// 638// 639//
f 644// 639// 645//
f 645// 639// 640//
f 645// 640// 646//
f 646// 640// 641//
f 646// 641// 647//
f 647// 641// 642//
f 647// 642// 648//
f 588// 643// 624//
f 624// 643// 644//
f 624// 644// 649//
f 649// 644// 645//
f 649// 645// 650//
f 650// 645// 646//
f 650// 646// 651//
f 651// 646// 647//
f 651// 647// 652//
f 652// 647// 648//
f 652// 648// 653//
f 368// 624// 589//
f 589// 624// 649//
f 589// 649// 590//
f 590// 649// 650//
f 590// 650// 591//
f 591// 650// 651//
f 591// 651// 592//
f 592// 651// 652//
f 592// 652// 593//
f 593// 652// 653//
f 593// 653// 382//
f 634// 9// 629//
f 588// 587// 643//
f 643// 587// 632//
f 643// 632// 638//
f 638// 632// 625//
f 638// 625// 633//
f 633// 625// 627//
f 633// 627// 634//
f 634// 627// 9//
f 9// 344// 628//
f 628// 344// 345//
f 345// 346// 628//
f 628// 346// 347//
f 628// 347// 348//
f 348// 349// 603//
f 603// 349// 350//
f 603// 350// 351//
f 348// 603// 628//
f 628// 603// 608//
f 628// 608// 637//
f 637// 608// 609//
f 637// 609// 642//
f 642// 609// 610//
f 642// 610// 648//
f 648// 610// 594//
f 648// 594// 653//
f 653// 594// 383//
f 653// 383// 382//
f 371// 373// 654//
f 654// 373// 655//
f 656// 371// 657//
f 657// 371// 654//
f 657// 654// 658//
f 658// 654// 659//
f 658// 659// 660//
f 660// 659// 661//
f 659// 662// 661//
f 661// 662// 663//
f 661// 663// 664//
f 664// 663// 665//
f 666// 667// 668//
f 668// 667// 660//
f 669// 658// 670//
f 670// 658// 660//
f 670// 660// 671//
f 671// 660// 667//
f 665// 672// 673//
f 673// 674// 665//
f 665// 674// 675//
f 665// 675// 664//
f 655// 373// 390//
f 390// 373// 375//
f 384// 369// 656//
f 656// 369// 371//
f 656// 657// 384//
f 384// 657// 385//
f 657// 658// 385//
f 385// 658// 386//
f 658// 669// 386//
f 386// 669// 419//
f 669// 670// 419//
f 419// 670// 413//
f 661// 429// 660//
f 660// 429// 430//
f 660// 430// 668//
f 668// 430// 415//
f 668// 415// 666//
f 666// 415// 425//
f 666// 425// 667//
f 667// 425// 424//
f 667// 424// 671//
f 671// 424// 414//
f 671// 414// 670//
f 670// 414// 413//
f 661// 664// 429//
f 429// 664// 428//
f 663// 410// 665//
f 665// 410// 409//
f 665// 409// 672//
f 672// 409// 408//
f 672// 408// 673//
f 673// 408// 407//
f 673// 407// 674//
f 674// 407// 406//
f 674// 406// 675//
f 675// 406// 436//
f 675// 436// 664//
f 664// 436// 428//
f 663// 662// 410//
f 410// 662// 389//
f 662// 659// 389//
f 389// 659// 387//
f 659// 654// 387//
f 387// 654// 388//
f 654// 655// 388//
f 388// 655// 390//
usemtl 1
f 676// 677// 678//
f 678// 677// 679//
f 680// 676// 681//
f 681// 676// 678//
f 682// 680// 683//
f 683// 680// 681//
f 677// 682// 679//
f 679// 682// 683//
f 684// 685// 686//
f 686// 685// 687//
f 686// 687// 688//
f 688// 687// 689//
f 688// 689// 690//
f 690// 689// 691//
f 690// 691// 679//
f 679// 691// 678//
f 685// 692// 687//
f 687// 692// 693//
f 687// 693// 689//
f 689// 693// 694//
f 689// 694// 691//
f 691// 694// 695//
f 691// 695// 678//
f 678// 695// 681//
f 683// 681// 695//
f 683// 695// 696//
f 696// 695// 694//
f 696// 694// 697//
f 697// 694// 693//
f 697// 693// 698//
f 698// 693// 692//
f 698// 692// 699//
f 679// 683// 690//
f 690// 683// 696//
f 690// 696// 688//
f 688// 696// 697//
f 688// 697// 686//
f 686// 697// 698//
f 686// 698// 684//
f 684// 698// 699//
f 685// 684// 700//
f 700// 684// 701//
f 692// 685// 702//
f 702// 685// 700//
f 699// 692// 703//
f 703// 692// 702//
f 684// 699// 701//
f 701// 699// 703//
f 700// 701// 704//
f 700// 704// 705//
f 705// 704// 706//
f 705// 706// 707//
f 707// 706// 708//
f 707// 708// 709//
f 709// 708// 710//
f 709// 710// 711//
f 702// 700// 712//
f 712// 700// 705//
f 712// 705// 713//
f 713// 705// 707//
f 713// 707// 714//
f 714// 707// 709//
f 714// 709// 715//
f 715// 709// 711//
f 715// 716// 714//
f 714// 716// 717//
f 714// 717// 713//
f 713// 717// 718//
f 713// 718// 712//
f 712// 718// 719//
f 712// 719// 702//
f 702// 719// 703//
f 716// 710// 717//
f 717// 710// 708//
f 717// 708// 718//
f 718// 708// 706//
f 718// 706// 719//
f 719// 706// 704//
f 719// 704// 703//
f 703// 704// 701//
f 710// 716// 362//
f 362// 716// 363//
f 711// 710// 360//
f 360// 710// 362//
f 715// 711// 358//
f 358// 711// 360//
f 716// 715// 363//
f 363// 715// 358//
f 676// 680// 677//
f 677// 680// 682//
f 720// 721// 722//
f 722// 721// 723//
f 724// 720// 725//
f 725// 720// 722//
f 726// 724// 727//
f 727// 724// 725//
f 721// 726// 723//
f 723// 726// 727//
f 728// 729// 730//
f 730// 729// 731//
f 730// 731// 732//
f 732// 731// 733//
f 732// 733// 734//
f 734// 733// 735//
f 734// 735// 723//
f 723// 735// 722//
f 729// 736// 731//
f 731// 736// 737//
f 731// 737// 733//
f 733// 737// 738//
f 733// 738// 735//
f 735// 738// 739//
f 735// 739// 722//
f 722// 739// 725//
f 727// 725// 739//
f 727// 739// 740//
f 740// 739// 738//
f 740// 738// 741//
f 741// 738// 737//
f 741// 737// 742//
f 742// 737// 736//
f 742// 736// 743//
f 723// 727// 734//
f 734// 727// 740//
f 734// 740// 732//
f 732// 740// 741//
f 732// 741// 730//
f 730// 741// 742//
f 730// 742// 728//
f 728// 742// 743//
f 729// 728// 744//
f 744// 728// 745//
f 736// 729// 746//
f 746// 729// 744//
f 743// 736// 747//
f 747// 736// 746//
f 728// 743// 745//
f 745// 743// 747//
f 744// 745// 748//
f 744// 748// 749//
f 749// 748// 750//
f 749// 750// 751//
f 751// 750// 752//
f 751// 752// 753//
f 753// 752// 754//
f 753// 754// 755//
f 746// 744// 756//
f 756// 744// 749//
f 756// 749// 757//
f 757// 749// 751//
f 757// 751// 758//
f 758// 751// 753//
f 758// 753// 759//
f 759// 753// 755//
f 759// 760// 758//
f 758// 760// 761//
f 758// 761// 757//
f 757// 761// 762//
f 757// 762// 756//
f 756// 762// 763//
f 756// 763// 746//
f 746// 763// 747//
f 760// 754// 761//
f 761// 754// 752//
f 761// 752// 762//
f 762// 752// 750//
f 762// 750// 763//
f 763// 750// 748//
f 763// 748// 747//
f 747// 748// 745//
f 754// 760// 359//
f 359// 760// 356//
f 755// 754// 352//
f 352// 754// 359//
f 759// 755// 354//
f 354// 755// 352//
f 760// 759// 356//
f 356// 759// 354//
f 720// 724// 721//
f 721// 724// 726//
usemtl 3
f 35// 764// 37//
f 37// 764// 765//
f 37// 765// 39//
f 765// 766// 39//
f 39// 766// 27//
f 767// 24// 766//
f 766// 24// 28//
f 766// 28// 27//
f 767// 768// 24//
f 24// 768// 25//
f 25// 768// 26//
f 26// 768// 769//
f 26// 769// 31//
f 769// 770// 31//
f 31// 770// 68//
f 68// 770// 32//
f 32// 770// 771//
f 32// 771// 33//
f 771// 764// 33//
f 33// 764// 35//
f 766// 765// 771//
f 771// 765// 764//
f 767// 766// 768//
f 768// 766// 771//
f 768// 771// 769//
f 769// 771// 770//
f 772// 773// 774//
f 774// 773// 775//
f 774// 776// 772//
f 772// 776// 777//
f 772// 777// 778//
f 778// 777// 779//
f 778// 779// 780//
f 780// 779// 781//
f 780// 781// 782//
f 782// 781// 783//
f 784// 785// 786//
f 786// 785// 787//
f 786// 787// 788//
f 788// 787// 789//
f 788// 789// 790//
f 790// 789// 791//
f 790// 791// 792//
f 792// 791// 793//
f 792// 793// 794//
f 794// 793// 795//
f 794// 795// 796//
f 796// 795// 797//
f 796// 797// 798//
f 798// 797// 799//
f 798// 799// 800//
f 800// 799// 775//
f 800// 775// 801//
f 801// 775// 773//
f 781// 802// 783//
f 783// 802// 803//
f 783// 803// 804//
f 804// 803// 805//
f 804// 805// 806//
f 806// 805// 807//
f 806// 807// 808//
f 808// 807// 809//
f 808// 809// 810//
f 810// 809// 811//
f 810// 811// 812//
f 812// 811// 813//
f 811// 814// 813//
f 813// 814// 815//
f 813// 815// 816//
f 816// 815// 817//
f 816// 817// 818//
f 818// 817// 819//
f 818// 819// 820//
f 820// 819// 821//
f 820// 821// 822//
f 822// 821// 823//
f 822// 823// 824//
f 824// 823// 825//
f 824// 825// 826//
f 826// 825// 827//
f 826// 827// 784//
f 784// 827// 828//
f 784// 828// 785//
f 795// 77// 76//
f 795// 76// 797//
f 76// 75// 797//
f 797// 75// 45//
f 797// 45// 799//
f 799// 45// 44//
f 799// 44// 775//
f 787// 82// 81//
f 787// 81// 789//
f 789// 81// 73//
f 789// 73// 791//
f 791// 73// 72//
f 791// 72// 793//
f 793// 72// 77//
f 793// 77// 795//
f 823// 71// 80//
f 823// 80// 825//
f 825// 80// 79//
f 825// 79// 827//
f 827// 79// 78//
f 827// 78// 828//
f 828// 78// 83//
f 828// 83// 785//
f 785// 83// 82//
f 785// 82// 787//
f 817// 66// 65//
f 817// 65// 819//
f 819// 65// 64//
f 819// 64// 821//
f 821// 64// 823//
f 823// 64// 63//
f 823// 63// 71//
f 809// 62// 61//
f 809// 61// 811//
f 811// 61// 60//
f 811// 60// 814//
f 814// 60// 67//
f 814// 67// 815//
f 815// 67// 66//
f 815// 66// 817//
f 803// 56// 805//
f 805// 56// 58//
f 62// 809// 53//
f 53// 809// 807//
f 53// 807// 54//
f 54// 807// 805//
f 54// 805// 59//
f 59// 805// 58//
f 56// 803// 802//
f 777// 47// 43//
f 777// 43// 779//
f 779// 43// 42//
f 779// 42// 781//
f 42// 50// 781//
f 781// 50// 52//
f 781// 52// 802//
f 802// 52// 55//
f 802// 55// 56//
f 775// 44// 49//
f 775// 49// 774//
f 774// 49// 48//
f 774// 48// 776//
f 776// 48// 47//
f 776// 47// 777//
f 783// 829// 830//
f 783// 830// 782//
f 782// 830// 831//
f 782// 831// 780//
f 780// 831// 832//
f 780// 832// 778//
f 778// 832// 833//
f 778// 833// 772//
f 772// 833// 834//
f 772// 834// 773//
f 773// 834// 835//
f 773// 835// 801//
f 801// 835// 836//
f 801// 836// 800//
f 800// 836// 837//
f 800// 837// 798//
f 798// 837// 838//
f 798// 838// 796//
f 796// 838// 839//
f 796// 839// 794//
f 794// 839// 840//
f 794// 840// 792//
f 792// 840// 841//
f 792// 841// 790//
f 790// 841// 842//
f 790// 842// 788//
f 788// 842// 843//
f 788// 843// 786//
f 786// 843// 844//
f 786// 844// 784//
f 784// 844// 845//
f 784// 845// 826//
f 826// 845// 846//
f 826// 846// 824//
f 824// 846// 847//
f 824// 847// 822//
f 822// 847// 848//
f 822// 848// 820//
f 820// 848// 849//
f 820// 849// 818//
f 818// 849// 850//
f 818// 850// 816//
f 816// 850// 851//
f 816// 851// 813//
f 813// 851// 852//
f 813// 852// 812//
f 812// 852// 853//
f 812// 853// 810//
f 810// 853// 854//
f 810// 854// 808//
f 808// 854// 855//
f 808// 855// 806//
f 806// 855// 856//
f 806// 856// 804//
f 804// 856// 829//
f 804// 829// 783//
usemtl 2
f 852// 851// 835//
f 838// 837// 849//
f 842// 849// 843//
f 843// 849// 844//
f 838// 849// 839//
f 851// 850// 835//
f 835// 850// 849//
f 835// 849// 836//
f 836// 849// 837//
f 831// 830// 835//
f 830// 829// 835//
f 835// 829// 856//
f 835// 856// 855//
f 849// 848// 844//
f 844// 848// 847//
f 844// 847// 845//
f 845// 847// 846//
f 842// 841// 849//
f 849// 841// 840//
f 849// 840// 839//
f 831// 835// 832//
f 832// 835// 834//
f 832// 834// 833//
f 855// 854// 835//
f 835// 854// 853//
f 835// 853// 852//
usemtl 3
f 857// 858// 93//
f 93// 858// 86//
f 859// 100// 85//
f 859// 85// 860//
f 860// 85// 84//
f 860// 84// 861//
f 861// 84// 86//
f 861// 86// 858//
f 139// 140// 862//
f 862// 140// 863//
f 140// 141// 863//
f 863// 141// 102//
f 863// 102// 864//
f 864// 102// 101//
f 864// 101// 865//
f 865// 101// 100//
f 865// 100// 859//
f 127// 866// 126//
f 126// 866// 867//
f 126// 867// 124//
f 124// 867// 868//
f 124// 868// 131//
f 131// 868// 869//
f 131// 869// 132//
f 132// 869// 870//
f 132// 870// 133//
f 142// 871// 127//
f 127// 871// 872//
f 127// 872// 866//
f 142// 143// 871//
f 871// 143// 139//
f 871// 139// 862//
f 873// 130// 129//
f 873// 129// 874//
f 874// 129// 128//
f 874// 128// 875//
f 875// 128// 123//
f 875// 123// 876//
f 876// 123// 122//
f 876// 122// 877//
f 877// 122// 133//
f 877// 133// 870//
f 873// 878// 130//
f 130// 878// 134//
f 879// 118// 880//
f 880// 118// 138//
f 138// 137// 880//
f 880// 137// 136//
f 880// 136// 881//
f 881// 136// 135//
f 881// 135// 882//
f 882// 135// 134//
f 882// 134// 878//
f 879// 883// 118//
f 118// 883// 119//
f 883// 884// 119//
f 119// 884// 121//
f 884// 885// 121//
f 121// 885// 203//
f 203// 885// 886//
f 887// 97// 96//
f 887// 96// 888//
f 888// 96// 95//
f 888// 95// 889//
f 889// 95// 89//
f 889// 89// 890//
f 890// 89// 88//
f 890// 88// 886//
f 886// 88// 87//
f 886// 87// 203//
f 887// 891// 97//
f 97// 891// 98//
f 892// 103// 99//
f 892// 99// 893//
f 893// 99// 98//
f 893// 98// 891//
f 894// 106// 105//
f 894// 105// 895//
f 895// 105// 104//
f 895// 104// 896//
f 896// 104// 103//
f 896// 103// 892//
f 897// 94// 111//
f 897// 111// 898//
f 898// 111// 110//
f 898// 110// 899//
f 899// 110// 109//
f 899// 109// 900//
f 900// 109// 117//
f 900// 117// 901//
f 901// 117// 116//
f 901// 116// 902//
f 902// 116// 108//
f 902// 108// 903//
f 903// 108// 107//
f 903// 107// 904//
f 904// 107// 106//
f 904// 106// 894//
f 857// 93// 91//
f 857// 91// 905//
f 905// 91// 90//
f 905// 90// 906//
f 906// 90// 114//
f 906// 114// 907//
f 907// 114// 115//
f 907// 115// 908//
f 908// 115// 113//
f 908// 113// 909//
f 909// 113// 112//
f 909// 112// 910//
f 910// 112// 92//
f 910// 92// 911//
f 911// 92// 94//
f 911// 94// 897//
f 884// 883// 885//
f 885// 883// 879//
f 870// 894// 877//
f 877// 894// 895//
f 877// 895// 876//
f 876// 895// 896//
f 876// 896// 875//
f 875// 896// 892//
f 875// 892// 874//
f 874// 892// 893//
f 874// 893// 873//
f 873// 893// 891//
f 873// 891// 878//
f 878// 891// 887//
f 878// 887// 882//
f 882// 887// 888//
f 882// 888// 881//
f 881// 888// 889//
f 881// 889// 880//
f 880// 889// 890//
f 880// 890// 879//
f 879// 890// 886//
f 879// 886// 885//
f 858// 857// 861//
f 861// 857// 905//
f 861// 905// 860//
f 860// 905// 906//
f 860// 906// 859//
f 859// 906// 907//
f 859// 907// 865//
f 865// 907// 908//
f 865// 908// 864//
f 864// 908// 909//
f 864// 909// 863//
f 863// 909// 910//
f 863// 910// 862//
f 910// 911// 862//
f 862// 911// 897//
f 862// 897// 871//
f 871// 897// 898//
f 871// 898// 872//
f 872// 898// 899//
f 872// 899// 866//
f 866// 899// 900//
f 866// 900// 867//
f 867// 900// 901//
f 867// 901// 868//
f 868// 901// 902//
f 868// 902// 869//
f 869// 902// 903//
f 869// 903// 870//
f 870// 903// 904//
f 870// 904// 894//
f 912// 913// 166//
f 166// 913// 167//
f 914// 183// 182//
f 914// 182// 915//
f 915// 182// 168//
f 915// 168// 916//
f 916// 168// 167//
f 916// 167// 913//
f 917// 181// 180//
f 917// 180// 918//
f 918// 180// 179//
f 918// 179// 919//
f 919// 179// 155//
f 919// 155// 920//
f 920// 155// 154//
f 920// 154// 921//
f 921// 154// 176//
f 921// 176// 922//
f 922// 176// 184//
f 922// 184// 923//
f 923// 184// 183//
f 923// 183// 914//
f 924// 202// 201//
f 924// 201// 925//
f 925// 201// 200//
f 925// 200// 926//
f 200// 162// 926//
f 926// 162// 161//
f 926// 161// 927//
f 927// 161// 181//
f 927// 181// 917//
f 928// 205// 204//
f 928// 204// 929//
f 929// 204// 194//
f 929// 194// 930//
f 930// 194// 193//
f 930// 193// 931//
f 931// 193// 202//
f 931// 202// 924//
f 932// 147// 146//
f 932// 146// 933//
f 933// 146// 145//
f 933// 145// 934//
f 145// 144// 934//
f 934// 144// 199//
f 934// 199// 935//
f 935// 199// 197//
f 935// 197// 936//
f 936// 197// 196//
f 936// 196// 937//
f 937// 196// 206//
f 937// 206// 938//
f 938// 206// 205//
f 938// 205// 928//
f 932// 939// 147//
f 147// 939// 151//
f 940// 186// 187//
f 940// 187// 941//
f 941// 187// 188//
f 941// 188// 942//
f 942// 188// 190//
f 942// 190// 943//
f 943// 190// 189//
f 943// 189// 944//
f 944// 189// 23//
f 944// 23// 945//
f 23// 173// 945//
f 945// 173// 157//
f 945// 157// 946//
f 946// 157// 151//
f 946// 151// 939//
f 947// 169// 175//
f 947// 175// 948//
f 948// 175// 174//
f 948// 174// 949//
f 949// 174// 22//
f 949// 22// 950//
f 22// 21// 950//
f 950// 21// 192//
f 950// 192// 951//
f 951// 192// 191//
f 951// 191// 952//
f 952// 191// 185//
f 952// 185// 953//
f 953// 185// 186//
f 953// 186// 940//
f 954// 159// 158//
f 954// 158// 955//
f 955// 158// 178//
f 955// 178// 956//
f 956// 178// 177//
f 956// 177// 957//
f 957// 177// 172//
f 957// 172// 958//
f 958// 172// 171//
f 958// 171// 959//
f 959// 171// 170//
f 959// 170// 960//
f 960// 170// 169//
f 960// 169// 947//
f 961// 152// 165//
f 961// 165// 962//
f 962// 165// 164//
f 962// 164// 963//
f 963// 164// 160//
f 963// 160// 964//
f 964// 160// 159//
f 964// 159// 954//
f 961// 965// 152//
f 152// 965// 153//
f 965// 966// 153//
f 153// 966// 148//
f 966// 967// 148//
f 148// 967// 149//
f 967// 968// 149//
f 149// 968// 156//
f 968// 912// 156//
f 156// 912// 166//
f 968// 967// 912//
f 912// 967// 966//
f 912// 966// 913//
f 913// 966// 965//
f 929// 930// 951//
f 951// 930// 931//
f 951// 931// 950//
f 950// 931// 924//
f 950// 924// 949//
f 949// 924// 925//
f 949// 925// 948//
f 939// 932// 946//
f 946// 932// 933//
f 946// 933// 945//
f 945// 933// 934//
f 945// 934// 944//
f 944// 934// 935//
f 944// 935// 943//
f 943// 935// 936//
f 943// 936// 942//
f 942// 936// 937//
f 942// 937// 941//
f 941// 937// 938//
f 941// 938// 940//
f 940// 938// 928//
f 940// 928// 953//
f 953// 928// 929//
f 953// 929// 952//
f 952// 929// 951//
f 965// 961// 913//
f 913// 961// 962//
f 913// 962// 916//
f 916// 962// 963//
f 916// 963// 915//
f 915// 963// 964//
f 915// 964// 914//
f 914// 964// 954//
f 914// 954// 923//
f 923// 954// 955//
f 923// 955// 922//
f 922// 955// 956//
f 922// 956// 921//
f 921// 956// 957//
f 921// 957// 920//
f 920// 957// 958//
f 920// 958// 919//
f 919// 958// 959//
f 919// 959// 918//
f 918// 959// 960//
f 918// 960// 917//
f 917// 960// 947//
f 917// 947// 927//
f 927// 947// 948//
f 927// 948// 926//
f 926// 948// 925//
f 969// 970// 216//
f 216// 970// 209//
f 971// 223// 208//
f 971// 208// 972//
f 972// 208// 207//
f 972// 207// 973//
f 973// 207// 209//
f 973// 209// 970//
f 266// 264// 974//
f 974// 264// 975//
f 264// 263// 975//
f 975// 263// 225//
f 975// 225// 976//
f 976// 225// 224//
f 976// 224// 977//
f 977// 224// 223//
f 977// 223// 971//
f 248// 978// 250//
f 250// 978// 979//
f 250// 979// 251//
f 251// 979// 980//
f 251// 980// 255//
f 255// 980// 981//
f 255// 981// 256//
f 256// 981// 982//
f 256// 982// 257//
f 247// 983// 248//
f 248// 983// 984//
f 248// 984// 978//
f 247// 268// 983//
f 983// 268// 266//
f 983// 266// 974//
f 985// 254// 253//
f 985// 253// 986//
f 986// 253// 252//
f 986// 252// 987//
f 987// 252// 246//
f 987// 246// 988//
f 988// 246// 245//
f 988// 245// 989//
f 989// 245// 257//
f 989// 257// 982//
f 985// 990// 254//
f 254// 990// 258//
f 991// 241// 992//
f 992// 241// 262//
f 262// 261// 992//
f 992// 261// 260//
f 992// 260// 993//
f 993// 260// 259//
f 993// 259// 994//
f 994// 259// 258//
f 994// 258// 990//
f 991// 995// 241//
f 241// 995// 242//
f 995// 996// 242//
f 242// 996// 244//
f 996// 997// 244//
f 244// 997// 337//
f 337// 997// 998//
f 999// 220// 219//
f 999// 219// 1000//
f 1000// 219// 218//
f 1000// 218// 1001//
f 1001// 218// 212//
f 1001// 212// 1002//
f 1002// 212// 211//
f 1002// 211// 998//
f 998// 211// 210//
f 998// 210// 337//
f 999// 1003// 220//
f 220// 1003// 221//
f 1004// 226// 222//
f 1004// 222// 1005//
f 1005// 222// 221//
f 1005// 221// 1003//
f 1006// 229// 228//
f 1006// 228// 1007//
f 1007// 228// 227//
f 1007// 227// 1008//
f 1008// 227// 226//
f 1008// 226// 1004//
f 1009// 217// 234//
f 1009// 234// 1010//
f 1010// 234// 233//
f 1010// 233// 1011//
f 1011// 233// 232//
f 1011// 232// 1012//
f 1012// 232// 240//
f 1012// 240// 1013//
f 1013// 240// 239//
f 1013// 239// 1014//
f 1014// 239// 231//
f 1014// 231// 1015//
f 1015// 231// 230//
f 1015// 230// 1016//
f 1016// 230// 229//
f 1016// 229// 1006//
f 969// 216// 214//
f 969// 214// 1017//
f 1017// 214// 213//
f 1017// 213// 1018//
f 1018// 213// 237//
f 1018// 237// 1019//
f 1019// 237// 238//
f 1019// 238// 1020//
f 1020// 238// 236//
f 1020// 236// 1021//
f 1021// 236// 235//
f 1021// 235// 1022//
f 1022// 235// 215//
f 1022// 215// 1023//
f 1023// 215// 217//
f 1023// 217// 1009//
f 996// 995// 997//
f 997// 995// 991//
f 982// 1006// 989//
f 989// 1006// 1007//
f 989// 1007// 988//
f 988// 1007// 1008//
f 988// 1008// 987//
f 987// 1008// 1004//
f 987// 1004// 986//
f 986// 1004// 1005//
f 986// 1005// 985//
f 985// 1005// 1003//
f 985// 1003// 990//
f 990// 1003// 999//
f 990// 999// 994//
f 994// 999// 1000//
f 994// 1000// 993//
f 993// 1000// 1001//
f 993// 1001// 992//
f 992// 1001// 1002//
f 992// 1002// 991//
f 991// 1002// 998//
f 991// 998// 997//
f 970// 969// 973//
f 973// 969// 1017//
f 973// 1017// 972//
f 972// 1017// 1018//
f 972// 1018// 971//
f 971// 1018// 1019//
f 971// 1019// 977//
f 977// 1019// 1020//
f 977// 1020// 976//
f 976// 1020// 1021//
f 976// 1021// 975//
f 975// 1021// 1022//
f 975// 1022// 974//
f 1022// 1023// 974//
f 974// 1023// 1009//
f 974// 1009// 983//
f 983// 1009// 1010//
f 983// 1010// 984//
f 984// 1010// 1011//
f 984// 1011// 978//
f 978// 1011// 1012//
f 978// 1012// 979//
f 979// 1012// 1013//
f 979// 1013// 980//
f 980// 1013// 1014//
f 980// 1014// 981//
f 981// 1014// 1015//
f 981// 1015// 982//
f 982// 1015// 1016//
f 982// 1016// 1006//
f 1024// 1025// 335//
f 335// 1025// 333//
f 1025// 1026// 333//
f 333// 1026// 334//
f 1026// 1027// 334//
f 334// 1027// 336//
f 1027// 1024// 336//
f 336// 1024// 335//
f 1027// 1026// 1024//
f 1024// 1026// 1025//
f 1028// 1029// 274//
f 274// 1029// 270//
f 1030// 282// 281//
f 1030// 281// 1031//
f 1031// 281// 280//
f 1031// 280// 1032//
f 1032// 280// 270//
f 1032// 270// 1029//
f 326// 19// 1033//
f 1033// 19// 1034//
f 19// 18// 1034//
f 1034// 18// 288//
f 1034// 288// 1035//
f 1035// 288// 287//
f 1035// 287// 1036//
f 1036// 287// 282//
f 1036// 282// 1030//
f 329// 1037// 308//
f 308// 1037// 1038//
f 308// 1038// 309//
f 309// 1038// 1039//
f 309// 1039// 311//
f 311// 1039// 1040//
f 311// 1040// 316//
f 316// 1040// 1041//
f 316// 1041// 317//
f 328// 1042// 329//
f 329// 1042// 1043//
f 329// 1043// 1037//
f 328// 327// 1042//
f 1042// 327// 326//
f 1042// 326// 1033//
f 1044// 315// 314//
f 1044// 314// 1045//
f 1045// 314// 313//
f 1045// 313// 1046//
f 1046// 313// 312//
f 1046// 312// 1047//
f 1047// 312// 318//
f 1047// 318// 1048//
f 1048// 318// 317//
f 1048// 317// 1041//
f 1044// 1049// 315//
f 315// 1049// 319//
f 1050// 322// 1051//
f 1051// 322// 323//
f 323// 324// 1051//
f 1051// 324// 321//
f 1051// 321// 1052//
f 1052// 321// 320//
f 1052// 320// 1053//
f 1053// 320// 319//
f 1053// 319// 1049//
f 1050// 1054// 322//
f 322// 1054// 306//
f 1054// 1055// 306//
f 306// 1055// 305//
f 1055// 1056// 305//
f 305// 1056// 304//
f 304// 1056// 1057//
f 1058// 284// 283//
f 1058// 283// 1059//
f 1059// 283// 276//
f 1059// 276// 1060//
f 1060// 276// 277//
f 1060// 277// 1061//
f 1061// 277// 278//
f 1061// 278// 1057//
f 1057// 278// 279//
f 1057// 279// 304//
f 1058// 1062// 284//
f 284// 1062// 285//
f 1063// 289// 286//
f 1063// 286// 1064//
f 1064// 286// 285//
f 1064// 285// 1062//
f 1065// 292// 291//
f 1065// 291// 1066//
f 1066// 291// 290//
f 1066// 290// 1067//
f 1067// 290// 289//
f 1067// 289// 1063//
f 1068// 275// 297//
f 1068// 297// 1069//
f 1069// 297// 296//
f 1069// 296// 1070//
f 1070// 296// 295//
f 1070// 295// 1071//
f 1071// 295// 303//
f 1071// 303// 1072//
f 1072// 303// 302//
f 1072// 302// 1073//
f 1073// 302// 294//
f 1073// 294// 1074//
f 1074// 294// 293//
f 1074// 293// 1075//
f 1075// 293// 292//
f 1075// 292// 1065//
f 1028// 274// 272//
f 1028// 272// 1076//
f 1076// 272// 271//
f 1076// 271// 1077//
f 1077// 271// 300//
f 1077// 300// 1078//
f 1078// 300// 301//
f 1078// 301// 1079//
f 1079// 301// 299//
f 1079// 299// 1080//
f 1080// 299// 298//
f 1080// 298// 1081//
f 1081// 298// 273//
f 1081// 273// 1082//
f 1082// 273// 275//
f 1082// 275// 1068//
f 1055// 1054// 1056//
f 1056// 1054// 1050//
f 1041// 1065// 1048//
f 1048// 1065// 1066//
f 1048// 1066// 1047//
f 1047// 1066// 1067//
f 1047// 1067// 1046//
f 1046// 1067// 1063//
f 1046// 1063// 1045//
f 1045// 1063// 1064//
f 1045// 1064// 1044//
f 1044// 1064// 1062//
f 1044// 1062// 1049//
f 1049// 1062// 1058//
f 1049// 1058// 1053//
f 1053// 1058// 1059//
f 1053// 1059// 1052//
f 1052// 1059// 1060//
f 1052// 1060// 1051//
f 1051// 1060// 1061//
f 1051// 1061// 1050//
f 1050// 1061// 1057//
f 1050// 1057// 1056//
f 1029// 1028// 1032//
f 1032// 1028// 1076//
f 1032// 1076// 1031//
f 1031// 1076// 1077//
f 1031// 1077// 1030//
f 1030// 1077// 1078//
f 1030// 1078// 1036//
f 1036// 1078// 1079//
f 1036// 1079// 1035//
f 1035// 1079// 1080//
f 1035// 1080// 1034//
f 1034// 1080// 1081//
f 1034// 1081// 1033//
f 1081// 1082// 1033//
f 1033// 1082// 1068//
f 1033// 1068// 1042//
f 1042// 1068// 1069//
f 1042// 1069// 1043//
f 1043// 1069// 1070//
f 1043// 1070// 1037//
f 1037// 1070// 1071//
f 1037// 1071// 1038//
f 1038// 1071// 1072//
f 1038// 1072// 1039//
f 1039// 1072// 1073//
f 1039// 1073// 1040//
f 1040// 1073// 1074//
f 1040// 1074// 1041//
f 1041// 1074// 1075//
f 1041// 1075// 1065//
usemtl 1
f 413// 1083// 1084//
f 1085// 1086// 1084//
f 1087// 1088// 1089//
f 1090// 1091// 1086//
f 1086// 1091// 1092//
f 1086// 1092// 1093//
f 1094// 1095// 1096//
f 384// 1094// 385//
f 385// 1094// 1096//
f 385// 1096// 386//
f 386// 1096// 1097//
f 1098// 1099// 1100//
f 1100// 1099// 1101//
f 1100// 1101// 1102//
f 1103// 1084// 1104//
f 1104// 1084// 1086//
f 1104// 1086// 1105//
f 1105// 1086// 1093//
f 1102// 1106// 1100//
f 1100// 1106// 1107//
f 1100// 1107// 1108//
f 1089// 1085// 1087//
f 1087// 1085// 1084//
f 1087// 1084// 1109//
f 1109// 1084// 1083//
f 1109// 1083// 1110//
f 1110// 1083// 419//
f 1110// 419// 1100//
f 1100// 419// 386//
f 1100// 386// 1098//
f 1098// 386// 1097//
f 1108// 1111// 1100//
f 1100// 1111// 1112//
f 1100// 1112// 1086//
f 1086// 1112// 1113//
f 1086// 1113// 1090//
f 430// 415// 413//
f 415// 425// 413//
f 413// 425// 424//
f 413// 424// 414//
f 1114// 1115// 1116//
f 1116// 1115// 1117//
f 1116// 1117// 1118//
f 1119// 410// 428//
f 428// 410// 409//
f 428// 409// 408//
f 408// 407// 428//
f 428// 407// 406//
f 428// 406// 436//
f 1120// 1121// 1084//
f 1084// 1121// 1122//
f 1103// 1097// 1084//
f 1084// 1097// 1096//
f 1084// 1096// 1120//
f 1120// 1096// 1123//
f 1120// 1123// 1124//
f 1125// 1122// 1126//
f 1126// 1122// 1127//
f 1125// 1128// 1122//
f 1122// 1128// 1114//
f 1122// 1114// 1084//
f 1084// 1114// 1116//
f 1084// 1116// 413//
f 413// 1116// 429//
f 413// 429// 430//
f 1096// 1129// 388//
f 388// 1129// 1130//
f 388// 1130// 390//
f 1131// 1132// 1133//
f 1133// 1132// 1120//
f 1133// 1120// 1134//
f 1134// 1120// 1124//
f 1134// 1124// 1135//
f 1135// 1124// 1136//
f 1137// 1138// 1139//
f 1139// 1138// 1140//
f 1139// 1140// 1141//
f 1142// 1143// 1139//
f 1139// 1143// 1144//
f 1145// 1146// 1147//
f 1147// 1146// 1148//
f 1144// 1149// 1139//
f 1139// 1149// 1148//
f 1139// 1148// 1150//
f 1150// 1148// 1146//
f 1151// 1118// 1152//
f 1152// 1118// 1153//
f 1152// 1153// 1154//
f 1096// 388// 1123//
f 1123// 388// 387//
f 1123// 387// 1127//
f 1155// 1156// 1157//
f 1141// 1158// 1139//
f 1139// 1158// 1159//
f 1139// 1159// 1142//
f 1160// 1161// 387//
f 387// 1161// 1162//
f 387// 1162// 1127//
f 1127// 1162// 1163//
f 1127// 1163// 1126//
f 1126// 1163// 1164//
f 1126// 1164// 1139//
f 1139// 1164// 1165//
f 1139// 1165// 1137//
f 1154// 1166// 1152//
f 1152// 1166// 1167//
f 1152// 1167// 1168//
f 1168// 1167// 1169//
f 1168// 1169// 1170//
f 1156// 1171// 1157//
f 1157// 1171// 1172//
f 1157// 1172// 1173//
f 1173// 1160// 1157//
f 1157// 1160// 387//
f 1157// 387// 1174//
f 1174// 387// 389//
f 1174// 389// 1151//
f 1151// 389// 1119//
f 1151// 1119// 1118//
f 1118// 1119// 428//
f 1118// 428// 1116//
f 1169// 1175// 1170//
f 1170// 1175// 1176//
f 1170// 1176// 1157//
f 1157// 1176// 1177//
f 1157// 1177// 1155//
f 659// 654// 657//
f 655// 1178// 654//
f 654// 1178// 1179//
f 654// 1179// 657//
f 657// 1179// 1180//
f 657// 1180// 656//
f 656// 1180// 1181//
f 663// 662// 659//
f 669// 661// 658//
f 658// 661// 664//
f 658// 664// 675//
f 669// 670// 661//
f 661// 670// 671//
f 661// 671// 667//
f 674// 673// 672//
f 667// 666// 661//
f 661// 666// 668//
f 661// 668// 660//
f 657// 658// 659//
f 659// 658// 675//
f 659// 675// 663//
f 663// 675// 674//
f 663// 674// 665//
f 665// 674// 672//
f 385// 657// 384//
f 384// 657// 656//
f 386// 658// 385//
f 385// 658// 657//
f 419// 669// 386//
f 386// 669// 658//
f 669// 419// 670//
f 670// 419// 1083//
f 670// 1083// 413//
f 429// 661// 660//
f 429// 660// 430//
f 430// 660// 668//
f 430// 668// 415//
f 415// 668// 666//
f 415// 666// 425//
f 425// 666// 667//
f 425// 667// 424//
f 424// 667// 671//
f 424// 671// 414//
f 414// 671// 670//
f 414// 670// 413//
f 428// 664// 1116//
f 1116// 664// 661//
f 1116// 661// 429//
f 410// 663// 665//
f 410// 665// 409//
f 409// 665// 672//
f 409// 672// 408//
f 408// 672// 673//
f 408// 673// 407//
f 407// 673// 674//
f 407// 674// 406//
f 406// 674// 675//
f 406// 675// 436//
f 436// 675// 664//
f 436// 664// 428//
f 389// 662// 1119//
f 1119// 662// 663//
f 1119// 663// 410//
f 387// 659// 389//
f 389// 659// 662//
f 388// 654// 387//
f 387// 654// 659//
f 390// 655// 388//
f 388// 655// 654//
f 1130// 1178// 390//
f 390// 1178// 655//
f 1129// 1179// 1130//
f 1130// 1179// 1178//
f 1095// 1180// 1096//
f 1096// 1180// 1179//
f 1096// 1179// 1129//
f 1094// 1181// 1095//
f 1095// 1181// 1180//
f 384// 656// 1094//
f 1094// 656// 1181//
usemtl 2
f 1182// 1183// 1110//
f 1110// 1183// 1109//
f 1183// 1184// 1109//
f 1109// 1184// 1087//
f 1184// 1185// 1087//
f 1087// 1185// 1088//
f 1185// 1186// 1088//
f 1088// 1186// 1089//
f 1186// 1187// 1089//
f 1089// 1187// 1085//
f 1187// 1188// 1085//
f 1085// 1188// 1086//
usemtl 1
f 1188// 1189// 1086//
f 1086// 1189// 1100//
f 1189// 1182// 1100//
f 1100// 1182// 1110//
f 1190// 1186// 1191//
f 1191// 1186// 1185//
f 1192// 1189// 1190//
f 1190// 1189// 1188//
f 1190// 1188// 1186//
f 1186// 1188// 1187//
f 1192// 1193// 1189//
f 1189// 1193// 1194//
f 1189// 1194// 1182//
f 1182// 1194// 1195//
f 1182// 1195// 1196//
f 1196// 1197// 1182//
f 1182// 1197// 1191//
f 1182// 1191// 1183//
f 1183// 1191// 1185//
f 1183// 1185// 1184//
usemtl 2
f 1190// 1191// 1198//
f 1198// 1191// 1199//
f 1192// 1190// 1200//
f 1200// 1190// 1198//
usemtl 1
f 1192// 1200// 1201//
f 1192// 1201// 1193//
f 1193// 1201// 1202//
f 1193// 1202// 1194//
usemtl 2
f 1195// 1194// 1203//
f 1203// 1194// 1202//
f 1195// 1203// 1204//
f 1195// 1204// 1196//
f 1196// 1204// 1205//
f 1196// 1205// 1197//
usemtl 1
f 1191// 1197// 1199//
f 1199// 1197// 1205//
f 1206// 1207// 1104//
f 1104// 1207// 1103//
usemtl 2
f 1207// 1208// 1103//
f 1103// 1208// 1097//
usemtl 1
f 1208// 1209// 1097//
f 1097// 1209// 1098//
f 1210// 1112// 1111//
f 1210// 1111// 1211//
f 1211// 1111// 1108//
f 1211// 1108// 1212//
f 1212// 1108// 1107//
f 1212// 1107// 1213//
f 1213// 1107// 1106//
f 1213// 1106// 1214//
f 1214// 1106// 1102//
f 1214// 1102// 1215//
f 1215// 1102// 1101//
f 1215// 1101// 1216//
f 1216// 1101// 1099//
f 1216// 1099// 1217//
f 1217// 1099// 1098//
f 1217// 1098// 1209//
f 1206// 1104// 1105//
f 1206// 1105// 1218//
f 1218// 1105// 1093//
f 1218// 1093// 1219//
f 1219// 1093// 1092//
f 1219// 1092// 1220//
f 1220// 1092// 1091//
f 1220// 1091// 1221//
f 1221// 1091// 1090//
f 1221// 1090// 1222//
f 1222// 1090// 1113//
f 1222// 1113// 1223//
f 1223// 1113// 1112//
f 1223// 1112// 1210//
f 1212// 1213// 1224//
f 1224// 1213// 1214//
f 1224// 1214// 1225//
f 1225// 1214// 1215//
f 1225// 1215// 1226//
f 1226// 1215// 1216//
f 1226// 1216// 1227//
f 1227// 1216// 1217//
f 1227// 1217// 1228//
f 1228// 1217// 1209//
f 1228// 1209// 1229//
f 1229// 1209// 1208//
f 1229// 1208// 1230//
f 1230// 1208// 1207//
f 1230// 1207// 1231//
f 1231// 1207// 1206//
f 1231// 1206// 1232//
f 1232// 1206// 1218//
f 1232// 1218// 1233//
f 1233// 1218// 1219//
f 1233// 1219// 1234//
f 1234// 1219// 1220//
f 1234// 1220// 1235//
f 1235// 1220// 1221//
f 1235// 1221// 1236//
f 1236// 1221// 1222//
f 1236// 1222// 1237//
f 1237// 1222// 1223//
f 1237// 1223// 1238//
f 1238// 1223// 1210//
f 1238// 1210// 1239//
f 1239// 1210// 1211//
f 1239// 1211// 1240//
f 1240// 1211// 1212//
f 1240// 1212// 1224//
f 1228// 1229// 1241//
f 1241// 1229// 1242//
f 1228// 1241// 1243//
f 1228// 1243// 1227//
f 1227// 1243// 1244//
f 1227// 1244// 1226//
f 1226// 1244// 1245//
f 1226// 1245// 1225//
f 1225// 1245// 1246//
f 1225// 1246// 1224//
f 1224// 1246// 1247//
f 1224// 1247// 1240//
f 1240// 1247// 1248//
f 1240// 1248// 1239//
f 1239// 1248// 1249//
f 1239// 1249// 1238//
f 1238// 1249// 1250//
f 1238// 1250// 1237//
f 1237// 1250// 1251//
f 1237// 1251// 1236//
f 1236// 1251// 1252//
f 1236// 1252// 1235//
f 1235// 1252// 1253//
f 1235// 1253// 1234//
f 1234// 1253// 1254//
f 1234// 1254// 1233//
f 1233// 1254// 1255//
f 1233// 1255// 1232//
f 1232// 1255// 1256//
f 1232// 1256// 1231//
f 1230// 1231// 1257//
f 1257// 1231// 1256//
f 1229// 1230// 1242//
f 1242// 1230// 1257//
usemtl 2
f 1258// 1259// 1120//
f 1120// 1259// 1121//
f 1259// 1260// 1121//
f 1121// 1260// 1122//
f 1260// 1261// 1122//
f 1122// 1261// 1127//
f 1261// 1262// 1127//
f 1127// 1262// 1123//
f 1262// 1263// 1123//
f 1123// 1263// 1124//
f 1263// 1264// 1124//
f 1124// 1264// 1136//
usemtl 1
f 1264// 1265// 1136//
f 1136// 1265// 1135//
f 1265// 1266// 1135//
f 1135// 1266// 1134//
f 1266// 1267// 1134//
f 1134// 1267// 1133//
usemtl 2
f 1267// 1268// 1133//
f 1133// 1268// 1131//
usemtl 3
f 1268// 1269// 1131//
f 1131// 1269// 1132//
f 1269// 1258// 1132//
f 1132// 1258// 1120//
f 1260// 1259// 1258//
f 1258// 1269// 1260//
f 1260// 1269// 1268//
f 1260// 1268// 1261//
f 1263// 1262// 1264//
f 1264// 1262// 1261//
f 1264// 1261// 1265//
f 1265// 1261// 1268//
f 1265// 1268// 1266//
f 1266// 1268// 1267//
f 1270// 1271// 1126//
f 1126// 1271// 1125//
f 1125// 1271// 1272//
f 1273// 1117// 1115//
f 1273// 1115// 1274//
f 1274// 1115// 1114//
f 1274// 1114// 1272//
f 1272// 1114// 1128//
f 1272// 1128// 1125//
f 1275// 1176// 1175//
f 1275// 1175// 1276//
f 1276// 1175// 1169//
f 1276// 1169// 1277//
f 1277// 1169// 1167//
f 1277// 1167// 1278//
f 1278// 1167// 1166//
f 1278// 1166// 1279//
f 1279// 1166// 1154//
f 1279// 1154// 1280//
f 1280// 1154// 1153//
f 1280// 1153// 1281//
f 1281// 1153// 1273//
f 1273// 1153// 1118//
f 1273// 1118// 1117//
f 1282// 1160// 1173//
f 1282// 1173// 1283//
f 1283// 1173// 1172//
f 1283// 1172// 1284//
f 1284// 1172// 1171//
f 1284// 1171// 1285//
f 1285// 1171// 1156//
f 1285// 1156// 1286//
f 1286// 1156// 1155//
f 1286// 1155// 1287//
f 1287// 1155// 1177//
f 1287// 1177// 1288//
f 1288// 1177// 1176//
f 1288// 1176// 1275//
f 1289// 1162// 1161//
f 1289// 1161// 1290//
f 1290// 1161// 1160//
f 1290// 1160// 1282//
f 1289// 1291// 1162//
f 1162// 1291// 1163//
f 1292// 1165// 1164//
f 1292// 1164// 1293//
f 1293// 1164// 1163//
f 1293// 1163// 1291//
f 1294// 1142// 1159//
f 1294// 1159// 1295//
f 1295// 1159// 1158//
f 1295// 1158// 1296//
f 1296// 1158// 1141//
f 1296// 1141// 1297//
f 1297// 1141// 1140//
f 1297// 1140// 1298//
f 1298// 1140// 1138//
f 1298// 1138// 1299//
f 1299// 1138// 1137//
f 1299// 1137// 1300//
f 1300// 1137// 1165//
f 1300// 1165// 1292//
f 1301// 1146// 1145//
f 1301// 1145// 1302//
f 1302// 1145// 1147//
f 1302// 1147// 1303//
f 1303// 1147// 1148//
f 1303// 1148// 1304//
f 1304// 1148// 1149//
f 1304// 1149// 1305//
f 1305// 1149// 1144//
f 1305// 1144// 1306//
f 1306// 1144// 1143//
f 1306// 1143// 1307//
f 1307// 1143// 1142//
f 1307// 1142// 1294//
f 1270// 1126// 1139//
f 1270// 1139// 1308//
f 1308// 1139// 1150//
f 1308// 1150// 1309//
f 1309// 1150// 1146//
f 1309// 1146// 1301//
f 1302// 1273// 1301//
f 1301// 1273// 1274//
f 1301// 1274// 1309//
f 1309// 1274// 1272//
f 1309// 1272// 1308//
f 1308// 1272// 1271//
f 1308// 1271// 1270//
f 1291// 1289// 1293//
f 1293// 1289// 1290//
f 1293// 1290// 1292//
f 1292// 1290// 1282//
f 1292// 1282// 1300//
f 1300// 1282// 1283//
f 1300// 1283// 1299//
f 1299// 1283// 1284//
f 1299// 1284// 1298//
f 1298// 1284// 1285//
f 1298// 1285// 1297//
f 1297// 1285// 1286//
f 1297// 1286// 1296//
f 1296// 1286// 1287//
f 1296// 1287// 1295//
f 1295// 1287// 1288//
f 1295// 1288// 1294//
f 1294// 1288// 1275//
f 1294// 1275// 1307//
f 1307// 1275// 1276//
f 1307// 1276// 1306//
f 1306// 1276// 1277//
f 1306// 1277// 1305//
f 1305// 1277// 1278//
f 1305// 1278// 1304//
f 1304// 1278// 1279//
f 1304// 1279// 1303//
f 1303// 1279// 1280//
f 1303// 1280// 1302//
f 1302// 1280// 1281//
f 1302// 1281// 1273//
f 1310// 1311// 1168//
f 1168// 1311// 1152//
f 1311// 1312// 1152//
f 1152// 1312// 1151//
usemtl 2
f 1312// 1313// 1151//
f 1151// 1313// 1174//
usemtl 3
f 1313// 1314// 1174//
f 1174// 1314// 1157//
f 1314// 1315// 1157//
f 1157// 1315// 1170//
f 1315// 1310// 1170//
f 1170// 1310// 1168//
f 1314// 1313// 1315//
f 1315// 1313// 1312//
f 1315// 1312// 1310//
f 1310// 1312// 1311//
usemtl 1
f 1198// 1199// 1200//
f 1200// 1199// 1205//
f 1200// 1205// 1201//
f 1201// 1205// 1204//
f 1201// 1204// 1202//
f 1202// 1204// 1203//
f 1242// 1257// 1241//
f 1241// 1257// 1256//
f 1241// 1256// 1255//
f 1249// 1248// 1241//
f 1241// 1248// 1247//
f 1241// 1247// 1243//
f 1255// 1254// 1241//
f 1241// 1254// 1253//
f 1241// 1253// 1252//
f 1252// 1251// 1241//
f 1241// 1251// 1250//
f 1241// 1250// 1249//
f 1246// 1245// 1247//
f 1247// 1245// 1244//
f 1247// 1244// 1243//
